<svg width="600px" height="100px" viewBox="0 0 959 153" version="1.1" xmlns="http://www.w3.org/2000/svg" xmlns:xlink="http://www.w3.org/1999/xlink">
      <g id="triangles">
        <path d="M934,101 L939,113 L943,97 L934,101"></path>
        <path d="M16,29 L17,42 L31,41 L16,29"></path>
        <path d="M18,15 L16,29 L32,15 L18,15"></path>
        <path d="M32,15 L16,29 L36,31 L32,15"></path>
        <path d="M937,79 L934,101 L943,97 L937,79"></path>
        <path d="M16,29 L31,41 L36,31 L16,29"></path>
        <path d="M925,21 L925,30 L941,31 L925,21"></path>
        <path d="M36,31 L31,41 L43,41 L36,31"></path>
        <path d="M923,69 L927,80 L937,79 L923,69"></path>
        <path d="M45,103 L55,107 L60,95 L45,103"></path>
        <path d="M45,60 L55,64 L65,48 L45,60"></path>
        <path d="M49,15 L36,31 L54,26 L49,15"></path>
        <path d="M32,15 L36,31 L49,15 L32,15"></path>
        <path d="M36,31 L43,41 L54,26 L36,31"></path>
        <path d="M73,41 L65,48 L75,61 L73,41"></path>
        <path d="M45,60 L46,85 L55,64 L45,60"></path>
        <path d="M46,85 L60,95 L63,78 L46,85"></path>
        <path d="M55,64 L46,85 L63,78 L55,64"></path>
        <path d="M45,120 L45,136 L59,135 L45,120"></path>
        <path d="M45,103 L45,120 L55,107 L45,103"></path>
        <path d="M88,15 L102,28 L103,15 L88,15"></path>
        <path d="M49,15 L54,26 L68,15 L49,15"></path>
        <path d="M919,111 L929,116 L934,101 L919,111"></path>
        <path d="M68,15 L82,27 L88,15 L68,15"></path>
        <path d="M45,120 L59,135 L62,123 L45,120"></path>
        <path d="M46,85 L45,103 L60,95 L46,85"></path>
        <path d="M55,107 L45,120 L62,123 L55,107"></path>
        <path d="M43,41 L45,60 L65,48 L43,41"></path>
        <path d="M54,26 L43,41 L65,48 L54,26"></path>
        <path d="M68,15 L73,41 L82,27 L68,15"></path>
        <path d="M55,107 L62,123 L72,105 L55,107"></path>
        <path d="M60,95 L55,107 L72,105 L60,95"></path>
        <path d="M114,99 L123,109 L131,88 L114,99"></path>
        <path d="M68,15 L54,26 L73,41 L68,15"></path>
        <path d="M54,26 L65,48 L73,41 L54,26"></path>
        <path d="M62,123 L59,135 L73,135 L62,123"></path>
        <path d="M82,27 L73,41 L93,42 L82,27"></path>
        <path d="M63,78 L60,95 L74,81 L63,78"></path>
        <path d="M60,95 L72,105 L74,81 L60,95"></path>
        <path d="M62,123 L73,135 L74,120 L62,123"></path>
        <path d="M72,105 L62,123 L74,120 L72,105"></path>
        <path d="M55,64 L63,78 L75,61 L55,64"></path>
        <path d="M65,48 L55,64 L75,61 L65,48"></path>
        <path d="M63,78 L74,81 L75,61 L63,78"></path>
        <path d="M93,42 L102,40 L102,28 L93,42"></path>
        <path d="M920,95 L919,111 L934,101 L920,95"></path>
        <path d="M927,80 L920,95 L934,101 L927,80"></path>
        <path d="M82,27 L93,42 L102,28 L82,27"></path>
        <path d="M88,15 L82,27 L102,28 L88,15"></path>
        <path d="M114,16 L132,35 L136,17 L114,16"></path>
        <path d="M132,35 L143,41 L146,26 L132,35"></path>
        <path d="M114,99 L116,117 L123,109 L114,99"></path>
        <path d="M143,41 L129,66 L143,67 L143,41"></path>
        <path d="M136,17 L132,35 L146,26 L136,17"></path>
        <path d="M113,31 L113,44 L123,49 L113,31"></path>
        <path d="M113,44 L112,55 L123,49 L113,44"></path>
        <path d="M113,31 L123,49 L132,35 L113,31"></path>
        <path d="M114,16 L113,31 L132,35 L114,16"></path>
        <path d="M123,49 L112,55 L129,66 L123,49"></path>
        <path d="M112,55 L113,79 L129,66 L112,55"></path>
        <path d="M113,79 L114,99 L131,88 L113,79"></path>
        <path d="M129,66 L113,79 L131,88 L129,66"></path>
        <path d="M123,109 L116,117 L132,125 L123,109"></path>
        <path d="M115,133 L127,136 L132,125 L115,133"></path>
        <path d="M116,117 L115,133 L132,125 L116,117"></path>
        <path d="M139,113 L132,125 L140,136 L139,113"></path>
        <path d="M123,109 L132,125 L139,113 L123,109"></path>
        <path d="M132,125 L127,136 L140,136 L132,125"></path>
        <path d="M168,73 L151,81 L172,93 L168,73"></path>
        <path d="M131,88 L123,109 L142,94 L131,88"></path>
        <path d="M123,109 L139,113 L142,94 L123,109"></path>
        <path d="M129,66 L131,88 L143,67 L129,66"></path>
        <path d="M136,17 L146,26 L150,17 L136,17"></path>
        <path d="M123,49 L129,66 L143,41 L123,49"></path>
        <path d="M132,35 L123,49 L143,41 L132,35"></path>
        <path d="M151,81 L155,94 L172,93 L151,81"></path>
        <path d="M151,81 L142,94 L155,94 L151,81"></path>
        <path d="M131,88 L142,94 L151,81 L131,88"></path>
        <path d="M143,67 L131,88 L151,81 L143,67"></path>
        <path d="M143,67 L151,81 L157,67 L143,67"></path>
        <path d="M163,112 L176,137 L176,112 L163,112"></path>
        <path d="M146,26 L143,41 L157,40 L146,26"></path>
        <path d="M157,67 L168,73 L169,60 L157,67"></path>
        <path d="M150,17 L146,26 L169,32 L150,17"></path>
        <path d="M157,67 L151,81 L168,73 L157,67"></path>
        <path d="M157,40 L169,46 L169,32 L157,40"></path>
        <path d="M167,17 L150,17 L169,32 L167,17"></path>
        <path d="M146,26 L157,40 L169,32 L146,26"></path>
        <path d="M169,32 L186,44 L188,24 L169,32"></path>
        <path d="M172,93 L163,112 L176,112 L172,93"></path>
        <path d="M155,94 L163,112 L172,93 L155,94"></path>
        <path d="M925,30 L921,46 L931,38 L925,30"></path>
        <path d="M168,73 L172,93 L183,86 L168,73"></path>
        <path d="M167,17 L169,32 L188,24 L167,17"></path>
        <path d="M191,103 L176,112 L192,119 L191,103"></path>
        <path d="M168,73 L183,86 L184,65 L168,73"></path>
        <path d="M169,60 L168,73 L184,65 L169,60"></path>
        <path d="M169,60 L184,65 L186,44 L169,60"></path>
        <path d="M169,32 L169,46 L186,44 L169,32"></path>
        <path d="M169,46 L169,60 L186,44 L169,46"></path>
        <path d="M192,119 L191,137 L201,122 L192,119"></path>
        <path d="M172,93 L176,112 L191,103 L172,93"></path>
        <path d="M183,86 L172,93 L191,103 L183,86"></path>
        <path d="M176,137 L191,137 L192,119 L176,137"></path>
        <path d="M176,112 L176,137 L192,119 L176,112"></path>
        <path d="M184,65 L183,86 L196,77 L184,65"></path>
        <path d="M199,42 L186,44 L200,61 L199,42"></path>
        <path d="M188,24 L186,44 L199,42 L188,24"></path>
        <path d="M186,44 L184,65 L200,61 L186,44"></path>
        <path d="M184,65 L196,77 L200,61 L184,65"></path>
        <path d="M191,103 L192,119 L201,122 L191,103"></path>
        <path d="M929,116 L925,128 L939,113 L929,116"></path>
        <path d="M232,91 L249,99 L250,82 L232,91"></path>
        <path d="M232,91 L221,104 L238,104 L232,91"></path>
        <path d="M221,104 L231,120 L238,104 L221,104"></path>
        <path d="M221,32 L221,48 L234,30 L221,32"></path>
        <path d="M221,121 L222,136 L231,120 L221,121"></path>
        <path d="M221,104 L221,121 L231,120 L221,104"></path>
        <path d="M221,15 L234,30 L237,16 L221,15"></path>
        <path d="M221,15 L221,32 L234,30 L221,15"></path>
        <path d="M222,87 L221,104 L232,91 L222,87"></path>
        <path d="M221,48 L221,67 L232,62 L221,48"></path>
        <path d="M231,120 L235,136 L242,125 L231,120"></path>
        <path d="M231,120 L222,136 L235,136 L231,120"></path>
        <path d="M237,75 L232,91 L250,82 L237,75"></path>
        <path d="M242,125 L235,136 L251,137 L242,125"></path>
        <path d="M234,30 L242,46 L251,30 L234,30"></path>
        <path d="M222,87 L232,91 L237,75 L222,87"></path>
        <path d="M221,67 L222,87 L237,75 L221,67"></path>
        <path d="M232,62 L221,67 L237,75 L232,62"></path>
        <path d="M242,46 L251,49 L251,30 L242,46"></path>
        <path d="M234,30 L221,48 L242,46 L234,30"></path>
        <path d="M251,15 L237,16 L251,30 L251,15"></path>
        <path d="M237,75 L250,82 L250,66 L237,75"></path>
        <path d="M221,48 L232,62 L242,46 L221,48"></path>
        <path d="M249,99 L238,104 L250,115 L249,99"></path>
        <path d="M232,91 L238,104 L249,99 L232,91"></path>
        <path d="M919,111 L925,128 L929,116 L919,111"></path>
        <path d="M237,16 L234,30 L251,30 L237,16"></path>
        <path d="M242,46 L232,62 L250,66 L242,46"></path>
        <path d="M238,104 L231,120 L250,115 L238,104"></path>
        <path d="M231,120 L242,125 L250,115 L231,120"></path>
        <path d="M310,109 L293,120 L310,119 L310,109"></path>
        <path d="M232,62 L237,75 L250,66 L232,62"></path>
        <path d="M242,46 L250,66 L251,49 L242,46"></path>
        <path d="M925,30 L931,38 L941,31 L925,30"></path>
        <path d="M250,115 L242,125 L251,137 L250,115"></path>
        <path d="M276,104 L270,123 L282,117 L276,104"></path>
        <path d="M266,103 L261,119 L270,123 L266,103"></path>
        <path d="M255,136 L269,137 L270,123 L255,136"></path>
        <path d="M261,119 L255,136 L270,123 L261,119"></path>
        <path d="M273,84 L266,103 L276,104 L273,84"></path>
        <path d="M911,83 L920,95 L927,80 L911,83"></path>
        <path d="M290,103 L282,117 L293,120 L290,103"></path>
        <path d="M282,63 L273,84 L284,80 L282,63"></path>
        <path d="M266,103 L270,123 L276,104 L266,103"></path>
        <path d="M335,94 L332,113 L344,114 L335,94"></path>
        <path d="M282,117 L270,123 L285,136 L282,117"></path>
        <path d="M284,80 L297,92 L302,78 L284,80"></path>
        <path d="M270,123 L269,137 L285,136 L270,123"></path>
        <path d="M282,117 L285,136 L293,120 L282,117"></path>
        <path d="M282,63 L284,80 L294,68 L282,63"></path>
        <path d="M276,104 L282,117 L290,103 L276,104"></path>
        <path d="M284,80 L273,84 L290,103 L284,80"></path>
        <path d="M273,84 L276,104 L290,103 L273,84"></path>
        <path d="M294,68 L302,78 L310,62 L294,68"></path>
        <path d="M308,49 L296,55 L310,62 L308,49"></path>
        <path d="M294,34 L286,47 L296,55 L294,34"></path>
        <path d="M286,47 L282,63 L296,55 L286,47"></path>
        <path d="M282,63 L294,68 L296,55 L282,63"></path>
        <path d="M284,80 L290,103 L297,92 L284,80"></path>
        <path d="M298,18 L316,29 L321,17 L298,18"></path>
        <path d="M303,33 L294,34 L308,49 L303,33"></path>
        <path d="M296,55 L294,68 L310,62 L296,55"></path>
        <path d="M297,92 L319,102 L320,94 L297,92"></path>
        <path d="M294,68 L284,80 L302,78 L294,68"></path>
        <path d="M298,18 L294,34 L303,33 L298,18"></path>
        <path d="M294,34 L296,55 L308,49 L294,34"></path>
        <path d="M290,103 L293,120 L310,109 L290,103"></path>
        <path d="M297,92 L290,103 L310,109 L297,92"></path>
        <path d="M310,62 L320,68 L323,50 L310,62"></path>
        <path d="M303,33 L308,49 L316,29 L303,33"></path>
        <path d="M298,18 L303,33 L316,29 L298,18"></path>
        <path d="M308,49 L310,62 L323,50 L308,49"></path>
        <path d="M308,49 L323,50 L327,39 L308,49"></path>
        <path d="M320,68 L331,79 L335,58 L320,68"></path>
        <path d="M297,92 L310,109 L319,102 L297,92"></path>
        <path d="M310,62 L315,78 L320,68 L310,62"></path>
        <path d="M316,29 L308,49 L327,39 L316,29"></path>
        <path d="M319,102 L332,113 L335,94 L319,102"></path>
        <path d="M320,94 L319,102 L335,94 L320,94"></path>
        <path d="M310,109 L310,119 L327,120 L310,109"></path>
        <path d="M319,102 L310,109 L327,120 L319,102"></path>
        <path d="M321,17 L316,29 L327,39 L321,17"></path>
        <path d="M331,79 L320,94 L335,94 L331,79"></path>
        <path d="M319,102 L327,120 L332,113 L319,102"></path>
        <path d="M315,78 L320,94 L331,79 L315,78"></path>
        <path d="M320,68 L315,78 L331,79 L320,68"></path>
        <path d="M323,50 L320,68 L335,58 L323,50"></path>
        <path d="M327,39 L323,50 L335,58 L327,39"></path>
        <path d="M356,117 L348,128 L363,137 L356,117"></path>
        <path d="M934,101 L929,116 L939,113 L934,101"></path>
        <path d="M348,128 L347,137 L363,137 L348,128"></path>
        <path d="M908,121 L909,136 L925,128 L908,121"></path>
        <path d="M335,58 L331,79 L341,74 L335,58"></path>
        <path d="M331,79 L335,94 L341,74 L331,79"></path>
        <path d="M332,113 L327,120 L344,114 L332,113"></path>
        <path d="M335,94 L344,114 L348,93 L335,94"></path>
        <path d="M348,93 L344,114 L356,117 L348,93"></path>
        <path d="M919,111 L908,121 L925,128 L919,111"></path>
        <path d="M341,74 L335,94 L348,93 L341,74"></path>
        <path d="M327,120 L335,137 L348,128 L327,120"></path>
        <path d="M344,114 L327,120 L348,128 L344,114"></path>
        <path d="M335,137 L347,137 L348,128 L335,137"></path>
        <path d="M344,114 L348,128 L356,117 L344,114"></path>
        <path d="M371,74 L384,86 L385,62 L371,74"></path>
        <path d="M369,36 L382,42 L383,18 L369,36"></path>
        <path d="M370,18 L369,36 L383,18 L370,18"></path>
        <path d="M403,52 L411,69 L418,54 L403,52"></path>
        <path d="M369,36 L370,55 L382,42 L369,36"></path>
        <path d="M428,119 L439,136 L439,116 L428,119"></path>
        <path d="M370,115 L371,135 L384,135 L370,115"></path>
        <path d="M384,86 L399,93 L400,77 L384,86"></path>
        <path d="M392,63 L384,86 L400,77 L392,63"></path>
        <path d="M371,74 L369,94 L384,86 L371,74"></path>
        <path d="M383,18 L392,32 L396,18 L383,18"></path>
        <path d="M370,55 L371,74 L385,62 L370,55"></path>
        <path d="M382,42 L370,55 L385,62 L382,42"></path>
        <path d="M384,86 L369,94 L388,108 L384,86"></path>
        <path d="M370,115 L384,135 L388,108 L370,115"></path>
        <path d="M369,94 L370,115 L388,108 L369,94"></path>
        <path d="M382,42 L385,62 L392,63 L382,42"></path>
        <path d="M385,62 L384,86 L392,63 L385,62"></path>
        <path d="M383,18 L382,42 L392,32 L383,18"></path>
        <path d="M384,86 L388,108 L399,93 L384,86"></path>
        <path d="M408,35 L403,52 L418,54 L408,35"></path>
        <path d="M927,80 L934,101 L937,79 L927,80"></path>
        <path d="M384,135 L399,135 L400,113 L384,135"></path>
        <path d="M388,108 L384,135 L400,113 L388,108"></path>
        <path d="M399,93 L388,108 L400,113 L399,93"></path>
        <path d="M382,42 L392,63 L403,52 L382,42"></path>
        <path d="M392,32 L382,42 L403,52 L392,32"></path>
        <path d="M392,32 L403,52 L408,35 L392,32"></path>
        <path d="M396,18 L392,32 L408,35 L396,18"></path>
        <path d="M409,90 L419,103 L422,82 L409,90"></path>
        <path d="M400,77 L409,90 L411,69 L400,77"></path>
        <path d="M392,63 L400,77 L411,69 L392,63"></path>
        <path d="M403,52 L392,63 L411,69 L403,52"></path>
        <path d="M411,69 L422,82 L426,68 L411,69"></path>
        <path d="M418,54 L411,69 L426,68 L418,54"></path>
        <path d="M419,103 L428,119 L431,99 L419,103"></path>
        <path d="M411,69 L409,90 L422,82 L411,69"></path>
        <path d="M422,82 L419,103 L431,99 L422,82"></path>
        <path d="M905,64 L911,83 L923,69 L905,64"></path>
        <path d="M422,82 L431,99 L435,83 L422,82"></path>
        <path d="M426,68 L422,82 L435,83 L426,68"></path>
        <path d="M431,99 L428,119 L439,116 L431,99"></path>
        <path d="M464,117 L453,120 L464,136 L464,117"></path>
        <path d="M439,136 L452,138 L453,120 L439,136"></path>
        <path d="M435,15 L436,31 L449,16 L435,15"></path>
        <path d="M449,101 L464,99 L464,79 L449,101"></path>
        <path d="M434,66 L435,83 L444,78 L434,66"></path>
        <path d="M436,48 L434,66 L448,48 L436,48"></path>
        <path d="M431,99 L439,116 L449,101 L431,99"></path>
        <path d="M449,16 L436,31 L454,31 L449,16"></path>
        <path d="M436,31 L436,48 L448,48 L436,31"></path>
        <path d="M444,78 L435,83 L449,101 L444,78"></path>
        <path d="M435,83 L431,99 L449,101 L435,83"></path>
        <path d="M913,34 L903,40 L921,46 L913,34"></path>
        <path d="M453,120 L452,138 L464,136 L453,120"></path>
        <path d="M439,116 L439,136 L453,120 L439,116"></path>
        <path d="M448,48 L434,66 L454,62 L448,48"></path>
        <path d="M449,101 L439,116 L453,120 L449,101"></path>
        <path d="M436,31 L448,48 L454,31 L436,31"></path>
        <path d="M434,66 L444,78 L454,62 L434,66"></path>
        <path d="M463,16 L454,31 L464,36 L463,16"></path>
        <path d="M448,48 L463,60 L464,36 L448,48"></path>
        <path d="M449,16 L454,31 L463,16 L449,16"></path>
        <path d="M448,48 L454,62 L463,60 L448,48"></path>
        <path d="M454,31 L448,48 L464,36 L454,31"></path>
        <path d="M444,78 L449,101 L464,79 L444,78"></path>
        <path d="M463,60 L454,62 L464,79 L463,60"></path>
        <path d="M464,99 L449,101 L464,117 L464,99"></path>
        <path d="M449,101 L453,120 L464,117 L449,101"></path>
        <path d="M454,62 L444,78 L464,79 L454,62"></path>
        <path d="M485,17 L497,33 L500,17 L485,17"></path>
        <path d="M498,119 L498,138 L512,121 L498,119"></path>
        <path d="M498,119 L512,121 L512,105 L498,119"></path>
        <path d="M484,107 L498,119 L500,102 L484,107"></path>
        <path d="M497,33 L485,52 L498,51 L497,33"></path>
        <path d="M485,52 L486,71 L498,51 L485,52"></path>
        <path d="M486,71 L486,87 L495,85 L486,71"></path>
        <path d="M484,32 L485,52 L497,33 L484,32"></path>
        <path d="M485,17 L484,32 L497,33 L485,17"></path>
        <path d="M498,119 L486,122 L498,138 L498,119"></path>
        <path d="M486,122 L485,136 L498,138 L486,122"></path>
        <path d="M498,51 L513,62 L513,39 L498,51"></path>
        <path d="M484,107 L486,122 L498,119 L484,107"></path>
        <path d="M500,102 L498,119 L512,105 L500,102"></path>
        <path d="M498,51 L486,71 L502,69 L498,51"></path>
        <path d="M495,85 L486,87 L500,102 L495,85"></path>
        <path d="M486,87 L484,107 L500,102 L486,87"></path>
        <path d="M486,71 L495,85 L502,69 L486,71"></path>
        <path d="M497,33 L513,39 L513,17 L497,33"></path>
        <path d="M500,17 L497,33 L513,17 L500,17"></path>
        <path d="M498,51 L502,69 L513,62 L498,51"></path>
        <path d="M513,62 L502,69 L513,84 L513,62"></path>
        <path d="M495,85 L500,102 L513,84 L495,85"></path>
        <path d="M500,102 L512,105 L513,84 L500,102"></path>
        <path d="M512,121 L498,138 L514,137 L512,121"></path>
        <path d="M502,69 L495,85 L513,84 L502,69"></path>
        <path d="M497,33 L498,51 L513,39 L497,33"></path>
        <path d="M909,90 L914,102 L920,95 L909,90"></path>
        <path d="M911,83 L909,90 L920,95 L911,83"></path>
        <path d="M551,108 L542,122 L559,115 L551,108"></path>
        <path d="M532,20 L531,38 L546,19 L532,20"></path>
        <path d="M542,122 L532,136 L546,137 L542,122"></path>
        <path d="M532,78 L532,100 L543,91 L532,78"></path>
        <path d="M532,117 L532,136 L542,122 L532,117"></path>
        <path d="M531,38 L548,50 L551,36 L531,38"></path>
        <path d="M913,17 L913,34 L925,21 L913,17"></path>
        <path d="M546,19 L531,38 L551,36 L546,19"></path>
        <path d="M531,38 L532,56 L548,50 L531,38"></path>
        <path d="M532,56 L532,78 L550,71 L532,56"></path>
        <path d="M548,50 L532,56 L550,71 L548,50"></path>
        <path d="M532,78 L543,91 L550,71 L532,78"></path>
        <path d="M532,100 L532,117 L551,108 L532,100"></path>
        <path d="M532,117 L542,122 L551,108 L532,117"></path>
        <path d="M543,91 L532,100 L551,108 L543,91"></path>
        <path d="M584,95 L577,108 L595,107 L584,95"></path>
        <path d="M567,32 L551,36 L573,44 L567,32"></path>
        <path d="M550,71 L543,91 L558,76 L550,71"></path>
        <path d="M633,98 L625,110 L641,115 L633,98"></path>
        <path d="M559,115 L542,122 L560,137 L559,115"></path>
        <path d="M558,76 L543,91 L560,97 L558,76"></path>
        <path d="M546,19 L551,36 L559,19 L546,19"></path>
        <path d="M542,122 L546,137 L560,137 L542,122"></path>
        <path d="M551,108 L559,115 L560,97 L551,108"></path>
        <path d="M543,91 L551,108 L560,97 L543,91"></path>
        <path d="M548,50 L550,71 L561,64 L548,50"></path>
        <path d="M550,71 L558,76 L561,64 L550,71"></path>
        <path d="M551,36 L548,50 L573,44 L551,36"></path>
        <path d="M559,19 L551,36 L567,32 L559,19"></path>
        <path d="M558,76 L569,93 L577,77 L558,76"></path>
        <path d="M548,50 L561,64 L573,44 L548,50"></path>
        <path d="M600,45 L607,51 L607,34 L600,45"></path>
        <path d="M561,64 L558,76 L577,77 L561,64"></path>
        <path d="M561,64 L577,77 L581,59 L561,64"></path>
        <path d="M581,59 L577,77 L587,71 L581,59"></path>
        <path d="M573,44 L561,64 L581,59 L573,44"></path>
        <path d="M569,93 L577,108 L584,95 L569,93"></path>
        <path d="M577,77 L569,93 L584,95 L577,77"></path>
        <path d="M584,95 L595,107 L597,85 L584,95"></path>
        <path d="M577,77 L584,95 L597,85 L577,77"></path>
        <path d="M587,71 L577,77 L597,85 L587,71"></path>
        <path d="M597,85 L595,107 L606,92 L597,85"></path>
        <path d="M587,71 L597,85 L603,70 L587,71"></path>
        <path d="M595,57 L587,71 L603,70 L595,57"></path>
        <path d="M595,57 L603,70 L607,51 L595,57"></path>
        <path d="M600,45 L595,57 L607,51 L600,45"></path>
        <path d="M597,85 L606,92 L613,78 L597,85"></path>
        <path d="M899,111 L908,121 L919,111 L899,111"></path>
        <path d="M914,102 L899,111 L919,111 L914,102"></path>
        <path d="M614,97 L613,113 L625,110 L614,97"></path>
        <path d="M612,126 L613,137 L620,126 L612,126"></path>
        <path d="M630,79 L621,90 L633,98 L630,79"></path>
        <path d="M603,70 L597,85 L613,78 L603,70"></path>
        <path d="M613,113 L612,126 L620,126 L613,113"></path>
        <path d="M607,34 L607,51 L620,45 L607,34"></path>
        <path d="M625,110 L632,121 L641,115 L625,110"></path>
        <path d="M627,34 L640,38 L641,20 L627,34"></path>
        <path d="M626,20 L627,34 L641,20 L626,20"></path>
        <path d="M606,92 L614,97 L621,90 L606,92"></path>
        <path d="M613,78 L606,92 L621,90 L613,78"></path>
        <path d="M607,51 L603,70 L625,65 L607,51"></path>
        <path d="M603,70 L613,78 L625,65 L603,70"></path>
        <path d="M620,45 L607,51 L625,65 L620,45"></path>
        <path d="M613,113 L620,126 L625,110 L613,113"></path>
        <path d="M627,34 L629,52 L640,38 L627,34"></path>
        <path d="M626,20 L613,18 L627,34 L626,20"></path>
        <path d="M613,18 L607,34 L627,34 L613,18"></path>
        <path d="M607,34 L620,45 L627,34 L607,34"></path>
        <path d="M641,115 L632,121 L642,136 L641,115"></path>
        <path d="M620,126 L613,137 L628,136 L620,126"></path>
        <path d="M620,45 L625,65 L629,52 L620,45"></path>
        <path d="M627,34 L620,45 L629,52 L627,34"></path>
        <path d="M613,78 L621,90 L630,79 L613,78"></path>
        <path d="M625,65 L613,78 L630,79 L625,65"></path>
        <path d="M620,126 L628,136 L632,121 L620,126"></path>
        <path d="M625,110 L620,126 L632,121 L625,110"></path>
        <path d="M621,90 L614,97 L633,98 L621,90"></path>
        <path d="M614,97 L625,110 L633,98 L614,97"></path>
        <path d="M642,72 L630,79 L642,94 L642,72"></path>
        <path d="M630,79 L633,98 L642,94 L630,79"></path>
        <path d="M633,98 L641,115 L642,94 L633,98"></path>
        <path d="M629,52 L625,65 L642,55 L629,52"></path>
        <path d="M640,38 L629,52 L642,55 L640,38"></path>
        <path d="M687,111 L683,121 L693,118 L687,111"></path>
        <path d="M625,65 L630,79 L642,72 L625,65"></path>
        <path d="M642,55 L625,65 L642,72 L642,55"></path>
        <path d="M632,121 L628,136 L642,136 L632,121"></path>
        <path d="M655,117 L666,126 L666,114 L655,117"></path>
        <path d="M662,97 L655,117 L666,114 L662,97"></path>
        <path d="M673,99 L666,114 L675,109 L673,99"></path>
        <path d="M648,136 L662,138 L666,126 L648,136"></path>
        <path d="M655,117 L648,136 L666,126 L655,117"></path>
        <path d="M668,77 L662,97 L673,99 L668,77"></path>
        <path d="M662,97 L666,114 L673,99 L662,97"></path>
        <path d="M666,126 L662,138 L679,135 L666,126"></path>
        <path d="M723,73 L707,76 L723,87 L723,73"></path>
        <path d="M674,62 L668,77 L677,79 L674,62"></path>
        <path d="M668,77 L673,99 L677,79 L668,77"></path>
        <path d="M675,109 L666,114 L683,121 L675,109"></path>
        <path d="M666,114 L666,126 L683,121 L666,114"></path>
        <path d="M666,126 L679,135 L683,121 L666,126"></path>
        <path d="M673,99 L675,109 L684,97 L673,99"></path>
        <path d="M684,97 L675,109 L687,111 L684,97"></path>
        <path d="M677,79 L673,99 L684,97 L677,79"></path>
        <path d="M674,62 L677,79 L685,64 L674,62"></path>
        <path d="M680,46 L674,62 L685,64 L680,46"></path>
        <path d="M675,109 L683,121 L687,111 L675,109"></path>
        <path d="M688,81 L693,93 L697,77 L688,81"></path>
        <path d="M710,41 L696,56 L713,59 L710,41"></path>
        <path d="M677,79 L684,97 L688,81 L677,79"></path>
        <path d="M685,64 L677,79 L688,81 L685,64"></path>
        <path d="M913,34 L921,46 L925,30 L913,34"></path>
        <path d="M693,93 L684,97 L699,104 L693,93"></path>
        <path d="M688,81 L684,97 L693,93 L688,81"></path>
        <path d="M690,18 L694,36 L704,20 L690,18"></path>
        <path d="M690,18 L686,33 L694,36 L690,18"></path>
        <path d="M686,33 L680,46 L694,36 L686,33"></path>
        <path d="M694,36 L680,46 L696,56 L694,36"></path>
        <path d="M680,46 L685,64 L696,56 L680,46"></path>
        <path d="M684,97 L687,111 L699,104 L684,97"></path>
        <path d="M685,64 L688,81 L697,77 L685,64"></path>
        <path d="M687,111 L693,118 L699,104 L687,111"></path>
        <path d="M704,20 L694,36 L710,41 L704,20"></path>
        <path d="M712,93 L703,94 L713,109 L712,93"></path>
        <path d="M699,104 L693,118 L705,117 L699,104"></path>
        <path d="M696,56 L685,64 L702,63 L696,56"></path>
        <path d="M685,64 L697,77 L702,63 L685,64"></path>
        <path d="M693,93 L699,104 L703,94 L693,93"></path>
        <path d="M704,20 L710,41 L714,19 L704,20"></path>
        <path d="M696,56 L702,63 L713,59 L696,56"></path>
        <path d="M694,36 L696,56 L710,41 L694,36"></path>
        <path d="M703,94 L699,104 L713,109 L703,94"></path>
        <path d="M713,109 L705,117 L718,119 L713,109"></path>
        <path d="M718,119 L726,136 L727,117 L718,119"></path>
        <path d="M702,63 L707,76 L713,59 L702,63"></path>
        <path d="M699,104 L705,117 L713,109 L699,104"></path>
        <path d="M707,76 L712,93 L723,87 L707,76"></path>
        <path d="M729,57 L723,73 L736,77 L729,57"></path>
        <path d="M713,59 L723,73 L729,57 L713,59"></path>
        <path d="M720,37 L713,59 L729,57 L720,37"></path>
        <path d="M710,41 L713,59 L720,37 L710,41"></path>
        <path d="M714,19 L710,41 L720,37 L714,19"></path>
        <path d="M752,120 L739,125 L756,136 L752,120"></path>
        <path d="M713,59 L707,76 L723,73 L713,59"></path>
        <path d="M739,125 L741,138 L756,136 L739,125"></path>
        <path d="M713,109 L718,119 L727,117 L713,109"></path>
        <path d="M762,101 L772,105 L780,87 L762,101"></path>
        <path d="M712,93 L713,109 L729,100 L712,93"></path>
        <path d="M723,87 L712,93 L729,100 L723,87"></path>
        <path d="M713,109 L727,117 L729,100 L713,109"></path>
        <path d="M723,73 L723,87 L736,77 L723,73"></path>
        <path d="M739,125 L726,136 L741,138 L739,125"></path>
        <path d="M747,108 L739,125 L752,120 L747,108"></path>
        <path d="M736,77 L723,87 L741,91 L736,77"></path>
        <path d="M727,117 L726,136 L739,125 L727,117"></path>
        <path d="M723,87 L729,100 L741,91 L723,87"></path>
        <path d="M904,21 L899,34 L913,34 L904,21"></path>
        <path d="M729,100 L727,117 L747,108 L729,100"></path>
        <path d="M727,117 L739,125 L747,108 L727,117"></path>
        <path d="M741,91 L729,100 L747,108 L741,91"></path>
        <path d="M764,80 L762,101 L780,87 L764,80"></path>
        <path d="M899,34 L903,40 L913,34 L899,34"></path>
        <path d="M792,108 L781,116 L792,125 L792,108"></path>
        <path d="M774,45 L792,53 L793,35 L774,45"></path>
        <path d="M762,101 L763,118 L772,105 L762,101"></path>
        <path d="M781,31 L774,45 L793,35 L781,31"></path>
        <path d="M765,57 L764,80 L773,74 L765,57"></path>
        <path d="M774,126 L764,135 L781,136 L774,126"></path>
        <path d="M763,118 L764,135 L774,126 L763,118"></path>
        <path d="M773,74 L764,80 L780,87 L773,74"></path>
        <path d="M764,35 L765,57 L774,45 L764,35"></path>
        <path d="M774,45 L765,57 L781,60 L774,45"></path>
        <path d="M763,118 L774,126 L781,116 L763,118"></path>
        <path d="M779,16 L764,16 L781,31 L779,16"></path>
        <path d="M791,15 L781,31 L793,35 L791,15"></path>
        <path d="M774,126 L781,136 L792,125 L774,126"></path>
        <path d="M772,105 L763,118 L781,116 L772,105"></path>
        <path d="M764,35 L774,45 L781,31 L764,35"></path>
        <path d="M764,16 L764,35 L781,31 L764,16"></path>
        <path d="M765,57 L773,74 L781,60 L765,57"></path>
        <path d="M896,16 L904,21 L913,17 L896,16"></path>
        <path d="M779,16 L781,31 L791,15 L779,16"></path>
        <path d="M780,87 L772,105 L792,93 L780,87"></path>
        <path d="M781,60 L792,71 L792,53 L781,60"></path>
        <path d="M792,93 L772,105 L792,108 L792,93"></path>
        <path d="M772,105 L781,116 L792,108 L772,105"></path>
        <path d="M780,87 L792,93 L792,71 L780,87"></path>
        <path d="M781,60 L773,74 L792,71 L781,60"></path>
        <path d="M773,74 L780,87 L792,71 L773,74"></path>
        <path d="M781,116 L774,126 L792,125 L781,116"></path>
        <path d="M774,45 L781,60 L792,53 L774,45"></path>
        <path d="M904,21 L913,34 L913,17 L904,21"></path>
        <path d="M792,125 L781,136 L802,136 L792,125"></path>
        <path d="M810,109 L808,117 L818,126 L810,109"></path>
        <path d="M808,117 L802,136 L818,126 L808,117"></path>
        <path d="M792,125 L802,136 L808,117 L792,125"></path>
        <path d="M792,108 L792,125 L808,117 L792,108"></path>
        <path d="M792,108 L808,117 L810,109 L792,108"></path>
        <path d="M844,120 L829,119 L844,135 L844,120"></path>
        <path d="M818,126 L826,136 L829,119 L818,126"></path>
        <path d="M826,106 L810,109 L829,119 L826,106"></path>
        <path d="M810,109 L818,126 L829,119 L810,109"></path>
        <path d="M905,64 L900,76 L911,83 L905,64"></path>
        <path d="M818,126 L802,136 L826,136 L818,126"></path>
        <path d="M829,119 L826,136 L844,135 L829,119"></path>
        <path d="M882,118 L877,125 L882,135 L882,118"></path>
        <path d="M829,119 L844,120 L844,108 L829,119"></path>
        <path d="M865,32 L873,38 L879,22 L865,32"></path>
        <path d="M826,106 L829,119 L844,108 L826,106"></path>
        <path d="M848,107 L852,120 L859,104 L848,107"></path>
        <path d="M852,120 L865,128 L865,114 L852,120"></path>
        <path d="M875,51 L868,60 L881,68 L875,51"></path>
        <path d="M925,21 L913,34 L925,30 L925,21"></path>
        <path d="M859,104 L852,120 L865,114 L859,104"></path>
        <path d="M857,49 L859,64 L868,60 L857,49"></path>
        <path d="M873,38 L857,49 L875,51 L873,38"></path>
        <path d="M857,49 L868,60 L875,51 L857,49"></path>
        <path d="M865,114 L865,128 L877,125 L865,114"></path>
        <path d="M868,60 L859,64 L875,79 L868,60"></path>
        <path d="M859,104 L865,114 L869,99 L859,104"></path>
        <path d="M865,32 L857,49 L873,38 L865,32"></path>
        <path d="M868,60 L875,79 L881,68 L868,60"></path>
        <path d="M885,31 L873,38 L888,46 L885,31"></path>
        <path d="M873,38 L875,51 L888,46 L873,38"></path>
        <path d="M882,135 L895,136 L898,126 L882,135"></path>
        <path d="M900,76 L909,90 L911,83 L900,76"></path>
        <path d="M877,125 L865,128 L882,135 L877,125"></path>
        <path d="M869,99 L865,114 L882,118 L869,99"></path>
        <path d="M865,114 L877,125 L882,118 L865,114"></path>
        <path d="M879,22 L873,38 L885,31 L879,22"></path>
        <path d="M882,118 L882,135 L898,126 L882,118"></path>
        <path d="M869,99 L882,118 L888,111 L869,99"></path>
        <path d="M881,68 L875,79 L891,86 L881,68"></path>
        <path d="M875,51 L881,68 L889,58 L875,51"></path>
        <path d="M899,111 L898,126 L908,121 L899,111"></path>
        <path d="M879,22 L885,31 L896,16 L879,22"></path>
        <path d="M898,126 L895,136 L909,136 L898,126"></path>
        <path d="M896,16 L885,31 L899,34 L896,16"></path>
        <path d="M888,111 L882,118 L898,126 L888,111"></path>
        <path d="M908,121 L898,126 L909,136 L908,121"></path>
        <path d="M881,68 L891,86 L900,76 L881,68"></path>
        <path d="M885,31 L888,46 L899,34 L885,31"></path>
        <path d="M888,111 L898,126 L899,111 L888,111"></path>
        <path d="M889,58 L881,68 L900,76 L889,58"></path>
        <path d="M899,34 L888,46 L903,40 L899,34"></path>
        <path d="M896,16 L899,34 L904,21 L896,16"></path>
        <path d="M914,102 L919,111 L920,95 L914,102"></path>
        <path d="M889,58 L900,76 L905,64 L889,58"></path>
        <path d="M923,69 L911,83 L927,80 L923,69"></path>
        <path d="M900,76 L891,86 L909,90 L900,76"></path>
        <path d="M201,122 L191,137 L207,135 L201,122"></path>
        <path d="M888,46 L889,58 L875,51 L888,46"></path>
      </g>
    </svg>
