<svg width="650px" height="100px" viewBox="0 0 1005 153" version="1" xmlns="http://www.w3.org/2000/svg" xmlns:xlink="http://www.w3.org/1999/xlink">
 <g id="triangles">
  <path d="M13,30 L14,43 L28,42 L13,30"></path>
  <path d="M15,16 L13,30 L29,16 L15,16"></path>
  <path d="M29,16 L13,30 L33,32 L29,16"></path>
  <path d="M13,30 L28,42 L33,32 L13,30"></path>
  <path d="M33,32 L28,42 L40,42 L33,32"></path>
  <path d="M42,104 L52,108 L57,96 L42,104"></path>
  <path d="M42,61 L52,65 L62,49 L42,61"></path>
  <path d="M46,16 L33,32 L51,27 L46,16"></path>
  <path d="M29,16 L33,32 L46,16 L29,16"></path>
  <path d="M33,32 L40,42 L51,27 L33,32"></path>
  <path d="M70,42 L62,49 L72,62 L70,42"></path>
  <path d="M42,61 L43,86 L52,65 L42,61"></path>
  <path d="M43,86 L57,96 L60,79 L43,86"></path>
  <path d="M52,65 L43,86 L60,79 L52,65"></path>
  <path d="M42,121 L42,137 L56,136 L42,121"></path>
  <path d="M42,104 L42,121 L52,108 L42,104"></path>
  <path d="M85,16 L99,29 L100,16 L85,16"></path>
  <path d="M46,16 L51,27 L65,16 L46,16"></path>
  <path d="M65,16 L79,28 L85,16 L65,16"></path>
  <path d="M42,121 L56,136 L59,124 L42,121"></path>
  <path d="M43,86 L42,104 L57,96 L43,86"></path>
  <path d="M52,108 L42,121 L59,124 L52,108"></path>
  <path d="M40,42 L42,61 L62,49 L40,42"></path>
  <path d="M51,27 L40,42 L62,49 L51,27"></path>
  <path d="M65,16 L70,42 L79,28 L65,16"></path>
  <path d="M52,108 L59,124 L69,106 L52,108"></path>
  <path d="M57,96 L52,108 L69,106 L57,96"></path>
  <path d="M111,100 L120,110 L128,89 L111,100"></path>
  <path d="M65,16 L51,27 L70,42 L65,16"></path>
  <path d="M51,27 L62,49 L70,42 L51,27"></path>
  <path d="M59,124 L56,136 L70,136 L59,124"></path>
  <path d="M79,28 L70,42 L90,43 L79,28"></path>
  <path d="M60,79 L57,96 L71,82 L60,79"></path>
  <path d="M57,96 L69,106 L71,82 L57,96"></path>
  <path d="M59,124 L70,136 L71,121 L59,124"></path>
  <path d="M69,106 L59,124 L71,121 L69,106"></path>
  <path d="M52,65 L60,79 L72,62 L52,65"></path>
  <path d="M62,49 L52,65 L72,62 L62,49"></path>
  <path d="M60,79 L71,82 L72,62 L60,79"></path>
  <path d="M90,43 L99,41 L99,29 L90,43"></path>
  <path d="M79,28 L90,43 L99,29 L79,28"></path>
  <path d="M85,16 L79,28 L99,29 L85,16"></path>
  <path d="M111,17 L129,36 L133,18 L111,17"></path>
  <path d="M129,36 L140,42 L143,27 L129,36"></path>
  <path d="M111,100 L113,118 L120,110 L111,100"></path>
  <path d="M140,42 L126,67 L140,68 L140,42"></path>
  <path d="M133,18 L129,36 L143,27 L133,18"></path>
  <path d="M110,32 L110,45 L120,50 L110,32"></path>
  <path d="M110,45 L109,56 L120,50 L110,45"></path>
  <path d="M110,32 L120,50 L129,36 L110,32"></path>
  <path d="M111,17 L110,32 L129,36 L111,17"></path>
  <path d="M120,50 L109,56 L126,67 L120,50"></path>
  <path d="M109,56 L110,80 L126,67 L109,56"></path>
  <path d="M110,80 L111,100 L128,89 L110,80"></path>
  <path d="M126,67 L110,80 L128,89 L126,67"></path>
  <path d="M120,110 L113,118 L129,126 L120,110"></path>
  <path d="M112,134 L124,137 L129,126 L112,134"></path>
  <path d="M113,118 L112,134 L129,126 L113,118"></path>
  <path d="M136,114 L129,126 L137,137 L136,114"></path>
  <path d="M120,110 L129,126 L136,114 L120,110"></path>
  <path d="M129,126 L124,137 L137,137 L129,126"></path>
  <path d="M165,74 L148,82 L169,94 L165,74"></path>
  <path d="M128,89 L120,110 L139,95 L128,89"></path>
  <path d="M120,110 L136,114 L139,95 L120,110"></path>
  <path d="M126,67 L128,89 L140,68 L126,67"></path>
  <path d="M133,18 L143,27 L147,18 L133,18"></path>
  <path d="M120,50 L126,67 L140,42 L120,50"></path>
  <path d="M129,36 L120,50 L140,42 L129,36"></path>
  <path d="M148,82 L152,95 L169,94 L148,82"></path>
  <path d="M148,82 L139,95 L152,95 L148,82"></path>
  <path d="M128,89 L139,95 L148,82 L128,89"></path>
  <path d="M140,68 L128,89 L148,82 L140,68"></path>
  <path d="M140,68 L148,82 L154,68 L140,68"></path>
  <path d="M160,113 L173,138 L173,113 L160,113"></path>
  <path d="M143,27 L140,42 L154,41 L143,27"></path>
  <path d="M154,68 L165,74 L166,61 L154,68"></path>
  <path d="M147,18 L143,27 L166,33 L147,18"></path>
  <path d="M154,68 L148,82 L165,74 L154,68"></path>
  <path d="M154,41 L166,47 L166,33 L154,41"></path>
  <path d="M164,18 L147,18 L166,33 L164,18"></path>
  <path d="M143,27 L154,41 L166,33 L143,27"></path>
  <path d="M166,33 L183,45 L185,25 L166,33"></path>
  <path d="M169,94 L160,113 L173,113 L169,94"></path>
  <path d="M152,95 L160,113 L169,94 L152,95"></path>
  <path d="M165,74 L169,94 L180,87 L165,74"></path>
  <path d="M164,18 L166,33 L185,25 L164,18"></path>
  <path d="M188,104 L173,113 L189,120 L188,104"></path>
  <path d="M165,74 L180,87 L181,66 L165,74"></path>
  <path d="M166,61 L165,74 L181,66 L166,61"></path>
  <path d="M166,61 L181,66 L183,45 L166,61"></path>
  <path d="M166,33 L166,47 L183,45 L166,33"></path>
  <path d="M166,47 L166,61 L183,45 L166,47"></path>
  <path d="M189,120 L188,138 L198,123 L189,120"></path>
  <path d="M169,94 L173,113 L188,104 L169,94"></path>
  <path d="M180,87 L169,94 L188,104 L180,87"></path>
  <path d="M173,138 L188,138 L189,120 L173,138"></path>
  <path d="M173,113 L173,138 L189,120 L173,113"></path>
  <path d="M181,66 L180,87 L193,78 L181,66"></path>
  <path d="M196,43 L183,45 L197,62 L196,43"></path>
  <path d="M185,25 L183,45 L196,43 L185,25"></path>
  <path d="M183,45 L181,66 L197,62 L183,45"></path>
  <path d="M181,66 L193,78 L197,62 L181,66"></path>
  <path d="M188,104 L189,120 L198,123 L188,104"></path>
  <path d="M229,92 L246,100 L247,83 L229,92"></path>
  <path d="M229,92 L218,105 L235,105 L229,92"></path>
  <path d="M218,105 L228,121 L235,105 L218,105"></path>
  <path d="M218,33 L218,49 L231,31 L218,33"></path>
  <path d="M218,122 L219,137 L228,121 L218,122"></path>
  <path d="M218,105 L218,122 L228,121 L218,105"></path>
  <path d="M218,16 L231,31 L234,17 L218,16"></path>
  <path d="M218,16 L218,33 L231,31 L218,16"></path>
  <path d="M219,88 L218,105 L229,92 L219,88"></path>
  <path d="M218,49 L218,68 L229,63 L218,49"></path>
  <path d="M228,121 L232,137 L239,126 L228,121"></path>
  <path d="M228,121 L219,137 L232,137 L228,121"></path>
  <path d="M234,76 L229,92 L247,83 L234,76"></path>
  <path d="M239,126 L232,137 L248,138 L239,126"></path>
  <path d="M231,31 L239,47 L248,31 L231,31"></path>
  <path d="M219,88 L229,92 L234,76 L219,88"></path>
  <path d="M218,68 L219,88 L234,76 L218,68"></path>
  <path d="M229,63 L218,68 L234,76 L229,63"></path>
  <path d="M239,47 L248,50 L248,31 L239,47"></path>
  <path d="M231,31 L218,49 L239,47 L231,31"></path>
  <path d="M248,16 L234,17 L248,31 L248,16"></path>
  <path d="M234,76 L247,83 L247,67 L234,76"></path>
  <path d="M218,49 L229,63 L239,47 L218,49"></path>
  <path d="M246,100 L235,105 L247,116 L246,100"></path>
  <path d="M229,92 L235,105 L246,100 L229,92"></path>
  <path d="M234,17 L231,31 L248,31 L234,17"></path>
  <path d="M239,47 L229,63 L247,67 L239,47"></path>
  <path d="M235,105 L228,121 L247,116 L235,105"></path>
  <path d="M228,121 L239,126 L247,116 L228,121"></path>
  <path d="M307,110 L290,121 L307,120 L307,110"></path>
  <path d="M229,63 L234,76 L247,67 L229,63"></path>
  <path d="M239,47 L247,67 L248,50 L239,47"></path>
  <path d="M247,116 L239,126 L248,138 L247,116"></path>
  <path d="M273,105 L267,124 L279,118 L273,105"></path>
  <path d="M263,104 L258,120 L267,124 L263,104"></path>
  <path d="M252,137 L266,138 L267,124 L252,137"></path>
  <path d="M258,120 L252,137 L267,124 L258,120"></path>
  <path d="M270,85 L263,104 L273,105 L270,85"></path>
  <path d="M287,104 L279,118 L290,121 L287,104"></path>
  <path d="M279,64 L270,85 L281,81 L279,64"></path>
  <path d="M263,104 L267,124 L273,105 L263,104"></path>
  <path d="M332,95 L329,114 L341,115 L332,95"></path>
  <path d="M279,118 L267,124 L282,137 L279,118"></path>
  <path d="M281,81 L294,93 L299,79 L281,81"></path>
  <path d="M267,124 L266,138 L282,137 L267,124"></path>
  <path d="M279,118 L282,137 L290,121 L279,118"></path>
  <path d="M279,64 L281,81 L291,69 L279,64"></path>
  <path d="M273,105 L279,118 L287,104 L273,105"></path>
  <path d="M281,81 L270,85 L287,104 L281,81"></path>
  <path d="M270,85 L273,105 L287,104 L270,85"></path>
  <path d="M291,69 L299,79 L307,63 L291,69"></path>
  <path d="M305,50 L293,56 L307,63 L305,50"></path>
  <path d="M291,35 L283,48 L293,56 L291,35"></path>
  <path d="M283,48 L279,64 L293,56 L283,48"></path>
  <path d="M279,64 L291,69 L293,56 L279,64"></path>
  <path d="M281,81 L287,104 L294,93 L281,81"></path>
  <path d="M295,19 L313,30 L318,18 L295,19"></path>
  <path d="M300,34 L291,35 L305,50 L300,34"></path>
  <path d="M293,56 L291,69 L307,63 L293,56"></path>
  <path d="M294,93 L316,103 L317,95 L294,93"></path>
  <path d="M291,69 L281,81 L299,79 L291,69"></path>
  <path d="M295,19 L291,35 L300,34 L295,19"></path>
  <path d="M291,35 L293,56 L305,50 L291,35"></path>
  <path d="M287,104 L290,121 L307,110 L287,104"></path>
  <path d="M294,93 L287,104 L307,110 L294,93"></path>
  <path d="M307,63 L317,69 L320,51 L307,63"></path>
  <path d="M300,34 L305,50 L313,30 L300,34"></path>
  <path d="M295,19 L300,34 L313,30 L295,19"></path>
  <path d="M305,50 L307,63 L320,51 L305,50"></path>
  <path d="M305,50 L320,51 L324,40 L305,50"></path>
  <path d="M317,69 L328,80 L332,59 L317,69"></path>
  <path d="M294,93 L307,110 L316,103 L294,93"></path>
  <path d="M307,63 L312,79 L317,69 L307,63"></path>
  <path d="M313,30 L305,50 L324,40 L313,30"></path>
  <path d="M316,103 L329,114 L332,95 L316,103"></path>
  <path d="M317,95 L316,103 L332,95 L317,95"></path>
  <path d="M307,110 L307,120 L324,121 L307,110"></path>
  <path d="M316,103 L307,110 L324,121 L316,103"></path>
  <path d="M318,18 L313,30 L324,40 L318,18"></path>
  <path d="M328,80 L317,95 L332,95 L328,80"></path>
  <path d="M316,103 L324,121 L329,114 L316,103"></path>
  <path d="M312,79 L317,95 L328,80 L312,79"></path>
  <path d="M317,69 L312,79 L328,80 L317,69"></path>
  <path d="M320,51 L317,69 L332,59 L320,51"></path>
  <path d="M324,40 L320,51 L332,59 L324,40"></path>
  <path d="M353,118 L345,129 L360,138 L353,118"></path>
  <path d="M345,129 L344,138 L360,138 L345,129"></path>
  <path d="M332,59 L328,80 L338,75 L332,59"></path>
  <path d="M328,80 L332,95 L338,75 L328,80"></path>
  <path d="M329,114 L324,121 L341,115 L329,114"></path>
  <path d="M332,95 L341,115 L345,94 L332,95"></path>
  <path d="M345,94 L341,115 L353,118 L345,94"></path>
  <path d="M338,75 L332,95 L345,94 L338,75"></path>
  <path d="M324,121 L332,138 L345,129 L324,121"></path>
  <path d="M341,115 L324,121 L345,129 L341,115"></path>
  <path d="M332,138 L344,138 L345,129 L332,138"></path>
  <path d="M341,115 L345,129 L353,118 L341,115"></path>
  <path d="M368,75 L381,87 L382,63 L368,75"></path>
  <path d="M366,37 L379,43 L380,19 L366,37"></path>
  <path d="M367,19 L366,37 L380,19 L367,19"></path>
  <path d="M400,53 L408,70 L415,55 L400,53"></path>
  <path d="M366,37 L367,56 L379,43 L366,37"></path>
  <path d="M425,120 L436,137 L436,117 L425,120"></path>
  <path d="M367,116 L368,136 L381,136 L367,116"></path>
  <path d="M381,87 L396,94 L397,78 L381,87"></path>
  <path d="M389,64 L381,87 L397,78 L389,64"></path>
  <path d="M368,75 L366,95 L381,87 L368,75"></path>
  <path d="M380,19 L389,33 L393,19 L380,19"></path>
  <path d="M367,56 L368,75 L382,63 L367,56"></path>
  <path d="M379,43 L367,56 L382,63 L379,43"></path>
  <path d="M381,87 L366,95 L385,109 L381,87"></path>
  <path d="M367,116 L381,136 L385,109 L367,116"></path>
  <path d="M366,95 L367,116 L385,109 L366,95"></path>
  <path d="M379,43 L382,63 L389,64 L379,43"></path>
  <path d="M382,63 L381,87 L389,64 L382,63"></path>
  <path d="M380,19 L379,43 L389,33 L380,19"></path>
  <path d="M381,87 L385,109 L396,94 L381,87"></path>
  <path d="M405,36 L400,53 L415,55 L405,36"></path>
  <path d="M381,136 L396,136 L397,114 L381,136"></path>
  <path d="M385,109 L381,136 L397,114 L385,109"></path>
  <path d="M396,94 L385,109 L397,114 L396,94"></path>
  <path d="M379,43 L389,64 L400,53 L379,43"></path>
  <path d="M389,33 L379,43 L400,53 L389,33"></path>
  <path d="M389,33 L400,53 L405,36 L389,33"></path>
  <path d="M393,19 L389,33 L405,36 L393,19"></path>
  <path d="M406,91 L416,104 L419,83 L406,91"></path>
  <path d="M397,78 L406,91 L408,70 L397,78"></path>
  <path d="M389,64 L397,78 L408,70 L389,64"></path>
  <path d="M400,53 L389,64 L408,70 L400,53"></path>
  <path d="M408,70 L419,83 L423,69 L408,70"></path>
  <path d="M415,55 L408,70 L423,69 L415,55"></path>
  <path d="M416,104 L425,120 L428,100 L416,104"></path>
  <path d="M408,70 L406,91 L419,83 L408,70"></path>
  <path d="M419,83 L416,104 L428,100 L419,83"></path>
  <path d="M419,83 L428,100 L432,84 L419,83"></path>
  <path d="M423,69 L419,83 L432,84 L423,69"></path>
  <path d="M428,100 L425,120 L436,117 L428,100"></path>
  <path d="M461,118 L450,121 L461,137 L461,118"></path>
  <path d="M436,137 L449,139 L450,121 L436,137"></path>
  <path d="M432,16 L433,32 L446,17 L432,16"></path>
  <path d="M446,102 L461,100 L461,80 L446,102"></path>
  <path d="M431,67 L432,84 L441,79 L431,67"></path>
  <path d="M433,49 L431,67 L445,49 L433,49"></path>
  <path d="M428,100 L436,117 L446,102 L428,100"></path>
  <path d="M446,17 L433,32 L451,32 L446,17"></path>
  <path d="M433,32 L433,49 L445,49 L433,32"></path>
  <path d="M441,79 L432,84 L446,102 L441,79"></path>
  <path d="M432,84 L428,100 L446,102 L432,84"></path>
  <path d="M450,121 L449,139 L461,137 L450,121"></path>
  <path d="M436,117 L436,137 L450,121 L436,117"></path>
  <path d="M445,49 L431,67 L451,63 L445,49"></path>
  <path d="M446,102 L436,117 L450,121 L446,102"></path>
  <path d="M433,32 L445,49 L451,32 L433,32"></path>
  <path d="M431,67 L441,79 L451,63 L431,67"></path>
  <path d="M460,17 L451,32 L461,37 L460,17"></path>
  <path d="M445,49 L460,61 L461,37 L445,49"></path>
  <path d="M446,17 L451,32 L460,17 L446,17"></path>
  <path d="M445,49 L451,63 L460,61 L445,49"></path>
  <path d="M451,32 L445,49 L461,37 L451,32"></path>
  <path d="M441,79 L446,102 L461,80 L441,79"></path>
  <path d="M460,61 L451,63 L461,80 L460,61"></path>
  <path d="M461,100 L446,102 L461,118 L461,100"></path>
  <path d="M446,102 L450,121 L461,118 L446,102"></path>
  <path d="M451,63 L441,79 L461,80 L451,63"></path>
  <path d="M482,18 L494,34 L497,18 L482,18"></path>
  <path d="M495,120 L495,139 L509,122 L495,120"></path>
  <path d="M495,120 L509,122 L509,106 L495,120"></path>
  <path d="M481,108 L495,120 L497,103 L481,108"></path>
  <path d="M494,34 L482,53 L495,52 L494,34"></path>
  <path d="M482,53 L483,72 L495,52 L482,53"></path>
  <path d="M483,72 L483,88 L492,86 L483,72"></path>
  <path d="M481,33 L482,53 L494,34 L481,33"></path>
  <path d="M482,18 L481,33 L494,34 L482,18"></path>
  <path d="M495,120 L483,123 L495,139 L495,120"></path>
  <path d="M483,123 L482,137 L495,139 L483,123"></path>
  <path d="M495,52 L510,63 L510,40 L495,52"></path>
  <path d="M481,108 L483,123 L495,120 L481,108"></path>
  <path d="M497,103 L495,120 L509,106 L497,103"></path>
  <path d="M495,52 L483,72 L499,70 L495,52"></path>
  <path d="M492,86 L483,88 L497,103 L492,86"></path>
  <path d="M483,88 L481,108 L497,103 L483,88"></path>
  <path d="M483,72 L492,86 L499,70 L483,72"></path>
  <path d="M494,34 L510,40 L510,18 L494,34"></path>
  <path d="M497,18 L494,34 L510,18 L497,18"></path>
  <path d="M495,52 L499,70 L510,63 L495,52"></path>
  <path d="M510,63 L499,70 L510,85 L510,63"></path>
  <path d="M492,86 L497,103 L510,85 L492,86"></path>
  <path d="M497,103 L509,106 L510,85 L497,103"></path>
  <path d="M509,122 L495,139 L511,138 L509,122"></path>
  <path d="M499,70 L492,86 L510,85 L499,70"></path>
  <path d="M494,34 L495,52 L510,40 L494,34"></path>
  <path d="M548,109 L539,123 L556,116 L548,109"></path>
  <path d="M529,21 L528,39 L543,20 L529,21"></path>
  <path d="M539,123 L529,137 L543,138 L539,123"></path>
  <path d="M529,79 L529,101 L540,92 L529,79"></path>
  <path d="M529,118 L529,137 L539,123 L529,118"></path>
  <path d="M528,39 L545,51 L548,37 L528,39"></path>
  <path d="M543,20 L528,39 L548,37 L543,20"></path>
  <path d="M528,39 L529,57 L545,51 L528,39"></path>
  <path d="M529,57 L529,79 L547,72 L529,57"></path>
  <path d="M545,51 L529,57 L547,72 L545,51"></path>
  <path d="M529,79 L540,92 L547,72 L529,79"></path>
  <path d="M529,101 L529,118 L548,109 L529,101"></path>
  <path d="M529,118 L539,123 L548,109 L529,118"></path>
  <path d="M540,92 L529,101 L548,109 L540,92"></path>
  <path d="M581,96 L574,109 L592,108 L581,96"></path>
  <path d="M564,33 L548,37 L570,45 L564,33"></path>
  <path d="M547,72 L540,92 L555,77 L547,72"></path>
  <path d="M630,99 L622,111 L638,116 L630,99"></path>
  <path d="M556,116 L539,123 L557,138 L556,116"></path>
  <path d="M555,77 L540,92 L557,98 L555,77"></path>
  <path d="M543,20 L548,37 L556,20 L543,20"></path>
  <path d="M539,123 L543,138 L557,138 L539,123"></path>
  <path d="M548,109 L556,116 L557,98 L548,109"></path>
  <path d="M540,92 L548,109 L557,98 L540,92"></path>
  <path d="M545,51 L547,72 L558,65 L545,51"></path>
  <path d="M547,72 L555,77 L558,65 L547,72"></path>
  <path d="M548,37 L545,51 L570,45 L548,37"></path>
  <path d="M556,20 L548,37 L564,33 L556,20"></path>
  <path d="M555,77 L566,94 L574,78 L555,77"></path>
  <path d="M545,51 L558,65 L570,45 L545,51"></path>
  <path d="M597,46 L604,52 L604,35 L597,46"></path>
  <path d="M558,65 L555,77 L574,78 L558,65"></path>
  <path d="M558,65 L574,78 L578,60 L558,65"></path>
  <path d="M578,60 L574,78 L584,72 L578,60"></path>
  <path d="M570,45 L558,65 L578,60 L570,45"></path>
  <path d="M566,94 L574,109 L581,96 L566,94"></path>
  <path d="M574,78 L566,94 L581,96 L574,78"></path>
  <path d="M581,96 L592,108 L594,86 L581,96"></path>
  <path d="M574,78 L581,96 L594,86 L574,78"></path>
  <path d="M584,72 L574,78 L594,86 L584,72"></path>
  <path d="M594,86 L592,108 L609,90 L594,86"></path>
  <path d="M584,72 L594,86 L600,71 L584,72"></path>
  <path d="M592,58 L584,72 L600,71 L592,58"></path>
  <path d="M592,58 L600,71 L604,52 L592,58"></path>
  <path d="M597,46 L592,58 L604,52 L597,46"></path>
  <path d="M594,86 L609,90 L610,79 L594,86"></path>
  <path d="M610,101 L610,114 L622,111 L610,101"></path>
  <path d="M609,127 L610,138 L617,127 L609,127"></path>
  <path d="M627,80 L618,91 L630,99 L627,80"></path>
  <path d="M600,71 L594,86 L610,79 L600,71"></path>
  <path d="M610,114 L609,127 L617,127 L610,114"></path>
  <path d="M604,35 L604,52 L617,46 L604,35"></path>
  <path d="M622,111 L629,122 L638,116 L622,111"></path>
  <path d="M624,35 L637,39 L638,21 L624,35"></path>
  <path d="M623,21 L624,35 L638,21 L623,21"></path>
  <path d="M609,90 L610,101 L618,91 L609,90"></path>
  <path d="M610,79 L609,90 L618,91 L610,79"></path>
  <path d="M604,52 L600,71 L622,66 L604,52"></path>
  <path d="M600,71 L610,79 L622,66 L600,71"></path>
  <path d="M617,46 L604,52 L622,66 L617,46"></path>
  <path d="M610,114 L617,127 L622,111 L610,114"></path>
  <path d="M624,35 L626,53 L637,39 L624,35"></path>
  <path d="M623,21 L610,19 L624,35 L623,21"></path>
  <path d="M610,19 L604,35 L624,35 L610,19"></path>
  <path d="M604,35 L617,46 L624,35 L604,35"></path>
  <path d="M638,116 L629,122 L639,137 L638,116"></path>
  <path d="M617,127 L610,138 L625,137 L617,127"></path>
  <path d="M617,46 L622,66 L626,53 L617,46"></path>
  <path d="M624,35 L617,46 L626,53 L624,35"></path>
  <path d="M610,79 L618,91 L627,80 L610,79"></path>
  <path d="M622,66 L610,79 L627,80 L622,66"></path>
  <path d="M617,127 L625,137 L629,122 L617,127"></path>
  <path d="M622,111 L617,127 L629,122 L622,111"></path>
  <path d="M618,91 L610,101 L630,99 L618,91"></path>
  <path d="M610,101 L622,111 L630,99 L610,101"></path>
  <path d="M639,73 L627,80 L639,95 L639,73"></path>
  <path d="M627,80 L630,99 L639,95 L627,80"></path>
  <path d="M630,99 L638,116 L639,95 L630,99"></path>
  <path d="M626,53 L622,66 L639,56 L626,53"></path>
  <path d="M637,39 L626,53 L639,56 L637,39"></path>
  <path d="M684,112 L680,122 L690,119 L684,112"></path>
  <path d="M622,66 L627,80 L639,73 L622,66"></path>
  <path d="M639,56 L622,66 L639,73 L639,56"></path>
  <path d="M629,122 L625,137 L639,137 L629,122"></path>
  <path d="M652,118 L663,127 L663,115 L652,118"></path>
  <path d="M659,98 L652,118 L663,115 L659,98"></path>
  <path d="M670,100 L663,115 L672,110 L670,100"></path>
  <path d="M645,137 L659,139 L663,127 L645,137"></path>
  <path d="M652,118 L645,137 L663,127 L652,118"></path>
  <path d="M665,78 L659,98 L670,100 L665,78"></path>
  <path d="M659,98 L663,115 L670,100 L659,98"></path>
  <path d="M663,127 L659,139 L676,136 L663,127"></path>
  <path d="M720,74 L704,77 L720,88 L720,74"></path>
  <path d="M671,63 L665,78 L674,80 L671,63"></path>
  <path d="M665,78 L670,100 L674,80 L665,78"></path>
  <path d="M672,110 L663,115 L680,122 L672,110"></path>
  <path d="M663,115 L663,127 L680,122 L663,115"></path>
  <path d="M663,127 L676,136 L680,122 L663,127"></path>
  <path d="M670,100 L672,110 L681,98 L670,100"></path>
  <path d="M681,98 L672,110 L684,112 L681,98"></path>
  <path d="M674,80 L670,100 L681,98 L674,80"></path>
  <path d="M671,63 L674,80 L682,65 L671,63"></path>
  <path d="M677,47 L671,63 L682,65 L677,47"></path>
  <path d="M672,110 L680,122 L684,112 L672,110"></path>
  <path d="M685,82 L690,94 L694,78 L685,82"></path>
  <path d="M707,42 L693,57 L710,60 L707,42"></path>
  <path d="M674,80 L681,98 L685,82 L674,80"></path>
  <path d="M682,65 L674,80 L685,82 L682,65"></path>
  <path d="M690,94 L681,98 L696,105 L690,94"></path>
  <path d="M685,82 L681,98 L690,94 L685,82"></path>
  <path d="M687,19 L691,37 L701,21 L687,19"></path>
  <path d="M687,19 L683,34 L691,37 L687,19"></path>
  <path d="M683,34 L677,47 L691,37 L683,34"></path>
  <path d="M691,37 L677,47 L693,57 L691,37"></path>
  <path d="M677,47 L682,65 L693,57 L677,47"></path>
  <path d="M681,98 L684,112 L696,105 L681,98"></path>
  <path d="M682,65 L685,82 L694,78 L682,65"></path>
  <path d="M684,112 L690,119 L696,105 L684,112"></path>
  <path d="M701,21 L691,37 L707,42 L701,21"></path>
  <path d="M709,94 L700,95 L710,110 L709,94"></path>
  <path d="M696,105 L690,119 L702,118 L696,105"></path>
  <path d="M693,57 L682,65 L699,64 L693,57"></path>
  <path d="M682,65 L694,78 L699,64 L682,65"></path>
  <path d="M690,94 L696,105 L700,95 L690,94"></path>
  <path d="M701,21 L707,42 L711,20 L701,21"></path>
  <path d="M693,57 L699,64 L710,60 L693,57"></path>
  <path d="M691,37 L693,57 L707,42 L691,37"></path>
  <path d="M700,95 L696,105 L710,110 L700,95"></path>
  <path d="M710,110 L702,118 L715,120 L710,110"></path>
  <path d="M715,120 L723,137 L724,118 L715,120"></path>
  <path d="M699,64 L704,77 L710,60 L699,64"></path>
  <path d="M696,105 L702,118 L710,110 L696,105"></path>
  <path d="M704,77 L709,94 L720,88 L704,77"></path>
  <path d="M726,58 L720,74 L733,78 L726,58"></path>
  <path d="M710,60 L720,74 L726,58 L710,60"></path>
  <path d="M717,38 L710,60 L726,58 L717,38"></path>
  <path d="M707,42 L710,60 L717,38 L707,42"></path>
  <path d="M711,20 L707,42 L717,38 L711,20"></path>
  <path d="M749,121 L736,126 L753,137 L749,121"></path>
  <path d="M710,60 L704,77 L720,74 L710,60"></path>
  <path d="M736,126 L738,139 L753,137 L736,126"></path>
  <path d="M710,110 L715,120 L724,118 L710,110"></path>
  <path d="M759,102 L769,106 L777,88 L759,102"></path>
  <path d="M709,94 L710,110 L726,101 L709,94"></path>
  <path d="M720,88 L709,94 L726,101 L720,88"></path>
  <path d="M710,110 L724,118 L726,101 L710,110"></path>
  <path d="M720,74 L720,88 L733,78 L720,74"></path>
  <path d="M736,126 L723,137 L738,139 L736,126"></path>
  <path d="M744,109 L736,126 L749,121 L744,109"></path>
  <path d="M733,78 L720,88 L738,92 L733,78"></path>
  <path d="M724,118 L723,137 L736,126 L724,118"></path>
  <path d="M720,88 L726,101 L738,92 L720,88"></path>
  <path d="M726,101 L724,118 L744,109 L726,101"></path>
  <path d="M724,118 L736,126 L744,109 L724,118"></path>
  <path d="M738,92 L726,101 L744,109 L738,92"></path>
  <path d="M761,81 L759,102 L777,88 L761,81"></path>
  <path d="M789,109 L778,117 L789,126 L789,109"></path>
  <path d="M771,46 L789,54 L790,36 L771,46"></path>
  <path d="M759,102 L760,119 L769,106 L759,102"></path>
  <path d="M778,32 L771,46 L790,36 L778,32"></path>
  <path d="M762,58 L761,81 L770,75 L762,58"></path>
  <path d="M771,127 L761,136 L778,137 L771,127"></path>
  <path d="M760,119 L761,136 L771,127 L760,119"></path>
  <path d="M770,75 L761,81 L777,88 L770,75"></path>
  <path d="M761,36 L762,58 L771,46 L761,36"></path>
  <path d="M771,46 L762,58 L778,61 L771,46"></path>
  <path d="M760,119 L771,127 L778,117 L760,119"></path>
  <path d="M776,17 L761,17 L778,32 L776,17"></path>
  <path d="M788,16 L778,32 L790,36 L788,16"></path>
  <path d="M771,127 L778,137 L789,126 L771,127"></path>
  <path d="M769,106 L760,119 L778,117 L769,106"></path>
  <path d="M761,36 L771,46 L778,32 L761,36"></path>
  <path d="M761,17 L761,36 L778,32 L761,17"></path>
  <path d="M762,58 L770,75 L778,61 L762,58"></path>
  <path d="M776,17 L778,32 L788,16 L776,17"></path>
  <path d="M777,88 L769,106 L789,94 L777,88"></path>
  <path d="M778,61 L789,72 L789,54 L778,61"></path>
  <path d="M789,94 L769,106 L789,109 L789,94"></path>
  <path d="M769,106 L778,117 L789,109 L769,106"></path>
  <path d="M777,88 L789,94 L789,72 L777,88"></path>
  <path d="M778,61 L770,75 L789,72 L778,61"></path>
  <path d="M770,75 L777,88 L789,72 L770,75"></path>
  <path d="M778,117 L771,127 L789,126 L778,117"></path>
  <path d="M771,46 L778,61 L789,54 L771,46"></path>
  <path d="M789,126 L778,137 L799,137 L789,126"></path>
  <path d="M807,110 L805,118 L815,127 L807,110"></path>
  <path d="M805,118 L799,137 L815,127 L805,118"></path>
  <path d="M789,126 L799,137 L805,118 L789,126"></path>
  <path d="M789,109 L789,126 L805,118 L789,109"></path>
  <path d="M789,109 L805,118 L807,110 L789,109"></path>
  <path d="M841,121 L826,120 L841,136 L841,121"></path>
  <path d="M815,127 L823,137 L826,120 L815,127"></path>
  <path d="M823,107 L807,110 L826,120 L823,107"></path>
  <path d="M807,110 L815,127 L826,120 L807,110"></path>
  <path d="M815,127 L799,137 L823,137 L815,127"></path>
  <path d="M826,120 L823,137 L841,136 L826,120"></path>
  <path d="M826,120 L841,121 L841,109 L826,120"></path>
  <path d="M823,107 L826,120 L841,109 L823,107"></path>
  <path d="M198,123 L188,138 L204,136 L198,123"></path>
  <path d="M866,60 L849,52 L848,69 L866,60"></path>
  <path d="M866,60 L877,47 L860,47 L866,60"></path>
  <path d="M877,47 L867,31 L860,47 L877,47"></path>
  <path d="M877,119 L877,103 L864,121 L877,119"></path>
  <path d="M877,30 L876,15 L867,31 L877,30"></path>
  <path d="M877,47 L877,30 L867,31 L877,47"></path>
  <path d="M877,136 L864,121 L861,135 L877,136"></path>
  <path d="M877,136 L877,119 L864,121 L877,136"></path>
  <path d="M876,64 L877,47 L866,60 L876,64"></path>
  <path d="M877,103 L877,84 L866,89 L877,103"></path>
  <path d="M867,31 L863,15 L856,26 L867,31"></path>
  <path d="M867,31 L876,15 L863,15 L867,31"></path>
  <path d="M861,76 L866,60 L848,69 L861,76"></path>
  <path d="M856,26 L863,15 L847,14 L856,26"></path>
  <path d="M864,121 L856,105 L847,121 L864,121"></path>
  <path d="M876,64 L866,60 L861,76 L876,64"></path>
  <path d="M877,84 L876,64 L861,76 L877,84"></path>
  <path d="M866,89 L877,84 L861,76 L866,89"></path>
  <path d="M856,105 L847,102 L847,121 L856,105"></path>
  <path d="M864,121 L877,103 L856,105 L864,121"></path>
  <path d="M847,136 L861,135 L847,121 L847,136"></path>
  <path d="M861,76 L848,69 L848,85 L861,76"></path>
  <path d="M877,103 L866,89 L856,105 L877,103"></path>
  <path d="M849,52 L860,47 L848,36 L849,52"></path>
  <path d="M866,60 L860,47 L849,52 L866,60"></path>
  <path d="M861,135 L864,121 L847,121 L861,135"></path>
  <path d="M856,105 L866,89 L848,85 L856,105"></path>
  <path d="M860,47 L867,31 L848,36 L860,47"></path>
  <path d="M867,31 L856,26 L848,36 L867,31"></path>
  <path d="M866,89 L861,76 L848,85 L866,89"></path>
  <path d="M856,105 L848,85 L847,102 L856,105"></path>
  <path d="M848,36 L856,26 L847,14 L848,36"></path>
  <path d="M939,106 L922,117 L939,116 L939,106"></path>
  <path d="M905,101 L899,120 L911,114 L905,101"></path>
  <path d="M895,100 L890,116 L899,120 L895,100"></path>
  <path d="M884,133 L898,134 L899,120 L884,133"></path>
  <path d="M890,116 L884,133 L899,120 L890,116"></path>
  <path d="M902,81 L895,100 L905,101 L902,81"></path>
  <path d="M919,100 L911,114 L922,117 L919,100"></path>
  <path d="M911,60 L902,81 L913,77 L911,60"></path>
  <path d="M895,100 L899,120 L905,101 L895,100"></path>
  <path d="M964,91 L961,110 L973,111 L964,91"></path>
  <path d="M911,114 L899,120 L914,133 L911,114"></path>
  <path d="M913,77 L926,89 L931,75 L913,77"></path>
  <path d="M899,120 L898,134 L914,133 L899,120"></path>
  <path d="M911,114 L914,133 L922,117 L911,114"></path>
  <path d="M911,60 L913,77 L923,65 L911,60"></path>
  <path d="M905,101 L911,114 L919,100 L905,101"></path>
  <path d="M913,77 L902,81 L919,100 L913,77"></path>
  <path d="M902,81 L905,101 L919,100 L902,81"></path>
  <path d="M923,65 L931,75 L939,59 L923,65"></path>
  <path d="M937,46 L925,52 L939,59 L937,46"></path>
  <path d="M923,31 L915,44 L925,52 L923,31"></path>
  <path d="M915,44 L911,60 L925,52 L915,44"></path>
  <path d="M911,60 L923,65 L925,52 L911,60"></path>
  <path d="M913,77 L919,100 L926,89 L913,77"></path>
  <path d="M927,15 L945,26 L950,14 L927,15"></path>
  <path d="M932,30 L923,31 L937,46 L932,30"></path>
  <path d="M925,52 L923,65 L939,59 L925,52"></path>
  <path d="M926,89 L948,99 L949,91 L926,89"></path>
  <path d="M923,65 L913,77 L931,75 L923,65"></path>
  <path d="M927,15 L923,31 L932,30 L927,15"></path>
  <path d="M923,31 L925,52 L937,46 L923,31"></path>
  <path d="M919,100 L922,117 L939,106 L919,100"></path>
  <path d="M926,89 L919,100 L939,106 L926,89"></path>
  <path d="M939,59 L949,65 L952,47 L939,59"></path>
  <path d="M932,30 L937,46 L945,26 L932,30"></path>
  <path d="M927,15 L932,30 L945,26 L927,15"></path>
  <path d="M937,46 L939,59 L952,47 L937,46"></path>
  <path d="M937,46 L952,47 L956,36 L937,46"></path>
  <path d="M949,65 L960,76 L964,55 L949,65"></path>
  <path d="M926,89 L939,106 L948,99 L926,89"></path>
  <path d="M939,59 L944,75 L949,65 L939,59"></path>
  <path d="M945,26 L937,46 L956,36 L945,26"></path>
  <path d="M948,99 L961,110 L964,91 L948,99"></path>
  <path d="M949,91 L948,99 L964,91 L949,91"></path>
  <path d="M939,106 L939,116 L956,117 L939,106"></path>
  <path d="M948,99 L939,106 L956,117 L948,99"></path>
  <path d="M950,14 L945,26 L956,36 L950,14"></path>
  <path d="M960,76 L949,91 L964,91 L960,76"></path>
  <path d="M948,99 L956,117 L961,110 L948,99"></path>
  <path d="M944,75 L949,91 L960,76 L944,75"></path>
  <path d="M949,65 L944,75 L960,76 L949,65"></path>
  <path d="M952,47 L949,65 L964,55 L952,47"></path>
  <path d="M956,36 L952,47 L964,55 L956,36"></path>
  <path d="M985,114 L977,125 L992,134 L985,114"></path>
  <path d="M977,125 L976,134 L992,134 L977,125"></path>
  <path d="M964,55 L960,76 L970,71 L964,55"></path>
  <path d="M960,76 L964,91 L970,71 L960,76"></path>
  <path d="M961,110 L956,117 L973,111 L961,110"></path>
  <path d="M964,91 L973,111 L977,90 L964,91"></path>
  <path d="M977,90 L973,111 L985,114 L977,90"></path>
  <path d="M970,71 L964,91 L977,90 L970,71"></path>
  <path d="M956,117 L964,134 L977,125 L956,117"></path>
  <path d="M973,111 L956,117 L977,125 L973,111"></path>
  <path d="M964,134 L976,134 L977,125 L964,134"></path>
  <path d="M973,111 L977,125 L985,114 L973,111"></path>
 </g>
</svg>
