<svg xmlns="http://www.w3.org/2000/svg" xmlns:xlink="http://www.w3.org/1999/xlink" width="653px" height="428px" viewBox="0 0 653 428" version="1.1"><g stroke="none" stroke-width="1" fill="none" fill-rule="evenodd"><g stroke="#080808"><path d="M26 261 L22 285 L35 287 L26 261 " /><path d="M54 270 L60 287 L70 272 L54 270 " /><path d="M6 270 L22 285 L26 261 L6 270 " /><path d="M7 261 L6 270 L26 261 L7 261 " /><path d="M54 270 L35 287 L60 287 L54 270 " /><path d="M26 261 L35 287 L54 270 L26 261 " /><path d="M77 277 L86 290 L89 265 L77 277 " /><path d="M109 293 L94 303 L117 318 L109 293 " /><path d="M70 272 L77 277 L89 265 L70 272 " /><path d="M132 229 L125 252 L143 251 L132 229 " /><path d="M103 267 L86 290 L109 293 L103 267 " /><path d="M69 261 L70 272 L89 265 L69 261 " /><path d="M70 272 L60 287 L77 277 L70 272 " /><path d="M86 242 L69 261 L89 265 L86 242 " /><path d="M125 261 L109 293 L135 305 L125 261 " /><path d="M77 277 L60 287 L86 290 L77 277 " /><path d="M94 303 L97 324 L117 318 L94 303 " /><path d="M78 312 L77 321 L97 324 L78 312 " /><path d="M94 303 L78 312 L97 324 L94 303 " /><path d="M125 252 L125 261 L143 251 L125 252 " /><path d="M89 265 L86 290 L103 267 L89 265 " /><path d="M86 242 L106 255 L107 239 L86 242 " /><path d="M86 242 L89 265 L106 255 L86 242 " /><path d="M89 265 L103 267 L106 255 L89 265 " /><path d="M103 267 L109 293 L125 261 L103 267 " /><path d="M125 252 L106 255 L125 261 L125 252 " /><path d="M106 255 L103 267 L125 261 L106 255 " /><path d="M107 239 L106 255 L125 252 L107 239 " /><path d="M109 293 L117 318 L135 305 L109 293 " /><path d="M169 249 L154 295 L174 298 L169 249 " /><path d="M196 72 L198 89 L204 72 L196 72 " /><path d="M107 239 L125 252 L132 229 L107 239 " /><path d="M182 178 L143 195 L184 209 L182 178 " /><path d="M143 195 L156 218 L184 209 L143 195 " /><path d="M296 57 L302 129 L327 57 L296 57 " /><path d="M143 251 L125 261 L154 295 L143 251 " /><path d="M125 261 L135 305 L154 295 L125 261 " /><path d="M161 233 L143 251 L169 249 L161 233 " /><path d="M224 155 L225 169 L232 173 L224 155 " /><path d="M143 251 L154 295 L169 249 L143 251 " /><path d="M156 218 L132 229 L161 233 L156 218 " /><path d="M132 229 L143 251 L161 233 L132 229 " /><path d="M156 218 L161 233 L184 209 L156 218 " /><path d="M143 175 L143 195 L182 178 L143 175 " /><path d="M198 237 L169 249 L207 257 L198 237 " /><path d="M184 209 L161 233 L189 228 L184 209 " /><path d="M161 233 L169 249 L189 228 L161 233 " /><path d="M172 160 L143 175 L182 178 L172 160 " /><path d="M196 72 L191 75 L198 89 L196 72 " /><path d="M191 75 L193 93 L198 89 L191 75 " /><path d="M193 93 L202 109 L208 105 L193 93 " /><path d="M191 75 L196 72 L197 60 L191 75 " /><path d="M244 141 L224 155 L245 174 L244 141 " /><path d="M198 89 L193 93 L208 105 L198 89 " /><path d="M280 247 L269 260 L282 270 L280 247 " /><path d="M224 155 L232 173 L245 174 L224 155 " /><path d="M207 288 L189 304 L216 296 L207 288 " /><path d="M197 60 L203 57 L206 48 L197 60 " /><path d="M189 228 L169 249 L198 237 L189 228 " /><path d="M203 57 L197 60 L204 72 L203 57 " /><path d="M197 60 L196 72 L204 72 L197 60 " /><path d="M189 304 L198 315 L216 296 L189 304 " /><path d="M174 298 L207 288 L207 257 L174 298 " /><path d="M208 105 L202 109 L212 119 L208 105 " /><path d="M238 192 L253 203 L253 181 L238 192 " /><path d="M205 192 L184 209 L212 208 L205 192 " /><path d="M182 178 L184 209 L205 192 L182 178 " /><path d="M169 249 L174 298 L207 257 L169 249 " /><path d="M182 178 L205 192 L208 162 L182 178 " /><path d="M206 48 L215 55 L215 47 L206 48 " /><path d="M221 221 L240 237 L240 201 L221 221 " /><path d="M174 298 L189 304 L207 288 L174 298 " /><path d="M172 160 L182 178 L208 162 L172 160 " /><path d="M184 209 L189 228 L212 208 L184 209 " /><path d="M198 89 L208 105 L210 84 L198 89 " /><path d="M204 72 L198 89 L210 84 L204 72 " /><path d="M228 34 L215 47 L235 37 L228 34 " /><path d="M220 269 L207 288 L220 288 L220 269 " /><path d="M189 228 L198 237 L212 208 L189 228 " /><path d="M208 162 L205 192 L225 169 L208 162 " /><path d="M206 48 L203 57 L215 55 L206 48 " /><path d="M204 72 L210 84 L212 71 L204 72 " /><path d="M203 57 L204 72 L212 71 L203 57 " /><path d="M203 57 L212 71 L215 55 L203 57 " /><path d="M207 288 L216 296 L220 288 L207 288 " /><path d="M212 119 L226 123 L235 115 L212 119 " /><path d="M212 208 L198 237 L221 221 L212 208 " /><path d="M243 52 L215 55 L246 67 L243 52 " /><path d="M216 296 L198 315 L226 310 L216 296 " /><path d="M208 105 L212 119 L235 115 L208 105 " /><path d="M198 237 L207 257 L221 221 L198 237 " /><path d="M216 296 L226 310 L228 298 L216 296 " /><path d="M207 257 L207 288 L220 269 L207 257 " /><path d="M269 260 L272 274 L282 270 L269 260 " /><path d="M220 288 L216 296 L228 298 L220 288 " /><path d="M238 192 L212 208 L240 201 L238 192 " /><path d="M218 126 L223 138 L226 123 L218 126 " /><path d="M225 169 L205 192 L232 173 L225 169 " /><path d="M245 174 L238 192 L253 181 L245 174 " /><path d="M212 119 L218 126 L226 123 L212 119 " /><path d="M206 48 L215 47 L228 34 L206 48 " /><path d="M228 34 L235 37 L240 28 L228 34 " /><path d="M212 208 L221 221 L240 201 L212 208 " /><path d="M235 250 L220 269 L244 273 L235 250 " /><path d="M256 257 L265 280 L269 260 L256 257 " /><path d="M220 269 L220 288 L244 273 L220 269 " /><path d="M245 174 L253 181 L269 130 L245 174 " /><path d="M221 221 L235 250 L240 237 L221 221 " /><path d="M207 257 L220 269 L235 250 L207 257 " /><path d="M221 221 L207 257 L235 250 L221 221 " /><path d="M205 192 L212 208 L238 192 L205 192 " /><path d="M232 173 L205 192 L238 192 L232 173 " /><path d="M232 173 L238 192 L245 174 L232 173 " /><path d="M235 115 L226 123 L244 141 L235 115 " /><path d="M210 84 L243 98 L246 83 L210 84 " /><path d="M226 123 L223 138 L244 141 L226 123 " /><path d="M215 47 L215 55 L243 52 L215 47 " /><path d="M235 37 L215 47 L243 52 L235 37 " /><path d="M210 84 L208 105 L243 98 L210 84 " /><path d="M208 105 L235 115 L243 98 L208 105 " /><path d="M223 138 L224 155 L244 141 L223 138 " /><path d="M244 273 L220 288 L244 290 L244 273 " /><path d="M265 280 L244 290 L266 289 L265 280 " /><path d="M244 141 L245 174 L269 130 L244 141 " /><path d="M246 67 L212 71 L246 83 L246 67 " /><path d="M212 71 L210 84 L246 83 L212 71 " /><path d="M215 55 L212 71 L246 67 L215 55 " /><path d="M253 203 L240 237 L264 221 L253 203 " /><path d="M376 337 L384 357 L399 338 L376 337 " /><path d="M238 192 L240 201 L253 203 L238 192 " /><path d="M240 201 L240 237 L253 203 L240 201 " /><path d="M235 250 L244 273 L256 257 L235 250 " /><path d="M240 237 L235 250 L256 257 L240 237 " /><path d="M243 52 L246 67 L258 33 L243 52 " /><path d="M296 57 L269 130 L302 129 L296 57 " /><path d="M253 203 L264 221 L272 226 L253 203 " /><path d="M240 28 L235 37 L258 33 L240 28 " /><path d="M235 37 L243 52 L258 33 L235 37 " /><path d="M256 257 L244 273 L265 280 L256 257 " /><path d="M244 273 L244 290 L265 280 L244 273 " /><path d="M246 83 L243 98 L269 130 L246 83 " /><path d="M235 115 L244 141 L269 130 L235 115 " /><path d="M243 98 L235 115 L269 130 L243 98 " /><path d="M269 130 L291 133 L302 129 L269 130 " /><path d="M272 226 L256 257 L280 247 L272 226 " /><path d="M240 237 L256 257 L272 226 L240 237 " /><path d="M264 221 L240 237 L272 226 L264 221 " /><path d="M253 181 L253 203 L272 226 L253 181 " /><path d="M269 260 L265 280 L272 274 L269 260 " /><path d="M265 280 L266 289 L272 274 L265 280 " /><path d="M332 132 L272 226 L351 134 L332 132 " /><path d="M258 33 L246 67 L296 57 L258 33 " /><path d="M256 257 L269 260 L280 247 L256 257 " /><path d="M246 67 L246 83 L296 57 L246 67 " /><path d="M327 57 L302 129 L332 132 L327 57 " /><path d="M269 130 L253 181 L291 133 L269 130 " /><path d="M302 129 L315 134 L332 132 L302 129 " /><path d="M246 83 L269 130 L296 57 L246 83 " /><path d="M315 134 L272 226 L332 132 L315 134 " /><path d="M280 247 L282 270 L310 296 L280 247 " /><path d="M282 270 L288 283 L310 296 L282 270 " /><path d="M258 33 L296 57 L327 57 L258 33 " /><path d="M291 133 L253 181 L315 134 L291 133 " /><path d="M302 129 L291 133 L315 134 L302 129 " /><path d="M253 181 L272 226 L315 134 L253 181 " /><path d="M272 226 L280 247 L351 134 L272 226 " /><path d="M327 57 L332 132 L351 134 L327 57 " /><path d="M280 247 L310 296 L340 301 L280 247 " /><path d="M327 57 L351 134 L372 56 L327 57 " /><path d="M399 338 L384 357 L400 359 L399 338 " /><path d="M376 337 L370 343 L384 357 L376 337 " /><path d="M280 247 L340 301 L395 147 L280 247 " /><path d="M351 134 L280 247 L395 147 L351 134 " /><path d="M480 218 L463 273 L481 255 L480 218 " /><path d="M407 77 L372 56 L412 97 L407 77 " /><path d="M372 56 L407 77 L411 61 L372 56 " /><path d="M397 43 L372 56 L411 61 L397 43 " /><path d="M542 387 L537 397 L544 392 L542 387 " /><path d="M399 338 L424 352 L429 338 L399 338 " /><path d="M419 109 L430 120 L447 97 L419 109 " /><path d="M407 77 L417 95 L422 81 L407 77 " /><path d="M417 95 L412 97 L419 109 L417 95 " /><path d="M416 364 L407 379 L421 385 L416 364 " /><path d="M420 49 L426 63 L427 52 L420 49 " /><path d="M372 56 L351 134 L412 97 L372 56 " /><path d="M351 134 L395 147 L412 97 L351 134 " /><path d="M397 43 L411 61 L420 49 L397 43 " /><path d="M444 36 L453 49 L454 40 L444 36 " /><path d="M403 371 L407 379 L416 364 L403 371 " /><path d="M452 34 L444 36 L454 40 L452 34 " /><path d="M412 97 L395 147 L419 109 L412 97 " /><path d="M407 77 L412 97 L417 95 L407 77 " /><path d="M417 95 L419 109 L447 97 L417 95 " /><path d="M430 120 L395 147 L433 163 L430 120 " /><path d="M433 163 L395 147 L443 181 L433 163 " /><path d="M463 101 L474 112 L480 98 L463 101 " /><path d="M399 338 L400 359 L424 352 L399 338 " /><path d="M372 310 L414 310 L443 181 L372 310 " /><path d="M411 61 L407 77 L426 63 L411 61 " /><path d="M407 77 L422 81 L426 63 L407 77 " /><path d="M420 49 L411 61 L426 63 L420 49 " /><path d="M397 43 L420 49 L432 29 L397 43 " /><path d="M419 109 L395 147 L430 120 L419 109 " /><path d="M432 29 L444 36 L452 34 L432 29 " /><path d="M427 52 L426 63 L444 66 L427 52 " /><path d="M446 321 L460 336 L463 328 L446 321 " /><path d="M430 120 L433 163 L446 128 L430 120 " /><path d="M416 364 L421 385 L443 383 L416 364 " /><path d="M420 49 L427 52 L435 37 L420 49 " /><path d="M432 29 L420 49 L435 37 L432 29 " /><path d="M340 301 L372 310 L443 181 L340 301 " /><path d="M395 147 L340 301 L443 181 L395 147 " /><path d="M444 66 L422 81 L445 83 L444 66 " /><path d="M445 83 L422 81 L447 97 L445 83 " /><path d="M422 81 L417 95 L447 97 L422 81 " /><path d="M414 310 L452 294 L463 273 L414 310 " /><path d="M432 29 L435 37 L444 36 L432 29 " /><path d="M426 63 L422 81 L444 66 L426 63 " /><path d="M437 324 L438 330 L446 321 L437 324 " /><path d="M443 181 L414 310 L463 273 L443 181 " /><path d="M430 120 L446 128 L447 121 L430 120 " /><path d="M429 338 L424 352 L445 357 L429 338 " /><path d="M438 330 L429 338 L445 357 L438 330 " /><path d="M430 120 L447 121 L449 112 L430 120 " /><path d="M471 195 L480 218 L480 204 L471 195 " /><path d="M435 37 L427 52 L453 49 L435 37 " /><path d="M460 336 L445 357 L462 347 L460 336 " /><path d="M446 128 L433 163 L457 164 L446 128 " /><path d="M447 97 L430 120 L449 112 L447 97 " /><path d="M445 357 L459 371 L462 347 L445 357 " /><path d="M416 364 L443 383 L447 377 L416 364 " /><path d="M445 357 L416 364 L447 377 L445 357 " /><path d="M437 324 L446 321 L452 294 L437 324 " /><path d="M452 294 L446 321 L463 328 L452 294 " /><path d="M414 310 L437 324 L452 294 L414 310 " /><path d="M478 63 L471 72 L482 83 L478 63 " /><path d="M427 52 L444 66 L453 49 L427 52 " /><path d="M446 321 L438 330 L460 336 L446 321 " /><path d="M444 36 L435 37 L453 49 L444 36 " /><path d="M438 330 L445 357 L460 336 L438 330 " /><path d="M433 163 L443 181 L457 164 L433 163 " /><path d="M477 187 L471 195 L480 204 L477 187 " /><path d="M469 89 L463 101 L480 98 L469 89 " /><path d="M469 89 L480 98 L482 83 L469 89 " /><path d="M445 357 L447 377 L459 371 L445 357 " /><path d="M466 185 L443 181 L471 195 L466 185 " /><path d="M447 121 L446 128 L460 123 L447 121 " /><path d="M449 112 L447 121 L460 123 L449 112 " /><path d="M447 97 L449 112 L463 101 L447 97 " /><path d="M449 112 L460 123 L463 101 L449 112 " /><path d="M453 49 L464 58 L467 50 L453 49 " /><path d="M445 83 L469 89 L471 72 L445 83 " /><path d="M454 40 L453 49 L467 50 L454 40 " /><path d="M471 72 L469 89 L482 83 L471 72 " /><path d="M466 185 L471 195 L477 187 L466 185 " /><path d="M453 49 L444 66 L464 58 L453 49 " /><path d="M452 34 L454 40 L467 50 L452 34 " /><path d="M464 58 L444 66 L471 72 L464 58 " /><path d="M457 164 L443 181 L466 185 L457 164 " /><path d="M444 66 L445 83 L471 72 L444 66 " /><path d="M445 83 L447 97 L469 89 L445 83 " /><path d="M447 97 L463 101 L469 89 L447 97 " /><path d="M471 195 L443 181 L480 218 L471 195 " /><path d="M446 128 L457 164 L473 132 L446 128 " /><path d="M460 123 L446 128 L473 132 L460 123 " /><path d="M492 315 L481 330 L493 332 L492 315 " /><path d="M463 101 L460 123 L474 112 L463 101 " /><path d="M460 123 L473 132 L474 112 L460 123 " /><path d="M473 132 L457 164 L476 158 L473 132 " /><path d="M467 50 L464 58 L478 63 L467 50 " /><path d="M464 58 L471 72 L478 63 L464 58 " /><path d="M521 361 L500 379 L523 376 L521 361 " /><path d="M503 393 L520 399 L523 376 L503 393 " /><path d="M443 181 L463 273 L480 218 L443 181 " /><path d="M493 332 L481 330 L501 343 L493 332 " /><path d="M462 347 L459 371 L480 373 L462 347 " /><path d="M507 296 L492 315 L507 316 L507 296 " /><path d="M462 347 L480 373 L489 371 L462 347 " /><path d="M463 328 L460 336 L481 330 L463 328 " /><path d="M460 336 L462 347 L481 330 L460 336 " /><path d="M476 158 L457 164 L477 169 L476 158 " /><path d="M481 255 L509 260 L512 244 L481 255 " /><path d="M509 260 L489 269 L509 278 L509 260 " /><path d="M457 164 L466 185 L477 169 L457 164 " /><path d="M569 279 L583 285 L585 262 L569 279 " /><path d="M466 185 L477 187 L477 169 L466 185 " /><path d="M480 218 L481 255 L495 227 L480 218 " /><path d="M495 227 L481 255 L512 244 L495 227 " /><path d="M489 269 L463 273 L492 315 L489 269 " /><path d="M481 255 L463 273 L489 269 L481 255 " /><path d="M463 273 L452 294 L492 315 L463 273 " /><path d="M452 294 L463 328 L492 315 L452 294 " /><path d="M463 328 L481 330 L492 315 L463 328 " /><path d="M462 347 L489 371 L501 343 L462 347 " /><path d="M481 330 L462 347 L501 343 L481 330 " /><path d="M551 244 L555 273 L566 247 L551 244 " /><path d="M493 332 L501 343 L507 316 L493 332 " /><path d="M500 379 L499 389 L503 393 L500 379 " /><path d="M501 343 L537 347 L537 335 L501 343 " /><path d="M495 227 L512 244 L520 227 L495 227 " /><path d="M492 315 L493 332 L507 316 L492 315 " /><path d="M489 269 L492 315 L507 296 L489 269 " /><path d="M481 255 L489 269 L509 260 L481 255 " /><path d="M489 269 L507 296 L509 278 L489 269 " /><path d="M584 298 L567 299 L588 310 L584 298 " /><path d="M507 316 L501 343 L537 335 L507 316 " /><path d="M500 379 L503 393 L523 376 L500 379 " /><path d="M489 371 L500 379 L521 361 L489 371 " /><path d="M501 343 L489 371 L521 361 L501 343 " /><path d="M523 376 L537 397 L542 387 L523 376 " /><path d="M523 376 L520 399 L537 397 L523 376 " /><path d="M569 325 L555 325 L571 353 L569 325 " /><path d="M537 347 L561 364 L571 353 L537 347 " /><path d="M501 343 L521 361 L537 347 L501 343 " /><path d="M541 232 L512 244 L551 244 L541 232 " /><path d="M509 278 L554 284 L555 273 L509 278 " /><path d="M509 260 L509 278 L555 273 L509 260 " /><path d="M520 227 L512 244 L541 232 L520 227 " /><path d="M567 299 L555 325 L569 325 L567 299 " /><path d="M566 247 L555 273 L569 279 L566 247 " /><path d="M554 284 L567 299 L569 279 L554 284 " /><path d="M507 296 L507 316 L547 303 L507 296 " /><path d="M507 316 L537 335 L547 303 L507 316 " /><path d="M509 278 L507 296 L547 303 L509 278 " /><path d="M547 303 L537 335 L555 325 L547 303 " /><path d="M512 244 L509 260 L551 244 L512 244 " /><path d="M509 278 L547 303 L554 284 L509 278 " /><path d="M551 244 L509 260 L555 273 L551 244 " /><path d="M537 335 L537 347 L555 325 L537 335 " /><path d="M555 325 L537 347 L571 353 L555 325 " /><path d="M554 284 L547 303 L567 299 L554 284 " /><path d="M547 303 L555 325 L567 299 L547 303 " /><path d="M555 273 L554 284 L569 279 L555 273 " /><path d="M621 339 L627 367 L634 345 L621 339 " /><path d="M583 285 L584 298 L594 278 L583 285 " /><path d="M583 285 L567 299 L584 298 L583 285 " /><path d="M567 299 L569 325 L588 310 L567 299 " /><path d="M566 247 L569 279 L585 262 L566 247 " /><path d="M569 279 L567 299 L583 285 L569 279 " /><path d="M569 325 L571 353 L583 342 L569 325 " /><path d="M621 339 L615 372 L627 367 L621 339 " /><path d="M585 262 L583 285 L594 278 L585 262 " /><path d="M571 353 L588 364 L591 350 L571 353 " /><path d="M569 325 L583 342 L588 310 L569 325 " /><path d="M583 342 L571 353 L591 350 L583 342 " /><path d="M591 350 L588 364 L615 372 L591 350 " /><path d="M571 353 L561 364 L588 364 L571 353 " /><path d="M591 350 L615 372 L621 339 L591 350 " /><path d="M588 310 L583 342 L621 339 L588 310 " /><path d="M583 342 L591 350 L621 339 L583 342 " /><path d="M646 353 L627 367 L647 364 L646 353 " /><path d="M634 345 L627 367 L646 353 L634 345 " /></g></g></svg>
