<?xml version="1.0" encoding="UTF-8" standalone="no"?>
<svg width="653px" height="428px" viewBox="0 0 653 428" version="1.1" xmlns="http://www.w3.org/2000/svg" xmlns:xlink="http://www.w3.org/1999/xlink" xmlns:sketch="http://www.bohemiancoding.com/sketch/ns">
    <!-- Generator: Sketch 3.0.4 (8053) - http://www.bohemiancoding.com/sketch -->
    <title>outline-frog</title>
    <desc>Created with Sketch.</desc>
    <defs></defs>
    <g id="Page-1" stroke="none" stroke-width="1" fill="none" fill-rule="evenodd" sketch:type="MSPage">
        <g id="outline-frog" sketch:type="MSArtboardGroup" stroke="#080808">
            <g id="frog" sketch:type="MSLayerGroup" transform="translate(6.000000, 28.000000)">
                <path d="M20.9381214,233.867581 L16.4943747,257.596432 L29.0848021,259.079909 L20.9381214,233.867581" id="Fill-1" sketch:type="MSShapeGroup"></path>
                <path d="M48.3408496,242.024444 L54.265657,259.821082 L64.6342111,244.249094 L48.3408496,242.024444" id="Fill-2" sketch:type="MSShapeGroup"></path>
                <path d="M0.201013193,242.765617 L16.4943747,257.596432 L20.9381214,233.867581 L0.201013193,242.765617" id="Fill-3" sketch:type="MSShapeGroup"></path>
                <path d="M1.68207388,233.867581 L0.201013193,242.765617 L20.9381214,233.867581 L1.68207388,233.867581" id="Fill-4" sketch:type="MSShapeGroup"></path>
                <path d="M48.3408496,242.024444 L29.0848021,259.079909 L54.265657,259.821082 L48.3408496,242.024444" id="Fill-5" sketch:type="MSShapeGroup"></path>
                <path d="M20.9381214,233.867581 L29.0848021,259.079909 L48.3408496,242.024444 L20.9381214,233.867581" id="Fill-6" sketch:type="MSShapeGroup"></path>
                <path d="M71.2998311,249.439568 L80.9275726,262.045733 L83.1494459,237.575143 L71.2998311,249.439568" id="Fill-7" sketch:type="MSShapeGroup"></path>
                <path d="M103.146306,265.75386 L88.3340053,275.393635 L111.292987,290.22445 L103.146306,265.75386" id="Fill-8" sketch:type="MSShapeGroup"></path>
                <path d="M64.6342111,244.249094 L71.2998311,249.439568 L83.1494459,237.575143 L64.6342111,244.249094" id="Fill-9" sketch:type="MSShapeGroup"></path>
                <path d="M126.845536,201.239562 L119.439668,224.22724 L137.214654,223.486067 L126.845536,201.239562" id="Fill-10" sketch:type="MSShapeGroup"></path>
                <path d="M97.9617467,239.058055 L80.9275726,262.045733 L103.146306,265.75386 L97.9617467,239.058055" id="Fill-11" sketch:type="MSShapeGroup"></path>
                <path d="M63.8939631,233.125842 L64.6342111,244.249094 L83.1494459,237.575143 L63.8939631,233.125842" id="Fill-12" sketch:type="MSShapeGroup"></path>
                <path d="M64.6342111,244.249094 L54.265657,259.821082 L71.2998311,249.439568 L64.6342111,244.249094" id="Fill-13" sketch:type="MSShapeGroup"></path>
                <path d="M80.9275726,214.587465 L63.8939631,233.125842 L83.1494459,237.575143 L80.9275726,214.587465" id="Fill-14" sketch:type="MSShapeGroup"></path>
                <path d="M119.439668,233.125842 L103.146306,265.75386 L129.067974,277.618286 L119.439668,233.125842" id="Fill-15" sketch:type="MSShapeGroup"></path>
                <path d="M71.2998311,249.439568 L54.265657,259.821082 L80.9275726,262.045733 L71.2998311,249.439568" id="Fill-16" sketch:type="MSShapeGroup"></path>
                <path d="M88.3340053,275.393635 L91.2961266,296.898401 L111.292987,290.22445 L88.3340053,275.393635" id="Fill-17" sketch:type="MSShapeGroup"></path>
                <path d="M72.7808918,284.292237 L71.2998311,293.932012 L91.2961266,296.898401 L72.7808918,284.292237" id="Fill-18" sketch:type="MSShapeGroup"></path>
                <path d="M88.3340053,275.393635 L72.7808918,284.292237 L91.2961266,296.898401 L88.3340053,275.393635" id="Fill-19" sketch:type="MSShapeGroup"></path>
                <path d="M119.439668,224.22724 L119.439668,233.125842 L137.214654,223.486067 L119.439668,224.22724" id="Fill-20" sketch:type="MSShapeGroup"></path>
                <path d="M83.1494459,237.575143 L80.9275726,262.045733 L97.9617467,239.058055 L83.1494459,237.575143" id="Fill-21" sketch:type="MSShapeGroup"></path>
                <path d="M80.9275726,214.587465 L100.924433,227.193629 L101.664681,211.621076 L80.9275726,214.587465" id="Fill-22" sketch:type="MSShapeGroup"></path>
                <path d="M80.9275726,214.587465 L83.1494459,237.575143 L100.924433,227.193629 L80.9275726,214.587465" id="Fill-23" sketch:type="MSShapeGroup"></path>
                <path d="M83.1494459,237.575143 L97.9617467,239.058055 L100.924433,227.193629 L83.1494459,237.575143" id="Fill-24" sketch:type="MSShapeGroup"></path>
                <path d="M97.9617467,239.058055 L103.146306,265.75386 L119.439668,233.125842 L97.9617467,239.058055" id="Fill-25" sketch:type="MSShapeGroup"></path>
                <path d="M119.439668,224.22724 L100.924433,227.193629 L119.439668,233.125842 L119.439668,224.22724" id="Fill-26" sketch:type="MSShapeGroup"></path>
                <path d="M100.924433,227.193629 L97.9617467,239.058055 L119.439668,233.125842 L100.924433,227.193629" id="Fill-27" sketch:type="MSShapeGroup"></path>
                <path d="M101.664681,211.621076 L100.924433,227.193629 L119.439668,224.22724 L101.664681,211.621076" id="Fill-28" sketch:type="MSShapeGroup"></path>
                <path d="M103.146306,265.75386 L111.292987,290.22445 L129.067974,277.618286 L103.146306,265.75386" id="Fill-29" sketch:type="MSShapeGroup"></path>
                <path d="M163.87657,221.261416 L148.323456,267.236772 L168.320317,270.202596 L163.87657,221.261416" id="Fill-30" sketch:type="MSShapeGroup"></path>
                <path d="M190.538485,44.0333799 L192.020111,61.088845 L198.685166,44.7751185 L190.538485,44.0333799" id="Fill-31" sketch:type="MSShapeGroup"></path>
                <path d="M101.664681,211.621076 L119.439668,224.22724 L126.845536,201.239562 L101.664681,211.621076" id="Fill-32" sketch:type="MSShapeGroup"></path>
                <path d="M176.466997,150.814906 L137.954902,167.870371 L178.688871,181.959447 L176.466997,150.814906" id="Fill-33" sketch:type="MSShapeGroup"></path>
                <path d="M137.954902,167.870371 L150.54533,190.116875 L178.688871,181.959447 L137.954902,167.870371" id="Fill-34" sketch:type="MSShapeGroup"></path>
                <path d="M290.521092,29.944304 L296.446464,101.131988 L321.627319,29.2025653 L290.521092,29.944304" id="Fill-35" sketch:type="MSShapeGroup"></path>
                <path d="M137.214654,223.486067 L119.439668,233.125842 L148.323456,267.236772 L137.214654,223.486067" id="Fill-36" sketch:type="MSShapeGroup"></path>
                <path d="M119.439668,233.125842 L129.067974,277.618286 L148.323456,267.236772 L119.439668,233.125842" id="Fill-37" sketch:type="MSShapeGroup"></path>
                <path d="M155.729889,205.688863 L137.214654,223.486067 L163.87657,221.261416 L155.729889,205.688863" id="Fill-38" sketch:type="MSShapeGroup"></path>
                <path d="M218.682026,127.827228 L219.422274,141.175131 L226.087894,145.624432 L218.682026,127.827228" id="Fill-39" sketch:type="MSShapeGroup"></path>
                <path d="M137.214654,223.486067 L148.323456,267.236772 L163.87657,221.261416 L137.214654,223.486067" id="Fill-40" sketch:type="MSShapeGroup"></path>
                <path d="M150.54533,190.116875 L126.845536,201.239562 L155.729889,205.688863 L150.54533,190.116875" id="Fill-41" sketch:type="MSShapeGroup"></path>
                <path d="M126.845536,201.239562 L137.214654,223.486067 L155.729889,205.688863 L126.845536,201.239562" id="Fill-42" sketch:type="MSShapeGroup"></path>
                <path d="M150.54533,190.116875 L155.729889,205.688863 L178.688871,181.959447 L150.54533,190.116875" id="Fill-43" sketch:type="MSShapeGroup"></path>
                <path d="M137.214654,147.107343 L137.954902,167.870371 L176.466997,150.814906 L137.214654,147.107343" id="Fill-44" sketch:type="MSShapeGroup"></path>
                <path d="M192.760359,209.396426 L163.87657,221.261416 L201.647852,229.41828 L192.760359,209.396426" id="Fill-45" sketch:type="MSShapeGroup"></path>
                <path d="M178.688871,181.959447 L155.729889,205.688863 L183.872865,200.498389 L178.688871,181.959447" id="Fill-46" sketch:type="MSShapeGroup"></path>
                <path d="M155.729889,205.688863 L163.87657,221.261416 L183.872865,200.498389 L155.729889,205.688863" id="Fill-47" sketch:type="MSShapeGroup"></path>
                <path d="M166.098443,132.276529 L137.214654,147.107343 L176.466997,150.814906 L166.098443,132.276529" id="Fill-48" sketch:type="MSShapeGroup"></path>
                <path d="M190.538485,44.0333799 L185.354491,47.7409422 L192.020111,61.088845 L190.538485,44.0333799" id="Fill-49" sketch:type="MSShapeGroup"></path>
                <path d="M185.354491,47.7409422 L187.576364,65.5381459 L192.020111,61.088845 L185.354491,47.7409422" id="Fill-50" sketch:type="MSShapeGroup"></path>
                <path d="M187.576364,65.5381459 L196.463293,81.1101337 L202.3881,77.4025714 L187.576364,65.5381459" id="Fill-51" sketch:type="MSShapeGroup"></path>
                <path d="M185.354491,47.7409422 L190.538485,44.0333799 L191.279298,32.1689544 L185.354491,47.7409422" id="Fill-52" sketch:type="MSShapeGroup"></path>
                <path d="M238.678322,113.738152 L218.682026,127.827228 L239.419135,146.365605 L238.678322,113.738152" id="Fill-53" sketch:type="MSShapeGroup"></path>
                <path d="M192.020111,61.088845 L187.576364,65.5381459 L202.3881,77.4025714 L192.020111,61.088845" id="Fill-54" sketch:type="MSShapeGroup"></path>
                <path d="M274.968544,219.777939 L263.859177,232.384103 L276.449604,242.024444 L274.968544,219.777939" id="Fill-55" sketch:type="MSShapeGroup"></path>
                <path d="M218.682026,127.827228 L226.087894,145.624432 L239.419135,146.365605 L218.682026,127.827228" id="Fill-56" sketch:type="MSShapeGroup"></path>
                <path d="M201.647852,260.562821 L183.132617,276.876547 L210.535346,268.719684 L201.647852,260.562821" id="Fill-57" sketch:type="MSShapeGroup"></path>
                <path d="M191.279298,32.1689544 L197.944918,29.944304 L200.90704,20.3039635 L191.279298,32.1689544" id="Fill-58" sketch:type="MSShapeGroup"></path>
                <path d="M183.872865,200.498389 L163.87657,221.261416 L192.760359,209.396426 L183.872865,200.498389" id="Fill-59" sketch:type="MSShapeGroup"></path>
                <path d="M197.944918,29.944304 L191.279298,32.1689544 L198.685166,44.7751185 L197.944918,29.944304" id="Fill-60" sketch:type="MSShapeGroup"></path>
                <path d="M191.279298,32.1689544 L190.538485,44.0333799 L198.685166,44.7751185 L191.279298,32.1689544" id="Fill-61" sketch:type="MSShapeGroup"></path>
                <path d="M183.132617,276.876547 L192.760359,287.999799 L210.535346,268.719684 L183.132617,276.876547" id="Fill-62" sketch:type="MSShapeGroup"></path>
                <path d="M168.320317,270.202596 L201.647852,260.562821 L201.647852,229.41828 L168.320317,270.202596" id="Fill-63" sketch:type="MSShapeGroup"></path>
                <path d="M202.3881,77.4025714 L196.463293,81.1101337 L206.831847,91.4916474 L202.3881,77.4025714" id="Fill-64" sketch:type="MSShapeGroup"></path>
                <path d="M232.012702,164.162809 L247.565815,175.286061 L247.565815,153.781295 L232.012702,164.162809" id="Fill-65" sketch:type="MSShapeGroup"></path>
                <path d="M199.425979,164.162809 L178.688871,181.959447 L206.091599,180.476535 L199.425979,164.162809" id="Fill-66" sketch:type="MSShapeGroup"></path>
                <path d="M176.466997,150.814906 L178.688871,181.959447 L199.425979,164.162809 L176.466997,150.814906" id="Fill-67" sketch:type="MSShapeGroup"></path>
                <path d="M163.87657,221.261416 L168.320317,270.202596 L201.647852,229.41828 L163.87657,221.261416" id="Fill-68" sketch:type="MSShapeGroup"></path>
                <path d="M176.466997,150.814906 L199.425979,164.162809 L202.3881,134.501179 L176.466997,150.814906" id="Fill-69" sketch:type="MSShapeGroup"></path>
                <path d="M200.90704,20.3039635 L209.05372,27.7196535 L209.794533,19.5627903 L200.90704,20.3039635" id="Fill-70" sketch:type="MSShapeGroup"></path>
                <path d="M215.71934,193.824438 L234.234575,209.396426 L234.975388,173.802584 L215.71934,193.824438" id="Fill-71" sketch:type="MSShapeGroup"></path>
                <path d="M168.320317,270.202596 L183.132617,276.876547 L201.647852,260.562821 L168.320317,270.202596" id="Fill-72" sketch:type="MSShapeGroup"></path>
                <path d="M166.098443,132.276529 L176.466997,150.814906 L202.3881,134.501179 L166.098443,132.276529" id="Fill-73" sketch:type="MSShapeGroup"></path>
                <path d="M178.688871,181.959447 L183.872865,200.498389 L206.091599,180.476535 L178.688871,181.959447" id="Fill-74" sketch:type="MSShapeGroup"></path>
                <path d="M192.020111,61.088845 L202.3881,77.4025714 L204.610538,56.6395441 L192.020111,61.088845" id="Fill-75" sketch:type="MSShapeGroup"></path>
                <path d="M198.685166,44.7751185 L192.020111,61.088845 L204.610538,56.6395441 L198.685166,44.7751185" id="Fill-76" sketch:type="MSShapeGroup"></path>
                <path d="M222.38496,6.21488754 L209.794533,19.5627903 L229.790828,9.92244985 L222.38496,6.21488754" id="Fill-77" sketch:type="MSShapeGroup"></path>
                <path d="M214.23828,241.282705 L201.647852,260.562821 L214.23828,260.562821 L214.23828,241.282705" id="Fill-78" sketch:type="MSShapeGroup"></path>
                <path d="M183.872865,200.498389 L192.760359,209.396426 L206.091599,180.476535 L183.872865,200.498389" id="Fill-79" sketch:type="MSShapeGroup"></path>
                <path d="M202.3881,134.501179 L199.425979,164.162809 L219.422274,141.175131 L202.3881,134.501179" id="Fill-80" sketch:type="MSShapeGroup"></path>
                <path d="M200.90704,20.3039635 L197.944918,29.944304 L209.05372,27.7196535 L200.90704,20.3039635" id="Fill-81" sketch:type="MSShapeGroup"></path>
                <path d="M198.685166,44.7751185 L204.610538,56.6395441 L206.831847,43.2916413 L198.685166,44.7751185" id="Fill-82" sketch:type="MSShapeGroup"></path>
                <path d="M197.944918,29.944304 L198.685166,44.7751185 L206.831847,43.2916413 L197.944918,29.944304" id="Fill-83" sketch:type="MSShapeGroup"></path>
                <path d="M197.944918,29.944304 L206.831847,43.2916413 L209.05372,27.7196535 L197.944918,29.944304" id="Fill-84" sketch:type="MSShapeGroup"></path>
                <path d="M201.647852,260.562821 L210.535346,268.719684 L214.23828,260.562821 L201.647852,260.562821" id="Fill-85" sketch:type="MSShapeGroup"></path>
                <path d="M206.831847,91.4916474 L220.163087,95.1997751 L229.790828,87.0429119 L206.831847,91.4916474" id="Fill-86" sketch:type="MSShapeGroup"></path>
                <path d="M206.091599,180.476535 L192.760359,209.396426 L215.71934,193.824438 L206.091599,180.476535" id="Fill-87" sketch:type="MSShapeGroup"></path>
                <path d="M237.197261,24.7532644 L209.05372,27.7196535 L240.159947,39.584079 L237.197261,24.7532644" id="Fill-88" sketch:type="MSShapeGroup"></path>
                <path d="M210.535346,268.719684 L192.760359,287.999799 L220.163087,282.80876 L210.535346,268.719684" id="Fill-89" sketch:type="MSShapeGroup"></path>
                <path d="M202.3881,77.4025714 L206.831847,91.4916474 L229.790828,87.0429119 L202.3881,77.4025714" id="Fill-90" sketch:type="MSShapeGroup"></path>
                <path d="M192.760359,209.396426 L201.647852,229.41828 L215.71934,193.824438 L192.760359,209.396426" id="Fill-91" sketch:type="MSShapeGroup"></path>
                <path d="M210.535346,268.719684 L220.163087,282.80876 L222.38496,270.944334 L210.535346,268.719684" id="Fill-92" sketch:type="MSShapeGroup"></path>
                <path d="M201.647852,229.41828 L201.647852,260.562821 L214.23828,241.282705 L201.647852,229.41828" id="Fill-93" sketch:type="MSShapeGroup"></path>
                <path d="M263.859177,232.384103 L266.821863,246.473745 L276.449604,242.024444 L263.859177,232.384103" id="Fill-94" sketch:type="MSShapeGroup"></path>
                <path d="M214.23828,260.562821 L210.535346,268.719684 L222.38496,270.944334 L214.23828,260.562821" id="Fill-95" sketch:type="MSShapeGroup"></path>
                <path d="M232.012702,164.162809 L206.091599,180.476535 L234.975388,173.802584 L232.012702,164.162809" id="Fill-96" sketch:type="MSShapeGroup"></path>
                <path d="M212.757219,98.1655988 L217.200401,110.03059 L220.163087,95.1997751 L212.757219,98.1655988" id="Fill-97" sketch:type="MSShapeGroup"></path>
                <path d="M219.422274,141.175131 L199.425979,164.162809 L226.087894,145.624432 L219.422274,141.175131" id="Fill-98" sketch:type="MSShapeGroup"></path>
                <path d="M239.419135,146.365605 L232.012702,164.162809 L247.565815,153.781295 L239.419135,146.365605" id="Fill-99" sketch:type="MSShapeGroup"></path>
                <path d="M206.831847,91.4916474 L212.757219,98.1655988 L220.163087,95.1997751 L206.831847,91.4916474" id="Fill-100" sketch:type="MSShapeGroup"></path>
                <path d="M200.90704,20.3039635 L209.794533,19.5627903 L222.38496,6.21488754 L200.90704,20.3039635" id="Fill-101" sketch:type="MSShapeGroup"></path>
                <path d="M222.38496,6.21488754 L229.790828,9.92244985 L234.975388,0.282674772 L222.38496,6.21488754" id="Fill-102" sketch:type="MSShapeGroup"></path>
                <path d="M206.091599,180.476535 L215.71934,193.824438 L234.975388,173.802584 L206.091599,180.476535" id="Fill-103" sketch:type="MSShapeGroup"></path>
                <path d="M229.790828,222.00259 L214.23828,241.282705 L238.678322,245.732006 L229.790828,222.00259" id="Fill-104" sketch:type="MSShapeGroup"></path>
                <path d="M250.528501,229.41828 L259.41543,252.405957 L263.859177,232.384103 L250.528501,229.41828" id="Fill-105" sketch:type="MSShapeGroup"></path>
                <path d="M214.23828,241.282705 L214.23828,260.562821 L238.678322,245.732006 L214.23828,241.282705" id="Fill-106" sketch:type="MSShapeGroup"></path>
                <path d="M239.419135,146.365605 L247.565815,153.781295 L263.859177,102.6149 L239.419135,146.365605" id="Fill-107" sketch:type="MSShapeGroup"></path>
                <path d="M215.71934,193.824438 L229.790828,222.00259 L234.234575,209.396426 L215.71934,193.824438" id="Fill-108" sketch:type="MSShapeGroup"></path>
                <path d="M201.647852,229.41828 L214.23828,241.282705 L229.790828,222.00259 L201.647852,229.41828" id="Fill-109" sketch:type="MSShapeGroup"></path>
                <path d="M215.71934,193.824438 L201.647852,229.41828 L229.790828,222.00259 L215.71934,193.824438" id="Fill-110" sketch:type="MSShapeGroup"></path>
                <path d="M199.425979,164.162809 L206.091599,180.476535 L232.012702,164.162809 L199.425979,164.162809" id="Fill-111" sketch:type="MSShapeGroup"></path>
                <path d="M226.087894,145.624432 L199.425979,164.162809 L232.012702,164.162809 L226.087894,145.624432" id="Fill-112" sketch:type="MSShapeGroup"></path>
                <path d="M226.087894,145.624432 L232.012702,164.162809 L239.419135,146.365605 L226.087894,145.624432" id="Fill-113" sketch:type="MSShapeGroup"></path>
                <path d="M229.790828,87.0429119 L220.163087,95.1997751 L238.678322,113.738152 L229.790828,87.0429119" id="Fill-114" sketch:type="MSShapeGroup"></path>
                <path d="M204.610538,56.6395441 L237.938074,70.7286201 L240.159947,55.8978055 L204.610538,56.6395441" id="Fill-115" sketch:type="MSShapeGroup"></path>
                <path d="M220.163087,95.1997751 L217.200401,110.03059 L238.678322,113.738152 L220.163087,95.1997751" id="Fill-116" sketch:type="MSShapeGroup"></path>
                <path d="M209.794533,19.5627903 L209.05372,27.7196535 L237.197261,24.7532644 L209.794533,19.5627903" id="Fill-117" sketch:type="MSShapeGroup"></path>
                <path d="M229.790828,9.92244985 L209.794533,19.5627903 L237.197261,24.7532644 L229.790828,9.92244985" id="Fill-118" sketch:type="MSShapeGroup"></path>
                <path d="M204.610538,56.6395441 L202.3881,77.4025714 L237.938074,70.7286201 L204.610538,56.6395441" id="Fill-119" sketch:type="MSShapeGroup"></path>
                <path d="M202.3881,77.4025714 L229.790828,87.0429119 L237.938074,70.7286201 L202.3881,77.4025714" id="Fill-120" sketch:type="MSShapeGroup"></path>
                <path d="M217.200401,110.03059 L218.682026,127.827228 L238.678322,113.738152 L217.200401,110.03059" id="Fill-121" sketch:type="MSShapeGroup"></path>
                <path d="M238.678322,245.732006 L214.23828,260.562821 L238.678322,262.787471 L238.678322,245.732006" id="Fill-122" sketch:type="MSShapeGroup"></path>
                <path d="M259.41543,252.405957 L238.678322,262.787471 L260.156243,261.304559 L259.41543,252.405957" id="Fill-123" sketch:type="MSShapeGroup"></path>
                <path d="M238.678322,113.738152 L239.419135,146.365605 L263.859177,102.6149 L238.678322,113.738152" id="Fill-124" sketch:type="MSShapeGroup"></path>
                <path d="M240.159947,39.584079 L206.831847,43.2916413 L240.159947,55.8978055 L240.159947,39.584079" id="Fill-125" sketch:type="MSShapeGroup"></path>
                <path d="M206.831847,43.2916413 L204.610538,56.6395441 L240.159947,55.8978055 L206.831847,43.2916413" id="Fill-126" sketch:type="MSShapeGroup"></path>
                <path d="M209.05372,27.7196535 L206.831847,43.2916413 L240.159947,39.584079 L209.05372,27.7196535" id="Fill-127" sketch:type="MSShapeGroup"></path>
                <path d="M247.565815,175.286061 L234.234575,209.396426 L258.675182,193.082699 L247.565815,175.286061" id="Fill-128" sketch:type="MSShapeGroup"></path>
                <path d="M370.507404,309.504565 L378.654649,329.525854 L393.46695,310.245739 L370.507404,309.504565" id="Fill-129" sketch:type="MSShapeGroup"></path>
                <path d="M232.012702,164.162809 L234.975388,173.802584 L247.565815,175.286061 L232.012702,164.162809" id="Fill-130" sketch:type="MSShapeGroup"></path>
                <path d="M234.975388,173.802584 L234.234575,209.396426 L247.565815,175.286061 L234.975388,173.802584" id="Fill-131" sketch:type="MSShapeGroup"></path>
                <path d="M229.790828,222.00259 L238.678322,245.732006 L250.528501,229.41828 L229.790828,222.00259" id="Fill-132" sketch:type="MSShapeGroup"></path>
                <path d="M234.234575,209.396426 L229.790828,222.00259 L250.528501,229.41828 L234.234575,209.396426" id="Fill-133" sketch:type="MSShapeGroup"></path>
                <path d="M237.197261,24.7532644 L240.159947,39.584079 L252.750375,5.47314894 L237.197261,24.7532644" id="Fill-134" sketch:type="MSShapeGroup"></path>
                <path d="M290.521092,29.944304 L263.859177,102.6149 L296.446464,101.131988 L290.521092,29.944304" id="Fill-135" sketch:type="MSShapeGroup"></path>
                <path d="M247.565815,175.286061 L258.675182,193.082699 L266.08105,198.273739 L247.565815,175.286061" id="Fill-136" sketch:type="MSShapeGroup"></path>
                <path d="M234.975388,0.282674772 L229.790828,9.92244985 L252.750375,5.47314894 L234.975388,0.282674772" id="Fill-137" sketch:type="MSShapeGroup"></path>
                <path d="M229.790828,9.92244985 L237.197261,24.7532644 L252.750375,5.47314894 L229.790828,9.92244985" id="Fill-138" sketch:type="MSShapeGroup"></path>
                <path d="M250.528501,229.41828 L238.678322,245.732006 L259.41543,252.405957 L250.528501,229.41828" id="Fill-139" sketch:type="MSShapeGroup"></path>
                <path d="M238.678322,245.732006 L238.678322,262.787471 L259.41543,252.405957 L238.678322,245.732006" id="Fill-140" sketch:type="MSShapeGroup"></path>
                <path d="M240.159947,55.8978055 L237.938074,70.7286201 L263.859177,102.6149 L240.159947,55.8978055" id="Fill-141" sketch:type="MSShapeGroup"></path>
                <path d="M229.790828,87.0429119 L238.678322,113.738152 L263.859177,102.6149 L229.790828,87.0429119" id="Fill-142" sketch:type="MSShapeGroup"></path>
                <path d="M237.938074,70.7286201 L229.790828,87.0429119 L263.859177,102.6149 L237.938074,70.7286201" id="Fill-143" sketch:type="MSShapeGroup"></path>
                <path d="M263.859177,102.6149 L285.337098,105.581289 L296.446464,101.131988 L263.859177,102.6149" id="Fill-144" sketch:type="MSShapeGroup"></path>
                <path d="M266.08105,198.273739 L250.528501,229.41828 L274.968544,219.777939 L266.08105,198.273739" id="Fill-145" sketch:type="MSShapeGroup"></path>
                <path d="M234.234575,209.396426 L250.528501,229.41828 L266.08105,198.273739 L234.234575,209.396426" id="Fill-146" sketch:type="MSShapeGroup"></path>
                <path d="M258.675182,193.082699 L234.234575,209.396426 L266.08105,198.273739 L258.675182,193.082699" id="Fill-147" sketch:type="MSShapeGroup"></path>
                <path d="M247.565815,153.781295 L247.565815,175.286061 L266.08105,198.273739 L247.565815,153.781295" id="Fill-148" sketch:type="MSShapeGroup"></path>
                <path d="M263.859177,232.384103 L259.41543,252.405957 L266.821863,246.473745 L263.859177,232.384103" id="Fill-149" sketch:type="MSShapeGroup"></path>
                <path d="M259.41543,252.405957 L260.156243,261.304559 L266.821863,246.473745 L259.41543,252.405957" id="Fill-150" sketch:type="MSShapeGroup"></path>
                <path d="M326.811314,104.097812 L266.08105,198.273739 L345.326549,106.322462 L326.811314,104.097812" id="Fill-151" sketch:type="MSShapeGroup"></path>
                <path d="M252.750375,5.47314894 L240.159947,39.584079 L290.521092,29.944304 L252.750375,5.47314894" id="Fill-152" sketch:type="MSShapeGroup"></path>
                <path d="M250.528501,229.41828 L263.859177,232.384103 L274.968544,219.777939 L250.528501,229.41828" id="Fill-153" sketch:type="MSShapeGroup"></path>
                <path d="M240.159947,39.584079 L240.159947,55.8978055 L290.521092,29.944304 L240.159947,39.584079" id="Fill-154" sketch:type="MSShapeGroup"></path>
                <path d="M321.627319,29.2025653 L296.446464,101.131988 L326.811314,104.097812 L321.627319,29.2025653" id="Fill-155" sketch:type="MSShapeGroup"></path>
                <path d="M263.859177,102.6149 L247.565815,153.781295 L285.337098,105.581289 L263.859177,102.6149" id="Fill-156" sketch:type="MSShapeGroup"></path>
                <path d="M296.446464,101.131988 L309.77714,106.322462 L326.811314,104.097812 L296.446464,101.131988" id="Fill-157" sketch:type="MSShapeGroup"></path>
                <path d="M240.159947,55.8978055 L263.859177,102.6149 L290.521092,29.944304 L240.159947,55.8978055" id="Fill-158" sketch:type="MSShapeGroup"></path>
                <path d="M309.77714,106.322462 L266.08105,198.273739 L326.811314,104.097812 L309.77714,106.322462" id="Fill-159" sketch:type="MSShapeGroup"></path>
                <path d="M274.968544,219.777939 L276.449604,242.024444 L304.593145,268.719684 L274.968544,219.777939" id="Fill-160" sketch:type="MSShapeGroup"></path>
                <path d="M276.449604,242.024444 L282.374412,255.371781 L304.593145,268.719684 L276.449604,242.024444" id="Fill-161" sketch:type="MSShapeGroup"></path>
                <path d="M252.750375,5.47314894 L290.521092,29.944304 L321.627319,29.2025653 L252.750375,5.47314894" id="Fill-162" sketch:type="MSShapeGroup"></path>
                <path d="M285.337098,105.581289 L247.565815,153.781295 L309.77714,106.322462 L285.337098,105.581289" id="Fill-163" sketch:type="MSShapeGroup"></path>
                <path d="M296.446464,101.131988 L285.337098,105.581289 L309.77714,106.322462 L296.446464,101.131988" id="Fill-164" sketch:type="MSShapeGroup"></path>
                <path d="M247.565815,153.781295 L266.08105,198.273739 L309.77714,106.322462 L247.565815,153.781295" id="Fill-165" sketch:type="MSShapeGroup"></path>
                <path d="M266.08105,198.273739 L274.968544,219.777939 L345.326549,106.322462 L266.08105,198.273739" id="Fill-166" sketch:type="MSShapeGroup"></path>
                <path d="M321.627319,29.2025653 L326.811314,104.097812 L345.326549,106.322462 L321.627319,29.2025653" id="Fill-167" sketch:type="MSShapeGroup"></path>
                <path d="M274.968544,219.777939 L304.593145,268.719684 L334.957995,273.168985 L274.968544,219.777939" id="Fill-168" sketch:type="MSShapeGroup"></path>
                <path d="M321.627319,29.2025653 L345.326549,106.322462 L366.064222,28.4608267 L321.627319,29.2025653" id="Fill-169" sketch:type="MSShapeGroup"></path>
                <path d="M393.46695,310.245739 L378.654649,329.525854 L394.948011,331.008766 L393.46695,310.245739" id="Fill-170" sketch:type="MSShapeGroup"></path>
                <path d="M370.507404,309.504565 L364.582596,315.436778 L378.654649,329.525854 L370.507404,309.504565" id="Fill-171" sketch:type="MSShapeGroup"></path>
                <path d="M274.968544,219.777939 L334.957995,273.168985 L389.023203,119.670365 L274.968544,219.777939" id="Fill-172" sketch:type="MSShapeGroup"></path>
                <path d="M345.326549,106.322462 L274.968544,219.777939 L389.023203,119.670365 L345.326549,106.322462" id="Fill-173" sketch:type="MSShapeGroup"></path>
                <path d="M474.193509,190.858049 L457.900148,245.732006 L475.67457,227.934802 L474.193509,190.858049" id="Fill-174" sketch:type="MSShapeGroup"></path>
                <path d="M401.613631,49.2244195 L366.064222,28.4608267 L406.797625,69.9874468 L401.613631,49.2244195" id="Fill-175" sketch:type="MSShapeGroup"></path>
                <path d="M366.064222,28.4608267 L401.613631,49.2244195 L405.316565,33.6518663 L366.064222,28.4608267" id="Fill-176" sketch:type="MSShapeGroup"></path>
                <path d="M391.245077,15.1134894 L366.064222,28.4608267 L405.316565,33.6518663 L391.245077,15.1134894" id="Fill-177" sketch:type="MSShapeGroup"></path>
                <path d="M536.404834,359.187483 L531.220839,369.568997 L538.626707,364.378523 L536.404834,359.187483" id="Fill-178" sketch:type="MSShapeGroup"></path>
                <path d="M393.46695,310.245739 L418.647805,324.33538 L423.831799,310.987477 L393.46695,310.245739" id="Fill-179" sketch:type="MSShapeGroup"></path>
                <path d="M413.463245,81.1101337 L424.572612,92.233386 L441.606786,69.9874468 L413.463245,81.1101337" id="Fill-180" sketch:type="MSShapeGroup"></path>
                <path d="M401.613631,49.2244195 L411.241372,67.7627964 L416.425931,53.673155 L401.613631,49.2244195" id="Fill-181" sketch:type="MSShapeGroup"></path>
                <path d="M411.241372,67.7627964 L406.797625,69.9874468 L413.463245,81.1101337 L411.241372,67.7627964" id="Fill-182" sketch:type="MSShapeGroup"></path>
                <path d="M410.500559,336.199805 L401.613631,351.772359 L415.685119,357.704571 L410.500559,336.199805" id="Fill-183" sketch:type="MSShapeGroup"></path>
                <path d="M414.944306,21.0457021 L420.128865,35.8765167 L421.609926,24.0120912 L414.944306,21.0457021" id="Fill-184" sketch:type="MSShapeGroup"></path>
                <path d="M366.064222,28.4608267 L345.326549,106.322462 L406.797625,69.9874468 L366.064222,28.4608267" id="Fill-185" sketch:type="MSShapeGroup"></path>
                <path d="M345.326549,106.322462 L389.023203,119.670365 L406.797625,69.9874468 L345.326549,106.322462" id="Fill-186" sketch:type="MSShapeGroup"></path>
                <path d="M391.245077,15.1134894 L405.316565,33.6518663 L414.944306,21.0457021 L391.245077,15.1134894" id="Fill-187" sketch:type="MSShapeGroup"></path>
                <path d="M438.6441,8.43953799 L447.531594,21.0457021 L448.271842,12.1471003 L438.6441,8.43953799" id="Fill-188" sketch:type="MSShapeGroup"></path>
                <path d="M397.910132,343.61493 L401.613631,351.772359 L410.500559,336.199805 L397.910132,343.61493" id="Fill-189" sketch:type="MSShapeGroup"></path>
                <path d="M446.790781,6.21488754 L438.6441,8.43953799 L448.271842,12.1471003 L446.790781,6.21488754" id="Fill-190" sketch:type="MSShapeGroup"></path>
                <path d="M406.797625,69.9874468 L389.023203,119.670365 L413.463245,81.1101337 L406.797625,69.9874468" id="Fill-191" sketch:type="MSShapeGroup"></path>
                <path d="M401.613631,49.2244195 L406.797625,69.9874468 L411.241372,67.7627964 L401.613631,49.2244195" id="Fill-192" sketch:type="MSShapeGroup"></path>
                <path d="M411.241372,67.7627964 L413.463245,81.1101337 L441.606786,69.9874468 L411.241372,67.7627964" id="Fill-193" sketch:type="MSShapeGroup"></path>
                <path d="M424.572612,92.233386 L389.023203,119.670365 L427.534734,135.984091 L424.572612,92.233386" id="Fill-194" sketch:type="MSShapeGroup"></path>
                <path d="M427.534734,135.984091 L389.023203,119.670365 L437.903288,153.039556 L427.534734,135.984091" id="Fill-195" sketch:type="MSShapeGroup"></path>
                <path d="M457.900148,73.6950091 L468.268702,84.8182614 L474.934322,70.7286201 L457.900148,73.6950091" id="Fill-196" sketch:type="MSShapeGroup"></path>
                <path d="M393.46695,310.245739 L394.948011,331.008766 L418.647805,324.33538 L393.46695,310.245739" id="Fill-197" sketch:type="MSShapeGroup"></path>
                <path d="M366.064222,282.067587 L408.278686,282.067587 L437.903288,153.039556 L366.064222,282.067587" id="Fill-198" sketch:type="MSShapeGroup"></path>
                <path d="M405.316565,33.6518663 L401.613631,49.2244195 L420.128865,35.8765167 L405.316565,33.6518663" id="Fill-199" sketch:type="MSShapeGroup"></path>
                <path d="M401.613631,49.2244195 L416.425931,53.673155 L420.128865,35.8765167 L401.613631,49.2244195" id="Fill-200" sketch:type="MSShapeGroup"></path>
                <path d="M414.944306,21.0457021 L405.316565,33.6518663 L420.128865,35.8765167 L414.944306,21.0457021" id="Fill-201" sketch:type="MSShapeGroup"></path>
                <path d="M391.245077,15.1134894 L414.944306,21.0457021 L426.794485,1.02384802 L391.245077,15.1134894" id="Fill-202" sketch:type="MSShapeGroup"></path>
                <path d="M413.463245,81.1101337 L389.023203,119.670365 L424.572612,92.233386 L413.463245,81.1101337" id="Fill-203" sketch:type="MSShapeGroup"></path>
                <path d="M426.794485,1.02384802 L438.6441,8.43953799 L446.790781,6.21488754 L426.794485,1.02384802" id="Fill-204" sketch:type="MSShapeGroup"></path>
                <path d="M421.609926,24.0120912 L420.128865,35.8765167 L438.6441,38.1011672 L421.609926,24.0120912" id="Fill-205" sketch:type="MSShapeGroup"></path>
                <path d="M440.125161,293.190274 L454.197214,308.021088 L457.900148,300.605964 L440.125161,293.190274" id="Fill-206" sketch:type="MSShapeGroup"></path>
                <path d="M424.572612,92.233386 L427.534734,135.984091 L440.865974,100.390249 L424.572612,92.233386" id="Fill-207" sketch:type="MSShapeGroup"></path>
                <path d="M410.500559,336.199805 L415.685119,357.704571 L437.903288,355.479921 L410.500559,336.199805" id="Fill-208" sketch:type="MSShapeGroup"></path>
                <path d="M414.944306,21.0457021 L421.609926,24.0120912 L429.756607,9.92244985 L414.944306,21.0457021" id="Fill-209" sketch:type="MSShapeGroup"></path>
                <path d="M426.794485,1.02384802 L414.944306,21.0457021 L429.756607,9.92244985 L426.794485,1.02384802" id="Fill-210" sketch:type="MSShapeGroup"></path>
                <path d="M334.957995,273.168985 L366.064222,282.067587 L437.903288,153.039556 L334.957995,273.168985" id="Fill-211" sketch:type="MSShapeGroup"></path>
                <path d="M389.023203,119.670365 L334.957995,273.168985 L437.903288,153.039556 L389.023203,119.670365" id="Fill-212" sketch:type="MSShapeGroup"></path>
                <path d="M438.6441,38.1011672 L416.425931,53.673155 L439.384913,55.8978055 L438.6441,38.1011672" id="Fill-213" sketch:type="MSShapeGroup"></path>
                <path d="M439.384913,55.8978055 L416.425931,53.673155 L441.606786,69.9874468 L439.384913,55.8978055" id="Fill-214" sketch:type="MSShapeGroup"></path>
                <path d="M416.425931,53.673155 L411.241372,67.7627964 L441.606786,69.9874468 L416.425931,53.673155" id="Fill-215" sketch:type="MSShapeGroup"></path>
                <path d="M408.278686,282.067587 L446.049968,266.495033 L457.900148,245.732006 L408.278686,282.067587" id="Fill-216" sketch:type="MSShapeGroup"></path>
                <path d="M426.794485,1.02384802 L429.756607,9.92244985 L438.6441,8.43953799 L426.794485,1.02384802" id="Fill-217" sketch:type="MSShapeGroup"></path>
                <path d="M420.128865,35.8765167 L416.425931,53.673155 L438.6441,38.1011672 L420.128865,35.8765167" id="Fill-218" sketch:type="MSShapeGroup"></path>
                <path d="M431.97848,296.156663 L432.719293,302.830614 L440.125161,293.190274 L431.97848,296.156663" id="Fill-219" sketch:type="MSShapeGroup"></path>
                <path d="M437.903288,153.039556 L408.278686,282.067587 L457.900148,245.732006 L437.903288,153.039556" id="Fill-220" sketch:type="MSShapeGroup"></path>
                <path d="M424.572612,92.233386 L440.865974,100.390249 L441.606786,93.7162979 L424.572612,92.233386" id="Fill-221" sketch:type="MSShapeGroup"></path>
                <path d="M423.831799,310.987477 L418.647805,324.33538 L439.384913,329.525854 L423.831799,310.987477" id="Fill-222" sketch:type="MSShapeGroup"></path>
                <path d="M432.719293,302.830614 L423.831799,310.987477 L439.384913,329.525854 L432.719293,302.830614" id="Fill-223" sketch:type="MSShapeGroup"></path>
                <path d="M424.572612,92.233386 L441.606786,93.7162979 L443.087847,84.0765228 L424.572612,92.233386" id="Fill-224" sketch:type="MSShapeGroup"></path>
                <path d="M465.306016,167.128632 L474.193509,190.858049 L474.193509,176.768973 L465.306016,167.128632" id="Fill-225" sketch:type="MSShapeGroup"></path>
                <path d="M429.756607,9.92244985 L421.609926,24.0120912 L447.531594,21.0457021 L429.756607,9.92244985" id="Fill-226" sketch:type="MSShapeGroup"></path>
                <path d="M454.197214,308.021088 L439.384913,329.525854 L456.419087,319.886079 L454.197214,308.021088" id="Fill-227" sketch:type="MSShapeGroup"></path>
                <path d="M440.865974,100.390249 L427.534734,135.984091 L451.234528,136.72583 L440.865974,100.390249" id="Fill-228" sketch:type="MSShapeGroup"></path>
                <path d="M441.606786,69.9874468 L424.572612,92.233386 L443.087847,84.0765228 L441.606786,69.9874468" id="Fill-229" sketch:type="MSShapeGroup"></path>
                <path d="M439.384913,329.525854 L453.456401,343.61493 L456.419087,319.886079 L439.384913,329.525854" id="Fill-230" sketch:type="MSShapeGroup"></path>
                <path d="M410.500559,336.199805 L437.903288,355.479921 L441.606786,349.547708 L410.500559,336.199805" id="Fill-231" sketch:type="MSShapeGroup"></path>
                <path d="M439.384913,329.525854 L410.500559,336.199805 L441.606786,349.547708 L439.384913,329.525854" id="Fill-232" sketch:type="MSShapeGroup"></path>
                <path d="M431.97848,296.156663 L440.125161,293.190274 L446.049968,266.495033 L431.97848,296.156663" id="Fill-233" sketch:type="MSShapeGroup"></path>
                <path d="M446.049968,266.495033 L440.125161,293.190274 L457.900148,300.605964 L446.049968,266.495033" id="Fill-234" sketch:type="MSShapeGroup"></path>
                <path d="M408.278686,282.067587 L431.97848,296.156663 L446.049968,266.495033 L408.278686,282.067587" id="Fill-235" sketch:type="MSShapeGroup"></path>
                <path d="M472.712449,35.8765167 L465.306016,44.0333799 L476.415383,55.8978055 L472.712449,35.8765167" id="Fill-236" sketch:type="MSShapeGroup"></path>
                <path d="M421.609926,24.0120912 L438.6441,38.1011672 L447.531594,21.0457021 L421.609926,24.0120912" id="Fill-237" sketch:type="MSShapeGroup"></path>
                <path d="M440.125161,293.190274 L432.719293,302.830614 L454.197214,308.021088 L440.125161,293.190274" id="Fill-238" sketch:type="MSShapeGroup"></path>
                <path d="M438.6441,8.43953799 L429.756607,9.92244985 L447.531594,21.0457021 L438.6441,8.43953799" id="Fill-239" sketch:type="MSShapeGroup"></path>
                <path d="M432.719293,302.830614 L439.384913,329.525854 L454.197214,308.021088 L432.719293,302.830614" id="Fill-240" sketch:type="MSShapeGroup"></path>
                <path d="M427.534734,135.984091 L437.903288,153.039556 L451.234528,136.72583 L427.534734,135.984091" id="Fill-241" sketch:type="MSShapeGroup"></path>
                <path d="M471.971636,159.713508 L465.306016,167.128632 L474.193509,176.768973 L471.971636,159.713508" id="Fill-242" sketch:type="MSShapeGroup"></path>
                <path d="M463.824955,61.088845 L457.900148,73.6950091 L474.934322,70.7286201 L463.824955,61.088845" id="Fill-243" sketch:type="MSShapeGroup"></path>
                <path d="M463.824955,61.088845 L474.934322,70.7286201 L476.415383,55.8978055 L463.824955,61.088845" id="Fill-244" sketch:type="MSShapeGroup"></path>
                <path d="M439.384913,329.525854 L441.606786,349.547708 L453.456401,343.61493 L439.384913,329.525854" id="Fill-245" sketch:type="MSShapeGroup"></path>
                <path d="M460.862269,157.488857 L437.903288,153.039556 L465.306016,167.128632 L460.862269,157.488857" id="Fill-246" sketch:type="MSShapeGroup"></path>
                <path d="M441.606786,93.7162979 L440.865974,100.390249 L454.937462,95.1997751 L441.606786,93.7162979" id="Fill-247" sketch:type="MSShapeGroup"></path>
                <path d="M443.087847,84.0765228 L441.606786,93.7162979 L454.937462,95.1997751 L443.087847,84.0765228" id="Fill-248" sketch:type="MSShapeGroup"></path>
                <path d="M441.606786,69.9874468 L443.087847,84.0765228 L457.900148,73.6950091 L441.606786,69.9874468" id="Fill-249" sketch:type="MSShapeGroup"></path>
                <path d="M443.087847,84.0765228 L454.937462,95.1997751 L457.900148,73.6950091 L443.087847,84.0765228" id="Fill-250" sketch:type="MSShapeGroup"></path>
                <path d="M447.531594,21.0457021 L458.640396,30.6854772 L461.603082,22.528614 L447.531594,21.0457021" id="Fill-251" sketch:type="MSShapeGroup"></path>
                <path d="M439.384913,55.8978055 L463.824955,61.088845 L465.306016,44.0333799 L439.384913,55.8978055" id="Fill-252" sketch:type="MSShapeGroup"></path>
                <path d="M448.271842,12.1471003 L447.531594,21.0457021 L461.603082,22.528614 L448.271842,12.1471003" id="Fill-253" sketch:type="MSShapeGroup"></path>
                <path d="M465.306016,44.0333799 L463.824955,61.088845 L476.415383,55.8978055 L465.306016,44.0333799" id="Fill-254" sketch:type="MSShapeGroup"></path>
                <path d="M460.862269,157.488857 L465.306016,167.128632 L471.971636,159.713508 L460.862269,157.488857" id="Fill-255" sketch:type="MSShapeGroup"></path>
                <path d="M447.531594,21.0457021 L438.6441,38.1011672 L458.640396,30.6854772 L447.531594,21.0457021" id="Fill-256" sketch:type="MSShapeGroup"></path>
                <path d="M446.790781,6.21488754 L448.271842,12.1471003 L461.603082,22.528614 L446.790781,6.21488754" id="Fill-257" sketch:type="MSShapeGroup"></path>
                <path d="M458.640396,30.6854772 L438.6441,38.1011672 L465.306016,44.0333799 L458.640396,30.6854772" id="Fill-258" sketch:type="MSShapeGroup"></path>
                <path d="M451.234528,136.72583 L437.903288,153.039556 L460.862269,157.488857 L451.234528,136.72583" id="Fill-259" sketch:type="MSShapeGroup"></path>
                <path d="M438.6441,38.1011672 L439.384913,55.8978055 L465.306016,44.0333799 L438.6441,38.1011672" id="Fill-260" sketch:type="MSShapeGroup"></path>
                <path d="M439.384913,55.8978055 L441.606786,69.9874468 L463.824955,61.088845 L439.384913,55.8978055" id="Fill-261" sketch:type="MSShapeGroup"></path>
                <path d="M441.606786,69.9874468 L457.900148,73.6950091 L463.824955,61.088845 L441.606786,69.9874468" id="Fill-262" sketch:type="MSShapeGroup"></path>
                <path d="M465.306016,167.128632 L437.903288,153.039556 L474.193509,190.858049 L465.306016,167.128632" id="Fill-263" sketch:type="MSShapeGroup"></path>
                <path d="M440.865974,100.390249 L451.234528,136.72583 L467.527889,104.097812 L440.865974,100.390249" id="Fill-264" sketch:type="MSShapeGroup"></path>
                <path d="M454.937462,95.1997751 L440.865974,100.390249 L467.527889,104.097812 L454.937462,95.1997751" id="Fill-265" sketch:type="MSShapeGroup"></path>
                <path d="M486.783937,287.999799 L475.67457,302.830614 L487.524749,304.313526 L486.783937,287.999799" id="Fill-266" sketch:type="MSShapeGroup"></path>
                <path d="M457.900148,73.6950091 L454.937462,95.1997751 L468.268702,84.8182614 L457.900148,73.6950091" id="Fill-267" sketch:type="MSShapeGroup"></path>
                <path d="M454.937462,95.1997751 L467.527889,104.097812 L468.268702,84.8182614 L454.937462,95.1997751" id="Fill-268" sketch:type="MSShapeGroup"></path>
                <path d="M467.527889,104.097812 L451.234528,136.72583 L470.490575,130.051878 L467.527889,104.097812" id="Fill-269" sketch:type="MSShapeGroup"></path>
                <path d="M461.603082,22.528614 L458.640396,30.6854772 L472.712449,35.8765167 L461.603082,22.528614" id="Fill-270" sketch:type="MSShapeGroup"></path>
                <path d="M458.640396,30.6854772 L465.306016,44.0333799 L472.712449,35.8765167 L458.640396,30.6854772" id="Fill-271" sketch:type="MSShapeGroup"></path>
                <path d="M515.667726,333.975155 L494.189805,351.03062 L517.149351,348.064231 L515.667726,333.975155" id="Fill-272" sketch:type="MSShapeGroup"></path>
                <path d="M497.152491,365.861435 L514.927478,371.793647 L517.149351,348.064231 L497.152491,365.861435" id="Fill-273" sketch:type="MSShapeGroup"></path>
                <path d="M437.903288,153.039556 L457.900148,245.732006 L474.193509,190.858049 L437.903288,153.039556" id="Fill-274" sketch:type="MSShapeGroup"></path>
                <path d="M487.524749,304.313526 L475.67457,302.830614 L495.67143,315.436778 L487.524749,304.313526" id="Fill-275" sketch:type="MSShapeGroup"></path>
                <path d="M456.419087,319.886079 L453.456401,343.61493 L474.934322,345.839581 L456.419087,319.886079" id="Fill-276" sketch:type="MSShapeGroup"></path>
                <path d="M501.596237,268.719684 L486.783937,287.999799 L501.596237,288.741538 L501.596237,268.719684" id="Fill-277" sketch:type="MSShapeGroup"></path>
                <path d="M456.419087,319.886079 L474.934322,345.839581 L483.081003,343.61493 L456.419087,319.886079" id="Fill-278" sketch:type="MSShapeGroup"></path>
                <path d="M457.900148,300.605964 L454.197214,308.021088 L475.67457,302.830614 L457.900148,300.605964" id="Fill-279" sketch:type="MSShapeGroup"></path>
                <path d="M454.197214,308.021088 L456.419087,319.886079 L475.67457,302.830614 L454.197214,308.021088" id="Fill-280" sketch:type="MSShapeGroup"></path>
                <path d="M470.490575,130.051878 L451.234528,136.72583 L471.336412,141.916304 L470.490575,130.051878" id="Fill-281" sketch:type="MSShapeGroup"></path>
                <path d="M475.67457,227.934802 L503.077298,232.384103 L506.039984,216.812116 L475.67457,227.934802" id="Fill-282" sketch:type="MSShapeGroup"></path>
                <path d="M503.077298,232.384103 L483.821815,241.282705 L503.077298,250.181307 L503.077298,232.384103" id="Fill-283" sketch:type="MSShapeGroup"></path>
                <path d="M451.234528,136.72583 L460.862269,157.488857 L471.336412,141.916304 L451.234528,136.72583" id="Fill-284" sketch:type="MSShapeGroup"></path>
                <path d="M563.807562,251.664219 L577.138802,257.596432 L579.360675,234.608754 L563.807562,251.664219" id="Fill-285" sketch:type="MSShapeGroup"></path>
                <path d="M460.862269,157.488857 L471.971636,159.713508 L471.336412,141.916304 L460.862269,157.488857" id="Fill-286" sketch:type="MSShapeGroup"></path>
                <path d="M474.193509,190.858049 L475.67457,227.934802 L489.00581,199.75665 L474.193509,190.858049" id="Fill-287" sketch:type="MSShapeGroup"></path>
                <path d="M489.00581,199.75665 L475.67457,227.934802 L506.039984,216.812116 L489.00581,199.75665" id="Fill-288" sketch:type="MSShapeGroup"></path>
                <path d="M483.821815,241.282705 L457.900148,245.732006 L486.783937,287.999799 L483.821815,241.282705" id="Fill-289" sketch:type="MSShapeGroup"></path>
                <path d="M475.67457,227.934802 L457.900148,245.732006 L483.821815,241.282705 L475.67457,227.934802" id="Fill-290" sketch:type="MSShapeGroup"></path>
                <path d="M457.900148,245.732006 L446.049968,266.495033 L486.783937,287.999799 L457.900148,245.732006" id="Fill-291" sketch:type="MSShapeGroup"></path>
                <path d="M446.049968,266.495033 L457.900148,300.605964 L486.783937,287.999799 L446.049968,266.495033" id="Fill-292" sketch:type="MSShapeGroup"></path>
                <path d="M457.900148,300.605964 L475.67457,302.830614 L486.783937,287.999799 L457.900148,300.605964" id="Fill-293" sketch:type="MSShapeGroup"></path>
                <path d="M456.419087,319.886079 L483.081003,343.61493 L495.67143,315.436778 L456.419087,319.886079" id="Fill-294" sketch:type="MSShapeGroup"></path>
                <path d="M475.67457,302.830614 L456.419087,319.886079 L495.67143,315.436778 L475.67457,302.830614" id="Fill-295" sketch:type="MSShapeGroup"></path>
                <path d="M545.292327,216.812116 L549.736074,245.732006 L560.845441,219.777939 L545.292327,216.812116" id="Fill-296" sketch:type="MSShapeGroup"></path>
                <path d="M487.524749,304.313526 L495.67143,315.436778 L501.596237,288.741538 L487.524749,304.313526" id="Fill-297" sketch:type="MSShapeGroup"></path>
                <path d="M494.189805,351.03062 L493.449557,361.412134 L497.152491,365.861435 L494.189805,351.03062" id="Fill-298" sketch:type="MSShapeGroup"></path>
                <path d="M495.67143,315.436778 L531.220839,319.886079 L531.961652,307.279915 L495.67143,315.436778" id="Fill-299" sketch:type="MSShapeGroup"></path>
                <path d="M489.00581,199.75665 L506.039984,216.812116 L514.186665,199.014912 L489.00581,199.75665" id="Fill-300" sketch:type="MSShapeGroup"></path>
                <path d="M486.783937,287.999799 L487.524749,304.313526 L501.596237,288.741538 L486.783937,287.999799" id="Fill-301" sketch:type="MSShapeGroup"></path>
                <path d="M483.821815,241.282705 L486.783937,287.999799 L501.596237,268.719684 L483.821815,241.282705" id="Fill-302" sketch:type="MSShapeGroup"></path>
                <path d="M475.67457,227.934802 L483.821815,241.282705 L503.077298,232.384103 L475.67457,227.934802" id="Fill-303" sketch:type="MSShapeGroup"></path>
                <path d="M483.821815,241.282705 L501.596237,268.719684 L503.077298,250.181307 L483.821815,241.282705" id="Fill-304" sketch:type="MSShapeGroup"></path>
                <path d="M578.619863,270.202596 L561.585689,271.686073 L582.323361,282.80876 L578.619863,270.202596" id="Fill-305" sketch:type="MSShapeGroup"></path>
                <path d="M501.596237,288.741538 L495.67143,315.436778 L531.961652,307.279915 L501.596237,288.741538" id="Fill-306" sketch:type="MSShapeGroup"></path>
                <path d="M494.189805,351.03062 L497.152491,365.861435 L517.149351,348.064231 L494.189805,351.03062" id="Fill-307" sketch:type="MSShapeGroup"></path>
                <path d="M483.081003,343.61493 L494.189805,351.03062 L515.667726,333.975155 L483.081003,343.61493" id="Fill-308" sketch:type="MSShapeGroup"></path>
                <path d="M495.67143,315.436778 L483.081003,343.61493 L515.667726,333.975155 L495.67143,315.436778" id="Fill-309" sketch:type="MSShapeGroup"></path>
                <path d="M517.149351,348.064231 L531.220839,369.568997 L536.404834,359.187483 L517.149351,348.064231" id="Fill-310" sketch:type="MSShapeGroup"></path>
                <path d="M517.149351,348.064231 L514.927478,371.793647 L531.220839,369.568997 L517.149351,348.064231" id="Fill-311" sketch:type="MSShapeGroup"></path>
                <path d="M563.067314,297.639574 L549.736074,297.639574 L565.289187,325.076553 L563.067314,297.639574" id="Fill-312" sketch:type="MSShapeGroup"></path>
                <path d="M531.220839,319.886079 L555.660881,336.941544 L565.289187,325.076553 L531.220839,319.886079" id="Fill-313" sketch:type="MSShapeGroup"></path>
                <path d="M495.67143,315.436778 L515.667726,333.975155 L531.220839,319.886079 L495.67143,315.436778" id="Fill-314" sketch:type="MSShapeGroup"></path>
                <path d="M535.664586,204.947125 L506.039984,216.812116 L545.292327,216.812116 L535.664586,204.947125" id="Fill-315" sketch:type="MSShapeGroup"></path>
                <path d="M503.077298,250.181307 L548.255013,256.11352 L549.736074,245.732006 L503.077298,250.181307" id="Fill-316" sketch:type="MSShapeGroup"></path>
                <path d="M503.077298,232.384103 L503.077298,250.181307 L549.736074,245.732006 L503.077298,232.384103" id="Fill-317" sketch:type="MSShapeGroup"></path>
                <path d="M514.186665,199.014912 L506.039984,216.812116 L535.664586,204.947125 L514.186665,199.014912" id="Fill-318" sketch:type="MSShapeGroup"></path>
                <path d="M561.585689,271.686073 L549.736074,297.639574 L563.067314,297.639574 L561.585689,271.686073" id="Fill-319" sketch:type="MSShapeGroup"></path>
                <path d="M560.845441,219.777939 L549.736074,245.732006 L563.807562,251.664219 L560.845441,219.777939" id="Fill-320" sketch:type="MSShapeGroup"></path>
                <path d="M548.255013,256.11352 L561.585689,271.686073 L563.807562,251.664219 L548.255013,256.11352" id="Fill-321" sketch:type="MSShapeGroup"></path>
                <path d="M501.596237,268.719684 L501.596237,288.741538 L541.589393,275.393635 L501.596237,268.719684" id="Fill-322" sketch:type="MSShapeGroup"></path>
                <path d="M501.596237,288.741538 L531.961652,307.279915 L541.589393,275.393635 L501.596237,288.741538" id="Fill-323" sketch:type="MSShapeGroup"></path>
                <path d="M503.077298,250.181307 L501.596237,268.719684 L541.589393,275.393635 L503.077298,250.181307" id="Fill-324" sketch:type="MSShapeGroup"></path>
                <path d="M541.589393,275.393635 L531.961652,307.279915 L549.736074,297.639574 L541.589393,275.393635" id="Fill-325" sketch:type="MSShapeGroup"></path>
                <path d="M506.039984,216.812116 L503.077298,232.384103 L545.292327,216.812116 L506.039984,216.812116" id="Fill-326" sketch:type="MSShapeGroup"></path>
                <path d="M503.077298,250.181307 L541.589393,275.393635 L548.255013,256.11352 L503.077298,250.181307" id="Fill-327" sketch:type="MSShapeGroup"></path>
                <path d="M545.292327,216.812116 L503.077298,232.384103 L549.736074,245.732006 L545.292327,216.812116" id="Fill-328" sketch:type="MSShapeGroup"></path>
                <path d="M531.961652,307.279915 L531.220839,319.886079 L549.736074,297.639574 L531.961652,307.279915" id="Fill-329" sketch:type="MSShapeGroup"></path>
                <path d="M549.736074,297.639574 L531.220839,319.886079 L565.289187,325.076553 L549.736074,297.639574" id="Fill-330" sketch:type="MSShapeGroup"></path>
                <path d="M548.255013,256.11352 L541.589393,275.393635 L561.585689,271.686073 L548.255013,256.11352" id="Fill-331" sketch:type="MSShapeGroup"></path>
                <path d="M541.589393,275.393635 L549.736074,297.639574 L561.585689,271.686073 L541.589393,275.393635" id="Fill-332" sketch:type="MSShapeGroup"></path>
                <path d="M549.736074,245.732006 L548.255013,256.11352 L563.807562,251.664219 L549.736074,245.732006" id="Fill-333" sketch:type="MSShapeGroup"></path>
                <path d="M615.650897,311.729216 L621.575704,339.907368 L628.241325,317.661429 L615.650897,311.729216" id="Fill-334" sketch:type="MSShapeGroup"></path>
                <path d="M577.138802,257.596432 L578.619863,270.202596 L588.248169,250.923046 L577.138802,257.596432" id="Fill-335" sketch:type="MSShapeGroup"></path>
                <path d="M577.138802,257.596432 L561.585689,271.686073 L578.619863,270.202596 L577.138802,257.596432" id="Fill-336" sketch:type="MSShapeGroup"></path>
                <path d="M561.585689,271.686073 L563.067314,297.639574 L582.323361,282.80876 L561.585689,271.686073" id="Fill-337" sketch:type="MSShapeGroup"></path>
                <path d="M560.845441,219.777939 L563.807562,251.664219 L579.360675,234.608754 L560.845441,219.777939" id="Fill-338" sketch:type="MSShapeGroup"></path>
                <path d="M563.807562,251.664219 L561.585689,271.686073 L577.138802,257.596432 L563.807562,251.664219" id="Fill-339" sketch:type="MSShapeGroup"></path>
                <path d="M563.067314,297.639574 L565.289187,325.076553 L577.879615,314.69504 L563.067314,297.639574" id="Fill-340" sketch:type="MSShapeGroup"></path>
                <path d="M615.650897,311.729216 L609.72609,344.356669 L621.575704,339.907368 L615.650897,311.729216" id="Fill-341" sketch:type="MSShapeGroup"></path>
                <path d="M579.360675,234.608754 L577.138802,257.596432 L588.248169,250.923046 L579.360675,234.608754" id="Fill-342" sketch:type="MSShapeGroup"></path>
                <path d="M565.289187,325.076553 L582.323361,336.199805 L585.285483,322.851903 L565.289187,325.076553" id="Fill-343" sketch:type="MSShapeGroup"></path>
                <path d="M563.067314,297.639574 L577.879615,314.69504 L582.323361,282.80876 L563.067314,297.639574" id="Fill-344" sketch:type="MSShapeGroup"></path>
                <path d="M577.879615,314.69504 L565.289187,325.076553 L585.285483,322.851903 L577.879615,314.69504" id="Fill-345" sketch:type="MSShapeGroup"></path>
                <path d="M585.285483,322.851903 L582.323361,336.199805 L609.72609,344.356669 L585.285483,322.851903" id="Fill-346" sketch:type="MSShapeGroup"></path>
                <path d="M565.289187,325.076553 L555.660881,336.941544 L582.323361,336.199805 L565.289187,325.076553" id="Fill-347" sketch:type="MSShapeGroup"></path>
                <path d="M585.285483,322.851903 L609.72609,344.356669 L615.650897,311.729216 L585.285483,322.851903" id="Fill-348" sketch:type="MSShapeGroup"></path>
                <path d="M582.323361,282.80876 L577.879615,314.69504 L615.650897,311.729216 L582.323361,282.80876" id="Fill-349" sketch:type="MSShapeGroup"></path>
                <path d="M577.879615,314.69504 L585.285483,322.851903 L615.650897,311.729216 L577.879615,314.69504" id="Fill-350" sketch:type="MSShapeGroup"></path>
                <path d="M640.090939,325.818292 L621.575704,339.907368 L641.572,336.199805 L640.090939,325.818292" id="Fill-351" sketch:type="MSShapeGroup"></path>
                <path d="M628.241325,317.661429 L621.575704,339.907368 L640.090939,325.818292 L628.241325,317.661429" id="Fill-352" sketch:type="MSShapeGroup"></path>
            </g>
        </g>
    </g>
</svg>
