<?xml version="1.0" encoding="UTF-8" standalone="no"?>
<svg width="653px" height="428px" viewBox="0 0 653 428" version="1.1" xmlns="http://www.w3.org/2000/svg" xmlns:xlink="http://www.w3.org/1999/xlink" xmlns:sketch="http://www.bohemiancoding.com/sketch/ns">
    <!-- Generator: Sketch 3.0.4 (8053) - http://www.bohemiancoding.com/sketch -->
    <title>outline-milvus-milvus</title>
    <desc>Created with Sketch.</desc>
    <defs></defs>
    <g id="Page-1" stroke="none" stroke-width="1" fill="none" fill-rule="evenodd" sketch:type="MSPage">
        <g id="outline-milvus-milvus" sketch:type="MSArtboardGroup" stroke="#080808">
            <g id="milvus" sketch:type="MSLayerGroup" transform="translate(20.000000, 18.000000)">
                <path d="M11.342,157.227 L0.741,166.415 L16.289,176.309 L11.342,157.227" id="Fill-2" sketch:type="MSShapeGroup"></path>
                <path d="M0.034,146.626 L0.741,166.415 L11.342,157.227 L0.034,146.626" id="Fill-3" sketch:type="MSShapeGroup"></path>
                <path d="M0.741,166.415 L6.395,189.031 L16.289,176.309 L0.741,166.415" id="Fill-4" sketch:type="MSShapeGroup"></path>
                <path d="M34.664,176.309 L29.01,198.925 L41.732,197.511 L34.664,176.309" id="Fill-5" sketch:type="MSShapeGroup"></path>
                <path d="M18.409,109.876 L19.116,116.943 L26.184,107.049 L18.409,109.876" id="Fill-6" sketch:type="MSShapeGroup"></path>
                <path d="M31.837,114.116 L19.116,116.943 L38.198,134.612 L31.837,114.116" id="Fill-7" sketch:type="MSShapeGroup"></path>
                <path d="M12.756,111.289 L8.515,137.439 L19.116,116.943 L12.756,111.289" id="Fill-8" sketch:type="MSShapeGroup"></path>
                <path d="M19.116,116.943 L24.77,142.386 L38.198,134.612 L19.116,116.943" id="Fill-9" sketch:type="MSShapeGroup"></path>
                <path d="M19.116,116.943 L8.515,137.439 L24.77,142.386 L19.116,116.943" id="Fill-10" sketch:type="MSShapeGroup"></path>
                <path d="M8.515,137.439 L11.342,157.227 L24.77,142.386 L8.515,137.439" id="Fill-11" sketch:type="MSShapeGroup"></path>
                <path d="M26.184,107.049 L19.116,116.943 L31.837,114.116 L26.184,107.049" id="Fill-12" sketch:type="MSShapeGroup"></path>
                <path d="M51.626,186.204 L41.732,197.511 L57.28,200.338 L51.626,186.204" id="Fill-13" sketch:type="MSShapeGroup"></path>
                <path d="M16.289,176.309 L6.395,189.031 L29.01,198.925 L16.289,176.309" id="Fill-14" sketch:type="MSShapeGroup"></path>
                <path d="M6.395,189.031 L19.823,212.353 L29.01,198.925 L6.395,189.031" id="Fill-15" sketch:type="MSShapeGroup"></path>
                <path d="M19.823,212.353 L26.89,221.54 L29.01,198.925 L19.823,212.353" id="Fill-16" sketch:type="MSShapeGroup"></path>
                <path d="M41.732,197.511 L48.092,218.714 L57.28,200.338 L41.732,197.511" id="Fill-17" sketch:type="MSShapeGroup"></path>
                <path d="M16.289,176.309 L29.01,198.925 L34.664,176.309 L16.289,176.309" id="Fill-18" sketch:type="MSShapeGroup"></path>
                <path d="M142.795,208.112 L153.396,222.247 L159.05,210.939 L142.795,208.112" id="Fill-19" sketch:type="MSShapeGroup"></path>
                <path d="M11.342,157.227 L16.289,176.309 L34.664,176.309 L11.342,157.227" id="Fill-20" sketch:type="MSShapeGroup"></path>
                <path d="M38.198,134.612 L43.145,157.227 L49.506,137.439 L38.198,134.612" id="Fill-21" sketch:type="MSShapeGroup"></path>
                <path d="M26.89,221.54 L46.679,234.262 L48.092,218.714 L26.89,221.54" id="Fill-22" sketch:type="MSShapeGroup"></path>
                <path d="M38.198,134.612 L24.77,142.386 L43.145,157.227 L38.198,134.612" id="Fill-23" sketch:type="MSShapeGroup"></path>
                <path d="M24.77,142.386 L11.342,157.227 L43.145,157.227 L24.77,142.386" id="Fill-24" sketch:type="MSShapeGroup"></path>
                <path d="M11.342,157.227 L34.664,176.309 L43.145,157.227 L11.342,157.227" id="Fill-25" sketch:type="MSShapeGroup"></path>
                <path d="M49.506,137.439 L43.145,157.227 L58.694,145.919 L49.506,137.439" id="Fill-26" sketch:type="MSShapeGroup"></path>
                <path d="M29.01,198.925 L26.89,221.54 L48.092,218.714 L29.01,198.925" id="Fill-27" sketch:type="MSShapeGroup"></path>
                <path d="M41.732,197.511 L29.01,198.925 L48.092,218.714 L41.732,197.511" id="Fill-28" sketch:type="MSShapeGroup"></path>
                <path d="M262.234,273.132 L262.941,292.921 L282.729,290.801 L262.234,273.132" id="Fill-29" sketch:type="MSShapeGroup"></path>
                <path d="M34.664,176.309 L41.732,197.511 L51.626,186.204 L34.664,176.309" id="Fill-30" sketch:type="MSShapeGroup"></path>
                <path d="M34.664,176.309 L51.626,186.204 L61.52,167.828 L34.664,176.309" id="Fill-31" sketch:type="MSShapeGroup"></path>
                <path d="M43.145,157.227 L34.664,176.309 L61.52,167.828 L43.145,157.227" id="Fill-32" sketch:type="MSShapeGroup"></path>
                <path d="M67.881,190.444 L57.28,200.338 L69.295,201.752 L67.881,190.444" id="Fill-33" sketch:type="MSShapeGroup"></path>
                <path d="M58.694,145.919 L43.145,157.227 L61.52,167.828 L58.694,145.919" id="Fill-34" sketch:type="MSShapeGroup"></path>
                <path d="M57.28,200.338 L65.761,221.54 L69.295,201.752 L57.28,200.338" id="Fill-35" sketch:type="MSShapeGroup"></path>
                <path d="M89.083,177.016 L101.805,191.858 L110.992,180.55 L89.083,177.016" id="Fill-36" sketch:type="MSShapeGroup"></path>
                <path d="M65.761,221.54 L46.679,234.262 L68.588,249.103 L65.761,221.54" id="Fill-37" sketch:type="MSShapeGroup"></path>
                <path d="M61.52,167.828 L51.626,186.204 L67.881,190.444 L61.52,167.828" id="Fill-38" sketch:type="MSShapeGroup"></path>
                <path d="M48.092,218.714 L46.679,234.262 L65.761,221.54 L48.092,218.714" id="Fill-39" sketch:type="MSShapeGroup"></path>
                <path d="M57.28,200.338 L48.092,218.714 L65.761,221.54 L57.28,200.338" id="Fill-40" sketch:type="MSShapeGroup"></path>
                <path d="M51.626,186.204 L57.28,200.338 L67.881,190.444 L51.626,186.204" id="Fill-41" sketch:type="MSShapeGroup"></path>
                <path d="M58.694,145.919 L61.52,167.828 L72.828,148.04 L58.694,145.919" id="Fill-42" sketch:type="MSShapeGroup"></path>
                <path d="M62.934,144.506 L58.694,145.919 L72.828,148.04 L62.934,144.506" id="Fill-43" sketch:type="MSShapeGroup"></path>
                <path d="M67.881,190.444 L69.295,201.752 L75.655,205.286 L67.881,190.444" id="Fill-44" sketch:type="MSShapeGroup"></path>
                <path d="M84.136,162.175 L78.482,172.069 L89.083,177.016 L84.136,162.175" id="Fill-45" sketch:type="MSShapeGroup"></path>
                <path d="M77.069,181.963 L88.376,191.151 L89.083,177.016 L77.069,181.963" id="Fill-46" sketch:type="MSShapeGroup"></path>
                <path d="M69.295,201.752 L65.761,221.54 L75.655,205.286 L69.295,201.752" id="Fill-47" sketch:type="MSShapeGroup"></path>
                <path d="M61.52,167.828 L77.069,181.963 L78.482,172.069 L61.52,167.828" id="Fill-48" sketch:type="MSShapeGroup"></path>
                <path d="M65.761,221.54 L68.588,249.103 L81.309,225.781 L65.761,221.54" id="Fill-49" sketch:type="MSShapeGroup"></path>
                <path d="M61.52,167.828 L67.881,190.444 L77.069,181.963 L61.52,167.828" id="Fill-50" sketch:type="MSShapeGroup"></path>
                <path d="M111.699,201.752 L105.338,221.54 L118.766,214.473 L111.699,201.752" id="Fill-51" sketch:type="MSShapeGroup"></path>
                <path d="M65.761,221.54 L81.309,225.781 L84.136,210.939 L65.761,221.54" id="Fill-52" sketch:type="MSShapeGroup"></path>
                <path d="M61.52,167.828 L78.482,172.069 L84.136,162.175 L61.52,167.828" id="Fill-53" sketch:type="MSShapeGroup"></path>
                <path d="M72.828,148.04 L61.52,167.828 L84.136,162.175 L72.828,148.04" id="Fill-54" sketch:type="MSShapeGroup"></path>
                <path d="M110.992,180.55 L101.805,191.858 L111.699,201.752 L110.992,180.55" id="Fill-55" sketch:type="MSShapeGroup"></path>
                <path d="M94.03,211.646 L81.309,225.781 L95.444,230.728 L94.03,211.646" id="Fill-56" sketch:type="MSShapeGroup"></path>
                <path d="M75.655,205.286 L65.761,221.54 L84.136,210.939 L75.655,205.286" id="Fill-57" sketch:type="MSShapeGroup"></path>
                <path d="M68.588,249.103 L78.482,256.877 L86.256,245.57 L68.588,249.103" id="Fill-58" sketch:type="MSShapeGroup"></path>
                <path d="M81.309,225.781 L68.588,249.103 L86.256,245.57 L81.309,225.781" id="Fill-59" sketch:type="MSShapeGroup"></path>
                <path d="M77.069,181.963 L67.881,190.444 L88.376,191.151 L77.069,181.963" id="Fill-60" sketch:type="MSShapeGroup"></path>
                <path d="M67.881,190.444 L75.655,205.286 L88.376,191.151 L67.881,190.444" id="Fill-61" sketch:type="MSShapeGroup"></path>
                <path d="M78.482,172.069 L77.069,181.963 L89.083,177.016 L78.482,172.069" id="Fill-62" sketch:type="MSShapeGroup"></path>
                <path d="M75.655,205.286 L84.136,210.939 L88.376,191.151 L75.655,205.286" id="Fill-63" sketch:type="MSShapeGroup"></path>
                <path d="M86.256,245.57 L78.482,256.877 L93.324,259.704 L86.256,245.57" id="Fill-64" sketch:type="MSShapeGroup"></path>
                <path d="M155.517,248.397 L142.089,275.253 L162.584,268.892 L155.517,248.397" id="Fill-65" sketch:type="MSShapeGroup"></path>
                <path d="M84.136,210.939 L81.309,225.781 L94.03,211.646 L84.136,210.939" id="Fill-66" sketch:type="MSShapeGroup"></path>
                <path d="M81.309,225.781 L86.256,245.57 L95.444,230.728 L81.309,225.781" id="Fill-67" sketch:type="MSShapeGroup"></path>
                <path d="M88.376,191.151 L84.136,210.939 L94.03,211.646 L88.376,191.151" id="Fill-68" sketch:type="MSShapeGroup"></path>
                <path d="M84.136,162.175 L89.083,177.016 L97.564,167.122 L84.136,162.175" id="Fill-69" sketch:type="MSShapeGroup"></path>
                <path d="M93.324,259.704 L78.482,256.877 L98.978,272.426 L93.324,259.704" id="Fill-70" sketch:type="MSShapeGroup"></path>
                <path d="M108.165,246.276 L93.324,259.704 L115.233,268.185 L108.165,246.276" id="Fill-71" sketch:type="MSShapeGroup"></path>
                <path d="M93.324,259.704 L98.978,272.426 L115.233,268.185 L93.324,259.704" id="Fill-72" sketch:type="MSShapeGroup"></path>
                <path d="M86.256,245.57 L93.324,259.704 L101.098,239.209 L86.256,245.57" id="Fill-73" sketch:type="MSShapeGroup"></path>
                <path d="M95.444,230.728 L86.256,245.57 L101.098,239.209 L95.444,230.728" id="Fill-74" sketch:type="MSShapeGroup"></path>
                <path d="M101.098,239.209 L93.324,259.704 L108.165,246.276 L101.098,239.209" id="Fill-75" sketch:type="MSShapeGroup"></path>
                <path d="M88.376,191.151 L94.03,211.646 L101.805,191.858 L88.376,191.151" id="Fill-76" sketch:type="MSShapeGroup"></path>
                <path d="M89.083,177.016 L88.376,191.151 L101.805,191.858 L89.083,177.016" id="Fill-77" sketch:type="MSShapeGroup"></path>
                <path d="M94.03,211.646 L95.444,230.728 L105.338,221.54 L94.03,211.646" id="Fill-78" sketch:type="MSShapeGroup"></path>
                <path d="M95.444,230.728 L101.098,239.209 L105.338,221.54 L95.444,230.728" id="Fill-79" sketch:type="MSShapeGroup"></path>
                <path d="M94.03,211.646 L105.338,221.54 L111.699,201.752 L94.03,211.646" id="Fill-80" sketch:type="MSShapeGroup"></path>
                <path d="M97.564,167.122 L89.083,177.016 L110.992,180.55 L97.564,167.122" id="Fill-81" sketch:type="MSShapeGroup"></path>
                <path d="M111.699,201.752 L118.766,214.473 L125.834,189.737 L111.699,201.752" id="Fill-82" sketch:type="MSShapeGroup"></path>
                <path d="M101.805,191.858 L94.03,211.646 L111.699,201.752 L101.805,191.858" id="Fill-83" sketch:type="MSShapeGroup"></path>
                <path d="M115.233,268.185 L124.42,271.012 L124.42,256.171 L115.233,268.185" id="Fill-84" sketch:type="MSShapeGroup"></path>
                <path d="M115.233,268.185 L123.713,278.08 L124.42,271.012 L115.233,268.185" id="Fill-85" sketch:type="MSShapeGroup"></path>
                <path d="M125.834,189.737 L118.766,214.473 L129.367,216.593 L125.834,189.737" id="Fill-86" sketch:type="MSShapeGroup"></path>
                <path d="M120.887,237.796 L108.165,246.276 L124.42,256.171 L120.887,237.796" id="Fill-87" sketch:type="MSShapeGroup"></path>
                <path d="M110.992,180.55 L111.699,201.752 L125.834,189.737 L110.992,180.55" id="Fill-88" sketch:type="MSShapeGroup"></path>
                <path d="M105.338,221.54 L101.098,239.209 L120.887,237.796 L105.338,221.54" id="Fill-89" sketch:type="MSShapeGroup"></path>
                <path d="M101.098,239.209 L108.165,246.276 L120.887,237.796 L101.098,239.209" id="Fill-90" sketch:type="MSShapeGroup"></path>
                <path d="M118.766,214.473 L125.834,225.781 L129.367,216.593 L118.766,214.473" id="Fill-91" sketch:type="MSShapeGroup"></path>
                <path d="M115.233,268.185 L98.978,272.426 L123.713,278.08 L115.233,268.185" id="Fill-92" sketch:type="MSShapeGroup"></path>
                <path d="M207.109,263.238 L185.2,277.373 L208.522,290.801 L207.109,263.238" id="Fill-93" sketch:type="MSShapeGroup"></path>
                <path d="M108.165,246.276 L115.233,268.185 L124.42,256.171 L108.165,246.276" id="Fill-94" sketch:type="MSShapeGroup"></path>
                <path d="M118.766,214.473 L105.338,221.54 L125.834,225.781 L118.766,214.473" id="Fill-95" sketch:type="MSShapeGroup"></path>
                <path d="M105.338,221.54 L120.887,237.796 L125.834,225.781 L105.338,221.54" id="Fill-96" sketch:type="MSShapeGroup"></path>
                <path d="M129.367,216.593 L138.555,220.127 L139.262,214.473 L129.367,216.593" id="Fill-97" sketch:type="MSShapeGroup"></path>
                <path d="M138.555,220.127 L147.036,230.728 L153.396,222.247 L138.555,220.127" id="Fill-98" sketch:type="MSShapeGroup"></path>
                <path d="M142.089,275.253 L152.69,288.681 L162.584,268.892 L142.089,275.253" id="Fill-99" sketch:type="MSShapeGroup"></path>
                <path d="M132.901,227.901 L120.887,237.796 L135.728,242.036 L132.901,227.901" id="Fill-100" sketch:type="MSShapeGroup"></path>
                <path d="M120.887,237.796 L124.42,256.171 L135.728,242.036 L120.887,237.796" id="Fill-101" sketch:type="MSShapeGroup"></path>
                <path d="M129.367,216.593 L125.834,225.781 L132.901,227.901 L129.367,216.593" id="Fill-102" sketch:type="MSShapeGroup"></path>
                <path d="M125.834,225.781 L120.887,237.796 L132.901,227.901 L125.834,225.781" id="Fill-103" sketch:type="MSShapeGroup"></path>
                <path d="M125.834,189.737 L129.367,216.593 L139.262,197.511 L125.834,189.737" id="Fill-104" sketch:type="MSShapeGroup"></path>
                <path d="M162.584,268.892 L152.69,288.681 L168.238,287.267 L162.584,268.892" id="Fill-105" sketch:type="MSShapeGroup"></path>
                <path d="M147.036,230.728 L135.728,242.036 L155.517,248.397 L147.036,230.728" id="Fill-106" sketch:type="MSShapeGroup"></path>
                <path d="M139.262,214.473 L138.555,220.127 L153.396,222.247 L139.262,214.473" id="Fill-107" sketch:type="MSShapeGroup"></path>
                <path d="M135.728,242.036 L142.089,275.253 L155.517,248.397 L135.728,242.036" id="Fill-108" sketch:type="MSShapeGroup"></path>
                <path d="M129.367,216.593 L132.901,227.901 L138.555,220.127 L129.367,216.593" id="Fill-109" sketch:type="MSShapeGroup"></path>
                <path d="M135.728,242.036 L124.42,256.171 L142.089,275.253 L135.728,242.036" id="Fill-110" sketch:type="MSShapeGroup"></path>
                <path d="M124.42,256.171 L124.42,271.012 L142.089,275.253 L124.42,256.171" id="Fill-111" sketch:type="MSShapeGroup"></path>
                <path d="M142.089,275.253 L123.713,278.08 L152.69,288.681 L142.089,275.253" id="Fill-112" sketch:type="MSShapeGroup"></path>
                <path d="M124.42,271.012 L123.713,278.08 L142.089,275.253 L124.42,271.012" id="Fill-113" sketch:type="MSShapeGroup"></path>
                <path d="M129.367,216.593 L139.262,214.473 L142.795,208.112 L129.367,216.593" id="Fill-114" sketch:type="MSShapeGroup"></path>
                <path d="M139.262,197.511 L129.367,216.593 L142.795,208.112 L139.262,197.511" id="Fill-115" sketch:type="MSShapeGroup"></path>
                <path d="M132.901,227.901 L135.728,242.036 L147.036,230.728 L132.901,227.901" id="Fill-116" sketch:type="MSShapeGroup"></path>
                <path d="M138.555,220.127 L132.901,227.901 L147.036,230.728 L138.555,220.127" id="Fill-117" sketch:type="MSShapeGroup"></path>
                <path d="M207.771,338.461 L209.229,343.099 L210.642,330.378 L207.771,338.461" id="Fill-118" sketch:type="MSShapeGroup"></path>
                <path d="M182.373,254.05 L162.584,268.892 L185.2,277.373 L182.373,254.05" id="Fill-119" sketch:type="MSShapeGroup"></path>
                <path d="M168.238,287.267 L152.69,288.681 L173.185,299.282 L168.238,287.267" id="Fill-120" sketch:type="MSShapeGroup"></path>
                <path d="M142.795,208.112 L139.262,214.473 L153.396,222.247 L142.795,208.112" id="Fill-121" sketch:type="MSShapeGroup"></path>
                <path d="M246.686,244.156 L262.234,273.132 L270.715,263.238 L246.686,244.156" id="Fill-122" sketch:type="MSShapeGroup"></path>
                <path d="M153.396,222.247 L147.036,230.728 L175.305,237.796 L153.396,222.247" id="Fill-123" sketch:type="MSShapeGroup"></path>
                <path d="M147.036,230.728 L155.517,248.397 L175.305,237.796 L147.036,230.728" id="Fill-124" sketch:type="MSShapeGroup"></path>
                <path d="M153.396,222.247 L175.305,237.796 L180.253,218.714 L153.396,222.247" id="Fill-125" sketch:type="MSShapeGroup"></path>
                <path d="M159.05,210.939 L153.396,222.247 L180.253,218.714 L159.05,210.939" id="Fill-126" sketch:type="MSShapeGroup"></path>
                <path d="M155.517,248.397 L162.584,268.892 L182.373,254.05 L155.517,248.397" id="Fill-127" sketch:type="MSShapeGroup"></path>
                <path d="M175.305,237.796 L155.517,248.397 L182.373,254.05 L175.305,237.796" id="Fill-128" sketch:type="MSShapeGroup"></path>
                <path d="M162.584,268.892 L168.238,287.267 L185.2,277.373 L162.584,268.892" id="Fill-129" sketch:type="MSShapeGroup"></path>
                <path d="M168.238,287.267 L173.185,299.282 L185.2,277.373 L168.238,287.267" id="Fill-130" sketch:type="MSShapeGroup"></path>
                <path d="M202.161,359.354 L205.695,367.129 L209.935,363.595 L202.161,359.354" id="Fill-131" sketch:type="MSShapeGroup"></path>
                <path d="M185.2,277.373 L173.185,299.282 L190.854,300.695 L185.2,277.373" id="Fill-132" sketch:type="MSShapeGroup"></path>
                <path d="M223.363,355.821 L218.416,360.061 L225.484,362.888 L223.363,355.821" id="Fill-133" sketch:type="MSShapeGroup"></path>
                <path d="M190.854,300.695 L173.185,299.282 L195.094,314.83 L190.854,300.695" id="Fill-134" sketch:type="MSShapeGroup"></path>
                <path d="M233.964,344.513 L236.791,348.047 L236.791,343.099 L233.964,344.513" id="Fill-135" sketch:type="MSShapeGroup"></path>
                <path d="M230.431,349.46 L223.363,351.58 L230.431,355.821 L230.431,349.46" id="Fill-136" sketch:type="MSShapeGroup"></path>
                <path d="M244.566,309.883 L258.7,322.604 L260.114,307.056 L244.566,309.883" id="Fill-137" sketch:type="MSShapeGroup"></path>
                <path d="M223.363,351.58 L223.363,355.821 L230.431,355.821 L223.363,351.58" id="Fill-138" sketch:type="MSShapeGroup"></path>
                <path d="M180.253,218.714 L175.305,237.796 L206.402,228.608 L180.253,218.714" id="Fill-139" sketch:type="MSShapeGroup"></path>
                <path d="M206.402,228.608 L175.305,237.796 L207.109,247.69 L206.402,228.608" id="Fill-140" sketch:type="MSShapeGroup"></path>
                <path d="M175.305,237.796 L182.373,254.05 L207.109,247.69 L175.305,237.796" id="Fill-141" sketch:type="MSShapeGroup"></path>
                <path d="M218.416,360.061 L217.003,362.888 L221.243,367.129 L218.416,360.061" id="Fill-142" sketch:type="MSShapeGroup"></path>
                <path d="M185.2,277.373 L190.854,300.695 L208.522,290.801 L185.2,277.373" id="Fill-143" sketch:type="MSShapeGroup"></path>
                <path d="M182.373,254.05 L185.2,277.373 L207.109,263.238 L182.373,254.05" id="Fill-144" sketch:type="MSShapeGroup"></path>
                <path d="M207.109,247.69 L182.373,254.05 L207.109,263.238 L207.109,247.69" id="Fill-145" sketch:type="MSShapeGroup"></path>
                <path d="M210.642,350.167 L204.988,352.287 L211.349,359.354 L210.642,350.167" id="Fill-146" sketch:type="MSShapeGroup"></path>
                <path d="M202.161,359.354 L209.935,363.595 L211.349,359.354 L202.161,359.354" id="Fill-147" sketch:type="MSShapeGroup"></path>
                <path d="M223.363,351.58 L219.123,355.821 L223.363,355.821 L223.363,351.58" id="Fill-148" sketch:type="MSShapeGroup"></path>
                <path d="M207.771,338.461 L207.815,345.794 L209.229,343.099 L207.771,338.461" id="Fill-149" sketch:type="MSShapeGroup"></path>
                <path d="M208.522,290.801 L190.854,300.695 L209.229,313.416 L208.522,290.801" id="Fill-150" sketch:type="MSShapeGroup"></path>
                <path d="M204.988,352.287 L202.161,359.354 L211.349,359.354 L204.988,352.287" id="Fill-151" sketch:type="MSShapeGroup"></path>
                <path d="M190.854,300.695 L195.094,314.83 L209.229,313.416 L190.854,300.695" id="Fill-152" sketch:type="MSShapeGroup"></path>
                <path d="M210.642,350.167 L214.176,351.58 L214.176,348.047 L210.642,350.167" id="Fill-153" sketch:type="MSShapeGroup"></path>
                <path d="M209.229,313.416 L210.642,330.378 L216.296,323.311 L209.229,313.416" id="Fill-154" sketch:type="MSShapeGroup"></path>
                <path d="M209.229,313.416 L195.094,314.83 L210.642,330.378 L209.229,313.416" id="Fill-155" sketch:type="MSShapeGroup"></path>
                <path d="M207.815,345.794 L204.988,352.287 L210.642,350.167 L207.815,345.794" id="Fill-156" sketch:type="MSShapeGroup"></path>
                <path d="M209.229,343.099 L207.815,345.794 L210.642,350.167 L209.229,343.099" id="Fill-157" sketch:type="MSShapeGroup"></path>
                <path d="M209.229,343.099 L210.642,350.167 L214.176,348.047 L209.229,343.099" id="Fill-158" sketch:type="MSShapeGroup"></path>
                <path d="M214.176,351.58 L210.642,350.167 L214.883,355.821 L214.176,351.58" id="Fill-159" sketch:type="MSShapeGroup"></path>
                <path d="M210.642,350.167 L211.349,359.354 L214.883,355.821 L210.642,350.167" id="Fill-160" sketch:type="MSShapeGroup"></path>
                <path d="M207.109,247.69 L207.109,263.238 L231.138,256.171 L207.109,247.69" id="Fill-161" sketch:type="MSShapeGroup"></path>
                <path d="M223.363,355.821 L225.484,362.888 L230.431,355.821 L223.363,355.821" id="Fill-162" sketch:type="MSShapeGroup"></path>
                <path d="M219.123,355.821 L218.416,360.061 L223.363,355.821 L219.123,355.821" id="Fill-163" sketch:type="MSShapeGroup"></path>
                <path d="M233.964,340.979 L233.964,344.513 L236.791,343.099 L233.964,340.979" id="Fill-164" sketch:type="MSShapeGroup"></path>
                <path d="M233.964,277.373 L223.363,299.988 L244.566,293.628 L233.964,277.373" id="Fill-165" sketch:type="MSShapeGroup"></path>
                <path d="M214.883,355.821 L218.416,360.061 L219.123,355.821 L214.883,355.821" id="Fill-166" sketch:type="MSShapeGroup"></path>
                <path d="M214.176,351.58 L214.883,355.821 L219.123,355.821 L214.176,351.58" id="Fill-167" sketch:type="MSShapeGroup"></path>
                <path d="M211.349,359.354 L209.935,363.595 L217.003,362.888 L211.349,359.354" id="Fill-168" sketch:type="MSShapeGroup"></path>
                <path d="M211.349,359.354 L217.003,362.888 L218.416,360.061 L211.349,359.354" id="Fill-169" sketch:type="MSShapeGroup"></path>
                <path d="M214.883,355.821 L211.349,359.354 L218.416,360.061 L214.883,355.821" id="Fill-170" sketch:type="MSShapeGroup"></path>
                <path d="M233.964,344.513 L233.258,346.633 L236.791,348.047 L233.964,344.513" id="Fill-171" sketch:type="MSShapeGroup"></path>
                <path d="M223.363,299.988 L209.229,313.416 L228.311,316.243 L223.363,299.988" id="Fill-172" sketch:type="MSShapeGroup"></path>
                <path d="M214.176,351.58 L219.123,355.821 L223.363,351.58 L214.176,351.58" id="Fill-173" sketch:type="MSShapeGroup"></path>
                <path d="M214.176,348.047 L214.176,351.58 L223.363,351.58 L214.176,348.047" id="Fill-174" sketch:type="MSShapeGroup"></path>
                <path d="M208.522,290.801 L209.229,313.416 L223.363,299.988 L208.522,290.801" id="Fill-175" sketch:type="MSShapeGroup"></path>
                <path d="M218.416,360.061 L221.243,367.129 L225.484,362.888 L218.416,360.061" id="Fill-176" sketch:type="MSShapeGroup"></path>
                <path d="M229.017,342.393 L233.964,344.513 L233.964,340.979 L229.017,342.393" id="Fill-177" sketch:type="MSShapeGroup"></path>
                <path d="M229.017,345.926 L223.363,351.58 L230.431,349.46 L229.017,345.926" id="Fill-178" sketch:type="MSShapeGroup"></path>
                <path d="M209.229,313.416 L216.296,323.311 L228.311,316.243 L209.229,313.416" id="Fill-179" sketch:type="MSShapeGroup"></path>
                <path d="M236.791,348.047 L230.431,355.821 L243.152,384.797 L236.791,348.047" id="Fill-180" sketch:type="MSShapeGroup"></path>
                <path d="M230.431,355.821 L225.484,362.888 L243.152,384.797 L230.431,355.821" id="Fill-181" sketch:type="MSShapeGroup"></path>
                <path d="M210.642,330.378 L209.229,343.099 L229.017,342.393 L210.642,330.378" id="Fill-182" sketch:type="MSShapeGroup"></path>
                <path d="M209.229,343.099 L214.176,348.047 L229.017,342.393 L209.229,343.099" id="Fill-183" sketch:type="MSShapeGroup"></path>
                <path d="M228.311,316.243 L216.296,323.311 L229.017,342.393 L228.311,316.243" id="Fill-184" sketch:type="MSShapeGroup"></path>
                <path d="M229.017,342.393 L223.363,351.58 L229.017,345.926 L229.017,342.393" id="Fill-185" sketch:type="MSShapeGroup"></path>
                <path d="M214.176,348.047 L223.363,351.58 L229.017,342.393 L214.176,348.047" id="Fill-186" sketch:type="MSShapeGroup"></path>
                <path d="M216.296,323.311 L210.642,330.378 L229.017,342.393 L216.296,323.311" id="Fill-187" sketch:type="MSShapeGroup"></path>
                <path d="M229.017,345.926 L230.431,349.46 L233.258,346.633 L229.017,345.926" id="Fill-188" sketch:type="MSShapeGroup"></path>
                <path d="M206.402,228.608 L231.138,256.171 L246.686,244.156 L206.402,228.608" id="Fill-189" sketch:type="MSShapeGroup"></path>
                <path d="M236.791,343.099 L236.791,348.047 L245.272,334.619 L236.791,343.099" id="Fill-190" sketch:type="MSShapeGroup"></path>
                <path d="M262.234,273.132 L244.566,293.628 L262.941,292.921 L262.234,273.132" id="Fill-191" sketch:type="MSShapeGroup"></path>
                <path d="M206.402,228.608 L207.109,247.69 L231.138,256.171 L206.402,228.608" id="Fill-192" sketch:type="MSShapeGroup"></path>
                <path d="M228.311,316.243 L229.017,342.393 L233.964,340.979 L228.311,316.243" id="Fill-193" sketch:type="MSShapeGroup"></path>
                <path d="M231.138,256.171 L207.109,263.238 L233.964,277.373 L231.138,256.171" id="Fill-194" sketch:type="MSShapeGroup"></path>
                <path d="M208.522,290.801 L223.363,299.988 L233.964,277.373 L208.522,290.801" id="Fill-195" sketch:type="MSShapeGroup"></path>
                <path d="M207.109,263.238 L208.522,290.801 L233.964,277.373 L207.109,263.238" id="Fill-196" sketch:type="MSShapeGroup"></path>
                <path d="M229.017,342.393 L229.017,345.926 L233.964,344.513 L229.017,342.393" id="Fill-197" sketch:type="MSShapeGroup"></path>
                <path d="M229.017,345.926 L233.258,346.633 L233.964,344.513 L229.017,345.926" id="Fill-198" sketch:type="MSShapeGroup"></path>
                <path d="M230.431,349.46 L230.431,355.821 L236.791,348.047 L230.431,349.46" id="Fill-199" sketch:type="MSShapeGroup"></path>
                <path d="M233.258,346.633 L230.431,349.46 L236.791,348.047 L233.258,346.633" id="Fill-200" sketch:type="MSShapeGroup"></path>
                <path d="M225.484,362.888 L221.243,367.129 L243.152,384.797 L225.484,362.888" id="Fill-201" sketch:type="MSShapeGroup"></path>
                <path d="M244.566,293.628 L260.114,307.056 L262.941,292.921 L244.566,293.628" id="Fill-202" sketch:type="MSShapeGroup"></path>
                <path d="M233.964,340.979 L236.791,343.099 L245.272,334.619 L233.964,340.979" id="Fill-203" sketch:type="MSShapeGroup"></path>
                <path d="M244.566,293.628 L223.363,299.988 L244.566,309.883 L244.566,293.628" id="Fill-204" sketch:type="MSShapeGroup"></path>
                <path d="M223.363,299.988 L228.311,316.243 L244.566,309.883 L223.363,299.988" id="Fill-205" sketch:type="MSShapeGroup"></path>
                <path d="M228.311,316.243 L233.964,340.979 L245.272,334.619 L228.311,316.243" id="Fill-206" sketch:type="MSShapeGroup"></path>
                <path d="M244.566,309.883 L228.311,316.243 L245.272,334.619 L244.566,309.883" id="Fill-207" sketch:type="MSShapeGroup"></path>
                <path d="M271.422,319.777 L258.7,322.604 L279.903,328.258 L271.422,319.777" id="Fill-208" sketch:type="MSShapeGroup"></path>
                <path d="M246.686,244.156 L231.138,256.171 L262.234,273.132 L246.686,244.156" id="Fill-209" sketch:type="MSShapeGroup"></path>
                <path d="M244.566,309.883 L245.272,334.619 L258.7,322.604 L244.566,309.883" id="Fill-210" sketch:type="MSShapeGroup"></path>
                <path d="M244.566,293.628 L244.566,309.883 L260.114,307.056 L244.566,293.628" id="Fill-211" sketch:type="MSShapeGroup"></path>
                <path d="M233.964,277.373 L244.566,293.628 L262.234,273.132 L233.964,277.373" id="Fill-212" sketch:type="MSShapeGroup"></path>
                <path d="M260.114,307.056 L271.422,319.777 L276.369,307.056 L260.114,307.056" id="Fill-213" sketch:type="MSShapeGroup"></path>
                <path d="M231.138,256.171 L233.964,277.373 L262.234,273.132 L231.138,256.171" id="Fill-214" sketch:type="MSShapeGroup"></path>
                <path d="M236.791,348.047 L243.152,384.797 L266.474,392.571 L236.791,348.047" id="Fill-215" sketch:type="MSShapeGroup"></path>
                <path d="M410.649,343.806 L431.851,352.994 L431.851,344.513 L410.649,343.806" id="Fill-216" sketch:type="MSShapeGroup"></path>
                <path d="M262.941,292.921 L260.114,307.056 L276.369,307.056 L262.941,292.921" id="Fill-217" sketch:type="MSShapeGroup"></path>
                <path d="M260.114,307.056 L258.7,322.604 L271.422,319.777 L260.114,307.056" id="Fill-218" sketch:type="MSShapeGroup"></path>
                <path d="M258.7,322.604 L245.272,334.619 L279.903,328.258 L258.7,322.604" id="Fill-219" sketch:type="MSShapeGroup"></path>
                <path d="M245.272,334.619 L236.791,348.047 L279.903,328.258 L245.272,334.619" id="Fill-220" sketch:type="MSShapeGroup"></path>
                <path d="M236.791,348.047 L266.474,392.571 L279.903,328.258 L236.791,348.047" id="Fill-221" sketch:type="MSShapeGroup"></path>
                <path d="M292.624,271.012 L282.729,290.801 L293.331,294.335 L292.624,271.012" id="Fill-222" sketch:type="MSShapeGroup"></path>
                <path d="M262.941,292.921 L276.369,307.056 L282.729,290.801 L262.941,292.921" id="Fill-223" sketch:type="MSShapeGroup"></path>
                <path d="M282.729,290.801 L288.383,310.59 L293.331,294.335 L282.729,290.801" id="Fill-224" sketch:type="MSShapeGroup"></path>
                <path d="M270.715,263.238 L262.234,273.132 L285.556,272.426 L270.715,263.238" id="Fill-225" sketch:type="MSShapeGroup"></path>
                <path d="M262.234,273.132 L282.729,290.801 L285.556,272.426 L262.234,273.132" id="Fill-226" sketch:type="MSShapeGroup"></path>
                <path d="M295.451,333.205 L266.474,392.571 L307.465,391.629 L295.451,333.205" id="Fill-227" sketch:type="MSShapeGroup"></path>
                <path d="M282.729,290.801 L276.369,307.056 L288.383,310.59 L282.729,290.801" id="Fill-228" sketch:type="MSShapeGroup"></path>
                <path d="M276.369,307.056 L271.422,319.777 L288.383,310.59 L276.369,307.056" id="Fill-229" sketch:type="MSShapeGroup"></path>
                <path d="M271.422,319.777 L279.903,328.258 L288.383,310.59 L271.422,319.777" id="Fill-230" sketch:type="MSShapeGroup"></path>
                <path d="M286.263,252.637 L292.624,271.012 L292.624,253.344 L286.263,252.637" id="Fill-231" sketch:type="MSShapeGroup"></path>
                <path d="M347.043,332.498 L332.201,343.806 L351.99,348.753 L347.043,332.498" id="Fill-232" sketch:type="MSShapeGroup"></path>
                <path d="M289.09,228.608 L293.331,233.555 L296.864,219.42 L289.09,228.608" id="Fill-233" sketch:type="MSShapeGroup"></path>
                <path d="M285.556,237.089 L292.624,253.344 L293.331,233.555 L285.556,237.089" id="Fill-234" sketch:type="MSShapeGroup"></path>
                <path d="M286.263,252.637 L285.556,272.426 L292.624,271.012 L286.263,252.637" id="Fill-235" sketch:type="MSShapeGroup"></path>
                <path d="M289.09,228.608 L285.556,237.089 L293.331,233.555 L289.09,228.608" id="Fill-236" sketch:type="MSShapeGroup"></path>
                <path d="M285.556,272.426 L282.729,290.801 L292.624,271.012 L285.556,272.426" id="Fill-237" sketch:type="MSShapeGroup"></path>
                <path d="M285.556,237.089 L286.263,252.637 L292.624,253.344 L285.556,237.089" id="Fill-238" sketch:type="MSShapeGroup"></path>
                <path d="M266.474,392.571 L291.21,396.105 L307.465,391.629 L266.474,392.571" id="Fill-239" sketch:type="MSShapeGroup"></path>
                <path d="M279.903,328.258 L266.474,392.571 L295.451,333.205 L279.903,328.258" id="Fill-240" sketch:type="MSShapeGroup"></path>
                <path d="M288.383,310.59 L279.903,328.258 L295.451,333.205 L288.383,310.59" id="Fill-241" sketch:type="MSShapeGroup"></path>
                <path d="M318.066,317.657 L295.451,333.205 L321.6,333.205 L318.066,317.657" id="Fill-242" sketch:type="MSShapeGroup"></path>
                <path d="M296.864,219.42 L293.331,233.555 L305.345,222.247 L296.864,219.42" id="Fill-243" sketch:type="MSShapeGroup"></path>
                <path d="M296.864,219.42 L305.345,222.247 L312.412,208.819 L296.864,219.42" id="Fill-244" sketch:type="MSShapeGroup"></path>
                <path d="M358.35,372.076 L369.658,369.955 L371.778,350.167 L358.35,372.076" id="Fill-245" sketch:type="MSShapeGroup"></path>
                <path d="M292.624,253.344 L292.624,271.012 L325.84,270.305 L292.624,253.344" id="Fill-246" sketch:type="MSShapeGroup"></path>
                <path d="M293.331,294.335 L288.383,310.59 L318.066,317.657 L293.331,294.335" id="Fill-247" sketch:type="MSShapeGroup"></path>
                <path d="M288.383,310.59 L295.451,333.205 L318.066,317.657 L288.383,310.59" id="Fill-248" sketch:type="MSShapeGroup"></path>
                <path d="M305.345,222.247 L293.331,233.555 L324.427,239.916 L305.345,222.247" id="Fill-249" sketch:type="MSShapeGroup"></path>
                <path d="M343.509,379.85 L354.11,384.09 L358.35,372.076 L343.509,379.85" id="Fill-250" sketch:type="MSShapeGroup"></path>
                <path d="M332.201,189.737 L312.412,208.819 L334.321,220.834 L332.201,189.737" id="Fill-251" sketch:type="MSShapeGroup"></path>
                <path d="M321.6,333.205 L332.201,343.806 L336.442,324.724 L321.6,333.205" id="Fill-252" sketch:type="MSShapeGroup"></path>
                <path d="M364.004,170.655 L380.259,172.776 L385.206,155.107 L364.004,170.655" id="Fill-253" sketch:type="MSShapeGroup"></path>
                <path d="M293.331,233.555 L292.624,253.344 L324.427,239.916 L293.331,233.555" id="Fill-254" sketch:type="MSShapeGroup"></path>
                <path d="M292.624,271.012 L293.331,294.335 L325.84,270.305 L292.624,271.012" id="Fill-255" sketch:type="MSShapeGroup"></path>
                <path d="M293.331,294.335 L318.066,317.657 L325.84,270.305 L293.331,294.335" id="Fill-256" sketch:type="MSShapeGroup"></path>
                <path d="M324.427,239.916 L292.624,253.344 L327.254,253.344 L324.427,239.916" id="Fill-257" sketch:type="MSShapeGroup"></path>
                <path d="M292.624,253.344 L325.84,270.305 L327.254,253.344 L292.624,253.344" id="Fill-258" sketch:type="MSShapeGroup"></path>
                <path d="M307.465,391.629 L320.186,385.504 L332.201,343.806 L307.465,391.629" id="Fill-259" sketch:type="MSShapeGroup"></path>
                <path d="M321.6,333.205 L295.451,333.205 L332.201,343.806 L321.6,333.205" id="Fill-260" sketch:type="MSShapeGroup"></path>
                <path d="M295.451,333.205 L307.465,391.629 L332.201,343.806 L295.451,333.205" id="Fill-261" sketch:type="MSShapeGroup"></path>
                <path d="M341.389,376.316 L343.509,379.85 L358.35,372.076 L341.389,376.316" id="Fill-262" sketch:type="MSShapeGroup"></path>
                <path d="M312.412,208.819 L305.345,222.247 L334.321,220.834 L312.412,208.819" id="Fill-263" sketch:type="MSShapeGroup"></path>
                <path d="M305.345,222.247 L324.427,239.916 L334.321,220.834 L305.345,222.247" id="Fill-264" sketch:type="MSShapeGroup"></path>
                <path d="M363.298,258.291 L325.84,270.305 L364.004,275.959 L363.298,258.291" id="Fill-265" sketch:type="MSShapeGroup"></path>
                <path d="M318.066,317.657 L321.6,333.205 L336.442,324.724 L318.066,317.657" id="Fill-266" sketch:type="MSShapeGroup"></path>
                <path d="M351.99,348.753 L341.389,376.316 L358.35,372.076 L351.99,348.753" id="Fill-267" sketch:type="MSShapeGroup"></path>
                <path d="M332.201,343.806 L320.186,385.504 L341.389,376.316 L332.201,343.806" id="Fill-268" sketch:type="MSShapeGroup"></path>
                <path d="M336.442,324.724 L347.043,332.498 L351.99,324.017 L336.442,324.724" id="Fill-269" sketch:type="MSShapeGroup"></path>
                <path d="M332.201,189.737 L334.321,220.834 L349.163,205.286 L332.201,189.737" id="Fill-270" sketch:type="MSShapeGroup"></path>
                <path d="M332.201,343.806 L341.389,376.316 L351.99,348.753 L332.201,343.806" id="Fill-271" sketch:type="MSShapeGroup"></path>
                <path d="M356.937,340.979 L371.778,350.167 L373.192,325.431 L356.937,340.979" id="Fill-272" sketch:type="MSShapeGroup"></path>
                <path d="M336.442,324.724 L332.201,343.806 L347.043,332.498 L336.442,324.724" id="Fill-273" sketch:type="MSShapeGroup"></path>
                <path d="M351.99,324.017 L356.937,340.979 L373.192,325.431 L351.99,324.017" id="Fill-274" sketch:type="MSShapeGroup"></path>
                <path d="M351.99,324.017 L347.043,332.498 L356.937,340.979 L351.99,324.017" id="Fill-275" sketch:type="MSShapeGroup"></path>
                <path d="M347.043,332.498 L351.99,348.753 L356.937,340.979 L347.043,332.498" id="Fill-276" sketch:type="MSShapeGroup"></path>
                <path d="M364.004,302.815 L351.99,324.017 L373.192,325.431 L364.004,302.815" id="Fill-277" sketch:type="MSShapeGroup"></path>
                <path d="M332.201,189.737 L349.163,205.286 L364.004,170.655 L332.201,189.737" id="Fill-278" sketch:type="MSShapeGroup"></path>
                <path d="M456.587,351.58 L462.948,358.648 L468.602,346.633 L456.587,351.58" id="Fill-279" sketch:type="MSShapeGroup"></path>
                <path d="M349.163,205.286 L334.321,220.834 L357.644,212.353 L349.163,205.286" id="Fill-280" sketch:type="MSShapeGroup"></path>
                <path d="M327.254,253.344 L363.298,258.291 L364.004,242.036 L327.254,253.344" id="Fill-281" sketch:type="MSShapeGroup"></path>
                <path d="M327.254,253.344 L325.84,270.305 L363.298,258.291 L327.254,253.344" id="Fill-282" sketch:type="MSShapeGroup"></path>
                <path d="M334.321,220.834 L324.427,239.916 L364.004,242.036 L334.321,220.834" id="Fill-283" sketch:type="MSShapeGroup"></path>
                <path d="M336.442,324.724 L351.99,324.017 L364.004,302.815 L336.442,324.724" id="Fill-284" sketch:type="MSShapeGroup"></path>
                <path d="M364.004,275.959 L325.84,270.305 L364.004,302.815 L364.004,275.959" id="Fill-285" sketch:type="MSShapeGroup"></path>
                <path d="M325.84,270.305 L318.066,317.657 L364.004,302.815 L325.84,270.305" id="Fill-286" sketch:type="MSShapeGroup"></path>
                <path d="M318.066,317.657 L336.442,324.724 L364.004,302.815 L318.066,317.657" id="Fill-287" sketch:type="MSShapeGroup"></path>
                <path d="M364.004,170.655 L349.163,205.286 L374.605,186.91 L364.004,170.655" id="Fill-288" sketch:type="MSShapeGroup"></path>
                <path d="M357.644,212.353 L334.321,220.834 L364.004,242.036 L357.644,212.353" id="Fill-289" sketch:type="MSShapeGroup"></path>
                <path d="M324.427,239.916 L327.254,253.344 L364.004,242.036 L324.427,239.916" id="Fill-290" sketch:type="MSShapeGroup"></path>
                <path d="M349.163,205.286 L357.644,212.353 L374.605,186.91 L349.163,205.286" id="Fill-291" sketch:type="MSShapeGroup"></path>
                <path d="M351.99,348.753 L358.35,372.076 L371.778,350.167 L351.99,348.753" id="Fill-292" sketch:type="MSShapeGroup"></path>
                <path d="M356.937,340.979 L351.99,348.753 L371.778,350.167 L356.937,340.979" id="Fill-293" sketch:type="MSShapeGroup"></path>
                <path d="M371.778,350.167 L369.658,369.955 L380.259,371.369 L371.778,350.167" id="Fill-294" sketch:type="MSShapeGroup"></path>
                <path d="M523.727,109.169 L528.674,119.77 L554.117,92.208 L523.727,109.169" id="Fill-295" sketch:type="MSShapeGroup"></path>
                <path d="M402.168,360.768 L409.942,357.941 L410.649,343.806 L402.168,360.768" id="Fill-296" sketch:type="MSShapeGroup"></path>
                <path d="M363.298,258.291 L418.423,269.599 L422.664,259.704 L363.298,258.291" id="Fill-297" sketch:type="MSShapeGroup"></path>
                <path d="M373.192,325.431 L371.778,350.167 L394.394,328.258 L373.192,325.431" id="Fill-298" sketch:type="MSShapeGroup"></path>
                <path d="M364.004,170.655 L374.605,186.91 L380.259,172.776 L364.004,170.655" id="Fill-299" sketch:type="MSShapeGroup"></path>
                <path d="M394.394,328.258 L402.168,360.768 L410.649,343.806 L394.394,328.258" id="Fill-300" sketch:type="MSShapeGroup"></path>
                <path d="M409.235,151.573 L415.596,160.761 L417.716,152.987 L409.235,151.573" id="Fill-301" sketch:type="MSShapeGroup"></path>
                <path d="M371.778,350.167 L380.259,371.369 L392.981,369.249 L371.778,350.167" id="Fill-302" sketch:type="MSShapeGroup"></path>
                <path d="M411.356,138.145 L409.235,151.573 L417.716,152.987 L411.356,138.145" id="Fill-303" sketch:type="MSShapeGroup"></path>
                <path d="M364.004,275.959 L364.004,302.815 L402.875,304.229 L364.004,275.959" id="Fill-304" sketch:type="MSShapeGroup"></path>
                <path d="M431.851,344.513 L443.159,345.926 L443.866,333.912 L431.851,344.513" id="Fill-305" sketch:type="MSShapeGroup"></path>
                <path d="M394.394,328.258 L371.778,350.167 L402.168,360.768 L394.394,328.258" id="Fill-306" sketch:type="MSShapeGroup"></path>
                <path d="M364.004,275.959 L402.875,304.229 L410.649,278.08 L364.004,275.959" id="Fill-307" sketch:type="MSShapeGroup"></path>
                <path d="M412.062,286.56 L402.875,304.229 L412.062,292.921 L412.062,286.56" id="Fill-308" sketch:type="MSShapeGroup"></path>
                <path d="M363.298,258.291 L364.004,275.959 L410.649,278.08 L363.298,258.291" id="Fill-309" sketch:type="MSShapeGroup"></path>
                <path d="M371.778,350.167 L392.981,369.249 L402.168,360.768 L371.778,350.167" id="Fill-310" sketch:type="MSShapeGroup"></path>
                <path d="M394.394,328.258 L402.168,324.017 L402.875,304.229 L394.394,328.258" id="Fill-311" sketch:type="MSShapeGroup"></path>
                <path d="M402.168,324.017 L394.394,328.258 L410.649,343.806 L402.168,324.017" id="Fill-312" sketch:type="MSShapeGroup"></path>
                <path d="M373.192,325.431 L394.394,328.258 L402.875,304.229 L373.192,325.431" id="Fill-313" sketch:type="MSShapeGroup"></path>
                <path d="M402.875,304.229 L402.168,324.017 L407.822,309.883 L402.875,304.229" id="Fill-314" sketch:type="MSShapeGroup"></path>
                <path d="M364.004,302.815 L373.192,325.431 L402.875,304.229 L364.004,302.815" id="Fill-315" sketch:type="MSShapeGroup"></path>
                <path d="M380.259,172.776 L374.605,186.91 L402.875,178.43 L380.259,172.776" id="Fill-316" sketch:type="MSShapeGroup"></path>
                <path d="M385.206,155.107 L380.259,172.776 L402.875,178.43 L385.206,155.107" id="Fill-317" sketch:type="MSShapeGroup"></path>
                <path d="M399.341,151.573 L385.206,155.107 L402.875,178.43 L399.341,151.573" id="Fill-318" sketch:type="MSShapeGroup"></path>
                <path d="M364.004,242.036 L363.298,258.291 L422.664,259.704 L364.004,242.036" id="Fill-319" sketch:type="MSShapeGroup"></path>
                <path d="M402.875,178.43 L374.605,186.91 L424.784,218.714 L402.875,178.43" id="Fill-320" sketch:type="MSShapeGroup"></path>
                <path d="M374.605,186.91 L357.644,212.353 L424.784,218.714 L374.605,186.91" id="Fill-321" sketch:type="MSShapeGroup"></path>
                <path d="M364.004,242.036 L424.077,239.209 L424.784,218.714 L364.004,242.036" id="Fill-322" sketch:type="MSShapeGroup"></path>
                <path d="M415.596,160.761 L402.875,178.43 L420.543,174.189 L415.596,160.761" id="Fill-323" sketch:type="MSShapeGroup"></path>
                <path d="M412.062,292.921 L402.875,304.229 L412.769,305.642 L412.062,292.921" id="Fill-324" sketch:type="MSShapeGroup"></path>
                <path d="M431.851,344.513 L441.039,351.58 L443.159,345.926 L431.851,344.513" id="Fill-325" sketch:type="MSShapeGroup"></path>
                <path d="M357.644,212.353 L364.004,242.036 L424.784,218.714 L357.644,212.353" id="Fill-326" sketch:type="MSShapeGroup"></path>
                <path d="M399.341,151.573 L409.235,151.573 L411.356,138.145 L399.341,151.573" id="Fill-327" sketch:type="MSShapeGroup"></path>
                <path d="M417.01,331.085 L431.851,344.513 L443.866,333.912 L417.01,331.085" id="Fill-328" sketch:type="MSShapeGroup"></path>
                <path d="M385.206,155.107 L399.341,151.573 L411.356,138.145 L385.206,155.107" id="Fill-329" sketch:type="MSShapeGroup"></path>
                <path d="M407.822,309.883 L402.168,324.017 L411.356,316.243 L407.822,309.883" id="Fill-330" sketch:type="MSShapeGroup"></path>
                <path d="M402.875,304.229 L407.822,309.883 L412.769,305.642 L402.875,304.229" id="Fill-331" sketch:type="MSShapeGroup"></path>
                <path d="M410.649,278.08 L402.875,304.229 L412.062,286.56 L410.649,278.08" id="Fill-332" sketch:type="MSShapeGroup"></path>
                <path d="M409.235,151.573 L399.341,151.573 L415.596,160.761 L409.235,151.573" id="Fill-333" sketch:type="MSShapeGroup"></path>
                <path d="M399.341,151.573 L402.875,178.43 L415.596,160.761 L399.341,151.573" id="Fill-334" sketch:type="MSShapeGroup"></path>
                <path d="M412.062,286.56 L412.062,292.921 L416.303,298.575 L412.062,286.56" id="Fill-335" sketch:type="MSShapeGroup"></path>
                <path d="M412.062,292.921 L412.769,305.642 L416.303,298.575 L412.062,292.921" id="Fill-336" sketch:type="MSShapeGroup"></path>
                <path d="M465.068,56.871 L453.053,83.727 L466.481,62.525 L465.068,56.871" id="Fill-337" sketch:type="MSShapeGroup"></path>
                <path d="M402.168,324.017 L410.649,343.806 L417.01,331.085 L402.168,324.017" id="Fill-338" sketch:type="MSShapeGroup"></path>
                <path d="M417.01,331.085 L410.649,343.806 L431.851,344.513 L417.01,331.085" id="Fill-339" sketch:type="MSShapeGroup"></path>
                <path d="M424.784,218.714 L431.144,210.939 L431.851,202.459 L424.784,218.714" id="Fill-340" sketch:type="MSShapeGroup"></path>
                <path d="M363.298,258.291 L410.649,278.08 L418.423,269.599 L363.298,258.291" id="Fill-341" sketch:type="MSShapeGroup"></path>
                <path d="M402.875,178.43 L424.784,218.714 L431.851,202.459 L402.875,178.43" id="Fill-342" sketch:type="MSShapeGroup"></path>
                <path d="M411.356,138.145 L417.716,152.987 L422.664,130.371 L411.356,138.145" id="Fill-343" sketch:type="MSShapeGroup"></path>
                <path d="M424.077,239.209 L364.004,242.036 L424.784,246.276 L424.077,239.209" id="Fill-344" sketch:type="MSShapeGroup"></path>
                <path d="M364.004,242.036 L422.664,259.704 L424.784,246.276 L364.004,242.036" id="Fill-345" sketch:type="MSShapeGroup"></path>
                <path d="M420.543,174.189 L402.875,178.43 L431.851,202.459 L420.543,174.189" id="Fill-346" sketch:type="MSShapeGroup"></path>
                <path d="M444.572,167.828 L420.543,174.189 L445.279,181.963 L444.572,167.828" id="Fill-347" sketch:type="MSShapeGroup"></path>
                <path d="M433.265,111.996 L436.798,114.823 L441.745,100.688 L433.265,111.996" id="Fill-348" sketch:type="MSShapeGroup"></path>
                <path d="M444.572,167.828 L445.279,181.963 L450.226,179.136 L444.572,167.828" id="Fill-349" sketch:type="MSShapeGroup"></path>
                <path d="M434.678,193.271 L431.851,202.459 L434.678,197.511 L434.678,193.271" id="Fill-350" sketch:type="MSShapeGroup"></path>
                <path d="M410.649,343.806 L409.942,357.941 L428.317,357.941 L410.649,343.806" id="Fill-351" sketch:type="MSShapeGroup"></path>
                <path d="M420.543,174.189 L431.851,202.459 L434.678,193.271 L420.543,174.189" id="Fill-352" sketch:type="MSShapeGroup"></path>
                <path d="M420.543,174.189 L434.678,193.271 L445.279,181.963 L420.543,174.189" id="Fill-353" sketch:type="MSShapeGroup"></path>
                <path d="M410.649,343.806 L428.317,357.941 L431.851,352.994 L410.649,343.806" id="Fill-354" sketch:type="MSShapeGroup"></path>
                <path d="M411.356,138.145 L422.664,130.371 L433.265,111.996 L411.356,138.145" id="Fill-355" sketch:type="MSShapeGroup"></path>
                <path d="M431.851,352.994 L428.317,357.941 L436.092,358.648 L431.851,352.994" id="Fill-356" sketch:type="MSShapeGroup"></path>
                <path d="M431.851,352.994 L440.332,356.527 L441.039,351.58 L431.851,352.994" id="Fill-357" sketch:type="MSShapeGroup"></path>
                <path d="M452.346,104.929 L459.414,109.169 L460.827,98.568 L452.346,104.929" id="Fill-358" sketch:type="MSShapeGroup"></path>
                <path d="M433.265,111.996 L422.664,130.371 L436.798,114.823 L433.265,111.996" id="Fill-359" sketch:type="MSShapeGroup"></path>
                <path d="M431.851,344.513 L431.851,352.994 L441.039,351.58 L431.851,344.513" id="Fill-360" sketch:type="MSShapeGroup"></path>
                <path d="M456.587,345.22 L448.813,351.58 L456.587,351.58 L456.587,345.22" id="Fill-361" sketch:type="MSShapeGroup"></path>
                <path d="M448.813,351.58 L451.64,360.768 L456.587,351.58 L448.813,351.58" id="Fill-362" sketch:type="MSShapeGroup"></path>
                <path d="M431.851,352.994 L436.092,358.648 L440.332,356.527 L431.851,352.994" id="Fill-363" sketch:type="MSShapeGroup"></path>
                <path d="M456.587,345.22 L456.587,351.58 L468.602,346.633 L456.587,345.22" id="Fill-364" sketch:type="MSShapeGroup"></path>
                <path d="M417.716,152.987 L415.596,160.761 L444.572,167.828 L417.716,152.987" id="Fill-365" sketch:type="MSShapeGroup"></path>
                <path d="M415.596,160.761 L420.543,174.189 L444.572,167.828 L415.596,160.761" id="Fill-366" sketch:type="MSShapeGroup"></path>
                <path d="M422.664,130.371 L417.716,152.987 L444.572,167.828 L422.664,130.371" id="Fill-367" sketch:type="MSShapeGroup"></path>
                <path d="M436.798,114.823 L422.664,130.371 L444.572,167.828 L436.798,114.823" id="Fill-368" sketch:type="MSShapeGroup"></path>
                <path d="M441.745,100.688 L436.798,114.823 L445.279,102.809 L441.745,100.688" id="Fill-369" sketch:type="MSShapeGroup"></path>
                <path d="M453.053,83.727 L441.745,100.688 L455.88,85.847 L453.053,83.727" id="Fill-370" sketch:type="MSShapeGroup"></path>
                <path d="M445.279,181.963 L434.678,193.271 L446.693,186.91 L445.279,181.963" id="Fill-371" sketch:type="MSShapeGroup"></path>
                <path d="M441.745,100.688 L445.279,102.809 L455.88,85.847 L441.745,100.688" id="Fill-372" sketch:type="MSShapeGroup"></path>
                <path d="M436.798,114.823 L444.572,167.828 L447.399,110.583 L436.798,114.823" id="Fill-373" sketch:type="MSShapeGroup"></path>
                <path d="M441.039,351.58 L440.332,356.527 L448.813,351.58 L441.039,351.58" id="Fill-374" sketch:type="MSShapeGroup"></path>
                <path d="M443.159,345.926 L441.039,351.58 L448.813,351.58 L443.159,345.926" id="Fill-375" sketch:type="MSShapeGroup"></path>
                <path d="M448.813,351.58 L440.332,356.527 L451.64,360.768 L448.813,351.58" id="Fill-376" sketch:type="MSShapeGroup"></path>
                <path d="M440.332,356.527 L436.092,358.648 L451.64,360.768 L440.332,356.527" id="Fill-377" sketch:type="MSShapeGroup"></path>
                <path d="M456.587,351.58 L451.64,360.768 L462.948,358.648 L456.587,351.58" id="Fill-378" sketch:type="MSShapeGroup"></path>
                <path d="M444.572,167.828 L450.226,179.136 L453.053,172.069 L444.572,167.828" id="Fill-379" sketch:type="MSShapeGroup"></path>
                <path d="M467.188,99.982 L467.895,104.222 L480.616,93.621 L467.188,99.982" id="Fill-380" sketch:type="MSShapeGroup"></path>
                <path d="M443.866,333.912 L443.159,345.926 L456.587,345.22 L443.866,333.912" id="Fill-381" sketch:type="MSShapeGroup"></path>
                <path d="M443.159,345.926 L448.813,351.58 L456.587,345.22 L443.159,345.926" id="Fill-382" sketch:type="MSShapeGroup"></path>
                <path d="M467.188,99.982 L460.827,98.568 L467.895,104.222 L467.188,99.982" id="Fill-383" sketch:type="MSShapeGroup"></path>
                <path d="M460.827,98.568 L459.414,109.169 L467.895,104.222 L460.827,98.568" id="Fill-384" sketch:type="MSShapeGroup"></path>
                <path d="M460.827,98.568 L467.188,99.982 L474.962,83.02 L460.827,98.568" id="Fill-385" sketch:type="MSShapeGroup"></path>
                <path d="M452.346,104.929 L447.399,110.583 L459.414,109.169 L452.346,104.929" id="Fill-386" sketch:type="MSShapeGroup"></path>
                <path d="M474.962,83.02 L467.188,99.982 L478.496,87.967 L474.962,83.02" id="Fill-387" sketch:type="MSShapeGroup"></path>
                <path d="M453.053,83.727 L455.88,85.847 L466.481,62.525 L453.053,83.727" id="Fill-388" sketch:type="MSShapeGroup"></path>
                <path d="M468.602,346.633 L462.948,358.648 L475.669,357.234 L468.602,346.633" id="Fill-389" sketch:type="MSShapeGroup"></path>
                <path d="M501.818,90.794 L480.616,93.621 L505.352,103.515 L501.818,90.794" id="Fill-390" sketch:type="MSShapeGroup"></path>
                <path d="M475.669,336.032 L468.602,346.633 L479.909,345.926 L475.669,336.032" id="Fill-391" sketch:type="MSShapeGroup"></path>
                <path d="M443.866,333.912 L456.587,345.22 L475.669,336.032 L443.866,333.912" id="Fill-392" sketch:type="MSShapeGroup"></path>
                <path d="M474.962,83.02 L478.496,87.967 L484.857,79.486 L474.962,83.02" id="Fill-393" sketch:type="MSShapeGroup"></path>
                <path d="M456.587,345.22 L468.602,346.633 L475.669,336.032 L456.587,345.22" id="Fill-394" sketch:type="MSShapeGroup"></path>
                <path d="M467.895,104.222 L459.414,109.169 L476.376,158.641 L467.895,104.222" id="Fill-395" sketch:type="MSShapeGroup"></path>
                <path d="M447.399,110.583 L444.572,167.828 L476.376,158.641 L447.399,110.583" id="Fill-396" sketch:type="MSShapeGroup"></path>
                <path d="M459.414,109.169 L447.399,110.583 L476.376,158.641 L459.414,109.169" id="Fill-397" sketch:type="MSShapeGroup"></path>
                <path d="M468.602,346.633 L475.669,357.234 L479.909,345.926 L468.602,346.633" id="Fill-398" sketch:type="MSShapeGroup"></path>
                <path d="M497.578,335.325 L491.217,345.926 L500.405,345.926 L497.578,335.325" id="Fill-399" sketch:type="MSShapeGroup"></path>
                <path d="M475.669,336.032 L479.909,345.926 L483.443,335.09 L475.669,336.032" id="Fill-400" sketch:type="MSShapeGroup"></path>
                <path d="M491.217,345.926 L485.563,354.407 L493.337,356.527 L491.217,345.926" id="Fill-401" sketch:type="MSShapeGroup"></path>
                <path d="M483.443,335.09 L491.217,345.926 L497.578,335.325 L483.443,335.09" id="Fill-402" sketch:type="MSShapeGroup"></path>
                <path d="M479.909,345.926 L475.669,357.234 L485.563,354.407 L479.909,345.926" id="Fill-403" sketch:type="MSShapeGroup"></path>
                <path d="M474.962,83.02 L484.857,79.486 L485.563,67.472 L474.962,83.02" id="Fill-404" sketch:type="MSShapeGroup"></path>
                <path d="M483.443,335.09 L479.909,345.926 L491.217,345.926 L483.443,335.09" id="Fill-405" sketch:type="MSShapeGroup"></path>
                <path d="M479.909,345.926 L485.563,354.407 L491.217,345.926 L479.909,345.926" id="Fill-406" sketch:type="MSShapeGroup"></path>
                <path d="M485.563,67.472 L484.857,79.486 L494.044,70.299 L485.563,67.472" id="Fill-407" sketch:type="MSShapeGroup"></path>
                <path d="M500.405,345.926 L491.217,345.926 L501.818,352.287 L500.405,345.926" id="Fill-408" sketch:type="MSShapeGroup"></path>
                <path d="M491.217,345.926 L493.337,356.527 L501.818,352.287 L491.217,345.926" id="Fill-409" sketch:type="MSShapeGroup"></path>
                <path d="M501.818,76.659 L501.818,90.794 L511.006,78.073 L501.818,76.659" id="Fill-410" sketch:type="MSShapeGroup"></path>
                <path d="M485.563,67.472 L494.044,70.299 L501.111,47.683 L485.563,67.472" id="Fill-411" sketch:type="MSShapeGroup"></path>
                <path d="M497.578,335.325 L504.645,337.446 L511.713,337.446 L497.578,335.325" id="Fill-412" sketch:type="MSShapeGroup"></path>
                <path d="M537.862,40.616 L543.516,44.856 L549.876,25.067 L537.862,40.616" id="Fill-413" sketch:type="MSShapeGroup"></path>
                <path d="M501.818,76.659 L487.683,85.847 L501.818,90.794 L501.818,76.659" id="Fill-414" sketch:type="MSShapeGroup"></path>
                <path d="M487.683,85.847 L480.616,93.621 L501.818,90.794 L487.683,85.847" id="Fill-415" sketch:type="MSShapeGroup"></path>
                <path d="M497.578,335.325 L500.405,345.926 L504.645,337.446 L497.578,335.325" id="Fill-416" sketch:type="MSShapeGroup"></path>
                <path d="M467.895,104.222 L476.376,158.641 L504.645,143.093 L467.895,104.222" id="Fill-417" sketch:type="MSShapeGroup"></path>
                <path d="M467.895,104.222 L504.645,143.093 L505.352,103.515 L467.895,104.222" id="Fill-418" sketch:type="MSShapeGroup"></path>
                <path d="M480.616,93.621 L467.895,104.222 L505.352,103.515 L480.616,93.621" id="Fill-419" sketch:type="MSShapeGroup"></path>
                <path d="M504.645,337.446 L500.405,345.926 L508.179,344.513 L504.645,337.446" id="Fill-420" sketch:type="MSShapeGroup"></path>
                <path d="M501.111,47.683 L494.044,70.299 L506.059,53.337 L501.111,47.683" id="Fill-421" sketch:type="MSShapeGroup"></path>
                <path d="M508.886,98.568 L523.727,109.169 L525.847,92.914 L508.886,98.568" id="Fill-422" sketch:type="MSShapeGroup"></path>
                <path d="M523.02,54.75 L529.381,59.698 L537.862,40.616 L523.02,54.75" id="Fill-423" sketch:type="MSShapeGroup"></path>
                <path d="M501.818,90.794 L505.352,103.515 L508.886,98.568 L501.818,90.794" id="Fill-424" sketch:type="MSShapeGroup"></path>
                <path d="M504.645,337.446 L508.179,344.513 L511.713,337.446 L504.645,337.446" id="Fill-425" sketch:type="MSShapeGroup"></path>
                <path d="M501.111,47.683 L506.059,53.337 L514.539,40.616 L501.111,47.683" id="Fill-426" sketch:type="MSShapeGroup"></path>
                <path d="M523.727,109.169 L505.352,103.515 L528.674,119.77 L523.727,109.169" id="Fill-427" sketch:type="MSShapeGroup"></path>
                <path d="M501.818,76.659 L511.006,78.073 L514.539,63.938 L501.818,76.659" id="Fill-428" sketch:type="MSShapeGroup"></path>
                <path d="M501.818,90.794 L508.886,98.568 L515.953,83.02 L501.818,90.794" id="Fill-429" sketch:type="MSShapeGroup"></path>
                <path d="M505.352,103.515 L504.645,143.093 L528.674,119.77 L505.352,103.515" id="Fill-430" sketch:type="MSShapeGroup"></path>
                <path d="M514.539,63.938 L511.006,78.073 L520.193,70.299 L514.539,63.938" id="Fill-431" sketch:type="MSShapeGroup"></path>
                <path d="M556.237,54.044 L532.915,71.005 L561.891,61.818 L556.237,54.044" id="Fill-432" sketch:type="MSShapeGroup"></path>
                <path d="M535.035,338.859 L551.29,344.513 L553.41,339.566 L535.035,338.859" id="Fill-433" sketch:type="MSShapeGroup"></path>
                <path d="M515.953,83.02 L508.886,98.568 L521.607,87.967 L515.953,83.02" id="Fill-434" sketch:type="MSShapeGroup"></path>
                <path d="M501.111,47.683 L523.02,20.12 L523.02,13.76 L501.111,47.683" id="Fill-435" sketch:type="MSShapeGroup"></path>
                <path d="M501.111,47.683 L514.539,40.616 L523.02,20.12 L501.111,47.683" id="Fill-436" sketch:type="MSShapeGroup"></path>
                <path d="M508.886,98.568 L505.352,103.515 L523.727,109.169 L508.886,98.568" id="Fill-437" sketch:type="MSShapeGroup"></path>
                <path d="M515.953,83.02 L521.607,87.967 L524.434,75.246 L515.953,83.02" id="Fill-438" sketch:type="MSShapeGroup"></path>
                <path d="M511.713,337.446 L508.179,344.513 L526.554,344.513 L511.713,337.446" id="Fill-439" sketch:type="MSShapeGroup"></path>
                <path d="M523.02,54.75 L514.539,63.938 L529.381,59.698 L523.02,54.75" id="Fill-440" sketch:type="MSShapeGroup"></path>
                <path d="M514.539,63.938 L520.193,70.299 L529.381,59.698 L514.539,63.938" id="Fill-441" sketch:type="MSShapeGroup"></path>
                <path d="M524.434,75.246 L521.607,87.967 L537.155,78.073 L524.434,75.246" id="Fill-442" sketch:type="MSShapeGroup"></path>
                <path d="M511.713,337.446 L526.554,344.513 L535.035,338.859 L511.713,337.446" id="Fill-443" sketch:type="MSShapeGroup"></path>
                <path d="M532.915,71.005 L524.434,75.246 L537.155,78.073 L532.915,71.005" id="Fill-444" sketch:type="MSShapeGroup"></path>
                <path d="M535.035,338.859 L526.554,344.513 L551.29,344.513 L535.035,338.859" id="Fill-445" sketch:type="MSShapeGroup"></path>
                <path d="M537.862,40.616 L529.381,59.698 L543.516,44.856 L537.862,40.616" id="Fill-446" sketch:type="MSShapeGroup"></path>
                <path d="M532.915,71.005 L537.155,78.073 L561.891,61.818 L532.915,71.005" id="Fill-447" sketch:type="MSShapeGroup"></path>
                <path d="M543.516,85.14 L525.847,92.914 L554.117,92.208 L543.516,85.14" id="Fill-448" sketch:type="MSShapeGroup"></path>
                <path d="M525.847,92.914 L523.727,109.169 L554.117,92.208 L525.847,92.914" id="Fill-449" sketch:type="MSShapeGroup"></path>
                <path d="M549.876,25.067 L543.516,44.856 L556.237,30.721 L549.876,25.067" id="Fill-450" sketch:type="MSShapeGroup"></path>
                <path d="M549.876,25.067 L566.131,16.586 L566.838,5.279 L549.876,25.067" id="Fill-451" sketch:type="MSShapeGroup"></path>
                <path d="M549.876,25.067 L556.237,30.721 L566.131,16.586 L549.876,25.067" id="Fill-452" sketch:type="MSShapeGroup"></path>
                <path d="M543.516,85.14 L554.117,92.208 L570.372,71.005 L543.516,85.14" id="Fill-453" sketch:type="MSShapeGroup"></path>
                <path d="M570.372,71.005 L554.117,92.208 L575.319,79.486 L570.372,71.005" id="Fill-454" sketch:type="MSShapeGroup"></path>
                <path d="M553.41,339.566 L551.29,344.513 L571.078,345.22 L553.41,339.566" id="Fill-455" sketch:type="MSShapeGroup"></path>
                <path d="M566.838,5.279 L566.131,16.586 L574.612,-0.375 L566.838,5.279" id="Fill-456" sketch:type="MSShapeGroup"></path>
                <path d="M553.41,339.566 L571.078,345.22 L576.732,342.393 L553.41,339.566" id="Fill-457" sketch:type="MSShapeGroup"></path>
                <path d="M556.237,54.044 L561.891,61.818 L584.506,43.443 L556.237,54.044" id="Fill-458" sketch:type="MSShapeGroup"></path>
                <path d="M579.559,37.082 L556.237,54.044 L584.506,43.443 L579.559,37.082" id="Fill-459" sketch:type="MSShapeGroup"></path>
                <path d="M579.559,37.082 L584.506,43.443 L595.108,25.067 L579.559,37.082" id="Fill-460" sketch:type="MSShapeGroup"></path>
                <path d="M570.372,71.005 L575.319,79.486 L598.641,63.938 L570.372,71.005" id="Fill-461" sketch:type="MSShapeGroup"></path>
                <path d="M595.108,56.871 L570.372,71.005 L598.641,63.938 L595.108,56.871" id="Fill-462" sketch:type="MSShapeGroup"></path>
                <path d="M595.108,56.871 L598.641,63.938 L610.656,51.217 L595.108,56.871" id="Fill-463" sketch:type="MSShapeGroup"></path>
            </g>
        </g>
    </g>
</svg>
