<svg width="653px" height="428px" viewBox="0 0 653 428" version="1" xmlns="http://www.w3.org/2000/svg" xmlns:xlink="http://www.w3.org/1999/xlink"><g stroke="#080808" stroke-width="1" fill="none" fill-rule="evenodd" transform="translate(20, 18)"><path d="M11,157 L0,166 L16,176 L11,157"></path><path d="M0,146 L0,166 L11,157 L0,146"></path><path d="M0,166 L6,189 L16,176 L0,166"></path><path d="M34,176 L29,198 L41,197 L34,176"></path><path d="M18,109 L19,116 L26,107 L18,109"></path><path d="M31,114 L19,116 L38,134 L31,114"></path><path d="M12,111 L8,137 L19,116 L12,111"></path><path d="M19,116 L24,142 L38,134 L19,116"></path><path d="M19,116 L8,137 L24,142 L19,116"></path><path d="M8,137 L11,157 L24,142 L8,137"></path><path d="M26,107 L19,116 L31,114 L26,107"></path><path d="M51,186 L41,197 L57,200 L51,186"></path><path d="M16,176 L6,189 L29,198 L16,176"></path><path d="M6,189 L19,212 L29,198 L6,189"></path><path d="M19,212 L26,221 L29,198 L19,212"></path><path d="M41,197 L48,218 L57,200 L41,197"></path><path d="M16,176 L29,198 L34,176 L16,176"></path><path d="M142,208 L153,222 L159,210 L142,208"></path><path d="M11,157 L16,176 L34,176 L11,157"></path><path d="M38,134 L43,157 L49,137 L38,134"></path><path d="M26,221 L46,234 L48,218 L26,221"></path><path d="M38,134 L24,142 L43,157 L38,134"></path><path d="M24,142 L11,157 L43,157 L24,142"></path><path d="M11,157 L34,176 L43,157 L11,157"></path><path d="M49,137 L43,157 L58,145 L49,137"></path><path d="M29,198 L26,221 L48,218 L29,198"></path><path d="M41,197 L29,198 L48,218 L41,197"></path><path d="M262,273 L262,292 L282,290 L262,273"></path><path d="M34,176 L41,197 L51,186 L34,176"></path><path d="M34,176 L51,186 L61,167 L34,176"></path><path d="M43,157 L34,176 L61,167 L43,157"></path><path d="M67,190 L57,200 L69,201 L67,190"></path><path d="M58,145 L43,157 L61,167 L58,145"></path><path d="M57,200 L65,221 L69,201 L57,200"></path><path d="M89,177 L101,191 L110,180 L89,177"></path><path d="M65,221 L46,234 L68,249 L65,221"></path><path d="M61,167 L51,186 L67,190 L61,167"></path><path d="M48,218 L46,234 L65,221 L48,218"></path><path d="M57,200 L48,218 L65,221 L57,200"></path><path d="M51,186 L57,200 L67,190 L51,186"></path><path d="M58,145 L61,167 L72,148 L58,145"></path><path d="M62,144 L58,145 L72,148 L62,144"></path><path d="M67,190 L69,201 L75,205 L67,190"></path><path d="M84,162 L78,172 L89,177 L84,162"></path><path d="M77,181 L88,191 L89,177 L77,181"></path><path d="M69,201 L65,221 L75,205 L69,201"></path><path d="M61,167 L77,181 L78,172 L61,167"></path><path d="M65,221 L68,249 L81,225 L65,221"></path><path d="M61,167 L67,190 L77,181 L61,167"></path><path d="M111,201 L105,221 L118,214 L111,201"></path><path d="M65,221 L81,225 L84,210 L65,221"></path><path d="M61,167 L78,172 L84,162 L61,167"></path><path d="M72,148 L61,167 L84,162 L72,148"></path><path d="M110,180 L101,191 L111,201 L110,180"></path><path d="M94,211 L81,225 L95,230 L94,211"></path><path d="M75,205 L65,221 L84,210 L75,205"></path><path d="M68,249 L78,256 L86,245 L68,249"></path><path d="M81,225 L68,249 L86,245 L81,225"></path><path d="M77,181 L67,190 L88,191 L77,181"></path><path d="M67,190 L75,205 L88,191 L67,190"></path><path d="M78,172 L77,181 L89,177 L78,172"></path><path d="M75,205 L84,210 L88,191 L75,205"></path><path d="M86,245 L78,256 L93,259 L86,245"></path><path d="M155,248 L142,275 L162,268 L155,248"></path><path d="M84,210 L81,225 L94,211 L84,210"></path><path d="M81,225 L86,245 L95,230 L81,225"></path><path d="M88,191 L84,210 L94,211 L88,191"></path><path d="M84,162 L89,177 L97,167 L84,162"></path><path d="M93,259 L78,256 L98,272 L93,259"></path><path d="M108,246 L93,259 L115,268 L108,246"></path><path d="M93,259 L98,272 L115,268 L93,259"></path><path d="M86,245 L93,259 L101,239 L86,245"></path><path d="M95,230 L86,245 L101,239 L95,230"></path><path d="M101,239 L93,259 L108,246 L101,239"></path><path d="M88,191 L94,211 L101,191 L88,191"></path><path d="M89,177 L88,191 L101,191 L89,177"></path><path d="M94,211 L95,230 L105,221 L94,211"></path><path d="M95,230 L101,239 L105,221 L95,230"></path><path d="M94,211 L105,221 L111,201 L94,211"></path><path d="M97,167 L89,177 L110,180 L97,167"></path><path d="M111,201 L118,214 L125,189 L111,201"></path><path d="M101,191 L94,211 L111,201 L101,191"></path><path d="M115,268 L124,271 L124,256 L115,268"></path><path d="M115,268 L123,278 L124,271 L115,268"></path><path d="M125,189 L118,214 L129,216 L125,189"></path><path d="M120,237 L108,246 L124,256 L120,237"></path><path d="M110,180 L111,201 L125,189 L110,180"></path><path d="M105,221 L101,239 L120,237 L105,221"></path><path d="M101,239 L108,246 L120,237 L101,239"></path><path d="M118,214 L125,225 L129,216 L118,214"></path><path d="M115,268 L98,272 L123,278 L115,268"></path><path d="M207,263 L185,277 L208,290 L207,263"></path><path d="M108,246 L115,268 L124,256 L108,246"></path><path d="M118,214 L105,221 L125,225 L118,214"></path><path d="M105,221 L120,237 L125,225 L105,221"></path><path d="M129,216 L138,220 L139,214 L129,216"></path><path d="M138,220 L147,230 L153,222 L138,220"></path><path d="M142,275 L152,288 L162,268 L142,275"></path><path d="M132,227 L120,237 L135,242 L132,227"></path><path d="M120,237 L124,256 L135,242 L120,237"></path><path d="M129,216 L125,225 L132,227 L129,216"></path><path d="M125,225 L120,237 L132,227 L125,225"></path><path d="M125,189 L129,216 L139,197 L125,189"></path><path d="M162,268 L152,288 L168,287 L162,268"></path><path d="M147,230 L135,242 L155,248 L147,230"></path><path d="M139,214 L138,220 L153,222 L139,214"></path><path d="M135,242 L142,275 L155,248 L135,242"></path><path d="M129,216 L132,227 L138,220 L129,216"></path><path d="M135,242 L124,256 L142,275 L135,242"></path><path d="M124,256 L124,271 L142,275 L124,256"></path><path d="M142,275 L123,278 L152,288 L142,275"></path><path d="M124,271 L123,278 L142,275 L124,271"></path><path d="M129,216 L139,214 L142,208 L129,216"></path><path d="M139,197 L129,216 L142,208 L139,197"></path><path d="M132,227 L135,242 L147,230 L132,227"></path><path d="M138,220 L132,227 L147,230 L138,220"></path><path d="M207,338 L209,343 L210,330 L207,338"></path><path d="M182,254 L162,268 L185,277 L182,254"></path><path d="M168,287 L152,288 L173,299 L168,287"></path><path d="M142,208 L139,214 L153,222 L142,208"></path><path d="M246,244 L262,273 L270,263 L246,244"></path><path d="M153,222 L147,230 L175,237 L153,222"></path><path d="M147,230 L155,248 L175,237 L147,230"></path><path d="M153,222 L175,237 L180,218 L153,222"></path><path d="M159,210 L153,222 L180,218 L159,210"></path><path d="M155,248 L162,268 L182,254 L155,248"></path><path d="M175,237 L155,248 L182,254 L175,237"></path><path d="M162,268 L168,287 L185,277 L162,268"></path><path d="M168,287 L173,299 L185,277 L168,287"></path><path d="M202,359 L205,367 L209,363 L202,359"></path><path d="M185,277 L173,299 L190,300 L185,277"></path><path d="M223,355 L218,360 L225,362 L223,355"></path><path d="M190,300 L173,299 L195,314 L190,300"></path><path d="M233,344 L236,348 L236,343 L233,344"></path><path d="M230,349 L223,351 L230,355 L230,349"></path><path d="M244,309 L258,322 L260,307 L244,309"></path><path d="M223,351 L223,355 L230,355 L223,351"></path><path d="M180,218 L175,237 L206,228 L180,218"></path><path d="M206,228 L175,237 L207,247 L206,228"></path><path d="M175,237 L182,254 L207,247 L175,237"></path><path d="M218,360 L217,362 L221,367 L218,360"></path><path d="M185,277 L190,300 L208,290 L185,277"></path><path d="M182,254 L185,277 L207,263 L182,254"></path><path d="M207,247 L182,254 L207,263 L207,247"></path><path d="M210,350 L204,352 L211,359 L210,350"></path><path d="M202,359 L209,363 L211,359 L202,359"></path><path d="M223,351 L219,355 L223,355 L223,351"></path><path d="M207,338 L207,345 L209,343 L207,338"></path><path d="M208,290 L190,300 L209,313 L208,290"></path><path d="M204,352 L202,359 L211,359 L204,352"></path><path d="M190,300 L195,314 L209,313 L190,300"></path><path d="M210,350 L214,351 L214,348 L210,350"></path><path d="M209,313 L210,330 L216,323 L209,313"></path><path d="M209,313 L195,314 L210,330 L209,313"></path><path d="M207,345 L204,352 L210,350 L207,345"></path><path d="M209,343 L207,345 L210,350 L209,343"></path><path d="M209,343 L210,350 L214,348 L209,343"></path><path d="M214,351 L210,350 L214,355 L214,351"></path><path d="M210,350 L211,359 L214,355 L210,350"></path><path d="M207,247 L207,263 L231,256 L207,247"></path><path d="M223,355 L225,362 L230,355 L223,355"></path><path d="M219,355 L218,360 L223,355 L219,355"></path><path d="M233,340 L233,344 L236,343 L233,340"></path><path d="M233,277 L223,299 L244,293 L233,277"></path><path d="M214,355 L218,360 L219,355 L214,355"></path><path d="M214,351 L214,355 L219,355 L214,351"></path><path d="M211,359 L209,363 L217,362 L211,359"></path><path d="M211,359 L217,362 L218,360 L211,359"></path><path d="M214,355 L211,359 L218,360 L214,355"></path><path d="M233,344 L233,346 L236,348 L233,344"></path><path d="M223,299 L209,313 L228,316 L223,299"></path><path d="M214,351 L219,355 L223,351 L214,351"></path><path d="M214,348 L214,351 L223,351 L214,348"></path><path d="M208,290 L209,313 L223,299 L208,290"></path><path d="M218,360 L221,367 L225,362 L218,360"></path><path d="M229,342 L233,344 L233,340 L229,342"></path><path d="M229,345 L223,351 L230,349 L229,345"></path><path d="M209,313 L216,323 L228,316 L209,313"></path><path d="M236,348 L230,355 L243,384 L236,348"></path><path d="M230,355 L225,362 L243,384 L230,355"></path><path d="M210,330 L209,343 L229,342 L210,330"></path><path d="M209,343 L214,348 L229,342 L209,343"></path><path d="M228,316 L216,323 L229,342 L228,316"></path><path d="M229,342 L223,351 L229,345 L229,342"></path><path d="M214,348 L223,351 L229,342 L214,348"></path><path d="M216,323 L210,330 L229,342 L216,323"></path><path d="M229,345 L230,349 L233,346 L229,345"></path><path d="M206,228 L231,256 L246,244 L206,228"></path><path d="M236,343 L236,348 L245,334 L236,343"></path><path d="M262,273 L244,293 L262,292 L262,273"></path><path d="M206,228 L207,247 L231,256 L206,228"></path><path d="M228,316 L229,342 L233,340 L228,316"></path><path d="M231,256 L207,263 L233,277 L231,256"></path><path d="M208,290 L223,299 L233,277 L208,290"></path><path d="M207,263 L208,290 L233,277 L207,263"></path><path d="M229,342 L229,345 L233,344 L229,342"></path><path d="M229,345 L233,346 L233,344 L229,345"></path><path d="M230,349 L230,355 L236,348 L230,349"></path><path d="M233,346 L230,349 L236,348 L233,346"></path><path d="M225,362 L221,367 L243,384 L225,362"></path><path d="M244,293 L260,307 L262,292 L244,293"></path><path d="M233,340 L236,343 L245,334 L233,340"></path><path d="M244,293 L223,299 L244,309 L244,293"></path><path d="M223,299 L228,316 L244,309 L223,299"></path><path d="M228,316 L233,340 L245,334 L228,316"></path><path d="M244,309 L228,316 L245,334 L244,309"></path><path d="M271,319 L258,322 L279,328 L271,319"></path><path d="M246,244 L231,256 L262,273 L246,244"></path><path d="M244,309 L245,334 L258,322 L244,309"></path><path d="M244,293 L244,309 L260,307 L244,293"></path><path d="M233,277 L244,293 L262,273 L233,277"></path><path d="M260,307 L271,319 L276,307 L260,307"></path><path d="M231,256 L233,277 L262,273 L231,256"></path><path d="M236,348 L243,384 L266,392 L236,348"></path><path d="M410,343 L431,352 L431,344 L410,343"></path><path d="M262,292 L260,307 L276,307 L262,292"></path><path d="M260,307 L258,322 L271,319 L260,307"></path><path d="M258,322 L245,334 L279,328 L258,322"></path><path d="M245,334 L236,348 L279,328 L245,334"></path><path d="M236,348 L266,392 L279,328 L236,348"></path><path d="M292,271 L282,290 L293,294 L292,271"></path><path d="M262,292 L276,307 L282,290 L262,292"></path><path d="M282,290 L288,310 L293,294 L282,290"></path><path d="M270,263 L262,273 L285,272 L270,263"></path><path d="M262,273 L282,290 L285,272 L262,273"></path><path d="M295,333 L266,392 L307,391 L295,333"></path><path d="M282,290 L276,307 L288,310 L282,290"></path><path d="M276,307 L271,319 L288,310 L276,307"></path><path d="M271,319 L279,328 L288,310 L271,319"></path><path d="M286,252 L292,271 L292,253 L286,252"></path><path d="M347,332 L332,343 L351,348 L347,332"></path><path d="M289,228 L293,233 L296,219 L289,228"></path><path d="M285,237 L292,253 L293,233 L285,237"></path><path d="M286,252 L285,272 L292,271 L286,252"></path><path d="M289,228 L285,237 L293,233 L289,228"></path><path d="M285,272 L282,290 L292,271 L285,272"></path><path d="M285,237 L286,252 L292,253 L285,237"></path><path d="M266,392 L291,396 L307,391 L266,392"></path><path d="M279,328 L266,392 L295,333 L279,328"></path><path d="M288,310 L279,328 L295,333 L288,310"></path><path d="M318,317 L295,333 L321,333 L318,317"></path><path d="M296,219 L293,233 L305,222 L296,219"></path><path d="M296,219 L305,222 L312,208 L296,219"></path><path d="M358,372 L369,369 L371,350 L358,372"></path><path d="M292,253 L292,271 L325,270 L292,253"></path><path d="M293,294 L288,310 L318,317 L293,294"></path><path d="M288,310 L295,333 L318,317 L288,310"></path><path d="M305,222 L293,233 L324,239 L305,222"></path><path d="M343,379 L354,384 L358,372 L343,379"></path><path d="M332,189 L312,208 L334,220 L332,189"></path><path d="M321,333 L332,343 L336,324 L321,333"></path><path d="M364,170 L380,172 L385,155 L364,170"></path><path d="M293,233 L292,253 L324,239 L293,233"></path><path d="M292,271 L293,294 L325,270 L292,271"></path><path d="M293,294 L318,317 L325,270 L293,294"></path><path d="M324,239 L292,253 L327,253 L324,239"></path><path d="M292,253 L325,270 L327,253 L292,253"></path><path d="M307,391 L320,385 L332,343 L307,391"></path><path d="M321,333 L295,333 L332,343 L321,333"></path><path d="M295,333 L307,391 L332,343 L295,333"></path><path d="M341,376 L343,379 L358,372 L341,376"></path><path d="M312,208 L305,222 L334,220 L312,208"></path><path d="M305,222 L324,239 L334,220 L305,222"></path><path d="M363,258 L325,270 L364,275 L363,258"></path><path d="M318,317 L321,333 L336,324 L318,317"></path><path d="M351,348 L341,376 L358,372 L351,348"></path><path d="M332,343 L320,385 L341,376 L332,343"></path><path d="M336,324 L347,332 L351,324 L336,324"></path><path d="M332,189 L334,220 L349,205 L332,189"></path><path d="M332,343 L341,376 L351,348 L332,343"></path><path d="M356,340 L371,350 L373,325 L356,340"></path><path d="M336,324 L332,343 L347,332 L336,324"></path><path d="M351,324 L356,340 L373,325 L351,324"></path><path d="M351,324 L347,332 L356,340 L351,324"></path><path d="M347,332 L351,348 L356,340 L347,332"></path><path d="M364,302 L351,324 L373,325 L364,302"></path><path d="M332,189 L349,205 L364,170 L332,189"></path><path d="M456,351 L462,358 L468,346 L456,351"></path><path d="M349,205 L334,220 L357,212 L349,205"></path><path d="M327,253 L363,258 L364,242 L327,253"></path><path d="M327,253 L325,270 L363,258 L327,253"></path><path d="M334,220 L324,239 L364,242 L334,220"></path><path d="M336,324 L351,324 L364,302 L336,324"></path><path d="M364,275 L325,270 L364,302 L364,275"></path><path d="M325,270 L318,317 L364,302 L325,270"></path><path d="M318,317 L336,324 L364,302 L318,317"></path><path d="M364,170 L349,205 L374,186 L364,170"></path><path d="M357,212 L334,220 L364,242 L357,212"></path><path d="M324,239 L327,253 L364,242 L324,239"></path><path d="M349,205 L357,212 L374,186 L349,205"></path><path d="M351,348 L358,372 L371,350 L351,348"></path><path d="M356,340 L351,348 L371,350 L356,340"></path><path d="M371,350 L369,369 L380,371 L371,350"></path><path d="M523,109 L528,119 L554,92 L523,109"></path><path d="M402,360 L409,357 L410,343 L402,360"></path><path d="M363,258 L418,269 L422,259 L363,258"></path><path d="M373,325 L371,350 L394,328 L373,325"></path><path d="M364,170 L374,186 L380,172 L364,170"></path><path d="M394,328 L402,360 L410,343 L394,328"></path><path d="M409,151 L415,160 L417,152 L409,151"></path><path d="M371,350 L380,371 L392,369 L371,350"></path><path d="M411,138 L409,151 L417,152 L411,138"></path><path d="M364,275 L364,302 L402,304 L364,275"></path><path d="M431,344 L443,345 L443,333 L431,344"></path><path d="M394,328 L371,350 L402,360 L394,328"></path><path d="M364,275 L402,304 L410,278 L364,275"></path><path d="M412,286 L402,304 L412,292 L412,286"></path><path d="M363,258 L364,275 L410,278 L363,258"></path><path d="M371,350 L392,369 L402,360 L371,350"></path><path d="M394,328 L402,324 L402,304 L394,328"></path><path d="M402,324 L394,328 L410,343 L402,324"></path><path d="M373,325 L394,328 L402,304 L373,325"></path><path d="M402,304 L402,324 L407,309 L402,304"></path><path d="M364,302 L373,325 L402,304 L364,302"></path><path d="M380,172 L374,186 L402,178 L380,172"></path><path d="M385,155 L380,172 L402,178 L385,155"></path><path d="M399,151 L385,155 L402,178 L399,151"></path><path d="M364,242 L363,258 L422,259 L364,242"></path><path d="M402,178 L374,186 L424,218 L402,178"></path><path d="M374,186 L357,212 L424,218 L374,186"></path><path d="M364,242 L424,239 L424,218 L364,242"></path><path d="M415,160 L402,178 L420,174 L415,160"></path><path d="M412,292 L402,304 L412,305 L412,292"></path><path d="M431,344 L441,351 L443,345 L431,344"></path><path d="M357,212 L364,242 L424,218 L357,212"></path><path d="M399,151 L409,151 L411,138 L399,151"></path><path d="M417,331 L431,344 L443,333 L417,331"></path><path d="M385,155 L399,151 L411,138 L385,155"></path><path d="M407,309 L402,324 L411,316 L407,309"></path><path d="M402,304 L407,309 L412,305 L402,304"></path><path d="M410,278 L402,304 L412,286 L410,278"></path><path d="M409,151 L399,151 L415,160 L409,151"></path><path d="M399,151 L402,178 L415,160 L399,151"></path><path d="M412,286 L412,292 L416,298 L412,286"></path><path d="M412,292 L412,305 L416,298 L412,292"></path><path d="M465,56 L453,83 L466,62 L465,56"></path><path d="M402,324 L410,343 L417,331 L402,324"></path><path d="M417,331 L410,343 L431,344 L417,331"></path><path d="M424,218 L431,210 L431,202 L424,218"></path><path d="M363,258 L410,278 L418,269 L363,258"></path><path d="M402,178 L424,218 L431,202 L402,178"></path><path d="M411,138 L417,152 L422,130 L411,138"></path><path d="M424,239 L364,242 L424,246 L424,239"></path><path d="M364,242 L422,259 L424,246 L364,242"></path><path d="M420,174 L402,178 L431,202 L420,174"></path><path d="M444,167 L420,174 L445,181 L444,167"></path><path d="M433,111 L436,114 L441,100 L433,111"></path><path d="M444,167 L445,181 L450,179 L444,167"></path><path d="M434,193 L431,202 L434,197 L434,193"></path><path d="M410,343 L409,357 L428,357 L410,343"></path><path d="M420,174 L431,202 L434,193 L420,174"></path><path d="M420,174 L434,193 L445,181 L420,174"></path><path d="M410,343 L428,357 L431,352 L410,343"></path><path d="M411,138 L422,130 L433,111 L411,138"></path><path d="M431,352 L428,357 L436,358 L431,352"></path><path d="M431,352 L440,356 L441,351 L431,352"></path><path d="M452,104 L459,109 L460,98 L452,104"></path><path d="M433,111 L422,130 L436,114 L433,111"></path><path d="M431,344 L431,352 L441,351 L431,344"></path><path d="M456,345 L448,351 L456,351 L456,345"></path><path d="M448,351 L451,360 L456,351 L448,351"></path><path d="M431,352 L436,358 L440,356 L431,352"></path><path d="M456,345 L456,351 L468,346 L456,345"></path><path d="M417,152 L415,160 L444,167 L417,152"></path><path d="M415,160 L420,174 L444,167 L415,160"></path><path d="M422,130 L417,152 L444,167 L422,130"></path><path d="M436,114 L422,130 L444,167 L436,114"></path><path d="M441,100 L436,114 L445,102 L441,100"></path><path d="M453,83 L441,100 L455,85 L453,83"></path><path d="M445,181 L434,193 L446,186 L445,181"></path><path d="M441,100 L445,102 L455,85 L441,100"></path><path d="M436,114 L444,167 L447,110 L436,114"></path><path d="M441,351 L440,356 L448,351 L441,351"></path><path d="M443,345 L441,351 L448,351 L443,345"></path><path d="M448,351 L440,356 L451,360 L448,351"></path><path d="M440,356 L436,358 L451,360 L440,356"></path><path d="M456,351 L451,360 L462,358 L456,351"></path><path d="M444,167 L450,179 L453,172 L444,167"></path><path d="M467,99 L467,104 L480,93 L467,99"></path><path d="M443,333 L443,345 L456,345 L443,333"></path><path d="M443,345 L448,351 L456,345 L443,345"></path><path d="M467,99 L460,98 L467,104 L467,99"></path><path d="M460,98 L459,109 L467,104 L460,98"></path><path d="M460,98 L467,99 L474,83 L460,98"></path><path d="M452,104 L447,110 L459,109 L452,104"></path><path d="M474,83 L467,99 L478,87 L474,83"></path><path d="M453,83 L455,85 L466,62 L453,83"></path><path d="M468,346 L462,358 L475,357 L468,346"></path><path d="M501,90 L480,93 L505,103 L501,90"></path><path d="M475,336 L468,346 L479,345 L475,336"></path><path d="M443,333 L456,345 L475,336 L443,333"></path><path d="M474,83 L478,87 L484,79 L474,83"></path><path d="M456,345 L468,346 L475,336 L456,345"></path><path d="M467,104 L459,109 L476,158 L467,104"></path><path d="M447,110 L444,167 L476,158 L447,110"></path><path d="M459,109 L447,110 L476,158 L459,109"></path><path d="M468,346 L475,357 L479,345 L468,346"></path><path d="M497,335 L491,345 L500,345 L497,335"></path><path d="M475,336 L479,345 L483,335 L475,336"></path><path d="M491,345 L485,354 L493,356 L491,345"></path><path d="M483,335 L491,345 L497,335 L483,335"></path><path d="M479,345 L475,357 L485,354 L479,345"></path><path d="M474,83 L484,79 L485,67 L474,83"></path><path d="M483,335 L479,345 L491,345 L483,335"></path><path d="M479,345 L485,354 L491,345 L479,345"></path><path d="M485,67 L484,79 L494,70 L485,67"></path><path d="M500,345 L491,345 L501,352 L500,345"></path><path d="M491,345 L493,356 L501,352 L491,345"></path><path d="M501,76 L501,90 L511,78 L501,76"></path><path d="M485,67 L494,70 L501,47 L485,67"></path><path d="M497,335 L504,337 L511,337 L497,335"></path><path d="M537,40 L543,44 L549,25 L537,40"></path><path d="M501,76 L487,85 L501,90 L501,76"></path><path d="M487,85 L480,93 L501,90 L487,85"></path><path d="M497,335 L500,345 L504,337 L497,335"></path><path d="M467,104 L476,158 L504,143 L467,104"></path><path d="M467,104 L504,143 L505,103 L467,104"></path><path d="M480,93 L467,104 L505,103 L480,93"></path><path d="M504,337 L500,345 L508,344 L504,337"></path><path d="M501,47 L494,70 L506,53 L501,47"></path><path d="M508,98 L523,109 L525,92 L508,98"></path><path d="M523,54 L529,59 L537,40 L523,54"></path><path d="M501,90 L505,103 L508,98 L501,90"></path><path d="M504,337 L508,344 L511,337 L504,337"></path><path d="M501,47 L506,53 L514,40 L501,47"></path><path d="M523,109 L505,103 L528,119 L523,109"></path><path d="M501,76 L511,78 L514,63 L501,76"></path><path d="M501,90 L508,98 L515,83 L501,90"></path><path d="M505,103 L504,143 L528,119 L505,103"></path><path d="M514,63 L511,78 L520,70 L514,63"></path><path d="M556,54 L532,71 L561,61 L556,54"></path><path d="M535,338 L551,344 L553,339 L535,338"></path><path d="M515,83 L508,98 L521,87 L515,83"></path><path d="M501,47 L523,20 L523,13 L501,47"></path><path d="M501,47 L514,40 L523,20 L501,47"></path><path d="M508,98 L505,103 L523,109 L508,98"></path><path d="M515,83 L521,87 L524,75 L515,83"></path><path d="M511,337 L508,344 L526,344 L511,337"></path><path d="M523,54 L514,63 L529,59 L523,54"></path><path d="M514,63 L520,70 L529,59 L514,63"></path><path d="M524,75 L521,87 L537,78 L524,75"></path><path d="M511,337 L526,344 L535,338 L511,337"></path><path d="M532,71 L524,75 L537,78 L532,71"></path><path d="M535,338 L526,344 L551,344 L535,338"></path><path d="M537,40 L529,59 L543,44 L537,40"></path><path d="M532,71 L537,78 L561,61 L532,71"></path><path d="M543,85 L525,92 L554,92 L543,85"></path><path d="M525,92 L523,109 L554,92 L525,92"></path><path d="M549,25 L543,44 L556,30 L549,25"></path><path d="M549,25 L566,16 L566,5 L549,25"></path><path d="M549,25 L556,30 L566,16 L549,25"></path><path d="M543,85 L554,92 L570,71 L543,85"></path><path d="M570,71 L554,92 L575,79 L570,71"></path><path d="M553,339 L551,344 L571,345 L553,339"></path><path d="M566,5 L566,16 L574,-0 L566,5"></path><path d="M553,339 L571,345 L576,342 L553,339"></path><path d="M556,54 L561,61 L584,43 L556,54"></path><path d="M579,37 L556,54 L584,43 L579,37"></path><path d="M579,37 L584,43 L595,25 L579,37"></path><path d="M570,71 L575,79 L598,63 L570,71"></path><path d="M595,56 L570,71 L598,63 L595,56"></path><path d="M595,56 L598,63 L610,51 L595,56"></path></g></svg>
