<svg width="653px" height="428px" viewBox="0 0 653 428" xmlns="http://www.w3.org/2000/svg" xmlns:xlink="http://www.w3.org/1999/xlink"><g stroke="#080808" stroke-width="1" stroke-miter-limit="10" fill="none">
<polygon points="172.1,245.5 175.3,246.7 178.4,220.1 "/>
<polygon points="174,140.9 186.7,156.8 187.3,140.3 "/>
<polygon points="175.9,127.6 174,140.9 187.3,140.3 "/>
<polygon points="172.1,245.5 165.8,271.4 175.3,246.7 "/>
<polygon points="161.3,301.8 160.1,327.2 162.6,327.2 "/>
<polygon points="160.1,327.2 161.3,348.7 162.6,327.2 "/>
<polygon points="165.8,271.4 161.3,301.8 168.9,273.3 "/>
<polygon points="161.3,301.8 162.6,327.2 164.5,301.8 "/>
<polygon points="161.3,301.8 164.5,301.8 168.9,273.3 "/>
<polygon points="175.3,218.2 178.4,220.1 182.2,189.7 "/>
<polygon points="198.7,334.1 194.3,363.9 201.2,335.4 "/>
<polygon points="172.1,160.6 174.6,164.4 175.9,158.7 "/>
<polygon points="174,140.9 170.2,140.9 175.9,158.7 "/>
<polygon points="165.8,271.4 168.9,273.3 175.3,246.7 "/>
<polygon points="170.2,140.9 172.1,160.6 175.9,158.7 "/>
<polygon points="176.5,189.1 175.3,218.2 182.2,189.7 "/>
<polygon points="174,140.9 175.9,158.7 186.7,156.8 "/>
<polygon points="174.6,164.4 172.1,160.6 176.5,189.1 "/>
<polygon points="170.2,140.9 174,140.9 175.9,127.6 "/>
<polygon points="172.1,125.7 170.2,140.9 175.9,127.6 "/>
<polygon points="175.9,158.7 174.6,164.4 186.7,156.8 "/>
<polygon points="183.5,117.5 191.1,128.3 193,113.7 "/>
<polygon points="175.3,218.2 172.1,245.5 178.4,220.1 "/>
<polygon points="212,120 200,137.1 215.2,127.6 "/>
<polygon points="174.6,164.4 184.8,171.3 186.7,156.8 "/>
<polygon points="172.1,125.7 175.9,127.6 183.5,117.5 "/>
<polygon points="178.4,113.1 172.1,125.7 183.5,117.5 "/>
<polygon points="178.4,113.1 183.5,117.5 186,104.2 "/>
<polygon points="174.6,164.4 176.5,189.1 184.8,171.3 "/>
<polygon points="176.5,189.1 182.2,189.7 184.8,171.3 "/>
<polygon points="186,104.2 183.5,117.5 193,113.7 "/>
<polygon points="210.7,220.1 208.2,246.7 210.7,246.7 "/>
<polygon points="186,104.2 193,113.7 194.3,97.2 "/>
<polygon points="196.2,153.6 217.1,156.1 219.6,143.5 "/>
<polygon points="175.9,127.6 187.3,140.3 191.1,128.3 "/>
<polygon points="183.5,117.5 175.9,127.6 191.1,128.3 "/>
<polygon points="205,400 204.4,429.1 207.6,401.3 "/>
<polygon points="208.8,197.9 207.6,220.1 210.7,220.1 "/>
<polygon points="184.8,171.3 200,180.2 203.1,170.1 "/>
<polygon points="194.3,363.9 190.5,400 196.8,365.8 "/>
<polygon points="187.3,140.3 186.7,156.8 196.2,153.6 "/>
<polygon points="219,80.8 215.8,108 227.8,106.7 "/>
<polygon points="187.3,140.3 196.2,153.6 200,137.1 "/>
<polygon points="207.6,220.1 208.2,246.7 210.7,220.1 "/>
<polygon points="194.3,363.9 196.8,365.8 201.2,335.4 "/>
<polygon points="295,278.4 298.2,296.1 299.4,279 "/>
<polygon points="191.1,128.3 187.3,140.3 200,137.1 "/>
<polygon points="194.3,97.2 204.4,111.2 205.7,88.4 "/>
<polygon points="229.1,132.1 219.6,143.5 243.7,147.9 "/>
<polygon points="210.7,370.2 205,400 213.3,371.5 "/>
<polygon points="200,180.2 205,197.9 205.7,178.9 "/>
<polygon points="194.3,97.2 193,113.7 204.4,111.2 "/>
<polygon points="186.7,156.8 184.8,171.3 203.1,170.1 "/>
<polygon points="196.2,153.6 186.7,156.8 203.1,170.1 "/>
<polygon points="205.7,272.1 208.2,272.7 210.7,246.7 "/>
<polygon points="202.5,301.2 198.7,334.1 205,301.2 "/>
<polygon points="198.7,334.1 201.2,335.4 205,301.2 "/>
<polygon points="208.2,246.7 205.7,272.1 210.7,246.7 "/>
<polygon points="203.1,170.1 200,180.2 205.7,178.9 "/>
<polygon points="205,400 207.6,401.3 213.3,371.5 "/>
<polygon points="287.4,277.8 295,278.4 296.3,247.4 "/>
<polygon points="205.7,272.1 202.5,301.2 208.2,272.7 "/>
<polygon points="202.5,301.2 205,301.2 208.2,272.7 "/>
<polygon points="205,197.9 207.6,220.1 208.8,197.9 "/>
<polygon points="234.8,112.4 227.8,106.7 236.1,120 "/>
<polygon points="227.8,106.7 212,120 236.1,120 "/>
<polygon points="205.7,178.9 205,197.9 208.8,197.9 "/>
<polygon points="205.7,88.4 215.8,108 219,80.8 "/>
<polygon points="191.1,128.3 200,137.1 212,120 "/>
<polygon points="193,113.7 191.1,128.3 212,120 "/>
<polygon points="204.4,111.2 193,113.7 212,120 "/>
<polygon points="215.8,108 212,120 227.8,106.7 "/>
<polygon points="200,137.1 196.2,153.6 219.6,143.5 "/>
<polygon points="196.2,153.6 203.1,170.1 215.2,163.1 "/>
<polygon points="225.9,305.6 219,341.1 228.5,307.5 "/>
<polygon points="196.2,153.6 215.2,163.1 217.1,156.1 "/>
<polygon points="203.1,170.1 205.7,178.9 215.2,163.1 "/>
<polygon points="204.4,111.2 212,120 215.8,108 "/>
<polygon points="205.7,88.4 204.4,111.2 215.8,108 "/>
<polygon points="215.2,127.6 200,137.1 219.6,143.5 "/>
<polygon points="219,341.1 210.7,370.2 221.5,342.4 "/>
<polygon points="212,120 215.2,127.6 236.1,120 "/>
<polygon points="215.2,163.1 220.9,180.8 228.5,165 "/>
<polygon points="215.2,127.6 219.6,143.5 229.1,132.1 "/>
<polygon points="215.2,163.1 205.7,178.9 220.9,180.8 "/>
<polygon points="210.7,370.2 213.3,371.5 221.5,342.4 "/>
<polygon points="253.2,67.5 269,89.6 273.5,64.3 "/>
<polygon points="256.4,170.1 269,166.3 270.3,155.5 "/>
<polygon points="231.6,275.9 225.9,305.6 234.2,277.1 "/>
<polygon points="225.9,305.6 228.5,307.5 234.2,277.1 "/>
<polygon points="237.3,247.4 231.6,275.9 241.1,248.6 "/>
<polygon points="228.5,165 240.5,180.2 242.4,160.6 "/>
<polygon points="217.1,156.1 215.2,163.1 228.5,165 "/>
<polygon points="219.6,143.5 217.1,156.1 228.5,165 "/>
<polygon points="288,349.3 279.2,391.1 293.1,351.2 "/>
<polygon points="219,341.1 221.5,342.4 228.5,307.5 "/>
<polygon points="231.6,275.9 234.2,277.1 241.1,248.6 "/>
<polygon points="241.8,199.2 246.2,199.2 248.1,180.8 "/>
<polygon points="215.2,127.6 229.1,132.1 236.1,120 "/>
<polygon points="228.5,165 220.9,180.8 236.7,182.1 "/>
<polygon points="263.3,170.7 268.4,176.4 269,166.3 "/>
<polygon points="248.8,135.9 270.3,155.5 274.7,141.6 "/>
<polygon points="228.5,165 236.7,182.1 240.5,180.2 "/>
<polygon points="227.8,106.7 234.8,112.4 240.5,100.4 "/>
<polygon points="219,80.8 227.8,106.7 240.5,100.4 "/>
<polygon points="234.8,73.2 219,80.8 240.5,100.4 "/>
<polygon points="240.5,180.2 241.8,199.2 248.1,180.8 "/>
<polygon points="228.5,165 242.4,160.6 243.7,147.9 "/>
<polygon points="236.1,120 229.1,132.1 241.8,126.4 "/>
<polygon points="236.1,120 241.8,126.4 245.6,114.3 "/>
<polygon points="234.8,112.4 236.1,120 245.6,114.3 "/>
<polygon points="240.5,100.4 234.8,112.4 245.6,114.3 "/>
<polygon points="229.1,132.1 243.7,147.9 248.8,135.9 "/>
<polygon points="242.4,160.6 248.1,180.8 256.4,170.1 "/>
<polygon points="219.6,143.5 228.5,165 243.7,147.9 "/>
<polygon points="240.5,221.4 237.3,247.4 244.3,222.6 "/>
<polygon points="237.3,247.4 241.1,248.6 244.3,222.6 "/>
<polygon points="241.8,126.4 229.1,132.1 248.8,135.9 "/>
<polygon points="241.8,199.2 240.5,221.4 246.2,199.2 "/>
<polygon points="240.5,221.4 244.3,222.6 246.2,199.2 "/>
<polygon points="257,116.9 241.8,126.4 261.4,128.3 "/>
<polygon points="242.4,160.6 240.5,180.2 248.1,180.8 "/>
<polygon points="256.4,170.1 248.1,180.8 258.9,185.9 "/>
<polygon points="253.2,67.5 234.8,73.2 256.4,94.7 "/>
<polygon points="240.5,100.4 245.6,114.3 250.7,108.6 "/>
<polygon points="256.4,94.7 264.6,99.1 269,89.6 "/>
<polygon points="245.6,114.3 241.8,126.4 257,116.9 "/>
<polygon points="250.7,108.6 257,116.9 264.6,99.1 "/>
<polygon points="248.8,135.9 243.7,147.9 270.3,155.5 "/>
<polygon points="240.5,100.4 250.7,108.6 256.4,94.7 "/>
<polygon points="234.8,73.2 240.5,100.4 256.4,94.7 "/>
<polygon points="250.7,108.6 245.6,114.3 257,116.9 "/>
<polygon points="256.4,94.7 250.7,108.6 264.6,99.1 "/>
<polygon points="253.2,67.5 256.4,94.7 269,89.6 "/>
<polygon points="242.4,160.6 256.4,170.1 270.3,155.5 "/>
<polygon points="319.1,98.5 296.3,96.6 319.1,114.3 "/>
<polygon points="241.8,126.4 248.8,135.9 261.4,128.3 "/>
<polygon points="256.4,170.1 258.9,185.9 263.3,170.7 "/>
<polygon points="263.3,170.7 264.6,184 268.4,176.4 "/>
<polygon points="261.4,128.3 248.8,135.9 274.7,141.6 "/>
<polygon points="263.3,170.7 258.9,185.9 264.6,184 "/>
<polygon points="283.6,87.7 296.3,96.6 300.1,87.7 "/>
<polygon points="256.4,170.1 263.3,170.7 269,166.3 "/>
<polygon points="264.6,184 258.9,185.9 270.3,187.2 "/>
<polygon points="268.4,176.4 264.6,184 270.3,187.2 "/>
<polygon points="270.3,155.5 269,166.3 279.8,175.1 "/>
<polygon points="243.7,147.9 242.4,160.6 270.3,155.5 "/>
<polygon points="279.8,175.1 276,191 281.7,190.3 "/>
<polygon points="343.1,184 332.4,197.3 346.9,193.5 "/>
<polygon points="318.4,199.8 317.8,218.8 324.8,217.6 "/>
<polygon points="264.6,99.1 257,116.9 271.6,120.7 "/>
<polygon points="257,116.9 261.4,128.3 271.6,120.7 "/>
<polygon points="298.8,222.6 296.3,247.4 300.7,248 "/>
<polygon points="302.6,204.9 298.8,222.6 305.8,222 "/>
<polygon points="298.8,222.6 300.7,248 305.8,222 "/>
<polygon points="269,166.3 268.4,176.4 279.8,175.1 "/>
<polygon points="268.4,176.4 270.3,187.2 279.8,175.1 "/>
<polygon points="270.3,187.2 276,191 279.8,175.1 "/>
<polygon points="281.7,97.9 289.9,109.3 296.3,96.6 "/>
<polygon points="261.4,128.3 274.7,141.6 280.4,132.1 "/>
<polygon points="271.6,120.7 261.4,128.3 280.4,132.1 "/>
<polygon points="269,89.6 264.6,99.1 281.7,97.9 "/>
<polygon points="264.6,99.1 271.6,120.7 281.7,97.9 "/>
<polygon points="269,89.6 281.7,97.9 283.6,87.7 "/>
<polygon points="273.5,64.3 269,89.6 283.6,87.7 "/>
<polygon points="287.4,277.8 288,295.5 295,278.4 "/>
<polygon points="271.6,120.7 287.4,123.2 289.9,109.3 "/>
<polygon points="271.6,120.7 280.4,132.1 287.4,123.2 "/>
<polygon points="281.7,97.9 271.6,120.7 289.9,109.3 "/>
<polygon points="283.6,87.7 281.7,97.9 296.3,96.6 "/>
<polygon points="279.8,175.1 281.7,190.3 286.1,181.5 "/>
<polygon points="308.3,273.3 299.4,279 312.1,289.2 "/>
<polygon points="303.2,191 317.8,191.6 321,180.8 "/>
<polygon points="290.6,188.4 281.7,190.3 292.5,204.3 "/>
<polygon points="273.5,64.3 283.6,87.7 292.5,61.8 "/>
<polygon points="286.1,181.5 281.7,190.3 290.6,188.4 "/>
<polygon points="314.6,305.6 326,336.7 326,298 "/>
<polygon points="281.7,190.3 276,191 292.5,204.3 "/>
<polygon points="276,191 283,223.3 292.5,204.3 "/>
<polygon points="290.6,188.4 296.3,189.7 296.3,172 "/>
<polygon points="288,349.3 293.1,351.2 296.3,317 "/>
<polygon points="292.5,204.3 283,223.3 294.4,222.6 "/>
<polygon points="286.1,181.5 290.6,188.4 296.3,172 "/>
<polygon points="288,295.5 289.9,316.4 293.7,297.4 "/>
<polygon points="283,223.3 284.9,248 294.4,222.6 "/>
<polygon points="279.8,175.1 286.1,181.5 296.3,172 "/>
<polygon points="297.5,204.3 294.4,222.6 298.8,222.6 "/>
<polygon points="289.9,316.4 288,349.3 296.3,317 "/>
<polygon points="290.6,188.4 292.5,204.3 296.3,189.7 "/>
<polygon points="279.8,175.1 296.3,172 299.4,155.5 "/>
<polygon points="294.4,222.6 296.3,247.4 298.8,222.6 "/>
<polygon points="296.3,247.4 295,278.4 300.7,248 "/>
<polygon points="274.7,141.6 299.4,155.5 300.1,138.4 "/>
<polygon points="284.9,248 287.4,277.8 296.3,247.4 "/>
<polygon points="293.7,297.4 296.3,317 298.2,296.1 "/>
<polygon points="293.7,297.4 289.9,316.4 296.3,317 "/>
<polygon points="294.4,222.6 284.9,248 296.3,247.4 "/>
<polygon points="296.3,189.7 292.5,204.3 297.5,204.3 "/>
<polygon points="292.5,204.3 294.4,222.6 297.5,204.3 "/>
<polygon points="288,295.5 293.7,297.4 298.2,296.1 "/>
<polygon points="295,278.4 288,295.5 298.2,296.1 "/>
<polygon points="292.5,61.8 283.6,87.7 300.1,87.7 "/>
<polygon points="289.9,109.3 287.4,123.2 299.4,125.1 "/>
<polygon points="374.2,393 366.6,400.6 378,408.2 "/>
<polygon points="313.4,420.3 302,428.5 315.3,430.4 "/>
<polygon points="280.4,132.1 274.7,141.6 300.1,138.4 "/>
<polygon points="274.7,141.6 270.3,155.5 299.4,155.5 "/>
<polygon points="270.3,155.5 279.8,175.1 299.4,155.5 "/>
<polygon points="287.4,123.2 280.4,132.1 300.1,138.4 "/>
<polygon points="299.4,125.1 287.4,123.2 300.1,138.4 "/>
<polygon points="302,401.3 313.4,420.3 314,398.1 "/>
<polygon points="336.2,413.3 329.2,419.6 338.7,429.8 "/>
<polygon points="317.8,89.6 300.1,87.7 319.1,98.5 "/>
<polygon points="299.4,279 303.2,296.8 312.1,289.2 "/>
<polygon points="297.5,204.3 298.8,222.6 302.6,204.9 "/>
<polygon points="292.5,61.8 300.1,87.7 309.6,63 "/>
<polygon points="329.2,419.6 323.5,427.2 338.7,429.8 "/>
<polygon points="296.3,189.7 297.5,204.3 303.2,191 "/>
<polygon points="297.5,204.3 302.6,204.9 303.2,191 "/>
<polygon points="300.7,248 308.3,273.3 312.1,246.1 "/>
<polygon points="296.3,172 296.3,189.7 303.2,191 "/>
<polygon points="299.4,125.1 300.1,138.4 307.7,126.4 "/>
<polygon points="296.3,96.6 289.9,109.3 319.1,114.3 "/>
<polygon points="379.9,109.9 369.7,127 382.4,125.7 "/>
<polygon points="307.7,126.4 319.1,128.3 319.1,114.3 "/>
<polygon points="295,278.4 299.4,279 308.3,273.3 "/>
<polygon points="300.7,248 295,278.4 308.3,273.3 "/>
<polygon points="314,398.1 313.4,420.3 326.7,404.4 "/>
<polygon points="334.9,92.2 319.1,98.5 337.4,102.3 "/>
<polygon points="296.3,172 321,180.8 324.8,173.2 "/>
<polygon points="303.2,191 302.6,204.9 312.1,196 "/>
<polygon points="305.8,222 300.7,248 312.1,246.1 "/>
<polygon points="302,401.3 302,428.5 313.4,420.3 "/>
<polygon points="312.1,289.2 303.2,296.8 314.6,305.6 "/>
<polygon points="332.4,197.3 328.6,204.9 339.3,204.3 "/>
<polygon points="306.4,370.9 302,401.3 314,398.1 "/>
<polygon points="303.2,296.8 304.5,317.7 314.6,305.6 "/>
<polygon points="299.4,155.5 296.3,172 324.8,173.2 "/>
<polygon points="302.6,204.9 305.8,222 317.8,218.8 "/>
<polygon points="314,398.1 328.6,398.1 329.8,389.2 "/>
<polygon points="303.2,191 312.1,196 317.8,191.6 "/>
<polygon points="302.6,204.9 317.8,218.8 318.4,199.8 "/>
<polygon points="312.1,196 302.6,204.9 318.4,199.8 "/>
<polygon points="319.1,128.3 300.1,138.4 326,138.4 "/>
<polygon points="309.6,63 300.1,87.7 317.8,89.6 "/>
<polygon points="308.3,273.3 312.1,289.2 318.4,273.3 "/>
<polygon points="312.1,246.1 308.3,273.3 318.4,273.3 "/>
<polygon points="324.8,217.6 317.8,218.8 325.4,239.1 "/>
<polygon points="317.8,191.6 312.1,196 318.4,199.8 "/>
<polygon points="300.1,87.7 296.3,96.6 319.1,98.5 "/>
<polygon points="300.1,138.4 299.4,155.5 326,138.4 "/>
<polygon points="307.7,126.4 300.1,138.4 319.1,128.3 "/>
<polygon points="289.9,109.3 299.4,125.1 319.1,114.3 "/>
<polygon points="299.4,125.1 307.7,126.4 319.1,114.3 "/>
<polygon points="296.3,172 303.2,191 321,180.8 "/>
<polygon points="326.7,404.4 313.4,420.3 329.2,419.6 "/>
<polygon points="313.4,420.3 315.3,430.4 323.5,427.2 "/>
<polygon points="324.8,375.3 314,398.1 329.8,389.2 "/>
<polygon points="341.2,218.8 332.4,236 342.5,234.7 "/>
<polygon points="317.8,191.6 318.4,199.8 322.9,192.9 "/>
<polygon points="340.6,115.6 329.8,127.6 344.4,128.3 "/>
<polygon points="314.6,305.6 304.5,317.7 326,336.7 "/>
<polygon points="304.5,317.7 308.3,348.7 326,336.7 "/>
<polygon points="322.9,192.9 328.6,204.9 332.4,197.3 "/>
<polygon points="314,398.1 326.7,404.4 328.6,398.1 "/>
<polygon points="319.1,128.3 326,138.4 329.8,127.6 "/>
<polygon points="306.4,370.9 314,398.1 324.8,375.3 "/>
<polygon points="324.8,173.2 321,180.8 325.4,182.1 "/>
<polygon points="305.8,222 312.1,246.1 325.4,239.1 "/>
<polygon points="317.8,218.8 305.8,222 325.4,239.1 "/>
<polygon points="321,180.8 317.8,191.6 325.4,182.1 "/>
<polygon points="317.8,191.6 322.9,192.9 325.4,182.1 "/>
<polygon points="319.1,98.5 319.1,114.3 337.4,102.3 "/>
<polygon points="326,138.4 299.4,155.5 328.6,151.7 "/>
<polygon points="299.4,155.5 324.8,173.2 328.6,151.7 "/>
<polygon points="313.4,420.3 323.5,427.2 329.2,419.6 "/>
<polygon points="355.2,197.9 351.4,209.3 357.7,214.4 "/>
<polygon points="312.1,289.2 314.6,305.6 326,298 "/>
<polygon points="318.4,273.3 312.1,289.2 326,298 "/>
<polygon points="367.8,177 360.9,188.4 369.7,194.1 "/>
<polygon points="332.4,197.3 339.3,204.3 346.9,193.5 "/>
<polygon points="329.2,64.9 317.8,89.6 334.9,92.2 "/>
<polygon points="319.1,114.3 319.1,128.3 329.8,127.6 "/>
<polygon points="322.9,192.9 318.4,199.8 328.6,204.9 "/>
<polygon points="318.4,199.8 324.8,217.6 328.6,204.9 "/>
<polygon points="306.4,370.9 324.8,375.3 330.5,365.8 "/>
<polygon points="308.3,348.7 306.4,370.9 330.5,365.8 "/>
<polygon points="344.4,344.9 330.5,365.8 350.7,349.3 "/>
<polygon points="309.6,63 317.8,89.6 329.2,64.9 "/>
<polygon points="328.6,398.1 326.7,404.4 333,400.6 "/>
<polygon points="324.8,375.3 329.8,389.2 334.3,380.4 "/>
<polygon points="317.8,89.6 319.1,98.5 334.9,92.2 "/>
<polygon points="326,336.7 308.3,348.7 330.5,365.8 "/>
<polygon points="325.4,239.1 312.1,246.1 332.4,260 "/>
<polygon points="312.1,246.1 318.4,273.3 332.4,260 "/>
<polygon points="324.8,217.6 325.4,239.1 332.4,236 "/>
<polygon points="329.8,389.2 328.6,398.1 333,400.6 "/>
<polygon points="323.5,427.2 315.3,430.4 338.7,429.8 "/>
<polygon points="322.9,192.9 332.4,197.3 333,180.8 "/>
<polygon points="347.6,94.1 359,100.4 360.9,71.9 "/>
<polygon points="324.8,173.2 325.4,182.1 333,180.8 "/>
<polygon points="325.4,182.1 322.9,192.9 333,180.8 "/>
<polygon points="324.8,375.3 334.3,380.4 336.2,372.8 "/>
<polygon points="346.9,193.5 339.3,204.3 348.2,199.8 "/>
<polygon points="337.4,385.4 333,400.6 338.1,406.3 "/>
<polygon points="326.7,404.4 336.2,413.3 338.1,406.3 "/>
<polygon points="333,400.6 326.7,404.4 338.1,406.3 "/>
<polygon points="329.2,64.9 334.9,92.2 345,67.5 "/>
<polygon points="330.5,365.8 324.8,375.3 336.2,372.8 "/>
<polygon points="326.7,404.4 329.2,419.6 336.2,413.3 "/>
<polygon points="334.3,380.4 337.4,385.4 340,375.9 "/>
<polygon points="342.5,234.7 332.4,236 345,251.8 "/>
<polygon points="336.2,372.8 334.3,380.4 340,375.9 "/>
<polygon points="339.3,204.3 328.6,204.9 341.2,218.8 "/>
<polygon points="329.8,389.2 333,400.6 337.4,385.4 "/>
<polygon points="334.3,380.4 329.8,389.2 337.4,385.4 "/>
<polygon points="330.5,365.8 336.2,372.8 350.7,349.3 "/>
<polygon points="325.4,239.1 332.4,260 345,251.8 "/>
<polygon points="345,251.8 332.4,260 346.9,267.6 "/>
<polygon points="337.4,102.3 319.1,114.3 340.6,115.6 "/>
<polygon points="336.2,372.8 340,375.9 350.7,349.3 "/>
<polygon points="351.4,209.3 352.6,220.1 357.7,214.4 "/>
<polygon points="319.1,114.3 329.8,127.6 340.6,115.6 "/>
<polygon points="328.6,204.9 324.8,217.6 341.2,218.8 "/>
<polygon points="333,180.8 332.4,197.3 343.1,184 "/>
<polygon points="324.8,217.6 332.4,236 341.2,218.8 "/>
<polygon points="344.4,128.3 326,138.4 352.6,147.9 "/>
<polygon points="329.8,127.6 326,138.4 344.4,128.3 "/>
<polygon points="345,67.5 347.6,94.1 360.9,71.9 "/>
<polygon points="347.6,94.1 337.4,102.3 348.8,106.7 "/>
<polygon points="326,336.7 330.5,365.8 344.4,344.9 "/>
<polygon points="326,138.4 328.6,151.7 352.6,147.9 "/>
<polygon points="345,67.5 334.9,92.2 347.6,94.1 "/>
<polygon points="334.9,92.2 337.4,102.3 347.6,94.1 "/>
<polygon points="332.4,236 325.4,239.1 345,251.8 "/>
<polygon points="388.7,116.9 382.4,125.7 395.7,122.6 "/>
<polygon points="337.4,102.3 340.6,115.6 348.8,106.7 "/>
<polygon points="350.7,349.3 340,375.9 351.4,377.8 "/>
<polygon points="355.8,325.9 350.7,349.3 367.2,327.2 "/>
<polygon points="318.4,273.3 326,298 346.9,267.6 "/>
<polygon points="332.4,260 318.4,273.3 346.9,267.6 "/>
<polygon points="326,336.7 344.4,344.9 350.1,322.1 "/>
<polygon points="326,298 326,336.7 350.1,322.1 "/>
<polygon points="337.4,385.4 338.1,406.3 349.5,407.6 "/>
<polygon points="338.1,406.3 336.2,413.3 349.5,407.6 "/>
<polygon points="336.2,413.3 338.7,429.8 349.5,407.6 "/>
<polygon points="355.2,249.3 360.2,262.6 364.7,261.9 "/>
<polygon points="402,94.1 388.7,116.9 412.2,102.3 "/>
<polygon points="337.4,385.4 349.5,407.6 351.4,377.8 "/>
<polygon points="340,375.9 337.4,385.4 351.4,377.8 "/>
<polygon points="346.9,193.5 348.2,199.8 352.6,192.9 "/>
<polygon points="355.2,282.2 360.9,291.1 364.7,261.9 "/>
<polygon points="343.1,184 346.9,193.5 352.6,192.9 "/>
<polygon points="343.1,184 356.4,182.1 357.1,163.1 "/>
<polygon points="352.6,147.9 328.6,151.7 357.1,163.1 "/>
<polygon points="360.9,188.4 367.8,199.2 369.7,194.1 "/>
<polygon points="326,298 350.1,322.1 353.9,299.9 "/>
<polygon points="351.4,377.8 366.6,384.8 367.8,370.2 "/>
<polygon points="333,180.8 343.1,184 357.1,163.1 "/>
<polygon points="326,298 353.9,299.9 355.2,282.2 "/>
<polygon points="324.8,173.2 333,180.8 357.1,163.1 "/>
<polygon points="348.2,199.8 351.4,209.3 355.2,197.9 "/>
<polygon points="352.6,192.9 348.2,199.8 355.2,197.9 "/>
<polygon points="358.3,113.7 344.4,128.3 359,127.6 "/>
<polygon points="366.6,384.8 351.4,377.8 366.6,400.6 "/>
<polygon points="346.9,267.6 326,298 355.2,282.2 "/>
<polygon points="400.8,218.8 397,219.5 400.8,238.5 "/>
<polygon points="350.1,322.1 344.4,344.9 355.8,325.9 "/>
<polygon points="344.4,344.9 350.7,349.3 355.8,325.9 "/>
<polygon points="343.1,184 352.6,192.9 356.4,182.1 "/>
<polygon points="328.6,151.7 324.8,173.2 357.1,163.1 "/>
<polygon points="344.4,128.3 352.6,147.9 359,127.6 "/>
<polygon points="347.6,94.1 348.8,106.7 359,100.4 "/>
<polygon points="388.7,195.4 393.8,220.7 397,219.5 "/>
<polygon points="353.9,299.9 360.2,301.8 360.9,291.1 "/>
<polygon points="348.8,106.7 358.3,113.7 359,100.4 "/>
<polygon points="340.6,115.6 344.4,128.3 358.3,113.7 "/>
<polygon points="348.8,106.7 340.6,115.6 358.3,113.7 "/>
<polygon points="360.2,262.6 355.2,282.2 364.7,261.9 "/>
<polygon points="353.3,232.8 355.2,249.3 359,227.7 "/>
<polygon points="352.6,220.1 353.3,232.8 359,227.7 "/>
<polygon points="357.7,214.4 352.6,220.1 359,227.7 "/>
<polygon points="353.9,299.9 350.1,322.1 360.2,301.8 "/>
<polygon points="350.1,322.1 355.8,325.9 360.2,301.8 "/>
<polygon points="355.8,263.8 355.2,282.2 360.2,262.6 "/>
<polygon points="359,100.4 372.3,106.7 376.7,77.6 "/>
<polygon points="355.2,249.3 355.8,263.8 360.2,262.6 "/>
<polygon points="356.4,182.1 352.6,192.9 360.9,188.4 "/>
<polygon points="355.2,282.2 353.9,299.9 360.9,291.1 "/>
<polygon points="360.2,301.8 355.8,325.9 367.2,327.2 "/>
<polygon points="360.9,71.9 359,100.4 376.7,77.6 "/>
<polygon points="352.6,192.9 355.2,197.9 360.9,188.4 "/>
<polygon points="350.7,349.3 351.4,377.8 367.8,370.2 "/>
<polygon points="349.5,407.6 364.7,423.4 366.6,400.6 "/>
<polygon points="366.6,400.6 364.7,423.4 378,408.2 "/>
<polygon points="378,320.2 367.2,327.2 381.1,343.6 "/>
<polygon points="349.5,407.6 338.7,429.8 364.7,423.4 "/>
<polygon points="360.9,291.1 360.2,301.8 365.9,296.8 "/>
<polygon points="378,408.2 364.7,423.4 381.1,429.8 "/>
<polygon points="351.4,377.8 349.5,407.6 366.6,400.6 "/>
<polygon points="367.2,327.2 369.1,356.3 381.1,343.6 "/>
<polygon points="364.7,423.4 338.7,429.8 381.1,429.8 "/>
<polygon points="360.9,188.4 355.2,197.9 367.8,199.2 "/>
<polygon points="350.7,349.3 367.8,370.2 369.1,356.3 "/>
<polygon points="367.2,327.2 350.7,349.3 369.1,356.3 "/>
<polygon points="357.1,163.1 356.4,182.1 367.8,177 "/>
<polygon points="356.4,182.1 360.9,188.4 367.8,177 "/>
<polygon points="397,219.5 393.8,220.7 400.8,238.5 "/>
<polygon points="369.7,127 372.3,137.8 382.4,125.7 "/>
<polygon points="369.7,127 359,127.6 372.3,137.8 "/>
<polygon points="383.7,151.1 386.8,166.9 402,147.3 "/>
<polygon points="366.6,384.8 366.6,400.6 374.2,393 "/>
<polygon points="358.3,113.7 369.7,127 372.3,106.7 "/>
<polygon points="358.3,113.7 359,127.6 369.7,127 "/>
<polygon points="359,100.4 358.3,113.7 372.3,106.7 "/>
<polygon points="352.6,147.9 357.1,163.1 372.3,137.8 "/>
<polygon points="359,127.6 352.6,147.9 372.3,137.8 "/>
<polygon points="386.8,177.7 388.7,195.4 392.5,180.2 "/>
<polygon points="397.6,133.3 387.5,137.8 402,147.3 "/>
<polygon points="386.8,166.9 386.8,177.7 392.5,180.2 "/>
<polygon points="365.9,296.8 360.2,301.8 378,320.2 "/>
<polygon points="360.2,301.8 367.2,327.2 378,320.2 "/>
<polygon points="427.4,377.8 420.4,396.8 429.9,379.7 "/>
<polygon points="387.5,137.8 383.7,151.1 402,147.3 "/>
<polygon points="383.7,151.1 357.1,163.1 386.8,166.9 "/>
<polygon points="367.8,177 369.7,194.1 378.6,192.9 "/>
<polygon points="369.7,194.1 367.8,199.2 378.6,192.9 "/>
<polygon points="372.3,106.7 369.7,127 379.9,109.9 "/>
<polygon points="369.1,356.3 367.8,370.2 383.7,375.3 "/>
<polygon points="383.7,375.3 374.2,393 388.1,396.2 "/>
<polygon points="372.3,137.8 357.1,163.1 383.7,151.1 "/>
<polygon points="386.8,166.9 367.8,177 386.8,177.7 "/>
<polygon points="366.6,384.8 374.2,393 383.7,375.3 "/>
<polygon points="367.8,177 378.6,192.9 386.8,177.7 "/>
<polygon points="367.8,370.2 366.6,384.8 383.7,375.3 "/>
<polygon points="386.8,177.7 378.6,192.9 388.7,195.4 "/>
<polygon points="388.7,116.9 395.7,122.6 412.2,102.3 "/>
<polygon points="374.2,393 378,408.2 388.1,396.2 "/>
<polygon points="381.1,343.6 390.6,354.4 395.7,343.6 "/>
<polygon points="357.1,163.1 367.8,177 386.8,166.9 "/>
<polygon points="382.4,125.7 372.3,137.8 387.5,137.8 "/>
<polygon points="372.3,137.8 383.7,151.1 387.5,137.8 "/>
<polygon points="372.3,106.7 379.9,109.9 390,85.8 "/>
<polygon points="376.7,77.6 372.3,106.7 390,85.8 "/>
<polygon points="403.9,238.5 409.6,261.9 412.8,261.3 "/>
<polygon points="378.6,192.9 367.8,199.2 388.7,195.4 "/>
<polygon points="392.5,180.2 388.7,195.4 397,191 "/>
<polygon points="379.9,109.9 382.4,125.7 388.7,116.9 "/>
<polygon points="381.1,343.6 369.1,356.3 390.6,354.4 "/>
<polygon points="369.1,356.3 383.7,375.3 390.6,354.4 "/>
<polygon points="395.7,122.6 407.1,127 412.2,102.3 "/>
<polygon points="395.7,122.6 397.6,133.3 407.1,127 "/>
<polygon points="440,144.7 442.6,158.7 443.8,143.5 "/>
<polygon points="400.8,218.8 400.8,238.5 403.9,238.5 "/>
<polygon points="378,320.2 381.1,343.6 395.7,343.6 "/>
<polygon points="391.9,408.9 388.1,424.1 395.7,412 "/>
<polygon points="386.8,166.9 407.7,173.2 409.6,159.3 "/>
<polygon points="402,147.3 386.8,166.9 409.6,159.3 "/>
<polygon points="392.5,180.2 397,191 403.3,190.3 "/>
<polygon points="382.4,125.7 387.5,137.8 397.6,133.3 "/>
<polygon points="395.7,122.6 382.4,125.7 397.6,133.3 "/>
<polygon points="397,191 388.7,195.4 400.8,218.8 "/>
<polygon points="388.7,195.4 397,219.5 400.8,218.8 "/>
<polygon points="401.4,386.1 391.9,408.9 404.6,389.9 "/>
<polygon points="432.4,351.9 427.4,377.8 435.6,351.2 "/>
<polygon points="407.1,127 412.8,140.9 419.1,131.4 "/>
<polygon points="379.9,109.9 388.7,116.9 402,94.1 "/>
<polygon points="390,85.8 379.9,109.9 402,94.1 "/>
<polygon points="397,191 400.8,218.8 403.3,190.3 "/>
<polygon points="386.8,166.9 392.5,180.2 407.7,173.2 "/>
<polygon points="402,147.3 409.6,159.3 412.8,140.9 "/>
<polygon points="391.9,408.9 395.7,412 404.6,389.9 "/>
<polygon points="392.5,180.2 403.3,190.3 407.7,173.2 "/>
<polygon points="440.7,133.3 440,144.7 443.8,143.5 "/>
<polygon points="403.3,374.7 401.4,386.1 408.4,378.5 "/>
<polygon points="401.4,386.1 404.6,389.9 408.4,378.5 "/>
<polygon points="414.7,345.5 408.4,363.9 417.9,348.1 "/>
<polygon points="403.9,238.5 400.8,238.5 409.6,261.9 "/>
<polygon points="420.4,396.8 424.2,398.7 429.9,379.7 "/>
<polygon points="408.4,363.9 403.3,374.7 412.8,367.1 "/>
<polygon points="407.1,127 397.6,133.3 412.8,140.9 "/>
<polygon points="412.8,261.3 409.6,261.9 415.3,282.8 "/>
<polygon points="397.6,133.3 402,147.3 412.8,140.9 "/>
<polygon points="403.3,374.7 408.4,378.5 412.8,367.1 "/>
<polygon points="408.4,363.9 412.8,367.1 417.9,348.1 "/>
<polygon points="433.7,304.4 431.2,325.9 435,325.9 "/>
<polygon points="407.7,173.2 418.5,186.5 418.5,178.3 "/>
<polygon points="407.1,127 419.1,131.4 424.2,113.7 "/>
<polygon points="424.8,325.9 426.7,350.6 427.4,325.9 "/>
<polygon points="407.7,173.2 403.3,190.3 418.5,186.5 "/>
<polygon points="415.3,282.8 418.5,303.7 419.1,282.2 "/>
<polygon points="412.8,261.3 415.3,282.8 419.1,282.2 "/>
<polygon points="418.5,303.7 418.5,324 422.3,303.7 "/>
<polygon points="425.5,304.4 424.8,325.9 427.4,325.9 "/>
<polygon points="418.5,324 414.7,345.5 421.7,325.3 "/>
<polygon points="420.4,396.8 417.2,396.8 424.2,398.7 "/>
<polygon points="419.1,282.2 418.5,303.7 422.3,303.7 "/>
<polygon points="416.6,206.8 417.2,226.5 424.2,224.6 "/>
<polygon points="412.8,140.9 409.6,159.3 423.6,148.5 "/>
<polygon points="416.6,206.8 424.2,224.6 424.2,206.8 "/>
<polygon points="418.5,186.5 416.6,206.8 424.2,206.8 "/>
<polygon points="417.2,396.8 412.2,423.4 424.2,398.7 "/>
<polygon points="423.6,148.5 409.6,159.3 425.5,163.1 "/>
<polygon points="418.5,324 421.7,325.3 422.3,303.7 "/>
<polygon points="429.3,135.9 440,144.7 440.7,133.3 "/>
<polygon points="425.5,304.4 431.2,325.9 433.7,304.4 "/>
<polygon points="412.2,102.3 407.1,127 424.2,113.7 "/>
<polygon points="417.2,396.8 420.4,396.8 427.4,377.8 "/>
<polygon points="407.7,173.2 418.5,178.3 425.5,163.1 "/>
<polygon points="414.7,345.5 417.9,348.1 421.7,325.3 "/>
<polygon points="438.8,157.4 434.3,168.8 442.6,158.7 "/>
<polygon points="424.2,374.7 417.2,396.8 427.4,377.8 "/>
<polygon points="409.6,159.3 407.7,173.2 425.5,163.1 "/>
<polygon points="427.4,377.8 429.9,379.7 435.6,351.2 "/>
<polygon points="418.5,186.5 424.2,206.8 428.6,182.1 "/>
<polygon points="425.5,304.4 427.4,325.9 431.2,325.9 "/>
<polygon points="429.9,282.2 425.5,304.4 433.7,304.4 "/>
<polygon points="418.5,178.3 418.5,186.5 428.6,182.1 "/>
<polygon points="419.1,131.4 412.8,140.9 429.3,135.9 "/>
<polygon points="412.8,140.9 423.6,148.5 429.3,135.9 "/>
<polygon points="424.2,282.2 425.5,304.4 429.9,282.2 "/>
<polygon points="422.3,261.3 424.2,282.2 429.9,282.2 "/>
<polygon points="422.3,261.3 429.9,282.2 431.2,259.4 "/>
<polygon points="427.4,325.9 426.7,350.6 431.2,325.9 "/>
<polygon points="417.2,226.5 422.3,261.3 431.2,259.4 "/>
<polygon points="424.2,224.6 417.2,226.5 431.2,259.4 "/>
<polygon points="424.2,374.7 427.4,377.8 432.4,351.9 "/>
<polygon points="426.7,350.6 424.2,374.7 432.4,351.9 "/>
<polygon points="424.2,113.7 419.1,131.4 433.7,123.8 "/>
<polygon points="419.1,131.4 429.3,135.9 433.7,123.8 "/>
<polygon points="435,325.9 431.2,325.9 435.6,351.2 "/>
<polygon points="426.7,350.6 432.4,351.9 435.6,351.2 "/>
<polygon points="433.7,123.8 429.3,135.9 440.7,133.3 "/>
<polygon points="431.2,325.9 426.7,350.6 435.6,351.2 "/>
<polygon points="425.5,163.1 418.5,178.3 434.3,168.8 "/>
<polygon points="418.5,178.3 428.6,182.1 434.3,168.8 "/>
<polygon points="434.3,168.8 428.6,182.1 436.9,171.3 "/>
<polygon points="434.3,168.8 436.9,171.3 442.6,158.7 "/>
<polygon points="440,144.7 438.8,157.4 442.6,158.7 "/>
<polygon points="423.6,148.5 425.5,163.1 438.8,157.4 "/>
<polygon points="425.5,163.1 434.3,168.8 438.8,157.4 "/>
<polygon points="429.3,135.9 423.6,148.5 440,144.7 "/>
<polygon points="423.6,148.5 438.8,157.4 440,144.7 "/>
<polygon points="359,227.7 364.7,261.9 355.2,249.3 "/>

</g></svg>
