<svg width="653px" height="428px" viewBox="0 0 653 428" xmlns="http://www.w3.org/2000/svg" xmlns:xlink="http://www.w3.org/1999/xlink">
<g stroke="#080808" stroke-width="1" fill="none">
<polygon points="27.2,270.4 53.5,294.1 56.6,256 "/>
<polygon points="148.5,168.4 144.2,206.6 171.1,219.1 "/>
<polygon points="149.2,231.6 157.3,248.5 171.1,219.1 "/>
<polygon points="119.2,239.1 116.6,259.1 123.5,256 "/>
<polygon points="144.2,206.6 134.2,227.8 149.2,231.6 "/>
<polygon points="123.5,219.7 134.2,227.8 144.2,206.6 "/>
<polygon points="56.6,256 53.5,294.1 79.1,300.4 "/>
<polygon points="141,249.1 135.4,253.5 143.5,266.6 "/>
<polygon points="134.2,227.8 137.9,243.5 149.2,231.6 "/>
<polygon points="56.6,256 79.1,300.4 103.5,269.7 "/>
<polygon points="93.5,244.1 56.6,256 103.5,269.7 "/>
<polygon points="119.2,239.1 123.5,256 127.3,246.6 "/>
<polygon points="123.5,256 116.6,259.1 132.3,279.7 "/>
<polygon points="93.5,207.2 93.5,244.1 109.1,239.7 "/>
<polygon points="121,187.2 144.2,206.6 148.5,168.4 "/>
<polygon points="103.5,269.7 117.9,292.3 132.3,279.7 "/>
<polygon points="119.2,239.1 127.3,246.6 127.9,237.8 "/>
<polygon points="93.5,207.2 109.1,239.7 111,212.8 "/>
<polygon points="109.1,239.7 93.5,244.1 116.6,259.1 "/>
<polygon points="93.5,244.1 103.5,269.7 116.6,259.1 "/>
<polygon points="123.5,219.7 119.2,239.1 127.9,237.8 "/>
<polygon points="109.1,239.7 119.2,239.1 123.5,219.7 "/>
<polygon points="103.5,269.7 79.1,300.4 117.9,292.3 "/>
<polygon points="79.1,300.4 110.4,307.9 117.9,292.3 "/>
<polygon points="116.6,259.1 103.5,269.7 132.3,279.7 "/>
<polygon points="109.1,239.7 116.6,259.1 119.2,239.1 "/>
<polygon points="115.4,139.6 100.4,170.9 121,187.2 "/>
<polygon points="100.4,170.9 93.5,207.2 121,187.2 "/>
<polygon points="93.5,207.2 111,212.8 121,187.2 "/>
<polygon points="111,212.8 109.1,239.7 123.5,219.7 "/>
<polygon points="121,187.2 111,212.8 123.5,219.7 "/>
<polygon points="143.5,266.6 132.3,279.7 153.6,288.5 "/>
<polygon points="123.5,219.7 127.9,237.8 134.2,227.8 "/>
<polygon points="127.3,246.6 123.5,256 135.4,253.5 "/>
<polygon points="117.9,292.3 151.1,319.1 153.6,288.5 "/>
<polygon points="121,187.2 123.5,219.7 144.2,206.6 "/>
<polygon points="137.9,243.5 141,249.1 149.2,231.6 "/>
<polygon points="144.2,206.6 149.2,231.6 171.1,219.1 "/>
<polygon points="134.2,227.8 127.9,237.8 137.9,243.5 "/>
<polygon points="127.9,237.8 127.3,246.6 137.9,243.5 "/>
<polygon points="127.3,246.6 135.4,253.5 137.9,243.5 "/>
<polygon points="135.4,253.5 123.5,256 143.5,266.6 "/>
<polygon points="137.9,243.5 135.4,253.5 141,249.1 "/>
<polygon points="123.5,256 132.3,279.7 143.5,266.6 "/>
<polygon points="137.3,115.9 115.4,139.6 148.5,168.4 "/>
<polygon points="115.4,139.6 121,187.2 148.5,168.4 "/>
<polygon points="194.2,328.5 230.5,334.2 234.9,314.8 "/>
<polygon points="132.3,279.7 117.9,292.3 153.6,288.5 "/>
<polygon points="117.9,292.3 110.4,307.9 151.1,319.1 "/>
<polygon points="141,249.1 143.5,266.6 157.3,248.5 "/>
<polygon points="149.2,231.6 141,249.1 157.3,248.5 "/>
<polygon points="157.3,248.5 179.8,275.4 186.7,247.8 "/>
<polygon points="171.1,219.1 157.3,248.5 186.7,247.8 "/>
<polygon points="157.3,248.5 143.5,266.6 179.8,275.4 "/>
<polygon points="143.5,266.6 153.6,288.5 179.8,275.4 "/>
<polygon points="148.5,168.4 171.1,219.1 187.3,166.5 "/>
<polygon points="428.8,312.9 394.4,346.7 435,342.3 "/>
<polygon points="216.1,182.2 171.1,219.1 238.6,209.7 "/>
<polygon points="179.8,275.4 194.2,328.5 234.9,314.8 "/>
<polygon points="137.3,115.9 148.5,168.4 187.3,166.5 "/>
<polygon points="162.9,99 137.3,115.9 187.3,166.5 "/>
<polygon points="162.9,99 187.3,166.5 198,84.6 "/>
<polygon points="153.6,288.5 151.1,319.1 194.2,328.5 "/>
<polygon points="179.8,275.4 153.6,288.5 194.2,328.5 "/>
<polygon points="171.1,219.1 186.7,247.8 238.6,209.7 "/>
<polygon points="187.3,166.5 171.1,219.1 216.1,182.2 "/>
<polygon points="288.7,95.9 238.6,209.7 321.2,114 "/>
<polygon points="187.3,166.5 216.1,182.2 249.3,82.1 "/>
<polygon points="198,84.6 187.3,166.5 249.3,82.1 "/>
<polygon points="350,142.1 238.6,209.7 371.2,173.4 "/>
<polygon points="186.7,247.8 249.9,280.4 251.1,243.5 "/>
<polygon points="275.5,321 234.9,314.8 276.8,331 "/>
<polygon points="186.7,247.8 179.8,275.4 249.9,280.4 "/>
<polygon points="179.8,275.4 234.9,314.8 249.9,280.4 "/>
<polygon points="238.6,209.7 186.7,247.8 251.1,243.5 "/>
<polygon points="348.1,307.3 323.7,342.3 366.2,352.9 "/>
<polygon points="249.9,280.4 234.9,314.8 275.5,321 "/>
<polygon points="234.9,314.8 230.5,334.2 276.8,331 "/>
<polygon points="216.1,182.2 238.6,209.7 288.7,95.9 "/>
<polygon points="249.3,82.1 216.1,182.2 288.7,95.9 "/>
<polygon points="313.7,316.6 276.8,331 323.7,342.3 "/>
<polygon points="251.1,243.5 249.9,280.4 313.7,316.6 "/>
<polygon points="249.9,280.4 275.5,321 313.7,316.6 "/>
<polygon points="275.5,321 276.8,331 313.7,316.6 "/>
<polygon points="238.6,209.7 251.1,243.5 371.2,173.4 "/>
<polygon points="251.1,243.5 313.7,316.6 348.1,307.3 "/>
<polygon points="321.2,114 238.6,209.7 350,142.1 "/>
<polygon points="313.7,316.6 323.7,342.3 348.1,307.3 "/>
<polygon points="384.4,209.1 396.9,253.5 398.7,227.8 "/>
<polygon points="251.1,243.5 348.1,307.3 378.1,281.6 "/>
<polygon points="251.1,243.5 378.1,281.6 384.4,209.1 "/>
<polygon points="371.2,173.4 251.1,243.5 384.4,209.1 "/>
<polygon points="384.4,209.1 378.1,281.6 396.9,253.5 "/>
<polygon points="348.1,307.3 366.2,352.9 389.4,312.3 "/>
<polygon points="378.1,281.6 348.1,307.3 389.4,312.3 "/>
<polygon points="389.4,312.3 366.2,352.9 394.4,346.7 "/>
<polygon points="528.2,304.8 547,326.7 553.9,316 "/>
<polygon points="396.9,253.5 426.9,273.5 438.8,234.7 "/>
<polygon points="426.9,273.5 389.4,312.3 428.8,312.9 "/>
<polygon points="398.7,227.8 396.9,253.5 438.8,234.7 "/>
<polygon points="389.4,312.3 394.4,346.7 428.8,312.9 "/>
<polygon points="378.1,281.6 389.4,312.3 426.9,273.5 "/>
<polygon points="396.9,253.5 378.1,281.6 426.9,273.5 "/>
<polygon points="560.7,248.5 547.6,274.1 567,261 "/>
<polygon points="438.8,234.7 478.2,278.5 494.4,246.6 "/>
<polygon points="478.2,278.5 501.9,318.5 514.5,284.7 "/>
<polygon points="501.9,318.5 469.4,340.4 503.8,337.3 "/>
<polygon points="428.8,312.9 435,342.3 466.9,314.1 "/>
<polygon points="466.9,314.1 435,342.3 469.4,340.4 "/>
<polygon points="426.9,273.5 428.8,312.9 466.9,314.1 "/>
<polygon points="426.9,273.5 466.9,314.1 478.2,278.5 "/>
<polygon points="438.8,234.7 426.9,273.5 478.2,278.5 "/>
<polygon points="494.4,246.6 514.5,284.7 530.1,256.6 "/>
<polygon points="558.9,301 574.5,322.3 580.8,314.1 "/>
<polygon points="466.9,314.1 469.4,340.4 501.9,318.5 "/>
<polygon points="478.2,278.5 466.9,314.1 501.9,318.5 "/>
<polygon points="494.4,246.6 478.2,278.5 514.5,284.7 "/>
<polygon points="528.2,304.8 501.9,318.5 535.1,333.5 "/>
<polygon points="514.5,284.7 501.9,318.5 528.2,304.8 "/>
<polygon points="514.5,284.7 528.2,304.8 536.4,289.8 "/>
<polygon points="530.1,256.6 514.5,284.7 536.4,289.8 "/>
<polygon points="501.9,318.5 503.8,337.3 535.1,333.5 "/>
<polygon points="580.8,314.1 597,332.3 601.4,325.4 "/>
<polygon points="530.1,256.6 536.4,289.8 547.6,274.1 "/>
<polygon points="528.2,304.8 535.1,333.5 547,326.7 "/>
<polygon points="530.1,256.6 547.6,274.1 560.7,248.5 "/>
<polygon points="547.6,274.1 536.4,289.8 558.9,301 "/>
<polygon points="536.4,289.8 528.2,304.8 558.9,301 "/>
<polygon points="528.2,304.8 553.9,316 558.9,301 "/>
<polygon points="589.5,238.5 560.7,248.5 592,248.5 "/>
<polygon points="558.9,301 553.9,316 574.5,322.3 "/>
<polygon points="560.7,248.5 567,261 592,248.5 "/>
<polygon points="580.8,314.1 574.5,322.3 597,332.3 "/>
<polygon points="614.5,230.3 589.5,238.5 617.7,237.8 "/>
<polygon points="589.5,238.5 592,248.5 617.7,237.8 "/>
<polygon points="601.4,325.4 618.9,343.5 625.8,337.3 "/>
<polygon points="601.4,325.4 597,332.3 618.9,343.5 "/>
</g>
</svg>
