<svg width="653px" height="428px" viewBox="0 0 653 428" version="1" xmlns="http://www.w3.org/2000/svg" xmlns:xlink="http://www.w3.org/1999/xlink"><g stroke="#080808" stroke-width="1" fill="none" fill-rule="evenodd">
<path d="M47,218 L51,224 L61,206 L47,218"></path>
<path d="M99,192 L116,214 L117,206 L99,192"></path>
<path d="M47,218 L34,228 L51,224 L47,218"></path>
<path d="M34,228 L34,237 L51,224 L34,228"></path>
<path d="M61,206 L71,211 L80,192 L61,206"></path>
<path d="M142,345 L130,359 L145,353 L142,345"></path>
<path d="M80,192 L99,192 L100,182 L80,192"></path>
<path d="M61,206 L51,224 L71,211 L61,206"></path>
<path d="M47,137 L71,145 L73,139 L47,137"></path>
<path d="M48,133 L47,137 L73,139 L48,133"></path>
<path d="M115,153 L108,167 L138,165 L115,153"></path>
<path d="M80,192 L71,211 L99,192 L80,192"></path>
<path d="M110,177 L102,179 L114,188 L110,177"></path>
<path d="M102,179 L100,182 L114,188 L102,179"></path>
<path d="M71,145 L98,159 L101,153 L71,145"></path>
<path d="M120,354 L120,363 L125,363 L120,354"></path>
<path d="M73,139 L71,145 L101,153 L73,139"></path>
<path d="M98,159 L102,179 L108,167 L98,159"></path>
<path d="M101,153 L98,159 L108,167 L101,153"></path>
<path d="M114,188 L99,192 L117,206 L114,188"></path>
<path d="M117,206 L131,205.308 L133,193 L117,206"></path>
<path d="M108,167 L102,179 L110,177 L108,167"></path>
<path d="M100,182 L99,192 L114,188 L100,182"></path>
<path d="M110,177 L136,182 L138,165 L110,177"></path>
<path d="M114,188 L117,206 L133,193 L114,188"></path>
<path d="M115,280 L120,295 L129,291 L115,280"></path>
<path d="M114,188 L133,193 L136,182 L114,188"></path>
<path d="M130,359 L125,363 L135,366 L130,359"></path>
<path d="M110,177 L114,188 L136,182 L110,177"></path>
<path d="M116,214 L110,235 L128,221 L116,214"></path>
<path d="M108,167 L110,177 L138,165 L108,167"></path>
<path d="M128,221 L110,235 L134,238 L128,221"></path>
<path d="M115,280 L129,291 L130,281 L115,280"></path>
<path d="M119,271 L115,280 L130,281 L119,271"></path>
<path d="M120,354 L125,363 L130,359 L120,354"></path>
<path d="M110,235 L119,271 L134,238 L110,235"></path>
<path d="M130,281 L129,291 L136,274 L130,281"></path>
<path d="M116,214 L128,221 L131,205.308 L116,214"></path>
<path d="M117,206 L116,214 L131,205.308 L117,206"></path>
<path d="M120,354 L130,359 L142,345 L120,354"></path>
<path d="M162,278 L186,283 L192,257 L162,278"></path>
<path d="M125,363 L120,363 L135,366 L125,363"></path>
<path d="M149,174 L136,182 L151,188 L149,174"></path>
<path d="M149,168 L138,165 L149,174 L149,168"></path>
<path d="M131,205.308 L128,221 L138,204 L131,205.308"></path>
<path d="M152,138 L138,165 L153,152 L152,138"></path>
<path d="M134,238 L119,271 L136,274 L134,238"></path>
<path d="M119,271 L130,281 L136,274 L119,271"></path>
<path d="M133,193 L131,205.308 L138,204 L133,193"></path>
<path d="M152,138 L166,137 L168,120 L152,138"></path>
<path d="M138,165 L149,168 L153,152 L138,165"></path>
<path d="M190,240 L181,245 L192,257 L190,240"></path>
<path d="M153,152 L163,163 L166,137 L153,152"></path>
<path d="M158,302 L155,306 L165,312 L158,302"></path>
<path d="M251,82 L228,106 L253,97 L251,82"></path>
<path d="M138,165 L136,182 L149,174 L138,165"></path>
<path d="M134,238 L136,274 L149,262 L134,238"></path>
<path d="M134,238 L149,262 L150,229 L134,238"></path>
<path d="M138,204 L128,221 L150,229 L138,204"></path>
<path d="M128,221 L134,238 L150,229 L128,221"></path>
<path d="M136,182 L133,193 L151,188 L136,182"></path>
<path d="M133,193 L138,204 L151,188 L133,193"></path>
<path d="M149,262 L136,274 L162,278 L149,262"></path>
<path d="M148,318 L142,345 L155,336 L148,318"></path>
<path d="M115,153 L138,165 L152,138 L115,153"></path>
<path d="M135,123 L115,153 L152,138 L135,123"></path>
<path d="M157,140 L153,152 L166,137 L157,140"></path>
<path d="M142,345 L145,353 L155,336 L142,345"></path>
<path d="M152,138 L153,152 L157,140 L152,138"></path>
<path d="M163,163 L149,174 L170,186 L163,163"></path>
<path d="M172,244 L181,245 L183,217 L172,244"></path>
<path d="M258,145 L262,163 L266,155 L258,145"></path>
<path d="M151,188 L138,204 L163,207 L151,188"></path>
<path d="M138,204 L150,229 L163,207 L138,204"></path>
<path d="M170,186 L163,207 L183,217 L170,186"></path>
<path d="M150,229 L172,244 L183,217 L150,229"></path>
<path d="M149,168 L149,174 L163,163 L149,168"></path>
<path d="M153,152 L149,168 L163,163 L153,152"></path>
<path d="M163,163 L170,186 L178,161 L163,163"></path>
<path d="M155,306 L148,318 L165,312 L155,306"></path>
<path d="M148,318 L155,336 L165,312 L148,318"></path>
<path d="M135,123 L152,138 L168,120 L135,123"></path>
<path d="M152,138 L157,140 L166,137 L152,138"></path>
<path d="M151,188 L163,207 L170,186 L151,188"></path>
<path d="M149,174 L151,188 L170,186 L149,174"></path>
<path d="M158,302 L165,312 L174,302 L158,302"></path>
<path d="M150,229 L149,262 L172,244 L150,229"></path>
<path d="M149,262 L162,278 L172,244 L149,262"></path>
<path d="M162,278 L158,302 L174,302 L162,278"></path>
<path d="M166,137 L163,163 L178,161 L166,137"></path>
<path d="M168,120 L203,117 L206,97 L168,120"></path>
<path d="M163,207 L150,229 L183,217 L163,207"></path>
<path d="M168,120 L166,137 L184,137 L168,120"></path>
<path d="M166,137 L178,161 L184,137 L166,137"></path>
<path d="M183,217 L181,245 L190,240 L183,217"></path>
<path d="M162,278 L174,302 L186,283 L162,278"></path>
<path d="M178,161 L170,186 L189.924,185 L178,161"></path>
<path d="M170,186 L183,217 L189.924,185 L170,186"></path>
<path d="M172,244 L162,278 L192,257 L172,244"></path>
<path d="M181,245 L172,244 L192,257 L181,245"></path>
<path d="M211,267 L201,276 L218,284 L211,267"></path>
<path d="M210,225 L232,245 L234,209 L210,225"></path>
<path d="M201,276 L210,299 L218,284 L201,276"></path>
<path d="M228,106 L246,143 L253,97 L228,106"></path>
<path d="M233,171 L189.924,185 L234,209 L233,171"></path>
<path d="M218,284 L210,299 L229,303 L218,284"></path>
<path d="M168,120 L184,137 L203,117 L168,120"></path>
<path d="M189.924,185 L210,225 L234,209 L189.924,185"></path>
<path d="M189.924,185 L183,217 L210,225 L189.924,185"></path>
<path d="M183,217 L190,240 L210,225 L183,217"></path>
<path d="M192,257 L211,267 L222,251 L192,257"></path>
<path d="M190,240 L192,257 L222,251 L190,240"></path>
<path d="M192,257 L201,276 L211,267 L192,257"></path>
<path d="M210,225 L190,240 L222,251 L210,225"></path>
<path d="M225,271 L218,284 L229,303 L225,271"></path>
<path d="M184,137 L178,161 L223,164 L184,137"></path>
<path d="M178,161 L189.924,185 L223,164 L178,161"></path>
<path d="M211,267 L218,284 L225,271 L211,267"></path>
<path d="M222,251 L211,267 L225,271 L222,251"></path>
<path d="M206,97 L203,117 L228,106 L206,97"></path>
<path d="M223,164 L189.924,185 L233,171 L223,164"></path>
<path d="M203,117 L184,137 L230,149 L203,117"></path>
<path d="M184,137 L223,164 L230,149 L184,137"></path>
<path d="M228,106 L203,117 L230,149 L228,106"></path>
<path d="M210,225 L222,251 L232,245 L210,225"></path>
<path d="M250,234 L267,254 L280,235 L250,234"></path>
<path d="M230,149 L223,164 L233,171 L230,149"></path>
<path d="M222,251 L225,271 L244,252 L222,251"></path>
<path d="M232,245 L222,251 L244,252 L232,245"></path>
<path d="M228,106 L230,149 L246,143 L228,106"></path>
<path d="M246,143 L230,149 L247,165 L246,143"></path>
<path d="M233,171 L234,209 L246,188 L233,171"></path>
<path d="M230,149 L233,171 L247,165 L230,149"></path>
<path d="M253,97 L246,143 L258,145 L253,97"></path>
<path d="M232,245 L244,252 L250,234 L232,245"></path>
<path d="M206,97 L228,106 L251,82 L206,97"></path>
<path d="M233,171 L246,188 L247,165 L233,171"></path>
<path d="M234,209 L232,245 L250,234 L234,209"></path>
<path d="M251,82 L253,97 L277,102 L251,82"></path>
<path d="M244,252 L225,271 L256,275 L244,252"></path>
<path d="M246,143 L247,165 L258,145 L246,143"></path>
<path d="M272,378 L265,391 L274,391 L272,378"></path>
<path d="M246,188 L234,209 L259,194 L246,188"></path>
<path d="M234,209 L250,234 L259,194 L234,209"></path>
<path d="M280,322 L293,345 L296,318 L280,322"></path>
<path d="M246,188 L259,194 L262,163 L246,188"></path>
<path d="M247,165 L246,188 L262,163 L247,165"></path>
<path d="M258,145 L247,165 L262,163 L258,145"></path>
<path d="M265,391 L271,405 L274,391 L265,391"></path>
<path d="M282,309 L280,322 L296,318 L282,309"></path>
<path d="M253,97 L258,145 L277,102 L253,97"></path>
<path d="M259,194 L250,234 L280,235 L259,194"></path>
<path d="M244,252 L256,275 L267,254 L244,252"></path>
<path d="M250,234 L244,252 L267,254 L250,234"></path>
<path d="M328,134 L330,140 L373,120 L328,134"></path>
<path d="M265,391 L259,405 L271,405 L265,391"></path>
<path d="M264,376 L265,391 L272,378 L264,376"></path>
<path d="M271,344 L264,376 L272,378 L271,344"></path>
<path d="M272,378 L274,391 L281,377 L272,378"></path>
<path d="M258,145 L288,146 L293,121 L258,145"></path>
<path d="M271,344 L272,378 L281,377 L271,344"></path>
<path d="M267,254 L256,275 L283,272 L267,254"></path>
<path d="M277,102 L258,145 L293,121 L277,102"></path>
<path d="M328,134 L288,146 L330,140 L328,134"></path>
<path d="M267,254 L283,272 L293,244 L267,254"></path>
<path d="M259,194 L280,235 L297,197 L259,194"></path>
<path d="M258,145 L266,155 L288,146 L258,145"></path>
<path d="M290,105 L277,102 L293,121 L290,105"></path>
<path d="M324,245 L329,263 L346,231 L324,245"></path>
<path d="M266,155 L262,163 L290,155 L266,155"></path>
<path d="M288,146 L266,155 L290,155 L288,146"></path>
<path d="M337,197 L320,225 L346,231 L337,197"></path>
<path d="M280,322 L271,344 L293,345 L280,322"></path>
<path d="M271,344 L281,377 L293,345 L271,344"></path>
<path d="M316,83 L331,99 L343,76 L316,83"></path>
<path d="M280,235 L267,254 L293,244 L280,235"></path>
<path d="M277,102 L290,105 L299,91 L277,102"></path>
<path d="M282,309 L296,318 L301,309 L282,309"></path>
<path d="M283,272 L307,280 L308,258 L283,272"></path>
<path d="M288,146 L290,155 L330,140 L288,146"></path>
<path d="M262,163 L259,194 L297,197 L262,163"></path>
<path d="M308,258 L307,280 L313,268 L308,258"></path>
<path d="M282,309 L301,309 L307,280 L282,309"></path>
<path d="M262,163 L297,197 L306,183 L262,163"></path>
<path d="M293,121 L328,134 L331,99 L293,121"></path>
<path d="M290,155 L262,163 L306,183 L290,155"></path>
<path d="M283,272 L282,309 L307,280 L283,272"></path>
<path d="M293,244 L283,272 L308,258 L293,244"></path>
<path d="M280,235 L293,244 L310,239 L280,235"></path>
<path d="M297,197 L280,235 L310,239 L297,197"></path>
<path d="M293,244 L308,258 L310,239 L293,244"></path>
<path d="M299,91 L290,105 L331,99 L299,91"></path>
<path d="M320,225 L310,239 L324,245 L320,225"></path>
<path d="M297,197 L310,239 L320,225 L297,197"></path>
<path d="M290,105 L293,121 L331,99 L290,105"></path>
<path d="M310,239 L308,258 L324,245 L310,239"></path>
<path d="M330,140 L306,183 L337,197 L330,140"></path>
<path d="M293,121 L288,146 L328,134 L293,121"></path>
<path d="M290,155 L306,183 L330,140 L290,155"></path>
<path d="M324,245 L308,258 L329,263 L324,245"></path>
<path d="M308,258 L313,268 L329,263 L308,258"></path>
<path d="M316,83 L299,91 L331,99 L316,83"></path>
<path d="M320,225 L324,245 L346,231 L320,225"></path>
<path d="M377,152 L372,183 L380,181 L377,152"></path>
<path d="M445,111 L456,138 L463,106 L445,111"></path>
<path d="M306,183 L297,197 L337,197 L306,183"></path>
<path d="M297,197 L320,225 L337,197 L297,197"></path>
<path d="M424,210 L437,225 L440,221 L424,210"></path>
<path d="M337,197 L346,231 L361,215 L337,197"></path>
<path d="M380,181 L397,193 L398,149 L380,181"></path>
<path d="M361,215 L346,231 L371,232 L361,215"></path>
<path d="M375,128 L330,140 L377,152 L375,128"></path>
<path d="M343,76 L331,99 L369,89 L343,76"></path>
<path d="M337,197 L361,215 L372,183 L337,197"></path>
<path d="M330,140 L372,183 L377,152 L330,140"></path>
<path d="M330,140 L337,197 L372,183 L330,140"></path>
<path d="M331,99 L328,134 L373,120 L331,99"></path>
<path d="M369,89 L331,99 L373,120 L369,89"></path>
<path d="M377,152 L380,181 L398,149 L377,152"></path>
<path d="M361,215 L371,232 L384,222 L361,215"></path>
<path d="M373,120 L330,140 L375,128 L373,120"></path>
<path d="M384,222 L394,230 L395,217 L384,222"></path>
<path d="M393,122 L375,128 L398,149 L393,122"></path>
<path d="M343,76 L369,89 L386,59 L343,76"></path>
<path d="M391,115 L373,120 L393,122 L391,115"></path>
<path d="M361,215 L384,222 L388,201 L361,215"></path>
<path d="M380,181 L372,183 L388,201 L380,181"></path>
<path d="M372,183 L361,215 L388,201 L372,183"></path>
<path d="M397,193 L419,213 L424,210 L397,193"></path>
<path d="M369,89 L373,120 L391,115 L369,89"></path>
<path d="M375,128 L377,152 L398,149 L375,128"></path>
<path d="M373,120 L375,128 L393,122 L373,120"></path>
<path d="M424,282 L428,309 L444,290 L424,282"></path>
<path d="M384,222 L371,232 L394,230 L384,222"></path>
<path d="M388,201 L384,222 L395,217 L388,201"></path>
<path d="M388,201 L395,217 L397,193 L388,201"></path>
<path d="M380,181 L388,201 L397,193 L380,181"></path>
<path d="M450,102 L445,111 L463,106 L450,102"></path>
<path d="M476,356 L469,375 L479,363 L476,356"></path>
<path d="M386,59 L369,89 L412,72 L386,59"></path>
<path d="M369,89 L391,115 L412,72 L369,89"></path>
<path d="M397,193 L395,217 L419,213 L397,193"></path>
<path d="M412,72 L391,115 L423,109 L412,72"></path>
<path d="M391,115 L393,122 L423,109 L391,115"></path>
<path d="M423,109 L393,122 L426,116 L423,109"></path>
<path d="M394,230 L402,247 L419,213 L394,230"></path>
<path d="M395,217 L394,230 L419,213 L395,217"></path>
<path d="M393,122 L398,149 L426,116 L393,122"></path>
<path d="M467.652,300 L438,333 L473,321 L467.652,300"></path>
<path d="M423,109 L445,111 L450,102 L423,109"></path>
<path d="M419,213 L402,247 L437,225 L419,213"></path>
<path d="M424,210 L419,213 L437,225 L424,210"></path>
<path d="M386,59 L412,72 L439,46 L386,59"></path>
<path d="M424,210 L440,221 L440,205.308 L424,210"></path>
<path d="M412,72 L450,102 L452,59 L412,72"></path>
<path d="M398,149 L450,166 L456,138 L398,149"></path>
<path d="M412,72 L423,109 L450,102 L412,72"></path>
<path d="M397,193 L424,210 L440,205.308 L397,193"></path>
<path d="M440,221 L437,225 L462,229 L440,221"></path>
<path d="M398,149 L397,193 L450,166 L398,149"></path>
<path d="M439,46 L412,72 L452,59 L439,46"></path>
<path d="M423,109 L426,116 L445,111 L423,109"></path>
<path d="M397,193 L440,205.308 L450,166 L397,193"></path>
<path d="M424,282 L457,278 L460,266 L424,282"></path>
<path d="M426,116 L398,149 L456,138 L426,116"></path>
<path d="M402,247 L405,268 L452,250 L402,247"></path>
<path d="M437,225 L402,247 L452,250 L437,225"></path>
<path d="M405,268 L424,282 L452,250 L405,268"></path>
<path d="M424,282 L444,290 L457,278 L424,282"></path>
<path d="M445,111 L426,116 L456,138 L445,111"></path>
<path d="M457,278 L444,290 L467.652,300 L457,278"></path>
<path d="M438,333 L464,350 L473,321 L438,333"></path>
<path d="M452,250 L424,282 L460,266 L452,250"></path>
<path d="M482,236 L496,241 L502,224 L482,236"></path>
<path d="M440,205.308 L440,221 L462,229 L440,205.308"></path>
<path d="M480,124 L509,147 L513,112 L480,124"></path>
<path d="M490,381 L500,386 L507,378 L490,381"></path>
<path d="M452,59 L450,102 L463,106 L452,59"></path>
<path d="M438,333 L454,356 L464,350 L438,333"></path>
<path d="M462,229 L482,236 L483,210 L462,229"></path>
<path d="M464,350 L476,356 L477,346 L464,350"></path>
<path d="M428,309 L438,333 L467.652,300 L428,309"></path>
<path d="M444,290 L428,309 L467.652,300 L444,290"></path>
<path d="M486,34 L452,59 L500,53 L486,34"></path>
<path d="M463,106 L480,124 L486,100 L463,106"></path>
<path d="M464,350 L454,356 L469,375 L464,350"></path>
<path d="M464,350 L469,375 L476,356 L464,350"></path>
<path d="M452,59 L463,106 L486,100 L452,59"></path>
<path d="M456,138 L474,147 L480,124 L456,138"></path>
<path d="M456,138 L450,166 L474,147 L456,138"></path>
<path d="M463,106 L456,138 L480,124 L463,106"></path>
<path d="M473,321 L464,350 L477,346 L473,321"></path>
<path d="M487,372 L490,381 L507,378 L487,372"></path>
<path d="M452,59 L486,100 L500,53 L452,59"></path>
<path d="M440,205.308 L462,229 L483,210 L440,205.308"></path>
<path d="M462,229 L463,244 L482,236 L462,229"></path>
<path d="M450,166 L483,210 L498,181 L450,166"></path>
<path d="M450,166 L440,205.308 L483,210 L450,166"></path>
<path d="M474,147 L450,166 L498,181 L474,147"></path>
<path d="M483,210 L482,236 L502,224 L483,210"></path>
<path d="M439,46 L452,59 L486,34 L439,46"></path>
<path d="M469,375 L483,381 L487,372 L469,375"></path>
<path d="M479,363 L469,375 L487,372 L479,363"></path>
<path d="M509,147 L531,148 L532,124 L509,147"></path>
<path d="M487,372 L483,381 L490,381 L487,372"></path>
<path d="M486,100 L480,124 L513,112 L486,100"></path>
<path d="M463,244 L479,271 L492,253 L463,244"></path>
<path d="M482,236 L463,244 L492,253 L482,236"></path>
<path d="M482,236 L492,253 L496,241 L482,236"></path>
<path d="M536,219 L522,253 L552,245 L536,219"></path>
<path d="M513,112 L509,147 L532,124 L513,112"></path>
<path d="M492,253 L479,271 L505,288 L492,253"></path>
<path d="M498,181 L483,210 L502,224 L498,181"></path>
<path d="M522,253 L492,253 L527,265 L522,253"></path>
<path d="M509,147 L498,181 L520,169 L509,147"></path>
<path d="M480,124 L474,147 L509,147 L480,124"></path>
<path d="M474,147 L498,181 L509,147 L474,147"></path>
<path d="M502,224 L496,241 L512,243 L502,224"></path>
<path d="M496,241 L492,253 L512,243 L496,241"></path>
<path d="M527,265 L505,288 L528,275 L527,265"></path>
<path d="M550,283 L551,290 L567,283 L550,283"></path>
<path d="M531,148 L520,169 L550,175 L531,148"></path>
<path d="M550,283 L528,275 L551,290 L550,283"></path>
<path d="M512,243 L492,253 L522,253 L512,243"></path>
<path d="M528,275 L505,288 L551,290 L528,275"></path>
<path d="M492,253 L505,288 L527,265 L492,253"></path>
<path d="M500,53 L486,100 L529,85 L500,53"></path>
<path d="M512,243 L522,253 L536,219 L512,243"></path>
<path d="M486,34 L500,53 L535,23 L486,34"></path>
<path d="M498,181 L502,224 L530,205.308 L498,181"></path>
<path d="M520,169 L498,181 L530,205.308 L520,169"></path>
<path d="M550,175 L560,184 L570,165 L550,175"></path>
<path d="M509,147 L520,169 L531,148 L509,147"></path>
<path d="M559,152 L550,175 L570,165 L559,152"></path>
<path d="M530,205.308 L502,224 L536,219 L530,205.308"></path>
<path d="M502,224 L512,243 L536,219 L502,224"></path>
<path d="M554,229 L581,248 L589,238 L554,229"></path>
<path d="M535,23 L500,53 L549,35 L535,23"></path>
<path d="M500,53 L529,85 L549,35 L500,53"></path>
<path d="M535,23 L549,35 L567,28 L535,23"></path>
<path d="M530,205.308 L536,219 L550,204 L530,205.308"></path>
<path d="M530,205.308 L550,204 L550,175 L530,205.308"></path>
<path d="M520,169 L530,205.308 L550,175 L520,169"></path>
<path d="M549,35 L529,85 L557,49 L549,35"></path>
<path d="M536,219 L552,245 L554,229 L536,219"></path>
<path d="M549,35 L557,49 L567,28 L549,35"></path>
<path d="M550,204 L536,219 L554,229 L550,204"></path>
<path d="M532,124 L531,148 L559,152 L532,124"></path>
<path d="M531,148 L550,175 L559,152 L531,148"></path>
<path d="M560,184 L572,214 L582,193 L560,184"></path>
<path d="M550,175 L550,204 L560,184 L550,175"></path>
<path d="M567,28 L557,49 L576,62 L567,28"></path>
<path d="M560,184 L550,204 L572,214 L560,184"></path>
<path d="M570,165 L560,184 L582,193 L570,165"></path>
<path d="M550,204 L554,229 L572,214 L550,204"></path>
<path d="M550,283 L567,283 L570,277 L550,283"></path>
<path d="M567,283 L551,290 L579,289 L567,283"></path>
<path d="M557,49 L529,85 L576,62 L557,49"></path>
<path d="M570,277 L567,283 L579,289 L570,277"></path>
<path d="M554,229 L552,245 L581,248 L554,229"></path>
<path d="M572,214 L589,238 L610,236 L572,214"></path>
<path d="M572,214 L554,229 L589,238 L572,214"></path>
<path d="M582,193 L572,214 L610,236 L582,193"></path>
    </g>
</svg>
