<?xml version="1.1" encoding="UTF-8" standalone="no"?>
<svg width="653px" height="428px" viewBox="0 0 653 428" version="1" xmlns="http://www.w3.org/2000/svg" xmlns:xlink="http://www.w3.org/1999/xlink"><g stroke-width="1" fill="none" fill-rule="evenodd" stroke="#080808" transform="translate(47, 21)">
<path d="M-0,154 L-0,157 L10,160 L-0,154"></path><path d="M19,164 L10,168 L19,171 L19,164"></path><path d="M139,372 L134,380 L139,381 L139,372"></path><path d="M2,163 L2,165 L10,164 L2,163"></path><path d="M-0,154 L10,160 L19,153 L-0,154"></path><path d="M19,153 L10,160 L19,164 L19,153"></path><path d="M10,164 L2,165 L10,168 L10,164"></path><path d="M54,160 L42,170 L62,175 L54,160"></path><path d="M10,164 L10,168 L19,164 L10,164"></path><path d="M19,164 L32,172 L33,163 L19,164"></path><path d="M19,153 L19,164 L33,163 L19,153"></path><path d="M19,164 L19,171 L32,172 L19,164"></path><path d="M62,175 L73,177 L73,152 L62,175"></path><path d="M33,163 L42,170 L42,163 L33,163"></path><path d="M19,153 L33,163 L34,152 L19,153"></path><path d="M32,172 L32,180 L42,170 L32,172"></path><path d="M33,163 L32,172 L42,170 L33,163"></path><path d="M44,121 L34,152 L51,146 L44,121"></path><path d="M32,180 L34,193 L42,170 L32,180"></path><path d="M34,152 L33,163 L42,163 L34,152"></path><path d="M34,152 L42,163 L51,146 L34,152"></path><path d="M51,146 L42,163 L54,160 L51,146"></path><path d="M42,163 L42,170 L54,160 L42,163"></path><path d="M54,160 L62,175 L73,152 L54,160"></path><path d="M42,170 L34,193 L62,175 L42,170"></path><path d="M105,207 L101,213 L107,213 L105,207"></path><path d="M44,121 L51,146 L66,137 L44,121"></path><path d="M62,86 L44,121 L66,137 L62,86"></path><path d="M122,129 L116,130 L123,139 L122,129"></path><path d="M34,193 L40,217 L72,202 L34,193"></path><path d="M62,175 L34,193 L72,202 L62,175"></path><path d="M62,175 L72,202 L73,177 L62,175"></path><path d="M51,146 L54,160 L73,152 L51,146"></path><path d="M66,137 L51,146 L73,152 L66,137"></path><path d="M40,217 L51,238 L75,217 L40,217"></path><path d="M72,202 L40,217 L75,217 L72,202"></path><path d="M62,86 L66,137 L78,138 L62,86"></path><path d="M66,137 L73,152 L78,138 L66,137"></path><path d="M90,236 L81,262 L100,262 L90,236"></path><path d="M51,238 L62,253 L81,229 L51,238"></path><path d="M75,217 L51,238 L81,229 L75,217"></path><path d="M87,142 L86,150 L100,147 L87,142"></path><path d="M78,138 L86,150 L87,142 L78,138"></path><path d="M78,138 L73,152 L86,150 L78,138"></path><path d="M73,152 L73,177 L86,150 L73,152"></path><path d="M101,213 L101,216 L107,213 L101,213"></path><path d="M73,60 L62,86 L102,76 L73,60"></path><path d="M62,253 L81,262 L90,236 L62,253"></path><path d="M81,229 L62,253 L90,236 L81,229"></path><path d="M101,233 L113,253 L120,241 L101,233"></path><path d="M87,142 L100,147 L100,142 L87,142"></path><path d="M90,236 L100,262 L101,233 L90,236"></path><path d="M105,72 L110,76 L112,72 L105,72"></path><path d="M112,131 L113,145 L116,130 L112,131"></path><path d="M99,26 L105,72 L112,72 L99,26"></path><path d="M116,110 L112,131 L117,114 L116,110"></path><path d="M116,130 L113,145 L123,139 L116,130"></path><path d="M104,226 L120,241 L122,227 L104,226"></path><path d="M99,210 L101,213 L105,207 L99,210"></path><path d="M101,216 L104,226 L107,213 L101,216"></path><path d="M99,210 L98,213 L101,213 L99,210"></path><path d="M101,216 L98,218 L104,226 L101,216"></path><path d="M100,147 L86,150 L104,152 L100,147"></path><path d="M112,131 L116,130 L117,114 L112,131"></path><path d="M99,26 L112,72 L119,12 L99,26"></path><path d="M104,226 L101,233 L120,241 L104,226"></path><path d="M105,72 L102,76 L105,76 L105,72"></path><path d="M105,72 L105,76 L110,76 L105,72"></path><path d="M73,60 L102,76 L105,72 L73,60"></path><path d="M99,26 L73,60 L105,72 L99,26"></path><path d="M87,142 L100,142 L112,131 L87,142"></path><path d="M113,209 L107,213 L117,217 L113,209"></path><path d="M100,142 L100,147 L109,150 L100,142"></path><path d="M100,147 L104,152 L109,150 L100,147"></path><path d="M78,138 L112,131 L116,110 L78,138"></path><path d="M107,213 L104,226 L117,217 L107,213"></path><path d="M113,145 L109,150 L123,139 L113,145"></path><path d="M78,138 L87,142 L112,131 L78,138"></path><path d="M122,129 L123,139 L136,131 L122,129"></path><path d="M101,233 L100,262 L113,253 L101,233"></path><path d="M105,207 L107,213 L113,209 L105,207"></path><path d="M100,142 L109,150 L113,145 L100,142"></path><path d="M112,131 L100,142 L113,145 L112,131"></path><path d="M121,108 L122,129 L136,131 L121,108"></path><path d="M129,367 L134,369 L137,356 L129,367"></path><path d="M62,86 L78,138 L116,110 L62,86"></path><path d="M102,76 L62,86 L116,110 L102,76"></path><path d="M110,76 L105,76 L116,110 L110,76"></path><path d="M105,76 L102,76 L116,110 L105,76"></path><path d="M110,76 L116,110 L121,108 L110,76"></path><path d="M112,72 L110,76 L121,108 L112,72"></path><path d="M117,217 L104,226 L122,227 L117,217"></path><path d="M126,374 L129,378 L134,369 L126,374"></path><path d="M116,110 L117,114 L121,108 L116,110"></path><path d="M129,367 L126,374 L134,369 L129,367"></path><path d="M117,114 L116,130 L122,129 L117,114"></path><path d="M121,108 L117,114 L122,129 L121,108"></path><path d="M136,131 L123,139 L137,139 L136,131"></path><path d="M144,374 L139,381 L146,379 L144,374"></path><path d="M137,356 L134,369 L139,372 L137,356"></path><path d="M177,359 L146,379 L181,380 L177,359"></path><path d="M168,11 L160,49 L171,46 L168,11"></path><path d="M129,378 L134,380 L139,372 L129,378"></path><path d="M134,369 L129,378 L139,372 L134,369"></path><path d="M271,369 L264,377 L273,374 L271,369"></path><path d="M155,133 L152,135 L156,146 L155,133"></path><path d="M136,131 L137,139 L152,135 L136,131"></path><path d="M139,372 L139,381 L144,374 L139,372"></path><path d="M137,356 L139,372 L144,374 L137,356"></path><path d="M216,217 L196,217 L222,266 L216,217"></path><path d="M168,11 L171,46 L178,38 L168,11"></path><path d="M152,135 L155,133 L155,121 L152,135"></path><path d="M136,131 L152,135 L155,121 L136,131"></path><path d="M121,108 L155,121 L161,86 L121,108"></path><path d="M155,62 L112,72 L159,75 L155,62"></path><path d="M184,368 L181,380 L186,376 L184,368"></path><path d="M121,108 L136,131 L155,121 L121,108"></path><path d="M154,150 L160,159 L161,156 L154,150"></path><path d="M160,49 L155,62 L163,63 L160,49"></path><path d="M160,49 L163,63 L168,54 L160,49"></path><path d="M156,146 L154,150 L161,156 L156,146"></path><path d="M163,63 L159,75 L168,66 L163,63"></path><path d="M112,72 L155,62 L160,49 L112,72"></path><path d="M159,75 L112,72 L161,86 L159,75"></path><path d="M119,12 L112,72 L160,49 L119,12"></path><path d="M183,151 L161,156 L184,154 L183,151"></path><path d="M112,72 L121,108 L161,86 L112,72"></path><path d="M191,170 L226,182 L226,168 L191,170"></path><path d="M177,359 L181,380 L184,368 L177,359"></path><path d="M172,71 L165,79 L210,139 L172,71"></path><path d="M155,62 L159,75 L163,63 L155,62"></path><path d="M119,12 L160,49 L168,11 L119,12"></path><path d="M171,46 L168,54 L178,55 L171,46"></path><path d="M159,75 L161,86 L165,79 L159,75"></path><path d="M160,49 L168,54 L171,46 L160,49"></path><path d="M163,63 L168,66 L173,59 L163,63"></path><path d="M178,38 L178,55 L197,34 L178,38"></path><path d="M159,75 L165,79 L172,71 L159,75"></path><path d="M168,66 L159,75 L172,71 L168,66"></path><path d="M168,54 L163,63 L173,59 L168,54"></path><path d="M178,38 L171,46 L178,55 L178,38"></path><path d="M173,59 L168,66 L176,62 L173,59"></path><path d="M168,66 L172,71 L176,62 L168,66"></path><path d="M144,374 L146,379 L177,359 L144,374"></path><path d="M137,356 L144,374 L177,359 L137,356"></path><path d="M148,339 L137,356 L177,359 L148,339"></path><path d="M173,59 L176,62 L178,55 L173,59"></path><path d="M168,54 L173,59 L178,55 L168,54"></path><path d="M149,321 L148,339 L178,349 L149,321"></path><path d="M148,339 L177,359 L178,349 L148,339"></path><path d="M152,302 L149,321 L189,322 L152,302"></path><path d="M155,133 L156,146 L183,151 L155,133"></path><path d="M156,146 L161,156 L183,151 L156,146"></path><path d="M168,11 L197,34 L218,7 L168,11"></path><path d="M155,121 L155,133 L183,151 L155,121"></path><path d="M168,11 L178,38 L197,34 L168,11"></path><path d="M149,321 L178,349 L189,322 L149,321"></path><path d="M152,302 L189,322 L204,292 L152,302"></path><path d="M161,156 L160,159 L184,154 L161,156"></path><path d="M178,349 L177,359 L184,368 L178,349"></path><path d="M162,277 L152,302 L204,292 L162,277"></path><path d="M183,151 L184,154 L193,150 L183,151"></path><path d="M178,55 L176,62 L197,34 L178,55"></path><path d="M155,121 L183,151 L193,147 L155,121"></path><path d="M183,151 L193,150 L193,147 L183,151"></path><path d="M252,117 L231,126 L257,131 L252,117"></path><path d="M210,139 L193,150 L226,168 L210,139"></path><path d="M186,196 L176,228 L196,217 L186,196"></path><path d="M155,121 L193,147 L210,139 L155,121"></path><path d="M165,79 L161,86 L210,139 L165,79"></path><path d="M231,126 L240,147 L257,131 L231,126"></path><path d="M193,150 L191,170 L226,168 L193,150"></path><path d="M193,147 L193,150 L210,139 L193,147"></path><path d="M161,86 L155,121 L210,139 L161,86"></path><path d="M226,168 L236,193 L240,147 L226,168"></path><path d="M264,377 L267,383 L273,374 L264,377"></path><path d="M186,196 L196,217 L216,217 L186,196"></path><path d="M196,217 L176,228 L222,266 L196,217"></path><path d="M162,277 L204,292 L222,266 L162,277"></path><path d="M176,228 L162,277 L222,266 L176,228"></path><path d="M172,71 L210,139 L231,126 L172,71"></path><path d="M186,196 L216,217 L226,182 L186,196"></path><path d="M191,170 L186,196 L226,182 L191,170"></path><path d="M226,168 L226,182 L236,193 L226,168"></path><path d="M176,62 L172,71 L231,126 L176,62"></path><path d="M279,92 L269,105 L281,106 L279,92"></path><path d="M231,126 L210,139 L240,147 L231,126"></path><path d="M210,139 L226,168 L240,147 L210,139"></path><path d="M216,217 L222,266 L232,222 L216,217"></path><path d="M226,182 L216,217 L236,193 L226,182"></path><path d="M216,217 L232,222 L236,193 L216,217"></path><path d="M269,105 L277,118 L281,106 L269,105"></path><path d="M232,222 L222,266 L246,238 L232,222"></path><path d="M236,193 L232,222 L246,238 L236,193"></path><path d="M279,374 L273,374 L281,385 L279,374"></path><path d="M176,62 L231,126 L252,117 L176,62"></path><path d="M197,34 L176,62 L252,117 L197,34"></path><path d="M269,304 L282,336 L313,298 L269,304"></path><path d="M197,34 L252,117 L269,105 L197,34"></path><path d="M271,369 L279,374 L285,352 L271,369"></path><path d="M269,9 L289,51 L291,28 L269,9"></path><path d="M218,7 L197,34 L269,9 L218,7"></path><path d="M240,0 L218,7 L269,9 L240,0"></path><path d="M252,0 L240,0 L269,9 L252,0"></path><path d="M271,369 L273,374 L279,374 L271,369"></path><path d="M291,28 L289,51 L306,19 L291,28"></path><path d="M269,105 L252,117 L277,118 L269,105"></path><path d="M347,29 L322,143 L367,28 L347,29"></path><path d="M252,117 L257,131 L277,118 L252,117"></path><path d="M289,51 L287,67 L293,72 L289,51"></path><path d="M273,374 L267,383 L281,385 L273,374"></path><path d="M197,34 L269,105 L279,92 L197,34"></path><path d="M287,67 L279,92 L293,72 L287,67"></path><path d="M269,9 L197,34 L289,51 L269,9"></path><path d="M269,9 L291,28 L306,19 L269,9"></path><path d="M236,193 L308,225 L313,214 L236,193"></path><path d="M279,92 L281,106 L293,72 L279,92"></path><path d="M197,34 L287,67 L289,51 L197,34"></path><path d="M197,34 L279,92 L287,67 L197,34"></path><path d="M279,374 L281,385 L292,385 L279,374"></path><path d="M285,352 L279,374 L292,385 L285,352"></path><path d="M246,238 L308,257 L308,225 L246,238"></path><path d="M236,193 L246,238 L308,225 L236,193"></path><path d="M281,106 L277,118 L322,143 L281,106"></path><path d="M338,212 L324,220 L338,225 L338,212"></path><path d="M246,238 L260,274 L308,257 L246,238"></path><path d="M308,257 L260,274 L313,298 L308,257"></path><path d="M260,274 L269,304 L313,298 L260,274"></path><path d="M313,385 L328,382 L329,370 L313,385"></path><path d="M292,385 L313,385 L321,363 L292,385"></path><path d="M318,352 L285,352 L321,363 L318,352"></path><path d="M285,352 L292,385 L321,363 L285,352"></path><path d="M293,72 L322,143 L347,29 L293,72"></path><path d="M293,72 L281,106 L322,143 L293,72"></path><path d="M318,342 L285,347 L318,352 L318,342"></path><path d="M285,347 L285,352 L318,352 L285,347"></path><path d="M282,336 L285,347 L318,342 L282,336"></path><path d="M313,298 L282,336 L319,324 L313,298"></path><path d="M282,336 L318,342 L319,324 L282,336"></path><path d="M257,131 L321,166 L322,143 L257,131"></path><path d="M277,118 L257,131 L322,143 L277,118"></path><path d="M257,131 L240,147 L321,166 L257,131"></path><path d="M240,147 L236,193 L321,166 L240,147"></path><path d="M236,193 L313,214 L321,166 L236,193"></path><path d="M321,166 L313,214 L322,211 L321,166"></path><path d="M321,363 L313,385 L329,370 L321,363"></path><path d="M322,211 L313,214 L324,220 L322,211"></path><path d="M321,166 L322,211 L338,212 L321,166"></path><path d="M322,211 L324,220 L338,212 L322,211"></path><path d="M338,212 L338,225 L352,217 L338,212"></path><path d="M306,19 L289,51 L347,29 L306,19"></path><path d="M289,51 L293,72 L347,29 L289,51"></path><path d="M322,143 L321,166 L352,217 L322,143"></path><path d="M321,166 L338,212 L352,217 L321,166"></path><path d="M352,217 L338,225 L370,230 L352,217"></path><path d="M408,370 L407,377 L418,379 L408,370"></path><path d="M367,28 L322,143 L397,23 L367,28"></path><path d="M352,217 L370,230 L396,235 L352,217"></path><path d="M322,143 L352,217 L396,235 L322,143"></path><path d="M402,374 L407,377 L408,370 L402,374"></path><path d="M418,260 L435,266 L439,237 L418,260"></path><path d="M402,369 L402,374 L408,370 L402,369"></path><path d="M405,366 L402,369 L408,370 L405,366"></path><path d="M420,348 L468,367 L469,361 L420,348"></path><path d="M418,236 L418,260 L439,237 L418,236"></path><path d="M420,348 L469,361 L470,343 L420,348"></path><path d="M427,333 L420,348 L470,343 L427,333"></path><path d="M418,236 L406,246 L418,260 L418,236"></path><path d="M408,370 L418,379 L420,348 L408,370"></path><path d="M396,235 L406,246 L418,236 L396,235"></path><path d="M322,143 L396,235 L418,236 L322,143"></path><path d="M405,366 L408,370 L420,348 L405,366"></path><path d="M417,24 L397,23 L442,34 L417,24"></path><path d="M418,260 L427,277 L435,266 L418,260"></path><path d="M397,23 L322,143 L442,34 L397,23"></path><path d="M537,307 L507,313 L544,321 L537,307"></path><path d="M465,377 L468,373 L468,367 L465,377"></path><path d="M452,264 L464,275 L466,258 L452,264"></path><path d="M435,266 L427,277 L452,264 L435,266"></path><path d="M435,266 L452,264 L452,244 L435,266"></path><path d="M439,237 L435,266 L452,244 L439,237"></path><path d="M466,323 L427,333 L470,343 L466,323"></path><path d="M464,294 L428,308 L466,323 L464,294"></path><path d="M452,264 L427,277 L464,275 L452,264"></path><path d="M442,34 L322,143 L467,53 L442,34"></path><path d="M464,275 L427,277 L464,294 L464,275"></path><path d="M427,277 L428,308 L464,294 L427,277"></path><path d="M420,348 L418,379 L465,377 L420,348"></path><path d="M525,259 L491,281 L530,283 L525,259"></path><path d="M428,308 L427,333 L466,323 L428,308"></path><path d="M452,244 L452,264 L466,258 L452,244"></path><path d="M491,281 L502,300 L530,283 L491,281"></path><path d="M452,244 L525,241 L526,197 L452,244"></path><path d="M528,369 L519,376 L532,377 L528,369"></path><path d="M420,348 L465,377 L468,367 L420,348"></path><path d="M467,53 L322,143 L489,80 L467,53"></path><path d="M322,143 L418,236 L489,80 L322,143"></path><path d="M518,358 L521,370 L528,369 L518,358"></path><path d="M418,236 L439,237 L509,111 L418,236"></path><path d="M489,80 L418,236 L509,111 L489,80"></path><path d="M466,258 L480,268 L525,241 L466,258"></path><path d="M516,370 L519,376 L521,370 L516,370"></path><path d="M518,358 L516,370 L521,370 L518,358"></path><path d="M523,164 L439,237 L526,197 L523,164"></path><path d="M520,131 L509,111 L523,164 L520,131"></path><path d="M509,111 L439,237 L523,164 L509,111"></path><path d="M439,237 L452,244 L526,197 L439,237"></path><path d="M452,244 L466,258 L525,241 L452,244"></path><path d="M525,241 L480,268 L525,259 L525,241"></path><path d="M521,370 L519,376 L528,369 L521,370"></path><path d="M525,241 L532,259 L532,240 L525,241"></path><path d="M526,197 L525,241 L532,240 L526,197"></path><path d="M480,268 L491,281 L525,259 L480,268"></path><path d="M556,347 L544,367 L559,358 L556,347"></path><path d="M541,280 L535,283 L541,289 L541,280"></path><path d="M532,259 L534,267 L538,259 L532,259"></path><path d="M502,300 L507,313 L532,294 L502,300"></path><path d="M530,283 L502,300 L532,294 L530,283"></path><path d="M532,377 L537,376 L538,369 L532,377"></path><path d="M528,369 L532,377 L538,369 L528,369"></path><path d="M535,283 L536,293 L541,289 L535,283"></path><path d="M518,358 L528,369 L538,369 L518,358"></path><path d="M507,313 L513,338 L544,321 L507,313"></path><path d="M532,294 L507,313 L537,307 L532,294"></path><path d="M518,348 L518,358 L538,369 L518,348"></path><path d="M544,367 L553,370 L559,358 L544,367"></path><path d="M532,240 L532,259 L538,259 L532,240"></path><path d="M544,367 L548,373 L553,370 L544,367"></path><path d="M538,259 L534,267 L541,271 L538,259"></path><path d="M534,267 L535,283 L541,271 L534,267"></path><path d="M541,271 L535,283 L541,280 L541,271"></path><path d="M544,304 L537,307 L543,315 L544,304"></path><path d="M538,369 L537,376 L548,373 L538,369"></path><path d="M536,293 L537,307 L544,304 L536,293"></path><path d="M541,289 L536,293 L544,304 L541,289"></path><path d="M518,348 L538,369 L544,367 L518,348"></path><path d="M544,367 L538,369 L548,373 L544,367"></path><path d="M518,348 L544,367 L546,335 L518,348"></path><path d="M544,321 L513,338 L546,335 L544,321"></path><path d="M513,338 L518,348 L546,335 L513,338"></path><path d="M546,335 L544,367 L556,347 L546,335"></path><path d="M544,304 L543,315 L547,317 L544,304"></path><path d="M154,150 L152,135 L156,146 L154,150"></path></g></svg>
