<?xml version="1.0" encoding="UTF-8" standalone="no"?>
<svg width="653px" height="428px" viewBox="0 0 653 428" version="1.1" xmlns="http://www.w3.org/2000/svg" xmlns:xlink="http://www.w3.org/1999/xlink" xmlns:sketch="http://www.bohemiancoding.com/sketch/ns">
    <!-- Generator: Sketch 3.0.4 (8053) - http://www.bohemiancoding.com/sketch -->
    <title>outline-elephant</title>
    <desc>Created with Sketch.</desc>
    <defs></defs>
    <g id="Page-1" stroke="none" stroke-width="1" fill="none" fill-rule="evenodd" sketch:type="MSPage">
        <g id="outline-elephant" sketch:type="MSArtboardGroup" stroke="#080808">
            <g id="elephant" sketch:type="MSLayerGroup" transform="translate(47.000000, 21.000000)">
                <path d="M-0.0630487034,154.914076 L-0.0630487034,157.824399 L10.4113599,160.734545 L-0.0630487034,154.914076" id="Fill-1" sketch:type="MSShapeGroup"></path>
                <path d="M19.1400633,164.226968 L10.4113599,168.883414 L19.1400633,171.79356 L19.1400633,164.226968" id="Fill-2" sketch:type="MSShapeGroup"></path>
                <path d="M139.595674,372.601247 L134.358558,380.749939 L139.595674,381.332039 L139.595674,372.601247" id="Fill-3" sketch:type="MSShapeGroup"></path>
                <path d="M2.26444023,163.644868 L2.26444023,165.973268 L10.4113599,164.226968 L2.26444023,163.644868" id="Fill-4" sketch:type="MSShapeGroup"></path>
                <path d="M-0.0630487034,154.914076 L10.4113599,160.734545 L19.1400633,153.750053 L-0.0630487034,154.914076" id="Fill-5" sketch:type="MSShapeGroup"></path>
                <path d="M19.1400633,153.750053 L10.4113599,160.734545 L19.1400633,164.226968 L19.1400633,153.750053" id="Fill-6" sketch:type="MSShapeGroup"></path>
                <path d="M10.4113599,164.226968 L2.26444023,165.973268 L10.4113599,168.883414 L10.4113599,164.226968" id="Fill-7" sketch:type="MSShapeGroup"></path>
                <path d="M54.0546996,160.734545 L42.4165465,170.047437 L62.7834029,175.867906 L54.0546996,160.734545" id="Fill-8" sketch:type="MSShapeGroup"></path>
                <path d="M10.4113599,164.226968 L10.4113599,168.883414 L19.1400633,164.226968 L10.4113599,164.226968" id="Fill-9" sketch:type="MSShapeGroup"></path>
                <path d="M19.1400633,164.226968 L32.5239216,172.95776 L33.6878431,163.644868 L19.1400633,164.226968" id="Fill-10" sketch:type="MSShapeGroup"></path>
                <path d="M19.1400633,153.750053 L19.1400633,164.226968 L33.6878431,163.644868 L19.1400633,153.750053" id="Fill-11" sketch:type="MSShapeGroup"></path>
                <path d="M19.1400633,164.226968 L19.1400633,171.79356 L32.5239216,172.95776 L19.1400633,164.226968" id="Fill-12" sketch:type="MSShapeGroup"></path>
                <path d="M62.7834029,175.867906 L73.8397723,177.032106 L73.8397723,152.00393 L62.7834029,175.867906" id="Fill-13" sketch:type="MSShapeGroup"></path>
                <path d="M33.6878431,163.644868 L42.4165465,170.047437 L42.9983302,163.062945 L33.6878431,163.644868" id="Fill-14" sketch:type="MSShapeGroup"></path>
                <path d="M19.1400633,153.750053 L33.6878431,163.644868 L34.2696268,152.00393 L19.1400633,153.750053" id="Fill-15" sketch:type="MSShapeGroup"></path>
                <path d="M32.5239216,172.95776 L32.5239216,180.524352 L42.4165465,170.047437 L32.5239216,172.95776" id="Fill-16" sketch:type="MSShapeGroup"></path>
                <path d="M33.6878431,163.644868 L32.5239216,172.95776 L42.4165465,170.047437 L33.6878431,163.644868" id="Fill-17" sketch:type="MSShapeGroup"></path>
                <path d="M44.1622517,121.737385 L34.2696268,152.00393 L51.7270335,146.765561 L44.1622517,121.737385" id="Fill-18" sketch:type="MSShapeGroup"></path>
                <path d="M32.5239216,180.524352 L34.2696268,193.329491 L42.4165465,170.047437 L32.5239216,180.524352" id="Fill-19" sketch:type="MSShapeGroup"></path>
                <path d="M34.2696268,152.00393 L33.6878431,163.644868 L42.9983302,163.062945 L34.2696268,152.00393" id="Fill-20" sketch:type="MSShapeGroup"></path>
                <path d="M34.2696268,152.00393 L42.9983302,163.062945 L51.7270335,146.765561 L34.2696268,152.00393" id="Fill-21" sketch:type="MSShapeGroup"></path>
                <path d="M51.7270335,146.765561 L42.9983302,163.062945 L54.0546996,160.734545 L51.7270335,146.765561" id="Fill-22" sketch:type="MSShapeGroup"></path>
                <path d="M42.9983302,163.062945 L42.4165465,170.047437 L54.0546996,160.734545 L42.9983302,163.062945" id="Fill-23" sketch:type="MSShapeGroup"></path>
                <path d="M54.0546996,160.734545 L62.7834029,175.867906 L73.8397723,152.00393 L54.0546996,160.734545" id="Fill-24" sketch:type="MSShapeGroup"></path>
                <path d="M42.4165465,170.047437 L34.2696268,193.329491 L62.7834029,175.867906 L42.4165465,170.047437" id="Fill-25" sketch:type="MSShapeGroup"></path>
                <path d="M105.262821,207.298829 L101.77141,213.119298 L107.008703,213.701398 L105.262821,207.298829" id="Fill-26" sketch:type="MSShapeGroup"></path>
                <path d="M44.1622517,121.737385 L51.7270335,146.765561 L66.8567742,137.452669 L44.1622517,121.737385" id="Fill-27" sketch:type="MSShapeGroup"></path>
                <path d="M62.2014421,86.8142166 L44.1622517,121.737385 L66.8567742,137.452669 L62.2014421,86.8142166" id="Fill-28" sketch:type="MSShapeGroup"></path>
                <path d="M122.720228,129.886077 L116.319367,130.468 L123.302188,139.780892 L122.720228,129.886077" id="Fill-29" sketch:type="MSShapeGroup"></path>
                <path d="M34.2696268,193.329491 L40.0888805,217.775744 L72.094067,202.642383 L34.2696268,193.329491" id="Fill-30" sketch:type="MSShapeGroup"></path>
                <path d="M62.7834029,175.867906 L34.2696268,193.329491 L72.094067,202.642383 L62.7834029,175.867906" id="Fill-31" sketch:type="MSShapeGroup"></path>
                <path d="M62.7834029,175.867906 L72.094067,202.642383 L73.8397723,177.032106 L62.7834029,175.867906" id="Fill-32" sketch:type="MSShapeGroup"></path>
                <path d="M51.7270335,146.765561 L54.0546996,160.734545 L73.8397723,152.00393 L51.7270335,146.765561" id="Fill-33" sketch:type="MSShapeGroup"></path>
                <path d="M66.8567742,137.452669 L51.7270335,146.765561 L73.8397723,152.00393 L66.8567742,137.452669" id="Fill-34" sketch:type="MSShapeGroup"></path>
                <path d="M40.0888805,217.775744 L51.1450727,238.147474 L75.5853004,217.193644 L40.0888805,217.775744" id="Fill-35" sketch:type="MSShapeGroup"></path>
                <path d="M72.094067,202.642383 L40.0888805,217.775744 L75.5853004,217.193644 L72.094067,202.642383" id="Fill-36" sketch:type="MSShapeGroup"></path>
                <path d="M62.2014421,86.8142166 L66.8567742,137.452669 L78.4949273,138.034592 L62.2014421,86.8142166" id="Fill-37" sketch:type="MSShapeGroup"></path>
                <path d="M66.8567742,137.452669 L73.8397723,152.00393 L78.4949273,138.034592 L66.8567742,137.452669" id="Fill-38" sketch:type="MSShapeGroup"></path>
                <path d="M90.1332574,236.401351 L81.9863378,262.011627 L100.025705,262.011627 L90.1332574,236.401351" id="Fill-39" sketch:type="MSShapeGroup"></path>
                <path d="M51.1450727,238.147474 L62.7834029,253.862758 L81.4045541,229.998782 L51.1450727,238.147474" id="Fill-40" sketch:type="MSShapeGroup"></path>
                <path d="M75.5853004,217.193644 L51.1450727,238.147474 L81.4045541,229.998782 L75.5853004,217.193644" id="Fill-41" sketch:type="MSShapeGroup"></path>
                <path d="M87.8055914,142.109115 L86.0598861,150.25763 L100.025705,147.929584 L87.8055914,142.109115" id="Fill-42" sketch:type="MSShapeGroup"></path>
                <path d="M78.4949273,138.034592 L86.0598861,150.25763 L87.8055914,142.109115 L78.4949273,138.034592" id="Fill-43" sketch:type="MSShapeGroup"></path>
                <path d="M78.4949273,138.034592 L73.8397723,152.00393 L86.0598861,150.25763 L78.4949273,138.034592" id="Fill-44" sketch:type="MSShapeGroup"></path>
                <path d="M73.8397723,152.00393 L73.8397723,177.032106 L86.0598861,150.25763 L73.8397723,152.00393" id="Fill-45" sketch:type="MSShapeGroup"></path>
                <path d="M101.77141,213.119298 L101.77141,216.611544 L107.008703,213.701398 L101.77141,213.119298" id="Fill-46" sketch:type="MSShapeGroup"></path>
                <path d="M73.8397723,60.6220174 L62.2014421,86.8142166 L102.353371,76.3373015 L73.8397723,60.6220174" id="Fill-47" sketch:type="MSShapeGroup"></path>
                <path d="M62.7834029,253.862758 L81.9863378,262.011627 L90.1332574,236.401351 L62.7834029,253.862758" id="Fill-48" sketch:type="MSShapeGroup"></path>
                <path d="M81.4045541,229.998782 L62.7834029,253.862758 L90.1332574,236.401351 L81.4045541,229.998782" id="Fill-49" sketch:type="MSShapeGroup"></path>
                <path d="M101.18945,233.491028 L113.409741,253.862758 L120.974522,241.05762 L101.18945,233.491028" id="Fill-50" sketch:type="MSShapeGroup"></path>
                <path d="M87.8055914,142.109115 L100.025705,147.929584 L100.607666,142.109115 L87.8055914,142.109115" id="Fill-51" sketch:type="MSShapeGroup"></path>
                <path d="M90.1332574,236.401351 L100.025705,262.011627 L101.18945,233.491028 L90.1332574,236.401351" id="Fill-52" sketch:type="MSShapeGroup"></path>
                <path d="M105.844782,72.8450555 L110.500114,76.3373015 L112.82778,72.2629555 L105.844782,72.8450555" id="Fill-53" sketch:type="MSShapeGroup"></path>
                <path d="M112.82778,131.0501 L113.991524,145.019261 L116.319367,130.468 L112.82778,131.0501" id="Fill-54" sketch:type="MSShapeGroup"></path>
                <path d="M99.4437445,26.8630491 L105.844782,72.8450555 L112.82778,72.2629555 L99.4437445,26.8630491" id="Fill-55" sketch:type="MSShapeGroup"></path>
                <path d="M116.319367,110.67837 L112.82778,131.0501 L117.483112,114.752716 L116.319367,110.67837" id="Fill-56" sketch:type="MSShapeGroup"></path>
                <path d="M116.319367,130.468 L113.991524,145.019261 L123.302188,139.780892 L116.319367,130.468" id="Fill-57" sketch:type="MSShapeGroup"></path>
                <path d="M104.099077,226.506359 L120.974522,241.05762 L122.720228,227.670559 L104.099077,226.506359" id="Fill-58" sketch:type="MSShapeGroup"></path>
                <path d="M99.4437445,210.208975 L101.77141,213.119298 L105.262821,207.298829 L99.4437445,210.208975" id="Fill-59" sketch:type="MSShapeGroup"></path>
                <path d="M101.77141,216.611544 L104.099077,226.506359 L107.008703,213.701398 L101.77141,216.611544" id="Fill-60" sketch:type="MSShapeGroup"></path>
                <path d="M99.4437445,210.208975 L98.28,213.119298 L101.77141,213.119298 L99.4437445,210.208975" id="Fill-61" sketch:type="MSShapeGroup"></path>
                <path d="M101.77141,216.611544 L98.8619608,218.939767 L104.099077,226.506359 L101.77141,216.611544" id="Fill-62" sketch:type="MSShapeGroup"></path>
                <path d="M100.025705,147.929584 L86.0598861,150.25763 L104.099077,152.00393 L100.025705,147.929584" id="Fill-63" sketch:type="MSShapeGroup"></path>
                <path d="M112.82778,131.0501 L116.319367,130.468 L117.483112,114.752716 L112.82778,131.0501" id="Fill-64" sketch:type="MSShapeGroup"></path>
                <path d="M99.4437445,26.8630491 L112.82778,72.2629555 L119.810778,12.8937109 L99.4437445,26.8630491" id="Fill-65" sketch:type="MSShapeGroup"></path>
                <path d="M104.099077,226.506359 L101.18945,233.491028 L120.974522,241.05762 L104.099077,226.506359" id="Fill-66" sketch:type="MSShapeGroup"></path>
                <path d="M105.844782,72.8450555 L102.353371,76.3373015 L105.844782,76.9192244 L105.844782,72.8450555" id="Fill-67" sketch:type="MSShapeGroup"></path>
                <path d="M105.844782,72.8450555 L105.844782,76.9192244 L110.500114,76.3373015 L105.844782,72.8450555" id="Fill-68" sketch:type="MSShapeGroup"></path>
                <path d="M73.8397723,60.6220174 L102.353371,76.3373015 L105.844782,72.8450555 L73.8397723,60.6220174" id="Fill-69" sketch:type="MSShapeGroup"></path>
                <path d="M99.4437445,26.8630491 L73.8397723,60.6220174 L105.844782,72.8450555 L99.4437445,26.8630491" id="Fill-70" sketch:type="MSShapeGroup"></path>
                <path d="M87.8055914,142.109115 L100.607666,142.109115 L112.82778,131.0501 L87.8055914,142.109115" id="Fill-71" sketch:type="MSShapeGroup"></path>
                <path d="M113.991524,209.626875 L107.008703,213.701398 L117.483112,217.775744 L113.991524,209.626875" id="Fill-72" sketch:type="MSShapeGroup"></path>
                <path d="M100.607666,142.109115 L100.025705,147.929584 L109.91833,150.25763 L100.607666,142.109115" id="Fill-73" sketch:type="MSShapeGroup"></path>
                <path d="M100.025705,147.929584 L104.099077,152.00393 L109.91833,150.25763 L100.025705,147.929584" id="Fill-74" sketch:type="MSShapeGroup"></path>
                <path d="M78.4949273,138.034592 L112.82778,131.0501 L116.319367,110.67837 L78.4949273,138.034592" id="Fill-75" sketch:type="MSShapeGroup"></path>
                <path d="M107.008703,213.701398 L104.099077,226.506359 L117.483112,217.775744 L107.008703,213.701398" id="Fill-76" sketch:type="MSShapeGroup"></path>
                <path d="M113.991524,145.019261 L109.91833,150.25763 L123.302188,139.780892 L113.991524,145.019261" id="Fill-77" sketch:type="MSShapeGroup"></path>
                <path d="M78.4949273,138.034592 L87.8055914,142.109115 L112.82778,131.0501 L78.4949273,138.034592" id="Fill-78" sketch:type="MSShapeGroup"></path>
                <path d="M122.720228,129.886077 L123.302188,139.780892 L136.686047,131.0501 L122.720228,129.886077" id="Fill-79" sketch:type="MSShapeGroup"></path>
                <path d="M101.18945,233.491028 L100.025705,262.011627 L113.409741,253.862758 L101.18945,233.491028" id="Fill-80" sketch:type="MSShapeGroup"></path>
                <path d="M105.262821,207.298829 L107.008703,213.701398 L113.991524,209.626875 L105.262821,207.298829" id="Fill-81" sketch:type="MSShapeGroup"></path>
                <path d="M100.607666,142.109115 L109.91833,150.25763 L113.991524,145.019261 L100.607666,142.109115" id="Fill-82" sketch:type="MSShapeGroup"></path>
                <path d="M112.82778,131.0501 L100.607666,142.109115 L113.991524,145.019261 L112.82778,131.0501" id="Fill-83" sketch:type="MSShapeGroup"></path>
                <path d="M121.556483,108.350147 L122.720228,129.886077 L136.686047,131.0501 L121.556483,108.350147" id="Fill-84" sketch:type="MSShapeGroup"></path>
                <path d="M129.121265,367.362701 L134.358558,369.109001 L137.849968,356.885786 L129.121265,367.362701" id="Fill-85" sketch:type="MSShapeGroup"></path>
                <path d="M62.2014421,86.8142166 L78.4949273,138.034592 L116.319367,110.67837 L62.2014421,86.8142166" id="Fill-86" sketch:type="MSShapeGroup"></path>
                <path d="M102.353371,76.3373015 L62.2014421,86.8142166 L116.319367,110.67837 L102.353371,76.3373015" id="Fill-87" sketch:type="MSShapeGroup"></path>
                <path d="M110.500114,76.3373015 L105.844782,76.9192244 L116.319367,110.67837 L110.500114,76.3373015" id="Fill-88" sketch:type="MSShapeGroup"></path>
                <path d="M105.844782,76.9192244 L102.353371,76.3373015 L116.319367,110.67837 L105.844782,76.9192244" id="Fill-89" sketch:type="MSShapeGroup"></path>
                <path d="M110.500114,76.3373015 L116.319367,110.67837 L121.556483,108.350147 L110.500114,76.3373015" id="Fill-90" sketch:type="MSShapeGroup"></path>
                <path d="M112.82778,72.2629555 L110.500114,76.3373015 L121.556483,108.350147 L112.82778,72.2629555" id="Fill-91" sketch:type="MSShapeGroup"></path>
                <path d="M117.483112,217.775744 L104.099077,226.506359 L122.720228,227.670559 L117.483112,217.775744" id="Fill-92" sketch:type="MSShapeGroup"></path>
                <path d="M126.211638,374.34737 L129.703226,378.421716 L134.358558,369.109001 L126.211638,374.34737" id="Fill-93" sketch:type="MSShapeGroup"></path>
                <path d="M116.319367,110.67837 L117.483112,114.752716 L121.556483,108.350147 L116.319367,110.67837" id="Fill-94" sketch:type="MSShapeGroup"></path>
                <path d="M129.121265,367.362701 L126.211638,374.34737 L134.358558,369.109001 L129.121265,367.362701" id="Fill-95" sketch:type="MSShapeGroup"></path>
                <path d="M117.483112,114.752716 L116.319367,130.468 L122.720228,129.886077 L117.483112,114.752716" id="Fill-96" sketch:type="MSShapeGroup"></path>
                <path d="M121.556483,108.350147 L117.483112,114.752716 L122.720228,129.886077 L121.556483,108.350147" id="Fill-97" sketch:type="MSShapeGroup"></path>
                <path d="M136.686047,131.0501 L123.302188,139.780892 L137.849968,139.198792 L136.686047,131.0501" id="Fill-98" sketch:type="MSShapeGroup"></path>
                <path d="M144.832966,374.34737 L139.595674,381.332039 L146.578672,379.585739 L144.832966,374.34737" id="Fill-99" sketch:type="MSShapeGroup"></path>
                <path d="M137.849968,356.885786 L134.358558,369.109001 L139.595674,372.601247 L137.849968,356.885786" id="Fill-100" sketch:type="MSShapeGroup"></path>
                <path d="M177.419937,359.214009 L146.578672,379.585739 L181.493308,380.167839 L177.419937,359.214009" id="Fill-101" sketch:type="MSShapeGroup"></path>
                <path d="M168.691233,11.7296879 L160.544491,49.5630023 L171.018899,46.6526792 L168.691233,11.7296879" id="Fill-102" sketch:type="MSShapeGroup"></path>
                <path d="M129.703226,378.421716 L134.358558,380.749939 L139.595674,372.601247 L129.703226,378.421716" id="Fill-103" sketch:type="MSShapeGroup"></path>
                <path d="M134.358558,369.109001 L129.703226,378.421716 L139.595674,372.601247 L134.358558,369.109001" id="Fill-104" sketch:type="MSShapeGroup"></path>
                <path d="M271.689614,369.690924 L264.706793,377.839793 L273.435497,374.34737 L271.689614,369.690924" id="Fill-105" sketch:type="MSShapeGroup"></path>
                <path d="M155.307375,133.960423 L152.397925,135.124446 L156.47112,146.765561 L155.307375,133.960423" id="Fill-106" sketch:type="MSShapeGroup"></path>
                <path d="M136.686047,131.0501 L137.849968,139.198792 L152.397925,135.124446 L136.686047,131.0501" id="Fill-107" sketch:type="MSShapeGroup"></path>
                <path d="M139.595674,372.601247 L139.595674,381.332039 L144.832966,374.34737 L139.595674,372.601247" id="Fill-108" sketch:type="MSShapeGroup"></path>
                <path d="M137.849968,356.885786 L139.595674,372.601247 L144.832966,374.34737 L137.849968,356.885786" id="Fill-109" sketch:type="MSShapeGroup"></path>
                <path d="M216.407944,217.775744 L196.041088,217.775744 L222.809159,266.085796 L216.407944,217.775744" id="Fill-110" sketch:type="MSShapeGroup"></path>
                <path d="M168.691233,11.7296879 L171.018899,46.6526792 L178.583858,38.5039872 L168.691233,11.7296879" id="Fill-111" sketch:type="MSShapeGroup"></path>
                <path d="M152.397925,135.124446 L155.307375,133.960423 L155.307375,121.737385 L152.397925,135.124446" id="Fill-112" sketch:type="MSShapeGroup"></path>
                <path d="M136.686047,131.0501 L152.397925,135.124446 L155.307375,121.737385 L136.686047,131.0501" id="Fill-113" sketch:type="MSShapeGroup"></path>
                <path d="M121.556483,108.350147 L155.307375,121.737385 L161.126452,86.8142166 L121.556483,108.350147" id="Fill-114" sketch:type="MSShapeGroup"></path>
                <path d="M155.307375,62.9500633 L112.82778,72.2629555 L159.380746,75.7553786 L155.307375,62.9500633" id="Fill-115" sketch:type="MSShapeGroup"></path>
                <path d="M184.984719,368.526724 L181.493308,380.167839 L186.14864,376.093493 L184.984719,368.526724" id="Fill-116" sketch:type="MSShapeGroup"></path>
                <path d="M121.556483,108.350147 L136.686047,131.0501 L155.307375,121.737385 L121.556483,108.350147" id="Fill-117" sketch:type="MSShapeGroup"></path>
                <path d="M154.434434,150.742832 L160.544491,159.764674 L161.126452,156.078276 L154.434434,150.742832" id="Fill-118" sketch:type="MSShapeGroup"></path>
                <path d="M160.544491,49.5630023 L155.307375,62.9500633 L163.454118,63.5323405 L160.544491,49.5630023" id="Fill-119" sketch:type="MSShapeGroup"></path>
                <path d="M160.544491,49.5630023 L163.454118,63.5323405 L168.10945,54.8013713 L160.544491,49.5630023" id="Fill-120" sketch:type="MSShapeGroup"></path>
                <path d="M156.47112,146.765561 L154.434434,150.742832 L161.126452,156.078276 L156.47112,146.765561" id="Fill-121" sketch:type="MSShapeGroup"></path>
                <path d="M163.454118,63.5323405 L159.380746,75.7553786 L168.691233,66.4423093 L163.454118,63.5323405" id="Fill-122" sketch:type="MSShapeGroup"></path>
                <path d="M112.82778,72.2629555 L155.307375,62.9500633 L160.544491,49.5630023 L112.82778,72.2629555" id="Fill-123" sketch:type="MSShapeGroup"></path>
                <path d="M159.380746,75.7553786 L112.82778,72.2629555 L161.126452,86.8142166 L159.380746,75.7553786" id="Fill-124" sketch:type="MSShapeGroup"></path>
                <path d="M119.810778,12.8937109 L112.82778,72.2629555 L160.544491,49.5630023 L119.810778,12.8937109" id="Fill-125" sketch:type="MSShapeGroup"></path>
                <path d="M183.239013,151.42183 L161.126452,156.078276 L184.402935,154.332153 L183.239013,151.42183" id="Fill-126" sketch:type="MSShapeGroup"></path>
                <path d="M112.82778,72.2629555 L121.556483,108.350147 L161.126452,86.8142166 L112.82778,72.2629555" id="Fill-127" sketch:type="MSShapeGroup"></path>
                <path d="M191.385756,170.047437 L226.300569,182.852575 L226.88253,168.883414 L191.385756,170.047437" id="Fill-128" sketch:type="MSShapeGroup"></path>
                <path d="M177.419937,359.214009 L181.493308,380.167839 L184.984719,368.526724 L177.419937,359.214009" id="Fill-129" sketch:type="MSShapeGroup"></path>
                <path d="M172.182821,71.0989325 L165.781607,79.8295475 L210.007084,139.198792 L172.182821,71.0989325" id="Fill-130" sketch:type="MSShapeGroup"></path>
                <path d="M155.307375,62.9500633 L159.380746,75.7553786 L163.454118,63.5323405 L155.307375,62.9500633" id="Fill-131" sketch:type="MSShapeGroup"></path>
                <path d="M119.810778,12.8937109 L160.544491,49.5630023 L168.691233,11.7296879 L119.810778,12.8937109" id="Fill-132" sketch:type="MSShapeGroup"></path>
                <path d="M171.018899,46.6526792 L168.10945,54.8013713 L178.583858,55.9655714 L171.018899,46.6526792" id="Fill-133" sketch:type="MSShapeGroup"></path>
                <path d="M159.380746,75.7553786 L161.126452,86.8142166 L165.781607,79.8295475 L159.380746,75.7553786" id="Fill-134" sketch:type="MSShapeGroup"></path>
                <path d="M160.544491,49.5630023 L168.10945,54.8013713 L171.018899,46.6526792 L160.544491,49.5630023" id="Fill-135" sketch:type="MSShapeGroup"></path>
                <path d="M163.454118,63.5323405 L168.691233,66.4423093 L173.346565,59.4578173 L163.454118,63.5323405" id="Fill-136" sketch:type="MSShapeGroup"></path>
                <path d="M178.583858,38.5039872 L178.583858,55.9655714 L197.205009,34.4296411 L178.583858,38.5039872" id="Fill-137" sketch:type="MSShapeGroup"></path>
                <path d="M159.380746,75.7553786 L165.781607,79.8295475 L172.182821,71.0989325 L159.380746,75.7553786" id="Fill-138" sketch:type="MSShapeGroup"></path>
                <path d="M168.691233,66.4423093 L159.380746,75.7553786 L172.182821,71.0989325 L168.691233,66.4423093" id="Fill-139" sketch:type="MSShapeGroup"></path>
                <path d="M168.10945,54.8013713 L163.454118,63.5323405 L173.346565,59.4578173 L168.10945,54.8013713" id="Fill-140" sketch:type="MSShapeGroup"></path>
                <path d="M178.583858,38.5039872 L171.018899,46.6526792 L178.583858,55.9655714 L178.583858,38.5039872" id="Fill-141" sketch:type="MSShapeGroup"></path>
                <path d="M173.346565,59.4578173 L168.691233,66.4423093 L176.256192,62.3681404 L173.346565,59.4578173" id="Fill-142" sketch:type="MSShapeGroup"></path>
                <path d="M168.691233,66.4423093 L172.182821,71.0989325 L176.256192,62.3681404 L168.691233,66.4423093" id="Fill-143" sketch:type="MSShapeGroup"></path>
                <path d="M144.832966,374.34737 L146.578672,379.585739 L177.419937,359.214009 L144.832966,374.34737" id="Fill-144" sketch:type="MSShapeGroup"></path>
                <path d="M137.849968,356.885786 L144.832966,374.34737 L177.419937,359.214009 L137.849968,356.885786" id="Fill-145" sketch:type="MSShapeGroup"></path>
                <path d="M148.906161,339.424202 L137.849968,356.885786 L177.419937,359.214009 L148.906161,339.424202" id="Fill-146" sketch:type="MSShapeGroup"></path>
                <path d="M173.346565,59.4578173 L176.256192,62.3681404 L178.583858,55.9655714 L173.346565,59.4578173" id="Fill-147" sketch:type="MSShapeGroup"></path>
                <path d="M168.10945,54.8013713 L173.346565,59.4578173 L178.583858,55.9655714 L168.10945,54.8013713" id="Fill-148" sketch:type="MSShapeGroup"></path>
                <path d="M149.488299,321.380872 L148.906161,339.424202 L178.001898,349.319194 L149.488299,321.380872" id="Fill-149" sketch:type="MSShapeGroup"></path>
                <path d="M148.906161,339.424202 L177.419937,359.214009 L178.001898,349.319194 L148.906161,339.424202" id="Fill-150" sketch:type="MSShapeGroup"></path>
                <path d="M152.979709,302.755088 L149.488299,321.380872 L189.058267,322.544895 L152.979709,302.755088" id="Fill-151" sketch:type="MSShapeGroup"></path>
                <path d="M155.307375,133.960423 L156.47112,146.765561 L183.239013,151.42183 L155.307375,133.960423" id="Fill-152" sketch:type="MSShapeGroup"></path>
                <path d="M156.47112,146.765561 L161.126452,156.078276 L183.239013,151.42183 L156.47112,146.765561" id="Fill-153" sketch:type="MSShapeGroup"></path>
                <path d="M168.691233,11.7296879 L197.205009,34.4296411 L218.735787,7.07324185 L168.691233,11.7296879" id="Fill-154" sketch:type="MSShapeGroup"></path>
                <path d="M155.307375,121.737385 L155.307375,133.960423 L183.239013,151.42183 L155.307375,121.737385" id="Fill-155" sketch:type="MSShapeGroup"></path>
                <path d="M168.691233,11.7296879 L178.583858,38.5039872 L197.205009,34.4296411 L168.691233,11.7296879" id="Fill-156" sketch:type="MSShapeGroup"></path>
                <path d="M149.488299,321.380872 L178.001898,349.319194 L189.058267,322.544895 L149.488299,321.380872" id="Fill-157" sketch:type="MSShapeGroup"></path>
                <path d="M152.979709,302.755088 L189.058267,322.544895 L204.188008,292.860273 L152.979709,302.755088" id="Fill-158" sketch:type="MSShapeGroup"></path>
                <path d="M161.126452,156.078276 L160.544491,159.764674 L184.402935,154.332153 L161.126452,156.078276" id="Fill-159" sketch:type="MSShapeGroup"></path>
                <path d="M178.001898,349.319194 L177.419937,359.214009 L184.984719,368.526724 L178.001898,349.319194" id="Fill-160" sketch:type="MSShapeGroup"></path>
                <path d="M162.872157,277.144811 L152.979709,302.755088 L204.188008,292.860273 L162.872157,277.144811" id="Fill-161" sketch:type="MSShapeGroup"></path>
                <path d="M183.239013,151.42183 L184.402935,154.332153 L193.131638,150.25763 L183.239013,151.42183" id="Fill-162" sketch:type="MSShapeGroup"></path>
                <path d="M178.583858,55.9655714 L176.256192,62.3681404 L197.205009,34.4296411 L178.583858,55.9655714" id="Fill-163" sketch:type="MSShapeGroup"></path>
                <path d="M155.307375,121.737385 L183.239013,151.42183 L193.713599,147.347484 L155.307375,121.737385" id="Fill-164" sketch:type="MSShapeGroup"></path>
                <path d="M183.239013,151.42183 L193.131638,150.25763 L193.713599,147.347484 L183.239013,151.42183" id="Fill-165" sketch:type="MSShapeGroup"></path>
                <path d="M252.486502,117.662862 L231.537862,126.975754 L257.723795,131.632023 L252.486502,117.662862" id="Fill-166" sketch:type="MSShapeGroup"></path>
                <path d="M210.007084,139.198792 L193.131638,150.25763 L226.88253,168.883414 L210.007084,139.198792" id="Fill-167" sketch:type="MSShapeGroup"></path>
                <path d="M186.730601,196.821737 L176.256192,228.834582 L196.041088,217.775744 L186.730601,196.821737" id="Fill-168" sketch:type="MSShapeGroup"></path>
                <path d="M155.307375,121.737385 L193.713599,147.347484 L210.007084,139.198792 L155.307375,121.737385" id="Fill-169" sketch:type="MSShapeGroup"></path>
                <path d="M165.781607,79.8295475 L161.126452,86.8142166 L210.007084,139.198792 L165.781607,79.8295475" id="Fill-170" sketch:type="MSShapeGroup"></path>
                <path d="M231.537862,126.975754 L240.848349,147.929584 L257.723795,131.632023 L231.537862,126.975754" id="Fill-171" sketch:type="MSShapeGroup"></path>
                <path d="M193.131638,150.25763 L191.385756,170.047437 L226.88253,168.883414 L193.131638,150.25763" id="Fill-172" sketch:type="MSShapeGroup"></path>
                <path d="M193.713599,147.347484 L193.131638,150.25763 L210.007084,139.198792 L193.713599,147.347484" id="Fill-173" sketch:type="MSShapeGroup"></path>
                <path d="M161.126452,86.8142166 L155.307375,121.737385 L210.007084,139.198792 L161.126452,86.8142166" id="Fill-174" sketch:type="MSShapeGroup"></path>
                <path d="M226.88253,168.883414 L236.774978,193.911591 L240.848349,147.929584 L226.88253,168.883414" id="Fill-175" sketch:type="MSShapeGroup"></path>
                <path d="M264.706793,377.839793 L267.616243,383.078162 L273.435497,374.34737 L264.706793,377.839793" id="Fill-176" sketch:type="MSShapeGroup"></path>
                <path d="M186.730601,196.821737 L196.041088,217.775744 L216.407944,217.775744 L186.730601,196.821737" id="Fill-177" sketch:type="MSShapeGroup"></path>
                <path d="M196.041088,217.775744 L176.256192,228.834582 L222.809159,266.085796 L196.041088,217.775744" id="Fill-178" sketch:type="MSShapeGroup"></path>
                <path d="M162.872157,277.144811 L204.188008,292.860273 L222.809159,266.085796 L162.872157,277.144811" id="Fill-179" sketch:type="MSShapeGroup"></path>
                <path d="M176.256192,228.834582 L162.872157,277.144811 L222.809159,266.085796 L176.256192,228.834582" id="Fill-180" sketch:type="MSShapeGroup"></path>
                <path d="M172.182821,71.0989325 L210.007084,139.198792 L231.537862,126.975754 L172.182821,71.0989325" id="Fill-181" sketch:type="MSShapeGroup"></path>
                <path d="M186.730601,196.821737 L216.407944,217.775744 L226.300569,182.852575 L186.730601,196.821737" id="Fill-182" sketch:type="MSShapeGroup"></path>
                <path d="M191.385756,170.047437 L186.730601,196.821737 L226.300569,182.852575 L191.385756,170.047437" id="Fill-183" sketch:type="MSShapeGroup"></path>
                <path d="M226.88253,168.883414 L226.300569,182.852575 L236.774978,193.911591 L226.88253,168.883414" id="Fill-184" sketch:type="MSShapeGroup"></path>
                <path d="M176.256192,62.3681404 L172.182821,71.0989325 L231.537862,126.975754 L176.256192,62.3681404" id="Fill-185" sketch:type="MSShapeGroup"></path>
                <path d="M279.254573,92.0527627 L269.943909,105.439824 L281.582239,106.021747 L279.254573,92.0527627" id="Fill-186" sketch:type="MSShapeGroup"></path>
                <path d="M231.537862,126.975754 L210.007084,139.198792 L240.848349,147.929584 L231.537862,126.975754" id="Fill-187" sketch:type="MSShapeGroup"></path>
                <path d="M210.007084,139.198792 L226.88253,168.883414 L240.848349,147.929584 L210.007084,139.198792" id="Fill-188" sketch:type="MSShapeGroup"></path>
                <path d="M216.407944,217.775744 L222.809159,266.085796 L232.119646,222.432013 L216.407944,217.775744" id="Fill-189" sketch:type="MSShapeGroup"></path>
                <path d="M226.300569,182.852575 L216.407944,217.775744 L236.774978,193.911591 L226.300569,182.852575" id="Fill-190" sketch:type="MSShapeGroup"></path>
                <path d="M216.407944,217.775744 L232.119646,222.432013 L236.774978,193.911591 L216.407944,217.775744" id="Fill-191" sketch:type="MSShapeGroup"></path>
                <path d="M269.943909,105.439824 L277.508691,118.244962 L281.582239,106.021747 L269.943909,105.439824" id="Fill-192" sketch:type="MSShapeGroup"></path>
                <path d="M232.119646,222.432013 L222.809159,266.085796 L246.667426,238.147474 L232.119646,222.432013" id="Fill-193" sketch:type="MSShapeGroup"></path>
                <path d="M236.774978,193.911591 L232.119646,222.432013 L246.667426,238.147474 L236.774978,193.911591" id="Fill-194" sketch:type="MSShapeGroup"></path>
                <path d="M279.254573,374.92947 L273.435497,374.34737 L281.582239,385.406208 L279.254573,374.92947" id="Fill-195" sketch:type="MSShapeGroup"></path>
                <path d="M176.256192,62.3681404 L231.537862,126.975754 L252.486502,117.662862 L176.256192,62.3681404" id="Fill-196" sketch:type="MSShapeGroup"></path>
                <path d="M197.205009,34.4296411 L176.256192,62.3681404 L252.486502,117.662862 L197.205009,34.4296411" id="Fill-197" sketch:type="MSShapeGroup"></path>
                <path d="M269.361948,304.501211 L282.164023,336.514056 L313.005465,298.098642 L269.361948,304.501211" id="Fill-198" sketch:type="MSShapeGroup"></path>
                <path d="M197.205009,34.4296411 L252.486502,117.662862 L269.943909,105.439824 L197.205009,34.4296411" id="Fill-199" sketch:type="MSShapeGroup"></path>
                <path d="M271.689614,369.690924 L279.254573,374.92947 L285.65561,352.81144 L271.689614,369.690924" id="Fill-200" sketch:type="MSShapeGroup"></path>
                <path d="M269.361948,9.40146489 L289.147021,51.8910482 L291.474687,28.6091721 L269.361948,9.40146489" id="Fill-201" sketch:type="MSShapeGroup"></path>
                <path d="M218.735787,7.07324185 L197.205009,34.4296411 L269.361948,9.40146489 L218.735787,7.07324185" id="Fill-202" sketch:type="MSShapeGroup"></path>
                <path d="M240.266388,0.0885727398 L218.735787,7.07324185 L269.361948,9.40146489 L240.266388,0.0885727398" id="Fill-203" sketch:type="MSShapeGroup"></path>
                <path d="M252.486502,0.0885727398 L240.266388,0.0885727398 L269.361948,9.40146489 L252.486502,0.0885727398" id="Fill-204" sketch:type="MSShapeGroup"></path>
                <path d="M271.689614,369.690924 L273.435497,374.34737 L279.254573,374.92947 L271.689614,369.690924" id="Fill-205" sketch:type="MSShapeGroup"></path>
                <path d="M291.474687,28.6091721 L289.147021,51.8910482 L306.604428,19.87838 L291.474687,28.6091721" id="Fill-206" sketch:type="MSShapeGroup"></path>
                <path d="M269.943909,105.439824 L252.486502,117.662862 L277.508691,118.244962 L269.943909,105.439824" id="Fill-207" sketch:type="MSShapeGroup"></path>
                <path d="M347.33814,29.191095 L322.315952,143.855238 L367.704997,28.6091721 L347.33814,29.191095" id="Fill-208" sketch:type="MSShapeGroup"></path>
                <path d="M252.486502,117.662862 L257.723795,131.632023 L277.508691,118.244962 L252.486502,117.662862" id="Fill-209" sketch:type="MSShapeGroup"></path>
                <path d="M289.147021,51.8910482 L287.401316,67.0245865 L293.802353,72.8450555 L289.147021,51.8910482" id="Fill-210" sketch:type="MSShapeGroup"></path>
                <path d="M273.435497,374.34737 L267.616243,383.078162 L281.582239,385.406208 L273.435497,374.34737" id="Fill-211" sketch:type="MSShapeGroup"></path>
                <path d="M197.205009,34.4296411 L269.943909,105.439824 L279.254573,92.0527627 L197.205009,34.4296411" id="Fill-212" sketch:type="MSShapeGroup"></path>
                <path d="M287.401316,67.0245865 L279.254573,92.0527627 L293.802353,72.8450555 L287.401316,67.0245865" id="Fill-213" sketch:type="MSShapeGroup"></path>
                <path d="M269.361948,9.40146489 L197.205009,34.4296411 L289.147021,51.8910482 L269.361948,9.40146489" id="Fill-214" sketch:type="MSShapeGroup"></path>
                <path d="M269.361948,9.40146489 L291.474687,28.6091721 L306.604428,19.87838 L269.361948,9.40146489" id="Fill-215" sketch:type="MSShapeGroup"></path>
                <path d="M236.774978,193.911591 L308.350133,225.342336 L313.587249,214.283321 L236.774978,193.911591" id="Fill-216" sketch:type="MSShapeGroup"></path>
                <path d="M279.254573,92.0527627 L281.582239,106.021747 L293.802353,72.8450555 L279.254573,92.0527627" id="Fill-217" sketch:type="MSShapeGroup"></path>
                <path d="M197.205009,34.4296411 L287.401316,67.0245865 L289.147021,51.8910482 L197.205009,34.4296411" id="Fill-218" sketch:type="MSShapeGroup"></path>
                <path d="M197.205009,34.4296411 L279.254573,92.0527627 L287.401316,67.0245865 L197.205009,34.4296411" id="Fill-219" sketch:type="MSShapeGroup"></path>
                <path d="M279.254573,374.92947 L281.582239,385.406208 L292.056648,385.988308 L279.254573,374.92947" id="Fill-220" sketch:type="MSShapeGroup"></path>
                <path d="M285.65561,352.81144 L279.254573,374.92947 L292.056648,385.988308 L285.65561,352.81144" id="Fill-221" sketch:type="MSShapeGroup"></path>
                <path d="M246.667426,238.147474 L308.350133,257.355181 L308.350133,225.342336 L246.667426,238.147474" id="Fill-222" sketch:type="MSShapeGroup"></path>
                <path d="M236.774978,193.911591 L246.667426,238.147474 L308.350133,225.342336 L236.774978,193.911591" id="Fill-223" sketch:type="MSShapeGroup"></path>
                <path d="M281.582239,106.021747 L277.508691,118.244962 L322.315952,143.855238 L281.582239,106.021747" id="Fill-224" sketch:type="MSShapeGroup"></path>
                <path d="M338.609437,212.537198 L324.061657,220.103967 L338.609437,225.924436 L338.609437,212.537198" id="Fill-225" sketch:type="MSShapeGroup"></path>
                <path d="M246.667426,238.147474 L260.051461,274.816765 L308.350133,257.355181 L246.667426,238.147474" id="Fill-226" sketch:type="MSShapeGroup"></path>
                <path d="M308.350133,257.355181 L260.051461,274.816765 L313.005465,298.098642 L308.350133,257.355181" id="Fill-227" sketch:type="MSShapeGroup"></path>
                <path d="M260.051461,274.816765 L269.361948,304.501211 L313.005465,298.098642 L260.051461,274.816765" id="Fill-228" sketch:type="MSShapeGroup"></path>
                <path d="M313.587249,385.988308 L328.135206,382.496062 L329.29895,370.855124 L313.587249,385.988308" id="Fill-229" sketch:type="MSShapeGroup"></path>
                <path d="M292.056648,385.988308 L313.587249,385.988308 L321.733991,363.288355 L292.056648,385.988308" id="Fill-230" sketch:type="MSShapeGroup"></path>
                <path d="M318.824541,352.229517 L285.65561,352.81144 L321.733991,363.288355 L318.824541,352.229517" id="Fill-231" sketch:type="MSShapeGroup"></path>
                <path d="M285.65561,352.81144 L292.056648,385.988308 L321.733991,363.288355 L285.65561,352.81144" id="Fill-232" sketch:type="MSShapeGroup"></path>
                <path d="M293.802353,72.8450555 L322.315952,143.855238 L347.33814,29.191095 L293.802353,72.8450555" id="Fill-233" sketch:type="MSShapeGroup"></path>
                <path d="M293.802353,72.8450555 L281.582239,106.021747 L322.315952,143.855238 L293.802353,72.8450555" id="Fill-234" sketch:type="MSShapeGroup"></path>
                <path d="M318.242581,342.334525 L285.07365,347.573071 L318.824541,352.229517 L318.242581,342.334525" id="Fill-235" sketch:type="MSShapeGroup"></path>
                <path d="M285.07365,347.573071 L285.65561,352.81144 L318.824541,352.229517 L285.07365,347.573071" id="Fill-236" sketch:type="MSShapeGroup"></path>
                <path d="M282.164023,336.514056 L285.07365,347.573071 L318.242581,342.334525 L282.164023,336.514056" id="Fill-237" sketch:type="MSShapeGroup"></path>
                <path d="M313.005465,298.098642 L282.164023,336.514056 L319.406325,324.872941 L313.005465,298.098642" id="Fill-238" sketch:type="MSShapeGroup"></path>
                <path d="M282.164023,336.514056 L318.242581,342.334525 L319.406325,324.872941 L282.164023,336.514056" id="Fill-239" sketch:type="MSShapeGroup"></path>
                <path d="M257.723795,131.632023 L321.733991,166.555191 L322.315952,143.855238 L257.723795,131.632023" id="Fill-240" sketch:type="MSShapeGroup"></path>
                <path d="M277.508691,118.244962 L257.723795,131.632023 L322.315952,143.855238 L277.508691,118.244962" id="Fill-241" sketch:type="MSShapeGroup"></path>
                <path d="M257.723795,131.632023 L240.848349,147.929584 L321.733991,166.555191 L257.723795,131.632023" id="Fill-242" sketch:type="MSShapeGroup"></path>
                <path d="M240.848349,147.929584 L236.774978,193.911591 L321.733991,166.555191 L240.848349,147.929584" id="Fill-243" sketch:type="MSShapeGroup"></path>
                <path d="M236.774978,193.911591 L313.587249,214.283321 L321.733991,166.555191 L236.774978,193.911591" id="Fill-244" sketch:type="MSShapeGroup"></path>
                <path d="M321.733991,166.555191 L313.587249,214.283321 L322.897913,211.955098 L321.733991,166.555191" id="Fill-245" sketch:type="MSShapeGroup"></path>
                <path d="M321.733991,363.288355 L313.587249,385.988308 L329.29895,370.855124 L321.733991,363.288355" id="Fill-246" sketch:type="MSShapeGroup"></path>
                <path d="M322.897913,211.955098 L313.587249,214.283321 L324.061657,220.103967 L322.897913,211.955098" id="Fill-247" sketch:type="MSShapeGroup"></path>
                <path d="M321.733991,166.555191 L322.897913,211.955098 L338.609437,212.537198 L321.733991,166.555191" id="Fill-248" sketch:type="MSShapeGroup"></path>
                <path d="M322.897913,211.955098 L324.061657,220.103967 L338.609437,212.537198 L322.897913,211.955098" id="Fill-249" sketch:type="MSShapeGroup"></path>
                <path d="M338.609437,212.537198 L338.609437,225.924436 L352.575433,217.775744 L338.609437,212.537198" id="Fill-250" sketch:type="MSShapeGroup"></path>
                <path d="M306.604428,19.87838 L289.147021,51.8910482 L347.33814,29.191095 L306.604428,19.87838" id="Fill-251" sketch:type="MSShapeGroup"></path>
                <path d="M289.147021,51.8910482 L293.802353,72.8450555 L347.33814,29.191095 L289.147021,51.8910482" id="Fill-252" sketch:type="MSShapeGroup"></path>
                <path d="M322.315952,143.855238 L321.733991,166.555191 L352.575433,217.775744 L322.315952,143.855238" id="Fill-253" sketch:type="MSShapeGroup"></path>
                <path d="M321.733991,166.555191 L338.609437,212.537198 L352.575433,217.775744 L321.733991,166.555191" id="Fill-254" sketch:type="MSShapeGroup"></path>
                <path d="M352.575433,217.775744 L338.609437,225.924436 L370.614624,230.580705 L352.575433,217.775744" id="Fill-255" sketch:type="MSShapeGroup"></path>
                <path d="M408.438887,370.855124 L407.856926,377.839793 L418.331335,379.003639 L408.438887,370.855124" id="Fill-256" sketch:type="MSShapeGroup"></path>
                <path d="M367.704997,28.6091721 L322.315952,143.855238 L397.382517,23.952726 L367.704997,28.6091721" id="Fill-257" sketch:type="MSShapeGroup"></path>
                <path d="M352.575433,217.775744 L370.614624,230.580705 L396.800734,235.237151 L352.575433,217.775744" id="Fill-258" sketch:type="MSShapeGroup"></path>
                <path d="M322.315952,143.855238 L352.575433,217.775744 L396.800734,235.237151 L322.315952,143.855238" id="Fill-259" sketch:type="MSShapeGroup"></path>
                <path d="M402.61981,374.34737 L407.856926,377.839793 L408.438887,370.855124 L402.61981,374.34737" id="Fill-260" sketch:type="MSShapeGroup"></path>
                <path d="M418.331335,260.265327 L435.788741,266.667896 L439.862113,237.565374 L418.331335,260.265327" id="Fill-261" sketch:type="MSShapeGroup"></path>
                <path d="M402.61981,369.109001 L402.61981,374.34737 L408.438887,370.855124 L402.61981,369.109001" id="Fill-262" sketch:type="MSShapeGroup"></path>
                <path d="M405.52926,366.198678 L402.61981,369.109001 L408.438887,370.855124 L405.52926,366.198678" id="Fill-263" sketch:type="MSShapeGroup"></path>
                <path d="M420.077217,348.154994 L468.957672,367.944801 L469.539633,361.542232 L420.077217,348.154994" id="Fill-264" sketch:type="MSShapeGroup"></path>
                <path d="M418.331335,236.401351 L418.331335,260.265327 L439.862113,237.565374 L418.331335,236.401351" id="Fill-265" sketch:type="MSShapeGroup"></path>
                <path d="M420.077217,348.154994 L469.539633,361.542232 L470.703378,343.498548 L420.077217,348.154994" id="Fill-266" sketch:type="MSShapeGroup"></path>
                <path d="M427.060038,333.02181 L420.077217,348.154994 L470.703378,343.498548 L427.060038,333.02181" id="Fill-267" sketch:type="MSShapeGroup"></path>
                <path d="M418.331335,236.401351 L406.111221,246.878266 L418.331335,260.265327 L418.331335,236.401351" id="Fill-268" sketch:type="MSShapeGroup"></path>
                <path d="M408.438887,370.855124 L418.331335,379.003639 L420.077217,348.154994 L408.438887,370.855124" id="Fill-269" sketch:type="MSShapeGroup"></path>
                <path d="M396.800734,235.237151 L406.111221,246.878266 L418.331335,236.401351 L396.800734,235.237151" id="Fill-270" sketch:type="MSShapeGroup"></path>
                <path d="M322.315952,143.855238 L396.800734,235.237151 L418.331335,236.401351 L322.315952,143.855238" id="Fill-271" sketch:type="MSShapeGroup"></path>
                <path d="M405.52926,366.198678 L408.438887,370.855124 L420.077217,348.154994 L405.52926,366.198678" id="Fill-272" sketch:type="MSShapeGroup"></path>
                <path d="M417.749551,24.5348261 L397.382517,23.952726 L442.189779,34.4296411 L417.749551,24.5348261" id="Fill-273" sketch:type="MSShapeGroup"></path>
                <path d="M418.331335,260.265327 L427.060038,277.726911 L435.788741,266.667896 L418.331335,260.265327" id="Fill-274" sketch:type="MSShapeGroup"></path>
                <path d="M397.382517,23.952726 L322.315952,143.855238 L442.189779,34.4296411 L397.382517,23.952726" id="Fill-275" sketch:type="MSShapeGroup"></path>
                <path d="M537.041417,307.411534 L507.945857,313.814103 L544.024238,321.962795 L537.041417,307.411534" id="Fill-276" sketch:type="MSShapeGroup"></path>
                <path d="M465.466262,377.257693 L468.957672,373.76527 L468.957672,367.944801 L465.466262,377.257693" id="Fill-277" sketch:type="MSShapeGroup"></path>
                <path d="M452.082226,264.921773 L464.30234,275.980788 L466.630006,258.519204 L452.082226,264.921773" id="Fill-278" sketch:type="MSShapeGroup"></path>
                <path d="M435.788741,266.667896 L427.060038,277.726911 L452.082226,264.921773 L435.788741,266.667896" id="Fill-279" sketch:type="MSShapeGroup"></path>
                <path d="M435.788741,266.667896 L452.082226,264.921773 L452.664187,244.550043 L435.788741,266.667896" id="Fill-280" sketch:type="MSShapeGroup"></path>
                <path d="M439.862113,237.565374 L435.788741,266.667896 L452.664187,244.550043 L439.862113,237.565374" id="Fill-281" sketch:type="MSShapeGroup"></path>
                <path d="M466.630006,323.708918 L427.060038,333.02181 L470.703378,343.498548 L466.630006,323.708918" id="Fill-282" sketch:type="MSShapeGroup"></path>
                <path d="M464.30234,294.606396 L428.805743,308.575557 L466.630006,323.708918 L464.30234,294.606396" id="Fill-283" sketch:type="MSShapeGroup"></path>
                <path d="M452.082226,264.921773 L427.060038,277.726911 L464.30234,275.980788 L452.082226,264.921773" id="Fill-284" sketch:type="MSShapeGroup"></path>
                <path d="M442.189779,34.4296411 L322.315952,143.855238 L467.793928,53.6373483 L442.189779,34.4296411" id="Fill-285" sketch:type="MSShapeGroup"></path>
                <path d="M464.30234,275.980788 L427.060038,277.726911 L464.30234,294.606396 L464.30234,275.980788" id="Fill-286" sketch:type="MSShapeGroup"></path>
                <path d="M427.060038,277.726911 L428.805743,308.575557 L464.30234,294.606396 L427.060038,277.726911" id="Fill-287" sketch:type="MSShapeGroup"></path>
                <path d="M420.077217,348.154994 L418.331335,379.003639 L465.466262,377.257693 L420.077217,348.154994" id="Fill-288" sketch:type="MSShapeGroup"></path>
                <path d="M525.985047,259.683404 L491.652372,281.219157 L530.058419,283.54738 L525.985047,259.683404" id="Fill-289" sketch:type="MSShapeGroup"></path>
                <path d="M428.805743,308.575557 L427.060038,333.02181 L466.630006,323.708918 L428.805743,308.575557" id="Fill-290" sketch:type="MSShapeGroup"></path>
                <path d="M452.664187,244.550043 L452.082226,264.921773 L466.630006,258.519204 L452.664187,244.550043" id="Fill-291" sketch:type="MSShapeGroup"></path>
                <path d="M491.652372,281.219157 L502.708564,300.426865 L530.058419,283.54738 L491.652372,281.219157" id="Fill-292" sketch:type="MSShapeGroup"></path>
                <path d="M452.664187,244.550043 L525.403087,241.05762 L526.567008,197.403837 L452.664187,244.550043" id="Fill-293" sketch:type="MSShapeGroup"></path>
                <path d="M528.312713,369.690924 L519.58401,376.093493 L532.386085,377.257693 L528.312713,369.690924" id="Fill-294" sketch:type="MSShapeGroup"></path>
                <path d="M420.077217,348.154994 L465.466262,377.257693 L468.957672,367.944801 L420.077217,348.154994" id="Fill-295" sketch:type="MSShapeGroup"></path>
                <path d="M467.793928,53.6373483 L322.315952,143.855238 L489.90649,80.9937476 L467.793928,53.6373483" id="Fill-296" sketch:type="MSShapeGroup"></path>
                <path d="M322.315952,143.855238 L418.331335,236.401351 L489.90649,80.9937476 L322.315952,143.855238" id="Fill-297" sketch:type="MSShapeGroup"></path>
                <path d="M518.420266,358.049986 L521.329715,370.273024 L528.312713,369.690924 L518.420266,358.049986" id="Fill-298" sketch:type="MSShapeGroup"></path>
                <path d="M418.331335,236.401351 L439.862113,237.565374 L509.691562,111.260293 L418.331335,236.401351" id="Fill-299" sketch:type="MSShapeGroup"></path>
                <path d="M489.90649,80.9937476 L418.331335,236.401351 L509.691562,111.260293 L489.90649,80.9937476" id="Fill-300" sketch:type="MSShapeGroup"></path>
                <path d="M466.630006,258.519204 L480.596003,268.996119 L525.403087,241.05762 L466.630006,258.519204" id="Fill-301" sketch:type="MSShapeGroup"></path>
                <path d="M516.0926,370.273024 L519.58401,376.093493 L521.329715,370.273024 L516.0926,370.273024" id="Fill-302" sketch:type="MSShapeGroup"></path>
                <path d="M518.420266,358.049986 L516.0926,370.273024 L521.329715,370.273024 L518.420266,358.049986" id="Fill-303" sketch:type="MSShapeGroup"></path>
                <path d="M523.657381,164.226968 L439.862113,237.565374 L526.567008,197.403837 L523.657381,164.226968" id="Fill-304" sketch:type="MSShapeGroup"></path>
                <path d="M520.747755,131.632023 L509.691562,111.260293 L523.657381,164.226968 L520.747755,131.632023" id="Fill-305" sketch:type="MSShapeGroup"></path>
                <path d="M509.691562,111.260293 L439.862113,237.565374 L523.657381,164.226968 L509.691562,111.260293" id="Fill-306" sketch:type="MSShapeGroup"></path>
                <path d="M439.862113,237.565374 L452.664187,244.550043 L526.567008,197.403837 L439.862113,237.565374" id="Fill-307" sketch:type="MSShapeGroup"></path>
                <path d="M452.664187,244.550043 L466.630006,258.519204 L525.403087,241.05762 L452.664187,244.550043" id="Fill-308" sketch:type="MSShapeGroup"></path>
                <path d="M525.403087,241.05762 L480.596003,268.996119 L525.985047,259.683404 L525.403087,241.05762" id="Fill-309" sketch:type="MSShapeGroup"></path>
                <path d="M521.329715,370.273024 L519.58401,376.093493 L528.312713,369.690924 L521.329715,370.273024" id="Fill-310" sketch:type="MSShapeGroup"></path>
                <path d="M525.403087,241.05762 L532.386085,259.101304 L532.386085,240.47552 L525.403087,241.05762" id="Fill-311" sketch:type="MSShapeGroup"></path>
                <path d="M526.567008,197.403837 L525.403087,241.05762 L532.386085,240.47552 L526.567008,197.403837" id="Fill-312" sketch:type="MSShapeGroup"></path>
                <path d="M480.596003,268.996119 L491.652372,281.219157 L525.985047,259.683404 L480.596003,268.996119" id="Fill-313" sketch:type="MSShapeGroup"></path>
                <path d="M556.82649,347.573071 L544.606199,367.944801 L559.735939,358.049986 L556.82649,347.573071" id="Fill-314" sketch:type="MSShapeGroup"></path>
                <path d="M541.696749,280.637235 L535.295712,283.54738 L541.696749,289.94995 L541.696749,280.637235" id="Fill-315" sketch:type="MSShapeGroup"></path>
                <path d="M532.386085,259.101304 L534.13179,267.832096 L538.205161,259.101304 L532.386085,259.101304" id="Fill-316" sketch:type="MSShapeGroup"></path>
                <path d="M502.708564,300.426865 L507.945857,313.814103 L532.968046,294.606396 L502.708564,300.426865" id="Fill-317" sketch:type="MSShapeGroup"></path>
                <path d="M530.058419,283.54738 L502.708564,300.426865 L532.968046,294.606396 L530.058419,283.54738" id="Fill-318" sketch:type="MSShapeGroup"></path>
                <path d="M532.386085,377.257693 L537.623201,376.675593 L538.205161,369.690924 L532.386085,377.257693" id="Fill-319" sketch:type="MSShapeGroup"></path>
                <path d="M528.312713,369.690924 L532.386085,377.257693 L538.205161,369.690924 L528.312713,369.690924" id="Fill-320" sketch:type="MSShapeGroup"></path>
                <path d="M535.295712,283.54738 L536.459456,293.442373 L541.696749,289.94995 L535.295712,283.54738" id="Fill-321" sketch:type="MSShapeGroup"></path>
                <path d="M518.420266,358.049986 L528.312713,369.690924 L538.205161,369.690924 L518.420266,358.049986" id="Fill-322" sketch:type="MSShapeGroup"></path>
                <path d="M507.945857,313.814103 L513.764934,338.842279 L544.024238,321.962795 L507.945857,313.814103" id="Fill-323" sketch:type="MSShapeGroup"></path>
                <path d="M532.968046,294.606396 L507.945857,313.814103 L537.041417,307.411534 L532.968046,294.606396" id="Fill-324" sketch:type="MSShapeGroup"></path>
                <path d="M518.420266,348.737094 L518.420266,358.049986 L538.205161,369.690924 L518.420266,348.737094" id="Fill-325" sketch:type="MSShapeGroup"></path>
                <path d="M544.606199,367.944801 L553.334902,370.273024 L559.735939,358.049986 L544.606199,367.944801" id="Fill-326" sketch:type="MSShapeGroup"></path>
                <path d="M532.386085,240.47552 L532.386085,259.101304 L538.205161,259.101304 L532.386085,240.47552" id="Fill-327" sketch:type="MSShapeGroup"></path>
                <path d="M544.606199,367.944801 L548.097786,373.76527 L553.334902,370.273024 L544.606199,367.944801" id="Fill-328" sketch:type="MSShapeGroup"></path>
                <path d="M538.205161,259.101304 L534.13179,267.832096 L541.114788,271.906442 L538.205161,259.101304" id="Fill-329" sketch:type="MSShapeGroup"></path>
                <path d="M534.13179,267.832096 L535.295712,283.54738 L541.114788,271.906442 L534.13179,267.832096" id="Fill-330" sketch:type="MSShapeGroup"></path>
                <path d="M541.114788,271.906442 L535.295712,283.54738 L541.696749,280.637235 L541.114788,271.906442" id="Fill-331" sketch:type="MSShapeGroup"></path>
                <path d="M544.024238,304.501211 L537.041417,307.411534 L543.369665,315.996712 L544.024238,304.501211" id="Fill-332" sketch:type="MSShapeGroup"></path>
                <path d="M538.205161,369.690924 L537.623201,376.675593 L548.097786,373.76527 L538.205161,369.690924" id="Fill-333" sketch:type="MSShapeGroup"></path>
                <path d="M536.459456,293.442373 L537.041417,307.411534 L544.024238,304.501211 L536.459456,293.442373" id="Fill-334" sketch:type="MSShapeGroup"></path>
                <path d="M541.696749,289.94995 L536.459456,293.442373 L544.024238,304.501211 L541.696749,289.94995" id="Fill-335" sketch:type="MSShapeGroup"></path>
                <path d="M518.420266,348.737094 L538.205161,369.690924 L544.606199,367.944801 L518.420266,348.737094" id="Fill-336" sketch:type="MSShapeGroup"></path>
                <path d="M544.606199,367.944801 L538.205161,369.690924 L548.097786,373.76527 L544.606199,367.944801" id="Fill-337" sketch:type="MSShapeGroup"></path>
                <path d="M518.420266,348.737094 L544.606199,367.944801 L546.933865,335.350033 L518.420266,348.737094" id="Fill-338" sketch:type="MSShapeGroup"></path>
                <path d="M544.024238,321.962795 L513.764934,338.842279 L546.933865,335.350033 L544.024238,321.962795" id="Fill-339" sketch:type="MSShapeGroup"></path>
                <path d="M513.764934,338.842279 L518.420266,348.737094 L546.933865,335.350033 L513.764934,338.842279" id="Fill-340" sketch:type="MSShapeGroup"></path>
                <path d="M546.933865,335.350033 L544.606199,367.944801 L556.82649,347.573071 L546.933865,335.350033" id="Fill-341" sketch:type="MSShapeGroup"></path>
                <path d="M544.024238,304.501211 L543.369665,315.996712 L547.224845,317.306349 L544.024238,304.501211" id="Fill-342" sketch:type="MSShapeGroup"></path>
                <path d="M154.434434,150.742832 L152.397925,135.124446 L156.47112,146.765561 L154.434434,150.742832" id="Fill-343" sketch:type="MSShapeGroup"></path>
            </g>
        </g>
    </g>
</svg>
