<svg width="653px" height="428px" viewBox="0 0 653 428" xmlns="http://www.w3.org/2000/svg" xmlns:xlink="http://www.w3.org/1999/xlink">
<g stroke="#080808" stroke-width="1" fill="none">
  <polygon points="72.7,93.8 64.7,99.9 72.8,106.6"/>
  <polygon points="59.3,106.6 27.1,124.8 60.7,118.7L"/>
  <polygon points="64.7,99.9 66.7,111.3 72.8,106.6L"/>
  <polygon points="6.3,130.2 3.6,133.5 7,135.5L"/>
  <polygon points="15,133.5 23.7,136.2 27.1,124.8L"/>
  <polygon points="4.9,124.1 6.3,130.2 8.9,118.7L"/>
  <polygon points="3.6,133.5 0.2,138.2 7,135.5L"/>
  <polygon points="4.9,124.1 3.6,133.5 6.3,130.2L"/>
  <polygon points="0.2,138.2 2.3,144.3 7,135.5L"/>
  <polygon points="27.1,124.8 23.7,136.2 33.2,142.2L"/>
  <polygon points="7,135.5 2.3,144.3 15,138.9"/>
  <polygon points="33.2,142.2 23.1,142.2 39.2,151L"/>
  <polygon points="7,135.5 15,138.9 15,133.5L"/>
  <polygon points="15,138.9 23.1,142.2 23.7,136.2L"/>
  <polygon points="6.3,130.2 7,135.5 15,133.5"/>
  <polygon points="14.3,116.1 8.9,118.7 15,133.5"/>
  <polygon points="8.9,118.7 6.3,130.2 15,133.5"/>
  <polygon points="15,138.9 2.3,144.3 16.4,165.8"/>
  <polygon points="148,128.7 140.7,154.2 166.8,136.7L"/>
  <polygon points="14.3,116.1 15,133.5 27.1,124.8L"/>
  <polygon points="15,138.9 16.4,165.8 23.1,142.2L"/>
  <polygon points="15,133.5 15,138.9 23.7,136.2L"/>
  <polygon points="23.7,103.9 14.3,116.1 27.1,124.8L"/>
  <polygon points="23.7,136.2 23.1,142.2 33.2,142.2L"/>
  <polygon points="418.1,131 415.4,143.1 420.1,143.8L"/>
  <polygon points="27.1,124.8 43.2,134.2 60.7,118.7L"/>
  <polygon points="45.3,191.9 58.1,204 58.8,198.6L"/>
  <polygon points="23.1,142.2 16.4,165.8 39.2,151L"/>
  <polygon points="54,162.4 45.3,191.9 58.8,198.6L"/>
  <polygon points="30.5,179.9 45.3,191.9 54,162.4L"/>
  <polygon points="27.1,124.8 33.2,142.2 43.2,134.2L"/>
  <polygon points="16.4,165.8 30.5,179.9 39.2,151L"/>
  <polygon points="33.2,142.2 39.2,151 43.2,134.2L"/>
  <polygon points="66,77 64.7,99.9 72.7,93.8L"/>
  <polygon points="105.7,164.3 115.2,197.2 128.6,178.4L"/>
  <polygon points="39.2,151 30.5,179.9 54,162.4L"/>
  <polygon points="66.7,111.3 69.4,116 72.8,106.6L"/>
  <polygon points="39.2,151 54,162.4 57.4,150.3L"/>
  <polygon points="23.7,103.9 27.1,124.8 59.3,106.6L"/>
  <polygon points="69.4,116 60.7,118.7 72.8,129.4L"/>
  <polygon points="43.2,134.2 39.2,151 57.4,150.3L"/>
  <polygon points="41.8,84.4 64.7,99.9 66,77L"/>
  <polygon points="41.8,84.4 23.7,103.9 59.3,106.6L"/>
  <polygon points="58.1,204 74.9,214.7 77.6,205.3L"/>
  <polygon points="72.8,106.6 79.5,107.9 81.5,94.5"/>
  <polygon points="58.8,198.6 58.1,204 77.6,205.3L"/>
  <polygon points="81.5,114.6 84.2,125.4 88.2,119.3L"/>
  <polygon points="41.8,84.4 59.3,106.6 64.7,99.9"/>
  <polygon points="64.7,99.9 59.3,106.6 66.7,111.3L"/>
  <polygon points="72.8,106.6 75.5,118 79.5,107.9L"/>
  <polygon points="58.8,198.6 77.6,205.3 78.9,195.9L"/>
  <polygon points="59.3,106.6 60.7,118.7 66.7,111.3L"/>
  <polygon points="66.7,111.3 60.7,118.7 69.4,116L"/>
  <polygon points="54,162.4 58.8,198.6 78.9,195.9L"/>
  <polygon points="60.7,118.7 43.2,134.2 72.8,129.4L"/>
  <polygon points="43.2,134.2 57.4,150.3 72.8,129.4L"/>
  <polygon points="69.4,116 72.8,129.4 75.5,118L"/>
  <polygon points="72.7,93.8 72.8,106.6 81.5,94.5"/>
  <polygon points="72.8,106.6 69.4,116 75.5,118L"/>
  <polygon points="93.7,182.5 78.9,195.9 96.4,206L"/>
  <polygon points="79.4,86.4 81.5,94.5 81.5,85.1L"/>
  <polygon points="79.5,107.9 75.5,118 81.5,114.6L"/>
  <polygon points="66,77 72.7,93.8 79.4,86.4L"/>
  <polygon points="132.1,251.6 122,265.7 139.5,279.8L"/>
  <polygon points="81.5,94.5 92.2,96.5 94.2,92.4L"/>
  <polygon points="132.1,251.6 139.5,279.8 142.8,246.9L"/>
  <polygon points="79.4,86.4 72.7,93.8 81.5,94.5L"/>
  <polygon points="111.7,118.6 108.4,120.6 112.4,140.1L"/>
  <polygon points="99.6,63.5 94.2,92.4 118.4,76.3"/>
  <polygon points="81.5,85.1 81.5,94.5 94.2,92.4L"/>
  <polygon points="88.2,99.8 92.2,107.9 92.2,96.5"/>
  <polygon points="66,77 79.4,86.4 81.5,85.1L"/>
  <polygon points="78.9,195.9 77.6,205.3 96.4,206L"/>
  <polygon points="81.5,114.6 75.5,118 84.2,125.4L"/>
  <polygon points="66,77 81.5,85.1 99.6,63.5L"/>
  <polygon points="81.5,94.5 88.2,99.8 92.2,96.5L"/>
  <polygon points="75.5,118 72.8,129.4 84.2,125.4L"/>
  <polygon points="81.5,94.5 79.5,107.9 88.2,99.8"/>
  <polygon points="88.2,99.8 79.5,107.9 92.2,107.9L"/>
  <polygon points="79.5,107.9 81.5,114.6 92.2,107.9L"/>
  <polygon points="99.6,63.5 118.4,76.3 123.1,53.4L"/>
  <polygon points="74.9,214.7 91,226.8 96.4,206L"/>
  <polygon points="81.5,114.6 88.2,119.3 92.2,107.9L"/>
  <polygon points="81.5,85.1 94.2,92.4 99.6,63.5L"/>
  <polygon points="139.5,279.8 138.8,297.3 148.2,289.9L"/>
  <polygon points="54,162.4 78.9,195.9 93.7,182.5L"/>
  <polygon points="77.6,205.3 74.9,214.7 96.4,206L"/>
  <polygon points="54,162.4 93.7,182.5 101.7,161.6"/>
  <polygon points="101.7,161.6 93.7,182.5 105.7,164.3"/>
  <polygon points="92.2,107.9 88.2,119.3 108.4,120.6"/>
  <polygon points="57.4,150.3 54,162.4 101.7,161.6"/>
  <polygon points="96.4,206 91,226.8 102.5,238.2"/>
  <polygon points="108.4,120.6 84.2,125.4 112.4,140.1"/>
  <polygon points="72.8,129.4 57.4,150.3 101.7,161.6"/>
  <polygon points="84.2,125.4 72.8,129.4 101.7,161.6"/>
  <polygon points="88.2,119.3 84.2,125.4 108.4,120.6"/>
  <polygon points="92.2,96.5 92.2,107.9 111.7,118.6"/>
  <polygon points="94.2,92.4 92.2,96.5 111.7,118.6L"/>
  <polygon points="92.2,107.9 108.4,120.6 111.7,118.6L"/>
  <polygon points="84.2,125.4 101.7,161.6 112.4,140.1L"/>
  <polygon points="101.7,161.6 105.7,164.3 112.4,140.1L"/>
  <polygon points="118,277.8 138.8,297.3 139.5,279.8L"/>
  <polygon points="182.8,15.1 178.1,23.8 182.8,25.8L"/>
  <polygon points="462,313 464.7,320.4 478.8,304.9L"/>
  <polygon points="93.7,182.5 96.4,206 115.2,197.2"/>
  <polygon points="105.7,164.3 93.7,182.5 115.2,197.2"/>
  <polygon points="96.4,206 102.5,238.2 115.2,197.2L"/>
  <polygon points="114.6,253 122,265.7 132.1,251.6L"/>
  <polygon points="117.9,245.6 114.6,253 132.1,251.6L"/>
  <polygon points="281.1,199.7 271.1,207.8 282.5,220.5L"/>
  <polygon points="113.3,265.1 118,277.8 122,265.7L"/>
  <polygon points="114.6,253 113.3,265.1 122,265.7L"/>
  <polygon points="162.4,308.7 171.8,319.4 177.8,304L"/>
  <polygon points="118.4,76.3 94.2,92.4 133.9,93.1"/>
  <polygon points="146.8,187.1 161.6,209.3 169.6,168.9L"/>
  <polygon points="105.7,164.3 128.6,178.4 140.7,154.2L"/>
  <polygon points="112.4,140.1 105.7,164.3 140.7,154.2L"/>
  <polygon points="115.2,197.2 144.8,222.7 146.8,187.1L"/>
  <polygon points="94.2,92.4 111.7,118.6 133.9,93.1"/>
  <polygon points="144.8,222.7 142.8,246.9 155.6,247.6L"/>
  <polygon points="122,265.7 118,277.8 139.5,279.8L"/>
  <polygon points="132.1,251.6 142.8,246.9 144.8,222.7L"/>
  <polygon points="117.9,245.6 132.1,251.6 144.8,222.7L"/>
  <polygon points="128.6,178.4 115.2,197.2 146.8,187.1L"/>
  <polygon points="148.2,289.9 138.8,297.3 157,302.6L"/>
  <polygon points="144,109.8 111.7,118.6 148,128.7L"/>
  <polygon points="133.9,93.1 111.7,118.6 144,109.8L"/>
  <polygon points="143.9,46.7 123.1,53.4 146.6,70.9L"/>
  <polygon points="115.2,197.2 102.5,238.2 144.8,222.7L"/>
  <polygon points="102.5,238.2 117.9,245.6 144.8,222.7L"/>
  <polygon points="123.1,53.4 118.4,76.3 146.6,70.9L"/>
  <polygon points="118.4,76.3 133.9,93.1 146.6,70.9L"/>
  <polygon points="166.8,136.7 140.7,154.2 169.6,168.9L"/>
  <polygon points="146.6,70.9 133.9,93.1 164.8,107.1"/>
  <polygon points="140.7,154.2 128.6,178.4 146.8,187.1L"/>
  <polygon points="111.7,118.6 112.4,140.1 148,128.7L"/>
  <polygon points="112.4,140.1 140.7,154.2 148,128.7L"/>
  <polygon points="139.5,279.8 148.2,289.9 155.6,247.6L"/>
  <polygon points="155.6,247.6 179.1,250.9 181.1,228.7L"/>
  <polygon points="169.4,40.6 146.6,70.9 177.5,70.8L"/>
  <polygon points="142.8,246.9 139.5,279.8 155.6,247.6L"/>
  <polygon points="144.8,222.7 158.2,222 161.6,209.3L"/>
  <polygon points="144.8,222.7 155.6,247.6 158.2,222L"/>
  <polygon points="157,302.6 138.8,297.3 162.4,308.7L"/>
  <polygon points="146.8,187.1 144.8,222.7 161.6,209.3L"/>
  <polygon points="144,109.8 148,128.7 164.8,107.1L"/>
  <polygon points="164.8,107.1 148,128.7 166.8,136.7L"/>
  <polygon points="143.9,46.7 146.6,70.9 169.4,40.6L"/>
  <polygon points="179.7,225.4 158.2,222 181.1,228.7L"/>
  <polygon points="133.9,93.1 144,109.8 164.8,107.1L"/>
  <polygon points="146.6,70.9 164.8,107.1 177.5,70.8"/>
  <polygon points="178.1,23.8 181.5,37.9 182.8,25.8L"/>
  <polygon points="140.7,154.2 146.8,187.1 169.6,168.9L"/>
  <polygon points="158.2,222 155.6,247.6 181.1,228.7L"/>
  <polygon points="198.9,4.3 191.6,13.7 206.3,13L"/>
  <polygon points="198.6,256.2 179.1,250.9 200.6,282.4L"/>
  <polygon points="232.5,6.3 229.9,15 235.9,16.3L"/>
  <polygon points="157,302.6 162.4,308.7 177.8,304L"/>
  <polygon points="178.1,23.8 169.4,40.6 181.5,37.9L"/>
  <polygon points="148.2,289.9 157,302.6 177.8,304L"/>
  <polygon points="169.4,40.6 177.5,70.8 181.5,37.9L"/>
  <polygon points="148.2,289.9 177.8,304 179.1,250.9L"/>
  <polygon points="155.6,247.6 148.2,289.9 179.1,250.9L"/>
  <polygon points="161.6,209.3 158.2,222 179.7,225.4L"/>
  <polygon points="179.1,250.9 193.2,295.2 200.6,282.4L"/>
  <polygon points="191.6,13.7 195.6,24.5 206.3,13L"/>
  <polygon points="177.8,304 171.8,319.4 185.2,322.8L"/>
  <polygon points="182.8,25.8 181.5,37.9 186.9,27.2L"/>
  <polygon points="229.9,15 231.9,31.8 235.9,16.3L"/>
  <polygon points="191.6,13.7 186.9,27.2 195.6,24.5L"/>
  <polygon points="179.1,250.9 177.8,304 193.2,295.2L"/>
  <polygon points="234,108.4 219.9,123.2 237.4,111.1L"/>
  <polygon points="182.8,15.1 182.8,25.8 186.9,27.2L"/>
  <polygon points="193.7,103.7 166.8,136.7 197.8,151.4L"/>
  <polygon points="193.2,295.2 197.3,316.7 205.4,308L"/>
  <polygon points="181.5,37.9 177.5,70.8 191.6,40.6L"/>
  <polygon points="186.9,27.2 181.5,37.9 191.6,40.6L"/>
  <polygon points="182.8,15.1 186.9,27.2 191.6,13.7L"/>
  <polygon points="219.9,123.2 228.7,144 237.4,111.1L"/>
  <polygon points="164.8,107.1 166.8,136.7 193.7,103.7L"/>
  <polygon points="177.5,70.8 164.8,107.1 193.7,103.7L"/>
  <polygon points="179.7,225.4 181.1,228.7 203.9,224L"/>
  <polygon points="193.2,295.2 177.8,304 197.3,316.7L"/>
  <polygon points="177.8,304 185.2,322.8 197.3,316.7L"/>
  <polygon points="186.9,27.2 191.6,40.6 195.6,24.5L"/>
  <polygon points="191.6,40.6 199,39.9 200.3,27.8L"/>
  <polygon points="195.6,24.5 191.6,40.6 200.3,27.8L"/>
  <polygon points="166.8,136.7 169.6,168.9 197.8,151.4L"/>
  <polygon points="197.8,151.4 169.6,168.9 203.9,224L"/>
  <polygon points="181.1,228.7 179.1,250.9 198.6,256.2L"/>
  <polygon points="198.6,256.2 200.6,282.4 208,260.9L"/>
  <polygon points="211.7,13 209,27.1 215.8,27.8L"/>
  <polygon points="182.8,15.1 191.6,13.7 198.9,4.3"/>
  <polygon points="203.9,224 206.6,230 230.8,222.6L"/>
  <polygon points="169.6,168.9 161.6,209.3 203.9,224L"/>
  <polygon points="161.6,209.3 179.7,225.4 203.9,224L"/>
  <polygon points="206.3,13 200.3,27.8 209,27.1L"/>
  <polygon points="199,39.9 208.4,43.3 209,27.1L"/>
  <polygon points="195.6,24.5 200.3,27.8 206.3,13L"/>
  <polygon points="215.8,27.8 221.2,43.9 225.2,29.8L"/>
  <polygon points="181.1,228.7 198.6,256.2 206.6,230L"/>
  <polygon points="193.7,103.7 197.8,151.4 210.5,144.7L"/>
  <polygon points="203.9,224 181.1,228.7 206.6,230L"/>
  <polygon points="206.3,13 211.7,13 213.7,3.6"/>
  <polygon points="266.9,64 263.5,84.2 281.5,69.4L"/>
  <polygon points="199,39.9 191.6,40.6 208.4,43.3L"/>
  <polygon points="200.3,27.8 199,39.9 209,27.1L"/>
  <polygon points="210.5,144.7 215.2,143.4 217.2,121.9L"/>
  <polygon points="191.6,40.6 177.5,70.8 208.4,43.3L"/>
  <polygon points="206.6,230 198.6,256.2 210,254.9L"/>
  <polygon points="219.8,13.7 215.8,27.8 225.2,29.8L"/>
  <polygon points="198.9,4.3 206.3,13 213.7,3.6"/>
  <polygon points="245.3,38.5 233.9,47.3 247.4,51.9L"/>
  <polygon points="206.3,13 209,27.1 211.7,13L"/>
  <polygon points="198.9,4.3 213.7,3.6 219.8,0.2L"/>
  <polygon points="227.3,149.4 197.8,151.4 239.4,157.4L"/>
  <polygon points="208,260.9 200.6,282.4 215.4,287.8L"/>
  <polygon points="200.6,282.4 193.2,295.2 215.4,287.8L"/>
  <polygon points="193.2,295.2 205.4,308 215.4,287.8L"/>
  <polygon points="209,27.1 208.4,43.3 215.8,27.8L"/>
  <polygon points="208.4,43.3 177.5,70.8 217.8,73.5L"/>
  <polygon points="273.1,252.1 266.4,253.5 279.2,266.2L"/>
  <polygon points="213.7,3.6 219.8,13.7 219.8,0.2"/>
  <polygon points="193.7,103.7 210.5,144.7 217.2,121.9L"/>
  <polygon points="177.5,70.8 193.7,103.7 217.8,73.5"/>
  <polygon points="213.7,3.6 211.7,13 219.8,13.7L"/>
  <polygon points="211.7,13 215.8,27.8 219.8,13.7L"/>
  <polygon points="231.9,31.8 242,34.5 242.6,20.4L"/>
  <polygon points="208.4,43.3 217.8,73.5 221.2,43.9L"/>
  <polygon points="217.2,121.9 215.2,143.4 219.9,123.2L"/>
  <polygon points="215.8,27.8 208.4,43.3 221.2,43.9L"/>
  <polygon points="206.6,230 210,254.9 223.4,256.2L"/>
  <polygon points="219.8,13.7 225.2,29.8 229.9,15L"/>
  <polygon points="229.9,15 225.2,29.8 231.9,31.8L"/>
  <polygon points="210.5,144.7 197.8,151.4 227.3,149.4L"/>
  <polygon points="235.9,16.3 231.9,31.8 242.6,20.4L"/>
  <polygon points="219.8,13.7 229.9,15 232.5,6.3"/>
  <polygon points="215.2,143.4 210.5,144.7 227.3,149.4L"/>
  <polygon points="219.9,123.2 215.2,143.4 228.7,144L"/>
  <polygon points="215.2,143.4 227.3,149.4 228.7,144L"/>
  <polygon points="219.8,0.2 219.8,13.7 232.5,6.3"/>
  <polygon points="225.2,29.8 221.2,43.9 231.9,31.8L"/>
  <polygon points="269.1,242.7 266.4,253.5 273.1,252.1L"/>
  <polygon points="236.8,230 234.8,244.1 240.2,245.4L"/>
  <polygon points="217.2,121.9 219.9,123.2 234,108.4L"/>
  <polygon points="193.7,103.7 217.2,121.9 234,108.4L"/>
  <polygon points="217.8,73.5 193.7,103.7 234,108.4L"/>
  <polygon points="230.8,222.6 234.8,244.1 236.8,230L"/>
  <polygon points="231.9,31.8 221.2,43.9 233.9,47.3L"/>
  <polygon points="221.2,43.9 217.8,73.5 233.9,47.3L"/>
  <polygon points="206.6,230 223.4,256.2 234.8,244.1L"/>
  <polygon points="230.8,222.6 206.6,230 234.8,244.1L"/>
  <polygon points="197.8,151.4 203.9,224 239.4,157.4L"/>
  <polygon points="247.4,51.9 255.4,53.3 260.8,39.8L"/>
  <polygon points="273.1,252.1 279.2,266.2 281.9,263.5L"/>
  <polygon points="236.8,230 240.2,245.4 246.9,228.6L"/>
  <polygon points="257.7,225.3 246.9,228.6 269.1,242.7L"/>
  <polygon points="242,34.5 245.3,38.5 251.4,27.1L"/>
  <polygon points="250.3,215.2 246.9,228.6 257.7,225.3L"/>
  <polygon points="234.8,244.1 223.4,256.2 240.2,245.4L"/>
  <polygon points="275.8,242 273.1,252.1 281.9,263.5L"/>
  <polygon points="235.9,16.3 242.6,20.4 247.3,11.6L"/>
  <polygon points="237.4,111.1 228.7,144 243.5,151.4L"/>
  <polygon points="231.9,31.8 233.9,47.3 242,34.5L"/>
  <polygon points="232.5,6.3 235.9,16.3 247.3,11.6L"/>
  <polygon points="227.3,149.4 239.4,157.4 243.5,151.4L"/>
  <polygon points="228.7,144 227.3,149.4 243.5,151.4L"/>
  <polygon points="242,34.5 233.9,47.3 245.3,38.5L"/>
  <polygon points="248.2,167.5 252.9,176.9 256.9,162.1L"/>
  <polygon points="230.8,222.6 250.3,215.2 255.6,204.4L"/>
  <polygon points="230.8,222.6 236.8,230 246.9,228.6L"/>
  <polygon points="289.1,114.4 293.1,113.7 295.8,98.2"/>
  <polygon points="239.4,157.4 203.9,224 248.2,167.5L"/>
  <polygon points="233.9,47.3 217.8,73.5 247.4,51.9L"/>
  <polygon points="203.9,224 230.8,222.6 248.2,167.5L"/>
  <polygon points="242.6,20.4 242,34.5 251.4,27.1L"/>
  <polygon points="243.5,151.4 239.4,157.4 248.2,167.5L"/>
  <polygon points="234,108.4 237.4,111.1 250.1,97"/>
  <polygon points="248.2,167.5 230.8,222.6 252.9,176.9L"/>
  <polygon points="217.8,73.5 234,108.4 250.1,97"/>
  <polygon points="230.8,222.6 246.9,228.6 250.3,215.2L"/>
  <polygon points="251.4,27.1 245.3,38.5 256.1,31.1L"/>
  <polygon points="245.3,38.5 247.4,51.9 260.8,39.8L"/>
  <polygon points="356.5,287.6 349.8,291 356.5,301.4L"/>
  <polygon points="250.1,97 237.4,111.1 253.5,99.6"/>
  <polygon points="263.5,26.4 256.1,31.1 264.8,33.1L"/>
  <polygon points="230.8,222.6 255.6,204.4 256.9,191.7L"/>
  <polygon points="242.6,20.4 251.4,27.1 256.7,19L"/>
  <polygon points="247.3,11.6 242.6,20.4 256.7,19L"/>
  <polygon points="256.1,31.1 260.8,39.8 264.8,33.1L"/>
  <polygon points="252.9,176.9 230.8,222.6 256.9,191.7L"/>
  <polygon points="270.4,191.7 281.1,199.7 283.8,178.9L"/>
  <polygon points="251.4,27.1 256.1,31.1 256.7,19L"/>
  <polygon points="269.1,242.7 275.8,242 277.1,220.5L"/>
  <polygon points="266.2,44.5 255.4,53.3 266.9,64L"/>
  <polygon points="243.5,151.4 248.2,167.5 256.9,162.1L"/>
  <polygon points="250.1,97 253.5,99.6 260.2,83.5L"/>
  <polygon points="255.4,53.3 247.4,51.9 260.2,83.5L"/>
  <polygon points="217.8,73.5 250.1,97 260.2,83.5L"/>
  <polygon points="247.4,51.9 217.8,73.5 260.2,83.5L"/>
  <polygon points="256.1,31.1 245.3,38.5 260.8,39.8L"/>
  <polygon points="246.9,228.6 240.2,245.4 269.1,242.7L"/>
  <polygon points="260.8,39.8 255.4,53.3 266.2,44.5L"/>
  <polygon points="271.1,207.8 277.1,220.5 282.5,220.5L"/>
  <polygon points="260.2,83.5 253.5,99.6 263.5,84.2L"/>
  <polygon points="256.9,162.1 252.9,176.9 263.6,174.9L"/>
  <polygon points="252.9,176.9 256.9,191.7 263.6,174.9L"/>
  <polygon points="256.7,19 256.1,31.1 263.5,26.4L"/>
  <polygon points="289.8,158.7 283.8,178.9 289.8,178.9L"/>
  <polygon points="257.7,225.3 269.1,242.7 277.1,220.5L"/>
  <polygon points="270.4,191.7 255.6,204.4 271.1,207.8L"/>
  <polygon points="260.2,83.5 263.5,84.2 266.9,64L"/>
  <polygon points="255.4,53.3 260.2,83.5 266.9,64L"/>
  <polygon points="264.8,33.1 260.8,39.8 266.2,44.5L"/>
  <polygon points="287.2,200.4 282.5,220.5 304.7,229.2L"/>
  <polygon points="271.1,207.8 257.7,225.3 277.1,220.5L"/>
  <polygon points="246.3,254.8 266.4,253.5 269.1,242.7L"/>
  <polygon points="240.2,245.4 246.3,254.8 269.1,242.7L"/>
  <polygon points="283.8,178.9 287.2,200.4 289.8,178.9L"/>
  <polygon points="281.5,69.4 294.4,92.2 295.1,72L"/>
  <polygon points="256.9,191.7 255.6,204.4 270.4,191.7L"/>
  <polygon points="263.6,174.9 256.9,191.7 270.4,191.7L"/>
  <polygon points="255.6,204.4 250.3,215.2 271.1,207.8L"/>
  <polygon points="250.3,215.2 257.7,225.3 271.1,207.8L"/>
  <polygon points="269.1,242.7 273.1,252.1 275.8,242L"/>
  <polygon points="293.2,138.6 312,150.6 316,115L"/>
  <polygon points="295.1,72 305.8,75.4 320.6,59.2L"/>
  <polygon points="293.1,113.7 293.2,138.6 316,115L"/>
  <polygon points="270.4,191.7 271.1,207.8 281.1,199.7L"/>
  <polygon points="277.1,220.5 275.8,242 282.5,220.5L"/>
  <polygon points="283.8,178.9 281.1,199.7 287.2,200.4L"/>
  <polygon points="275.8,242 299.4,259.5 304.7,229.2L"/>
  <polygon points="294.4,92.2 263.5,84.2 295.8,98.2L"/>
  <polygon points="364.9,60.5 371.7,64.6 373,58.5L"/>
  <polygon points="281.1,199.7 282.5,220.5 287.2,200.4L"/>
  <polygon points="263.6,174.9 270.4,191.7 283.8,178.9L"/>
  <polygon points="263.5,84.2 289.1,114.4 295.8,98.2"/>
  <polygon points="295.8,98.2 293.1,113.7 316,115L"/>
  <polygon points="263.6,174.9 283.8,178.9 284.4,156.7L"/>
  <polygon points="256.9,162.1 263.6,174.9 284.4,156.7L"/>
  <polygon points="237.4,111.1 243.5,151.4 287.8,137.9L"/>
  <polygon points="253.5,99.6 237.4,111.1 287.8,137.9L"/>
  <polygon points="256.9,162.1 284.4,156.7 287.8,137.9L"/>
  <polygon points="324,62.6 307.9,79.4 326,94.8L"/>
  <polygon points="243.5,151.4 256.9,162.1 287.8,137.9L"/>
  <polygon points="263.5,84.2 253.5,99.6 289.1,114.4"/>
  <polygon points="253.5,99.6 287.8,137.9 289.1,114.4L"/>
  <polygon points="284.4,156.7 283.8,178.9 289.8,158.7L"/>
  <polygon points="281.5,69.4 263.5,84.2 294.4,92.2L"/>
  <polygon points="293.1,113.7 289.1,114.4 293.2,138.6L"/>
  <polygon points="289.1,114.4 287.8,137.9 293.2,138.6L"/>
  <polygon points="287.8,137.9 284.4,156.7 293.2,138.6L"/>
  <polygon points="284.4,156.7 289.8,158.7 293.2,138.6L"/>
  <polygon points="282.5,220.5 275.8,242 304.7,229.2L"/>
  <polygon points="281.9,263.5 279.2,266.2 295.3,276.3L"/>
  <polygon points="281.9,263.5 295.3,276.3 298,272.9L"/>
  <polygon points="287.2,200.4 304.7,229.2 307.3,186.9L"/>
  <polygon points="289.8,178.9 287.2,200.4 307.3,186.9L"/>
  <polygon points="295.3,276.3 312.8,289 314.8,283L"/>
  <polygon points="281.9,263.5 298,272.9 299.4,259.5L"/>
  <polygon points="275.8,242 281.9,263.5 299.4,259.5L"/>
  <polygon points="362.4,187.5 334.9,202.3 365.8,217.1L"/>
  <polygon points="289.8,158.7 289.8,178.9 307.3,186.9L"/>
  <polygon points="298,272.9 295.3,276.3 314.8,283L"/>
  <polygon points="294.4,92.2 295.8,98.2 307.9,79.4L"/>
  <polygon points="295.1,72 294.4,92.2 307.9,79.4L"/>
  <polygon points="305.8,75.4 295.1,72 307.9,79.4L"/>
  <polygon points="320.8,256.8 333.7,289 337.6,252.7L"/>
  <polygon points="340.8,61.9 326,94.8 343.5,107.6"/>
  <polygon points="289.8,158.7 307.3,186.9 312,150.6L"/>
  <polygon points="293.2,138.6 289.8,158.7 312,150.6L"/>
  <polygon points="304.7,229.2 299.4,259.5 320.8,256.8L"/>
  <polygon points="320.6,59.2 324,62.6 330,56.5L"/>
  <polygon points="320.6,59.2 305.8,75.4 324,62.6L"/>
  <polygon points="381.1,61.2 371.7,64.6 386.5,67.2L"/>
  <polygon points="299.4,259.5 298,272.9 320.8,256.8L"/>
  <polygon points="298,272.9 314.8,283 320.8,256.8L"/>
  <polygon points="330.9,228.5 320.8,256.8 337.6,252.7L"/>
  <polygon points="305.8,75.4 307.9,79.4 324,62.6L"/>
  <polygon points="307.9,79.4 295.8,98.2 326,94.8L"/>
  <polygon points="295.8,98.2 316,115 326,94.8"/>
  <polygon points="312,150.6 332.8,171.4 334.1,135.1L"/>
  <polygon points="304.7,229.2 320.8,256.8 330.9,228.5L"/>
  <polygon points="316,115 312,150.6 334.1,135.1L"/>
  <polygon points="312,150.6 307.3,186.9 332.8,171.4L"/>
  <polygon points="330,56.5 341.4,56.5 342.8,50.5L"/>
  <polygon points="333.7,289 312.8,289 338.4,300.4L"/>
  <polygon points="349.8,291 350.5,305.8 356.5,301.4L"/>
  <polygon points="314.8,283 312.8,289 333.7,289L"/>
  <polygon points="320.8,256.8 314.8,283 333.7,289L"/>
  <polygon points="336.7,59.9 324,62.6 340.8,61.9L"/>
  <polygon points="332.8,171.4 307.3,186.9 334.9,202.3L"/>
  <polygon points="307.3,186.9 304.7,229.2 334.9,202.3L"/>
  <polygon points="304.7,229.2 330.9,228.5 334.9,202.3L"/>
  <polygon points="330,56.5 324,62.6 336.7,59.9L"/>
  <polygon points="316,115 334.1,135.1 343.5,107.6L"/>
  <polygon points="326,94.8 316,115 343.5,107.6L"/>
  <polygon points="336.7,59.9 340.8,61.9 341.4,56.5L"/>
  <polygon points="324,62.6 326,94.8 340.8,61.9L"/>
  <polygon points="330,56.5 336.7,59.9 341.4,56.5L"/>
  <polygon points="350.8,53.8 350.2,58.5 356.2,62.6L"/>
  <polygon points="341.4,56.5 350.2,58.5 350.8,53.8L"/>
  <polygon points="342.8,50.5 341.4,56.5 350.8,53.8L"/>
  <polygon points="350.8,53.8 356.2,62.6 361.6,55.8L"/>
  <polygon points="333.7,289 338.4,300.4 349.8,291L"/>
  <polygon points="341.4,56.5 340.8,61.9 350.2,58.5L"/>
  <polygon points="330.9,228.5 357.1,248.7 365.8,217.1L"/>
  <polygon points="330.9,228.5 337.6,252.7 357.1,248.7L"/>
  <polygon points="349.8,291 338.4,300.4 350.5,305.8L"/>
  <polygon points="356.2,45.8 350.8,53.8 361.6,55.8L"/>
  <polygon points="349.8,291 356.5,287.6 361.9,278.2L"/>
  <polygon points="343.5,107.6 334.1,135.1 354.9,116.3L"/>
  <polygon points="342.8,50.5 350.8,53.8 356.2,45.8L"/>
  <polygon points="350.2,58.5 340.8,61.9 356.2,62.6L"/>
  <polygon points="340.8,61.9 343.5,107.6 356.2,62.6"/>
  <polygon points="334.9,202.3 330.9,228.5 365.8,217.1L"/>
  <polygon points="361.6,55.8 373,58.5 373.7,48.4L"/>
  <polygon points="356.2,45.8 361.6,55.8 373.7,48.4L"/>
  <polygon points="371.8,130.4 363.7,157.3 383.9,143.8L"/>
  <polygon points="334.1,135.1 363.7,157.3 371.8,130.4L"/>
  <polygon points="337.6,252.7 333.7,289 361.9,278.2L"/>
  <polygon points="333.7,289 349.8,291 361.9,278.2L"/>
  <polygon points="354.9,116.3 334.1,135.1 371.8,130.4L"/>
  <polygon points="332.8,171.4 334.9,202.3 362.4,187.5L"/>
  <polygon points="337.6,252.7 361.9,278.2 363.8,260.7L"/>
  <polygon points="334.1,135.1 332.8,171.4 363.7,157.3L"/>
  <polygon points="332.8,171.4 362.4,187.5 363.7,157.3L"/>
  <polygon points="357.1,248.7 337.6,252.7 363.8,260.7L"/>
  <polygon points="386.6,223.1 392,222.4 394,207L"/>
  <polygon points="361.6,55.8 356.2,62.6 364.9,60.5L"/>
  <polygon points="388.5,73.9 397.2,82 397.9,67.9L"/>
  <polygon points="397.2,82 371.8,130.4 405.3,88.7"/>
  <polygon points="373,58.5 371.7,64.6 381.1,61.2L"/>
  <polygon points="343.5,107.6 354.9,116.3 371.7,64.6"/>
  <polygon points="356.2,62.6 343.5,107.6 371.7,64.6"/>
  <polygon points="364.9,60.5 356.2,62.6 371.7,64.6L"/>
  <polygon points="361.6,55.8 364.9,60.5 373,58.5L"/>
  <polygon points="365.8,217.1 357.1,248.7 375.9,243.3L"/>
  <polygon points="365.8,217.1 386.6,223.1 387.3,204.9L"/>
  <polygon points="386.6,223.1 375.9,243.3 387.3,236.5L"/>
  <polygon points="373.7,48.4 389.8,56.5 391.1,50.4L"/>
  <polygon points="371.8,130.4 383.9,143.8 417.4,118.2L"/>
  <polygon points="417.6,235.8 423,255.3 425,236.5L"/>
  <polygon points="373.7,48.4 373,58.5 381.1,61.2L"/>
  <polygon points="426.8,114.2 423.5,129.7 429.5,129L"/>
  <polygon points="397.9,67.9 409.3,77.9 410.6,54.4L"/>
  <polygon points="387.3,236.5 375.9,243.3 388,245.3L"/>
  <polygon points="362.4,187.5 365.8,217.1 387.3,204.9L"/>
  <polygon points="387.3,204.9 386.6,223.1 394,207L"/>
  <polygon points="365.8,217.1 375.9,243.3 386.6,223.1L"/>
  <polygon points="383.9,143.8 363.7,157.3 396,153.2L"/>
  <polygon points="392,222.4 387.3,236.5 392.7,239.2L"/>
  <polygon points="416.7,109.5 411.4,100.1 417.4,118.2L"/>
  <polygon points="386.5,67.2 371.7,64.6 388.5,73.9L"/>
  <polygon points="371.7,64.6 354.9,116.3 388.5,73.9"/>
  <polygon points="394,188.8 394,207 398,189.5L"/>
  <polygon points="373.7,48.4 381.1,61.2 389.8,56.5L"/>
  <polygon points="381.1,61.2 386.5,67.2 389.8,56.5L"/>
  <polygon points="389.8,56.5 397.9,67.9 410.6,54.4L"/>
  <polygon points="387.3,236.5 388,245.3 392.7,239.2L"/>
  <polygon points="387.3,204.9 394,207 394,188.8L"/>
  <polygon points="391.1,50.4 389.8,56.5 410.6,54.4L"/>
  <polygon points="386.6,223.1 387.3,236.5 392,222.4L"/>
  <polygon points="392.7,239.2 388,245.3 394.7,246.6L"/>
  <polygon points="362.4,187.5 387.3,204.9 394,188.8L"/>
  <polygon points="388.5,73.9 354.9,116.3 397.2,82"/>
  <polygon points="389.8,56.5 386.5,67.2 397.9,67.9L"/>
  <polygon points="402,162.6 410.8,169.3 416.1,159.9L"/>
  <polygon points="354.9,116.3 371.8,130.4 397.2,82"/>
  <polygon points="386.5,67.2 388.5,73.9 397.9,67.9L"/>
  <polygon points="396,153.2 363.7,157.3 398,177.4L"/>
  <polygon points="362.4,187.5 394,188.8 398,177.4L"/>
  <polygon points="363.7,157.3 362.4,187.5 398,177.4L"/>
  <polygon points="432.3,202.2 436.3,206.9 447.7,189.4L"/>
  <polygon points="394,188.8 398,189.5 401.4,179.4L"/>
  <polygon points="398,177.4 394,188.8 401.4,179.4L"/>
  <polygon points="396,153.2 398,177.4 402,162.6L"/>
  <polygon points="415.4,143.1 396,153.2 416.1,159.9L"/>
  <polygon points="396,153.2 402,162.6 416.1,159.9L"/>
  <polygon points="411.4,100.1 371.8,130.4 417.4,118.2L"/>
  <polygon points="429.6,179.4 398,189.5 432.3,202.2L"/>
  <polygon points="415.4,143.1 416.1,159.9 420.1,143.8L"/>
  <polygon points="397.2,82 405.3,88.7 409.3,77.9L"/>
  <polygon points="397.9,67.9 397.2,82 409.3,77.9L"/>
  <polygon points="402,162.6 398,177.4 410.8,169.3L"/>
  <polygon points="398,177.4 401.4,179.4 410.8,169.3L"/>
  <polygon points="410.8,169.3 401.4,179.4 414.1,171.3L"/>
  <polygon points="464.7,320.4 443.9,328.5 465.4,334.5L"/>
  <polygon points="405.3,88.7 371.8,130.4 411.4,100.1L"/>
  <polygon points="383.9,143.8 396,153.2 415.4,143.1L"/>
  <polygon points="495.6,294.8 484.8,313 502.3,304.2L"/>
  <polygon points="410.8,169.3 414.1,171.3 416.1,159.9L"/>
  <polygon points="424.1,98.1 416.7,109.5 426.8,114.2L"/>
  <polygon points="417.6,235.8 418.9,256 423,255.3L"/>
  <polygon points="417.6,235.8 406.2,253.3 418.9,256L"/>
  <polygon points="406.2,253.3 416.9,278.1 418.9,256L"/>
  <polygon points="405.3,88.7 411.4,100.1 418.7,85.3"/>
  <polygon points="392.7,239.2 394.7,246.6 417.6,235.8L"/>
  <polygon points="394.7,246.6 406.2,253.3 417.6,235.8L"/>
  <polygon points="392,222.4 392.7,239.2 417.6,235.8L"/>
  <polygon points="478.8,304.9 484.8,313 495.6,294.8L"/>
  <polygon points="417.4,118.2 383.9,143.8 418.1,131L"/>
  <polygon points="409.3,77.9 418.7,85.3 422.1,66.5L"/>
  <polygon points="383.9,143.8 415.4,143.1 418.1,131L"/>
  <polygon points="416.7,109.5 417.4,118.2 426.8,114.2L"/>
  <polygon points="410.6,54.4 409.3,77.9 422.1,66.5L"/>
  <polygon points="409.3,77.9 405.3,88.7 418.7,85.3L"/>
  <polygon points="429.1,307.7 433.8,321.1 435.1,315.7L"/>
  <polygon points="418.1,131 420.1,143.8 423.5,129.7L"/>
  <polygon points="418.9,256 416.9,278.1 423,255.3L"/>
  <polygon points="417.4,118.2 423.5,129.7 426.8,114.2L"/>
  <polygon points="394,207 392,222.4 422.2,219.7L"/>
  <polygon points="392,222.4 417.6,235.8 422.2,219.7L"/>
  <polygon points="424.1,98.1 437.6,113.5 443.6,95.4"/>
  <polygon points="423,255.3 416.9,278.1 424.4,298.3L"/>
  <polygon points="427,221.7 425,236.5 436.3,206.9L"/>
  <polygon points="417.4,118.2 418.1,131 423.5,129.7L"/>
  <polygon points="411.4,100.1 416.7,109.5 424.1,98.1"/>
  <polygon points="418.7,85.3 411.4,100.1 424.1,98.1"/>
  <polygon points="394,207 422.2,219.7 432.3,202.2L"/>
  <polygon points="418.7,85.3 424.1,98.1 433.5,79.3L"/>
  <polygon points="422.2,219.7 417.6,235.8 427,221.7L"/>
  <polygon points="417.6,235.8 425,236.5 427,221.7L"/>
  <polygon points="401.4,179.4 398,189.5 429.6,179.4L"/>
  <polygon points="414.1,171.3 401.4,179.4 429.6,179.4L"/>
  <polygon points="423.5,129.7 420.1,143.8 429.5,129L"/>
  <polygon points="398,189.5 394,207 432.3,202.2L"/>
  <polygon points="433.8,321.1 443.9,328.5 444.5,319.1L"/>
  <polygon points="447.1,180.7 429.6,179.4 447.7,189.4L"/>
  <polygon points="422.1,66.5 418.7,85.3 433.5,79.3L"/>
  <polygon points="433.5,79.3 424.1,98.1 443.6,95.4L"/>
  <polygon points="422.2,219.7 427,221.7 436.3,206.9L"/>
  <polygon points="432.3,202.2 422.2,219.7 436.3,206.9L"/>
  <polygon points="424.1,98.1 426.8,114.2 437.6,113.5L"/>
  <polygon points="426.8,114.2 429.5,129 437.6,113.5L"/>
  <polygon points="435.1,315.7 433.8,321.1 444.5,319.1L"/>
  <polygon points="424.4,298.3 429.1,307.7 443.2,311.7L"/>
  <polygon points="429.1,307.7 435.1,315.7 443.2,311.7L"/>
  <polygon points="423,255.3 424.4,298.3 443.2,311.7L"/>
  <polygon points="443.2,311.7 435.1,315.7 444.5,319.1L"/>
  <polygon points="526.4,256.5 537.9,262.5 541.2,239.7L"/>
  <polygon points="443.2,311.7 444.5,319.1 462,313L"/>
  <polygon points="429.6,179.4 432.3,202.2 447.7,189.4L"/>
  <polygon points="462,313 444.5,319.1 464.7,320.4L"/>
  <polygon points="447.7,189.4 436.3,206.9 451.8,194.1L"/>
  <polygon points="508.9,187.3 524.3,201.4 527,191.3L"/>
  <polygon points="508.9,187.3 503.5,191.4 517.6,205.5L"/>
  <polygon points="485.4,180 503.5,191.4 508.9,187.3L"/>
  <polygon points="444.5,319.1 443.9,328.5 464.7,320.4L"/>
  <polygon points="447.1,180.7 447.7,189.4 468.6,178.6L"/>
  <polygon points="447.7,189.4 451.8,194.1 468.6,178.6L"/>
  <polygon points="423,255.3 443.2,311.7 478.8,304.9L"/>
  <polygon points="443.2,311.7 462,313 478.8,304.9L"/>
  <polygon points="508.9,187.3 517.6,205.5 524.3,201.4L"/>
  <polygon points="484.8,313 464.7,320.4 485.5,331.8L"/>
  <polygon points="464.7,320.4 465.4,334.5 485.5,331.8L"/>
  <polygon points="478.8,304.9 464.7,320.4 484.8,313L"/>
  <polygon points="423,255.3 495.6,294.8 505.6,282.1L"/>
  <polygon points="468.6,178.6 451.8,194.1 485.4,180L"/>
  <polygon points="541.2,239.7 560,263.9 562.7,239.7L"/>
  <polygon points="423,255.3 478.8,304.9 495.6,294.8L"/>
  <polygon points="558,218.2 541.2,239.7 562.7,239.7L"/>
  <polygon points="502.3,304.2 484.8,313 504.3,323L"/>
  <polygon points="484.8,313 485.5,331.8 504.3,323L"/>
  <polygon points="485.4,180 451.8,194.1 503.5,191.4L"/>
  <polygon points="548.5,204.1 537.1,220.9 558,218.2L"/>
  <polygon points="505.6,282.1 495.6,294.8 516.4,292.8L"/>
  <polygon points="425,236.5 423,255.3 505.6,282.1L"/>
  <polygon points="495.6,294.8 502.3,304.2 516.4,292.8L"/>
  <polygon points="505.6,282.1 516.4,292.8 518.4,272L"/>
  <polygon points="503.5,191.4 451.8,194.1 517.6,205.5L"/>
  <polygon points="518.4,272 516.4,292.8 527.1,278.7L"/>
  <polygon points="525,223.6 451.8,194.1 527.1,238.4L"/>
  <polygon points="516.4,292.8 502.3,304.2 522.5,310.9L"/>
  <polygon points="502.3,304.2 504.3,323 522.5,310.9L"/>
  <polygon points="517.6,205.5 451.8,194.1 525,223.6L"/>
  <polygon points="527.1,238.4 526.4,256.5 541.2,239.7L"/>
  <polygon points="524.3,201.4 517.6,205.5 525,223.6L"/>
  <polygon points="425,236.5 505.6,282.1 527.1,238.4L"/>
  <polygon points="505.6,282.1 518.4,272 526.4,256.5L"/>
  <polygon points="537.9,262.5 527.1,278.7 552,285.4L"/>
  <polygon points="527.1,278.7 516.4,292.8 536.6,298.8L"/>
  <polygon points="436.3,206.9 425,236.5 527.1,238.4L"/>
  <polygon points="451.8,194.1 436.3,206.9 527.1,238.4L"/>
  <polygon points="505.6,282.1 526.4,256.5 527.1,238.4L"/>
  <polygon points="516.4,292.8 522.5,310.9 536.6,298.8L"/>
  <polygon points="524.3,201.4 525,223.6 537.1,220.9L"/>
  <polygon points="537.1,220.9 527.1,238.4 541.2,239.7L"/>
  <polygon points="524.3,201.4 537.1,220.9 548.5,204.1L"/>
  <polygon points="525,223.6 527.1,238.4 537.1,220.9L"/>
  <polygon points="527,191.3 524.3,201.4 548.5,204.1L"/>
  <polygon points="526.4,256.5 518.4,272 537.9,262.5L"/>
  <polygon points="518.4,272 527.1,278.7 537.9,262.5L"/>
  <polygon points="527.1,278.7 536.6,298.8 552,285.4L"/>
  <polygon points="537.1,220.9 541.2,239.7 558,218.2L"/>
  <polygon points="537.9,262.5 552,285.4 560,263.9L"/>
  <polygon points="541.2,239.7 537.9,262.5 560,263.9L"/>
</g>
</svg>
