<svg width="653px" height="428px" viewBox="0 0 653 428" xmlns="http://www.w3.org/2000/svg" xmlns:xlink="http://www.w3.org/1999/xlink"><g stroke="#080808" stroke-width="1" fill="none" fill-rule="evenodd" transform="translate(25, 18)"><path d="M37,283 L28,290 L39,320 L37,283"></path><path d="M62,323 L46,338 L64,349 L62,323"></path><path d="M39,240 L56,261 L66,213 L39,240"></path><path d="M-0,232 L12,251 L23,223 L-0,232"></path><path d="M106,207 L85,206 L110,225 L106,207"></path><path d="M23,204 L3,210 L23,223 L23,204"></path><path d="M23,223 L12,251 L39,240 L23,223"></path><path d="M3,210 L-0,232 L23,223 L3,210"></path><path d="M15,270 L21,282 L37,283 L15,270"></path><path d="M21,282 L28,290 L37,283 L21,282"></path><path d="M23,223 L39,240 L46,203 L23,223"></path><path d="M46,203 L39,240 L66,213 L46,203"></path><path d="M12,251 L15,270 L39,240 L12,251"></path><path d="M56,261 L37,283 L62,323 L56,261"></path><path d="M23,204 L23,223 L46,203 L23,204"></path><path d="M137,240 L96,270 L138,285 L137,240"></path><path d="M23,204 L46,203 L56,189 L23,204"></path><path d="M15,270 L37,283 L56,261 L15,270"></path><path d="M39,240 L15,270 L56,261 L39,240"></path><path d="M83,166 L56,189 L85,206 L83,166"></path><path d="M37,283 L39,320 L62,323 L37,283"></path><path d="M39,320 L46,338 L62,323 L39,320"></path><path d="M56,189 L66,213 L85,206 L56,189"></path><path d="M56,189 L46,203 L66,213 L56,189"></path><path d="M99,103 L69,147 L116,125 L99,103"></path><path d="M69,147 L83,166 L116,125 L69,147"></path><path d="M62,323 L96,330 L96,270 L62,323"></path><path d="M56,261 L62,323 L96,270 L56,261"></path><path d="M69,147 L56,189 L83,166 L69,147"></path><path d="M96,330 L64,349 L96,354 L96,330"></path><path d="M62,323 L64,349 L96,330 L62,323"></path><path d="M83,166 L85,206 L106,207 L83,166"></path><path d="M137,240 L162,252 L176,202 L137,240"></path><path d="M66,213 L56,261 L96,270 L66,213"></path><path d="M171,297 L214,328 L217,264 L171,297"></path><path d="M96,330 L122,359 L134,325 L96,330"></path><path d="M85,206 L66,213 L110,225 L85,206"></path><path d="M66,213 L96,270 L110,225 L66,213"></path><path d="M140,145 L83,166 L146,183 L140,145"></path><path d="M83,166 L106,207 L146,183 L83,166"></path><path d="M199,356 L186,381 L208,387 L199,356"></path><path d="M147,54 L186,94 L186,36 L147,54"></path><path d="M146,183 L137,240 L176,202 L146,183"></path><path d="M96,330 L96,354 L122,359 L96,330"></path><path d="M99,103 L116,125 L147,54 L99,103"></path><path d="M110,225 L137,240 L146,183 L110,225"></path><path d="M110,225 L96,270 L137,240 L110,225"></path><path d="M96,330 L134,325 L138,285 L96,330"></path><path d="M96,270 L96,330 L138,285 L96,270"></path><path d="M116,125 L83,166 L140,145 L116,125"></path><path d="M162,252 L138,285 L171,297 L162,252"></path><path d="M106,207 L110,225 L146,183 L106,207"></path><path d="M138,285 L134,325 L171,297 L138,285"></path><path d="M137,240 L138,285 L162,252 L137,240"></path><path d="M291,20 L331,44 L334,21 L291,20"></path><path d="M211,236 L162,252 L217,264 L211,236"></path><path d="M227,153 L272,161 L280,135 L227,153"></path><path d="M233,11 L235,56 L262,2 L233,11"></path><path d="M116,125 L140,145 L186,94 L116,125"></path><path d="M147,54 L116,125 L186,94 L147,54"></path><path d="M134,325 L122,359 L186,381 L134,325"></path><path d="M233,11 L224,37 L235,56 L233,11"></path><path d="M186,94 L140,145 L186,157 L186,94"></path><path d="M140,145 L146,183 L186,157 L140,145"></path><path d="M146,183 L176,202 L186,157 L146,183"></path><path d="M171,297 L134,325 L199,356 L171,297"></path><path d="M134,325 L186,381 L199,356 L134,325"></path><path d="M176,202 L211,236 L223,192 L176,202"></path><path d="M186,157 L176,202 L223,192 L186,157"></path><path d="M162,252 L171,297 L217,264 L162,252"></path><path d="M176,202 L162,252 L211,236 L176,202"></path><path d="M235,56 L233,69 L250,72 L235,56"></path><path d="M171,297 L199,356 L214,328 L171,297"></path><path d="M214,328 L199,356 L222,356 L214,328"></path><path d="M233,69 L217,116 L250,72 L233,69"></path><path d="M186,94 L186,157 L217,116 L186,94"></path><path d="M407,330 L437,369 L441,313 L407,330"></path><path d="M199,356 L208,387 L222,356 L199,356"></path><path d="M224,37 L233,69 L235,56 L224,37"></path><path d="M214,328 L239,332 L243,307 L214,328"></path><path d="M186,36 L224,37 L233,11 L186,36"></path><path d="M186,157 L223,192 L227,153 L186,157"></path><path d="M217,116 L186,157 L227,153 L217,116"></path><path d="M186,36 L186,94 L233,69 L186,36"></path><path d="M224,37 L186,36 L233,69 L224,37"></path><path d="M186,94 L217,116 L233,69 L186,94"></path><path d="M275,191 L251,213 L280,241 L275,191"></path><path d="M265,290 L243,307 L265,316 L265,290"></path><path d="M214,328 L222,356 L239,332 L214,328"></path><path d="M217,264 L214,328 L243,307 L217,264"></path><path d="M217,116 L227,153 L280,135 L217,116"></path><path d="M222,356 L208,387 L251,385 L222,356"></path><path d="M222,356 L251,385 L264,357 L222,356"></path><path d="M413,215 L436,246 L441,222 L413,215"></path><path d="M427,118 L365,127 L435,161 L427,118"></path><path d="M211,236 L217,264 L251,213 L211,236"></path><path d="M223,192 L211,236 L251,213 L223,192"></path><path d="M272,86 L217,116 L280,135 L272,86"></path><path d="M272,161 L223,192 L275,191 L272,161"></path><path d="M239,332 L222,356 L264,357 L239,332"></path><path d="M223,192 L251,213 L275,191 L223,192"></path><path d="M239,332 L264,357 L265,316 L239,332"></path><path d="M243,307 L239,332 L265,316 L243,307"></path><path d="M217,264 L243,307 L265,290 L217,264"></path><path d="M295,301 L288,336 L315,314 L295,301"></path><path d="M250,72 L217,116 L272,86 L250,72"></path><path d="M227,153 L223,192 L272,161 L227,153"></path><path d="M265,316 L264,357 L288,336 L265,316"></path><path d="M315,314 L288,336 L321,346 L315,314"></path><path d="M280,241 L265,290 L290,269 L280,241"></path><path d="M288,336 L298,365 L321,346 L288,336"></path><path d="M264,357 L251,385 L276,391 L264,357"></path><path d="M272,86 L280,135 L292,103 L272,86"></path><path d="M251,213 L217,264 L280,241 L251,213"></path><path d="M217,264 L265,290 L280,241 L217,264"></path><path d="M325,193 L275,191 L328,225 L325,193"></path><path d="M275,191 L280,241 L328,225 L275,191"></path><path d="M377,338 L378,376 L407,330 L377,338"></path><path d="M235,56 L250,72 L291,20 L235,56"></path><path d="M262,2 L235,56 L291,20 L262,2"></path><path d="M250,72 L272,86 L291,20 L250,72"></path><path d="M288,0 L262,2 L291,20 L288,0"></path><path d="M290,269 L265,290 L295,301 L290,269"></path><path d="M265,316 L288,336 L295,301 L265,316"></path><path d="M265,290 L265,316 L295,301 L265,290"></path><path d="M264,357 L276,391 L298,365 L264,357"></path><path d="M288,336 L264,357 L298,365 L288,336"></path><path d="M290,269 L295,301 L312,268 L290,269"></path><path d="M331,44 L292,103 L338,89 L331,44"></path><path d="M327,288 L342,307 L346,275 L327,288"></path><path d="M327,288 L315,314 L342,307 L327,288"></path><path d="M280,241 L290,269 L312,268 L280,241"></path><path d="M272,161 L275,191 L325,193 L272,161"></path><path d="M280,135 L272,161 L325,193 L280,135"></path><path d="M280,241 L312,268 L328,225 L280,241"></path><path d="M295,301 L315,314 L327,288 L295,301"></path><path d="M312,268 L295,301 L327,288 L312,268"></path><path d="M291,20 L272,86 L331,44 L291,20"></path><path d="M272,86 L292,103 L331,44 L272,86"></path><path d="M321,346 L298,365 L335,363 L321,346"></path><path d="M328,225 L312,268 L334,268 L328,225"></path><path d="M312,268 L327,288 L334,268 L312,268"></path><path d="M334,14 L334,21 L388,35 L334,14"></path><path d="M291,20 L334,21 L334,14 L291,20"></path><path d="M288,0 L291,20 L334,14 L288,0"></path><path d="M377,228 L370,254 L391,228 L377,228"></path><path d="M342,307 L359,314 L362,293 L342,307"></path><path d="M346,275 L342,307 L362,293 L346,275"></path><path d="M342,307 L353,340 L359,314 L342,307"></path><path d="M315,314 L321,346 L342,307 L315,314"></path><path d="M334,268 L327,288 L346,275 L334,268"></path><path d="M338,89 L292,103 L365,127 L338,89"></path><path d="M342,307 L321,346 L353,340 L342,307"></path><path d="M321,346 L335,363 L353,340 L321,346"></path><path d="M325,193 L328,225 L354,194 L325,193"></path><path d="M372,311 L359,314 L377,338 L372,311"></path><path d="M377,338 L353,340 L378,376 L377,338"></path><path d="M325,193 L354,194 L365,127 L325,193"></path><path d="M292,103 L280,135 L365,127 L292,103"></path><path d="M338,89 L365,127 L370,90 L338,89"></path><path d="M331,44 L338,89 L370,90 L331,44"></path><path d="M280,135 L325,193 L365,127 L280,135"></path><path d="M354,194 L328,225 L366,221 L354,194"></path><path d="M354,194 L366,221 L388,197 L354,194"></path><path d="M403,53 L420,67 L423,48 L403,53"></path><path d="M532,300 L555,321 L562,292 L532,300"></path><path d="M346,275 L362,293 L370,254 L346,275"></path><path d="M366,221 L328,225 L370,254 L366,221"></path><path d="M334,268 L346,275 L370,254 L334,268"></path><path d="M328,225 L334,268 L370,254 L328,225"></path><path d="M362,293 L359,314 L372,311 L362,293"></path><path d="M441,222 L453,249 L463,211 L441,222"></path><path d="M366,221 L370,254 L377,228 L366,221"></path><path d="M359,314 L353,340 L377,338 L359,314"></path><path d="M365,127 L354,194 L388,197 L365,127"></path><path d="M365,127 L407,190 L435,161 L365,127"></path><path d="M331,44 L370,90 L388,35 L331,44"></path><path d="M334,21 L331,44 L388,35 L334,21"></path><path d="M365,127 L388,197 L407,190 L365,127"></path><path d="M377,228 L391,228 L392,211 L377,228"></path><path d="M388,197 L366,221 L392,211 L388,197"></path><path d="M366,221 L377,228 L392,211 L366,221"></path><path d="M370,254 L362,293 L395,289 L370,254"></path><path d="M362,293 L372,311 L395,289 L362,293"></path><path d="M370,90 L365,127 L407,100 L370,90"></path><path d="M395,289 L407,330 L420,293 L395,289"></path><path d="M388,35 L370,90 L403,53 L388,35"></path><path d="M407,190 L392,211 L413,215 L407,190"></path><path d="M392,211 L391,228 L404,224 L392,211"></path><path d="M420,293 L407,330 L432,303 L420,293"></path><path d="M426,190 L413,215 L441,222 L426,190"></path><path d="M441,222 L436,246 L453,249 L441,222"></path><path d="M372,311 L377,338 L407,330 L372,311"></path><path d="M395,289 L372,311 L407,330 L395,289"></path><path d="M388,197 L392,211 L407,190 L388,197"></path><path d="M370,90 L407,100 L412,71 L370,90"></path><path d="M403,53 L370,90 L412,71 L403,53"></path><path d="M391,228 L370,254 L412,252 L391,228"></path><path d="M370,254 L395,289 L412,252 L370,254"></path><path d="M404,224 L391,228 L412,252 L404,224"></path><path d="M388,35 L403,53 L423,48 L388,35"></path><path d="M392,211 L404,224 L413,215 L392,211"></path><path d="M483,125 L489,151 L490,128 L483,125"></path><path d="M403,53 L412,71 L420,67 L403,53"></path><path d="M407,190 L426,190 L435,161 L407,190"></path><path d="M486,223 L496,228 L496,201 L486,223"></path><path d="M412,252 L395,289 L425,268 L412,252"></path><path d="M395,289 L420,293 L425,268 L395,289"></path><path d="M407,190 L413,215 L426,190 L407,190"></path><path d="M412,71 L428,91 L430,80 L412,71"></path><path d="M407,100 L365,127 L427,118 L407,100"></path><path d="M420,67 L430,80 L440,70 L420,67"></path><path d="M412,71 L407,100 L428,91 L412,71"></path><path d="M407,100 L427,118 L428,91 L407,100"></path><path d="M420,67 L412,71 L430,80 L420,67"></path><path d="M412,252 L425,268 L436,246 L412,252"></path><path d="M443,194 L441,222 L463,211 L443,194"></path><path d="M427,118 L442,139 L457,124 L427,118"></path><path d="M407,330 L378,376 L437,369 L407,330"></path><path d="M404,224 L412,252 L436,246 L404,224"></path><path d="M413,215 L404,224 L436,246 L413,215"></path><path d="M423,48 L420,67 L440,70 L423,48"></path><path d="M493,182 L473,184 L496,201 L493,182"></path><path d="M550,276 L562,292 L568,281 L550,276"></path><path d="M428,91 L427,118 L441,103 L428,91"></path><path d="M426,190 L441,222 L443,194 L426,190"></path><path d="M441,103 L427,118 L457,124 L441,103"></path><path d="M430,80 L428,91 L441,103 L430,80"></path><path d="M509,127 L507,131 L513,142 L509,127"></path><path d="M435,161 L426,190 L443,194 L435,161"></path><path d="M432,303 L407,330 L441,313 L432,303"></path><path d="M425,268 L420,293 L442,282 L425,268"></path><path d="M420,293 L432,303 L442,282 L420,293"></path><path d="M427,118 L435,161 L442,139 L427,118"></path><path d="M436,246 L425,268 L453,249 L436,246"></path><path d="M425,268 L442,282 L453,249 L425,268"></path><path d="M441,313 L437,369 L464,358 L441,313"></path><path d="M442,282 L432,303 L460,289 L442,282"></path><path d="M495,114 L499,119 L503,116 L495,114"></path><path d="M432,303 L441,313 L460,289 L432,303"></path><path d="M435,161 L443,194 L462,171 L435,161"></path><path d="M505,106 L503,116 L509,117 L505,106"></path><path d="M443,194 L463,211 L473,184 L443,194"></path><path d="M442,139 L435,161 L462,171 L442,139"></path><path d="M495,148 L498,152 L513,142 L495,148"></path><path d="M498,152 L514,166 L516,147 L498,152"></path><path d="M441,103 L457,124 L464,83 L441,103"></path><path d="M430,80 L441,103 L464,83 L430,80"></path><path d="M440,70 L430,80 L464,83 L440,70"></path><path d="M453,249 L442,282 L471,264 L453,249"></path><path d="M442,282 L460,289 L471,264 L442,282"></path><path d="M441,313 L464,358 L473,322 L441,313"></path><path d="M460,289 L441,313 L473,322 L460,289"></path><path d="M462,171 L443,194 L473,184 L462,171"></path><path d="M462,171 L473,184 L475,166 L462,171"></path><path d="M442,139 L462,171 L475,166 L442,139"></path><path d="M457,124 L442,139 L475,166 L457,124"></path><path d="M460,289 L473,322 L489,304 L460,289"></path><path d="M464,83 L457,124 L482,118 L464,83"></path><path d="M482,118 L457,124 L483,125 L482,118"></path><path d="M471,264 L460,289 L489,304 L471,264"></path><path d="M475,166 L473,184 L488,171 L475,166"></path><path d="M463,211 L453,249 L482,235 L463,211"></path><path d="M453,249 L471,264 L482,235 L453,249"></path><path d="M490,119 L483,125 L491,123 L490,119"></path><path d="M482,235 L495,235 L496,228 L482,235"></path><path d="M463,211 L482,235 L486,223 L463,211"></path><path d="M496,201 L516,238 L516,188 L496,201"></path><path d="M490,128 L495,148 L498,133 L490,128"></path><path d="M490,113 L482,118 L490,119 L490,113"></path><path d="M482,118 L483,125 L490,119 L482,118"></path><path d="M475,166 L488,171 L489,151 L475,166"></path><path d="M483,125 L457,124 L489,151 L483,125"></path><path d="M457,124 L475,166 L489,151 L457,124"></path><path d="M505,120 L508,123 L509,117 L505,120"></path><path d="M491,123 L490,128 L495,128 L491,123"></path><path d="M464,83 L482,118 L490,113 L464,83"></path><path d="M483,125 L490,128 L491,123 L483,125"></path><path d="M482,235 L471,264 L495,235 L482,235"></path><path d="M486,223 L482,235 L496,228 L486,223"></path><path d="M495,128 L490,128 L498,133 L495,128"></path><path d="M488,171 L473,184 L493,182 L488,171"></path><path d="M490,128 L489,151 L495,148 L490,128"></path><path d="M490,113 L490,119 L495,114 L490,113"></path><path d="M490,113 L495,114 L496,110 L490,113"></path><path d="M464,83 L490,113 L496,110 L464,83"></path><path d="M513,142 L498,152 L516,147 L513,142"></path><path d="M495,114 L490,119 L496,119 L495,114"></path><path d="M463,211 L486,223 L496,201 L463,211"></path><path d="M473,184 L463,211 L496,201 L473,184"></path><path d="M499,119 L503,124 L505,120 L499,119"></path><path d="M503,170 L493,182 L516,188 L503,170"></path><path d="M491,123 L495,128 L496,119 L491,123"></path><path d="M490,119 L491,123 L496,119 L490,119"></path><path d="M489,151 L488,171 L498,152 L489,151"></path><path d="M496,110 L495,114 L503,116 L496,110"></path><path d="M496,201 L496,228 L516,238 L496,201"></path><path d="M495,148 L489,151 L498,152 L495,148"></path><path d="M495,128 L498,133 L502,129 L495,128"></path><path d="M495,114 L496,119 L499,119 L495,114"></path><path d="M533,109 L536,114 L537,111 L533,109"></path><path d="M471,264 L489,304 L506,281 L471,264"></path><path d="M499,119 L496,119 L503,124 L499,119"></path><path d="M503,116 L499,119 L505,120 L503,116"></path><path d="M488,171 L493,182 L503,170 L488,171"></path><path d="M498,152 L488,171 L503,170 L498,152"></path><path d="M496,110 L503,116 L505,106 L496,110"></path><path d="M496,119 L495,128 L503,124 L496,119"></path><path d="M495,128 L502,129 L503,124 L495,128"></path><path d="M558,261 L550,276 L568,281 L558,261"></path><path d="M507,131 L498,133 L513,142 L507,131"></path><path d="M509,117 L508,123 L509,127 L509,117"></path><path d="M505,106 L509,117 L513,102 L505,106"></path><path d="M502,129 L498,133 L507,131 L502,129"></path><path d="M516,147 L522,155 L532,150 L516,147"></path><path d="M503,116 L505,120 L509,117 L503,116"></path><path d="M505,120 L503,124 L508,123 L505,120"></path><path d="M508,123 L503,124 L509,127 L508,123"></path><path d="M503,124 L502,129 L509,127 L503,124"></path><path d="M502,129 L507,131 L509,127 L502,129"></path><path d="M493,182 L496,201 L516,188 L493,182"></path><path d="M498,133 L495,148 L513,142 L498,133"></path><path d="M498,152 L503,170 L514,166 L498,152"></path><path d="M473,322 L520,359 L522,326 L473,322"></path><path d="M495,235 L471,264 L514,248 L495,235"></path><path d="M471,264 L506,281 L514,248 L471,264"></path><path d="M489,304 L473,322 L522,326 L489,304"></path><path d="M522,155 L514,166 L532,159 L522,155"></path><path d="M496,228 L495,235 L516,238 L496,228"></path><path d="M495,235 L514,248 L516,238 L495,235"></path><path d="M514,166 L503,170 L516,188 L514,166"></path><path d="M516,147 L532,150 L532,142 L516,147"></path><path d="M513,102 L533,109 L535,102 L513,102"></path><path d="M516,147 L514,166 L522,155 L516,147"></path><path d="M531,138 L516,147 L532,142 L531,138"></path><path d="M535,102 L533,109 L537,111 L535,102"></path><path d="M532,150 L522,155 L532,159 L532,150"></path><path d="M513,102 L509,117 L533,109 L513,102"></path><path d="M568,281 L562,292 L578,310 L568,281"></path><path d="M513,142 L516,147 L531,138 L513,142"></path><path d="M509,127 L513,142 L531,138 L509,127"></path><path d="M549,135 L532,142 L550,141 L549,135"></path><path d="M532,142 L547,146 L550,141 L532,142"></path><path d="M489,304 L522,326 L532,300 L489,304"></path><path d="M532,150 L545,158 L547,146 L532,150"></path><path d="M506,281 L489,304 L532,300 L506,281"></path><path d="M532,142 L532,150 L547,146 L532,142"></path><path d="M506,281 L532,300 L533,263 L506,281"></path><path d="M514,248 L506,281 L533,263 L514,248"></path><path d="M514,166 L516,188 L533,172 L514,166"></path><path d="M532,159 L514,166 L533,172 L532,159"></path><path d="M514,248 L533,263 L537,243 L514,248"></path><path d="M533,109 L509,117 L536,114 L533,109"></path><path d="M509,127 L531,138 L536,114 L509,127"></path><path d="M509,117 L509,127 L536,114 L509,117"></path><path d="M522,326 L520,359 L551,352 L522,326"></path><path d="M516,238 L514,248 L537,243 L516,238"></path><path d="M578,310 L555,321 L593,331 L578,310"></path><path d="M533,263 L550,276 L558,261 L533,263"></path><path d="M535,102 L537,111 L545,116 L535,102"></path><path d="M532,159 L533,172 L545,158 L532,159"></path><path d="M536,114 L531,138 L545,116 L536,114"></path><path d="M537,111 L536,114 L545,116 L537,111"></path><path d="M532,150 L532,159 L545,158 L532,150"></path><path d="M531,138 L532,142 L549,135 L531,138"></path><path d="M533,172 L516,188 L548,209 L533,172"></path><path d="M516,188 L516,238 L548,209 L516,188"></path><path d="M516,238 L537,243 L548,209 L516,238"></path><path d="M555,321 L576,350 L593,331 L555,321"></path><path d="M537,243 L533,263 L558,261 L537,243"></path><path d="M545,116 L531,138 L549,135 L545,116"></path><path d="M522,326 L551,352 L555,321 L522,326"></path><path d="M533,263 L532,300 L550,276 L533,263"></path><path d="M532,300 L522,326 L555,321 L532,300"></path><path d="M548,209 L537,243 L558,261 L548,209"></path><path d="M550,276 L532,300 L562,292 L550,276"></path><path d="M562,292 L555,321 L578,310 L562,292"></path><path d="M555,321 L551,352 L576,350 L555,321"></path><path d="M593,331 L576,350 L602,354 L593,331"></path></g></svg>
