<?xml version="1.0" encoding="UTF-8" standalone="no"?>
<svg width="653px" height="428px" viewBox="0 0 653 428" version="1.1" xmlns="http://www.w3.org/2000/svg" xmlns:xlink="http://www.w3.org/1999/xlink" xmlns:sketch="http://www.bohemiancoding.com/sketch/ns">
    <!-- Generator: Sketch 3.0.4 (8053) - http://www.bohemiancoding.com/sketch -->
    <title>outline-tortoise</title>
    <desc>Created with Sketch.</desc>
    <defs></defs>
    <g id="Page-1" stroke="none" stroke-width="1" fill="none" fill-rule="evenodd" sketch:type="MSPage">
        <g id="outline-tortoise" sketch:type="MSArtboardGroup" stroke="#080808">
            <g id="tortoise" sketch:type="MSLayerGroup" transform="translate(25.000000, 18.000000)">
                <path d="M37.2032254,283.963463 L28.3412172,290.170269 L39.8623292,320.317493 L37.2032254,283.963463" id="Fill-1" sketch:type="MSShapeGroup"></path>
                <path d="M62.0181853,323.863881 L46.0660692,338.051104 L64.6772891,349.57791 L62.0181853,323.863881" id="Fill-2" sketch:type="MSShapeGroup"></path>
                <path d="M39.8623292,240.515821 L56.7008133,261.795821 L66.4500249,213.029015 L39.8623292,240.515821" id="Fill-3" sketch:type="MSShapeGroup"></path>
                <path d="M-0.0183789765,232.535403 L12.3882656,251.155821 L23.910213,223.669015 L-0.0183789765,232.535403" id="Fill-4" sketch:type="MSShapeGroup"></path>
                <path d="M106.330733,207.708179 L85.9467773,206.822209 L110.761737,225.441791 L106.330733,207.708179" id="Fill-5" sketch:type="MSShapeGroup"></path>
                <path d="M23.0238451,204.161791 L3.52625726,210.368597 L23.910213,223.669015 L23.0238451,204.161791" id="Fill-6" sketch:type="MSShapeGroup"></path>
                <path d="M23.910213,223.669015 L12.3882656,251.155821 L39.8623292,240.515821 L23.910213,223.669015" id="Fill-7" sketch:type="MSShapeGroup"></path>
                <path d="M3.52625726,210.368597 L-0.0183789765,232.535403 L23.910213,223.669015 L3.52625726,210.368597" id="Fill-8" sketch:type="MSShapeGroup"></path>
                <path d="M15.0473693,270.663045 L21.2511093,282.189851 L37.2032254,283.963463 L15.0473693,270.663045" id="Fill-9" sketch:type="MSShapeGroup"></path>
                <path d="M21.2511093,282.189851 L28.3412172,290.170269 L37.2032254,283.963463 L21.2511093,282.189851" id="Fill-10" sketch:type="MSShapeGroup"></path>
                <path d="M23.910213,223.669015 L39.8623292,240.515821 L46.0660692,203.274985 L23.910213,223.669015" id="Fill-11" sketch:type="MSShapeGroup"></path>
                <path d="M46.0660692,203.274985 L39.8623292,240.515821 L66.4500249,213.029015 L46.0660692,203.274985" id="Fill-12" sketch:type="MSShapeGroup"></path>
                <path d="M12.3882656,251.155821 L15.0473693,270.663045 L39.8623292,240.515821 L12.3882656,251.155821" id="Fill-13" sketch:type="MSShapeGroup"></path>
                <path d="M56.7008133,261.795821 L37.2032254,283.963463 L62.0181853,323.863881 L56.7008133,261.795821" id="Fill-14" sketch:type="MSShapeGroup"></path>
                <path d="M23.0238451,204.161791 L23.910213,223.669015 L46.0660692,203.274985 L23.0238451,204.161791" id="Fill-15" sketch:type="MSShapeGroup"></path>
                <path d="M137.349433,240.515821 L96.5823568,270.663045 L138.235801,285.737075 L137.349433,240.515821" id="Fill-16" sketch:type="MSShapeGroup"></path>
                <path d="M23.0238451,204.161791 L46.0660692,203.274985 L56.7008133,189.087761 L23.0238451,204.161791" id="Fill-17" sketch:type="MSShapeGroup"></path>
                <path d="M15.0473693,270.663045 L37.2032254,283.963463 L56.7008133,261.795821 L15.0473693,270.663045" id="Fill-18" sketch:type="MSShapeGroup"></path>
                <path d="M39.8623292,240.515821 L15.0473693,270.663045 L56.7008133,261.795821 L39.8623292,240.515821" id="Fill-19" sketch:type="MSShapeGroup"></path>
                <path d="M83.288509,166.920955 L56.7008133,189.087761 L85.9467773,206.822209 L83.288509,166.920955" id="Fill-20" sketch:type="MSShapeGroup"></path>
                <path d="M37.2032254,283.963463 L39.8623292,320.317493 L62.0181853,323.863881 L37.2032254,283.963463" id="Fill-21" sketch:type="MSShapeGroup"></path>
                <path d="M39.8623292,320.317493 L46.0660692,338.051104 L62.0181853,323.863881 L39.8623292,320.317493" id="Fill-22" sketch:type="MSShapeGroup"></path>
                <path d="M56.7008133,189.087761 L66.4500249,213.029015 L85.9467773,206.822209 L56.7008133,189.087761" id="Fill-23" sketch:type="MSShapeGroup"></path>
                <path d="M56.7008133,189.087761 L46.0660692,203.274985 L66.4500249,213.029015 L56.7008133,189.087761" id="Fill-24" sketch:type="MSShapeGroup"></path>
                <path d="M99.2406252,103.96609 L69.9946611,147.413731 L116.079109,125.246925 L99.2406252,103.96609" id="Fill-25" sketch:type="MSShapeGroup"></path>
                <path d="M69.9946611,147.413731 L83.288509,166.920955 L116.079109,125.246925 L69.9946611,147.413731" id="Fill-26" sketch:type="MSShapeGroup"></path>
                <path d="M62.0181853,323.863881 L96.5823568,330.957493 L96.5823568,270.663045 L62.0181853,323.863881" id="Fill-27" sketch:type="MSShapeGroup"></path>
                <path d="M56.7008133,261.795821 L62.0181853,323.863881 L96.5823568,270.663045 L56.7008133,261.795821" id="Fill-28" sketch:type="MSShapeGroup"></path>
                <path d="M69.9946611,147.413731 L56.7008133,189.087761 L83.288509,166.920955 L69.9946611,147.413731" id="Fill-29" sketch:type="MSShapeGroup"></path>
                <path d="M96.5823568,330.957493 L64.6772891,349.57791 L96.5823568,354.89791 L96.5823568,330.957493" id="Fill-30" sketch:type="MSShapeGroup"></path>
                <path d="M62.0181853,323.863881 L64.6772891,349.57791 L96.5823568,330.957493 L62.0181853,323.863881" id="Fill-31" sketch:type="MSShapeGroup"></path>
                <path d="M83.288509,166.920955 L85.9467773,206.822209 L106.330733,207.708179 L83.288509,166.920955" id="Fill-32" sketch:type="MSShapeGroup"></path>
                <path d="M137.349433,240.515821 L162.164393,252.929433 L176.343773,202.388179 L137.349433,240.515821" id="Fill-33" sketch:type="MSShapeGroup"></path>
                <path d="M66.4500249,213.029015 L56.7008133,261.795821 L96.5823568,270.663045 L66.4500249,213.029015" id="Fill-34" sketch:type="MSShapeGroup"></path>
                <path d="M171.912769,297.263881 L214.452581,328.297075 L217.998053,264.456239 L171.912769,297.263881" id="Fill-35" sketch:type="MSShapeGroup"></path>
                <path d="M96.5823568,330.957493 L122.282849,359.331104 L134.690329,325.637493 L96.5823568,330.957493" id="Fill-36" sketch:type="MSShapeGroup"></path>
                <path d="M85.9467773,206.822209 L66.4500249,213.029015 L110.761737,225.441791 L85.9467773,206.822209" id="Fill-37" sketch:type="MSShapeGroup"></path>
                <path d="M66.4500249,213.029015 L96.5823568,270.663045 L110.761737,225.441791 L66.4500249,213.029015" id="Fill-38" sketch:type="MSShapeGroup"></path>
                <path d="M140.007701,145.640955 L83.288509,166.920955 L146.211441,183.767761 L140.007701,145.640955" id="Fill-39" sketch:type="MSShapeGroup"></path>
                <path d="M83.288509,166.920955 L106.330733,207.708179 L146.211441,183.767761 L83.288509,166.920955" id="Fill-40" sketch:type="MSShapeGroup"></path>
                <path d="M199.386833,356.671522 L186.092985,381.498746 L208.248841,387.705552 L199.386833,356.671522" id="Fill-41" sketch:type="MSShapeGroup"></path>
                <path d="M147.984177,54.3124776 L186.092985,94.2128955 L186.092985,36.5788657 L147.984177,54.3124776" id="Fill-42" sketch:type="MSShapeGroup"></path>
                <path d="M146.211441,183.767761 L137.349433,240.515821 L176.343773,202.388179 L146.211441,183.767761" id="Fill-43" sketch:type="MSShapeGroup"></path>
                <path d="M96.5823568,330.957493 L96.5823568,354.89791 L122.282849,359.331104 L96.5823568,330.957493" id="Fill-44" sketch:type="MSShapeGroup"></path>
                <path d="M99.2406252,103.96609 L116.079109,125.246925 L147.984177,54.3124776 L99.2406252,103.96609" id="Fill-45" sketch:type="MSShapeGroup"></path>
                <path d="M110.761737,225.441791 L137.349433,240.515821 L146.211441,183.767761 L110.761737,225.441791" id="Fill-46" sketch:type="MSShapeGroup"></path>
                <path d="M110.761737,225.441791 L96.5823568,270.663045 L137.349433,240.515821 L110.761737,225.441791" id="Fill-47" sketch:type="MSShapeGroup"></path>
                <path d="M96.5823568,330.957493 L134.690329,325.637493 L138.235801,285.737075 L96.5823568,330.957493" id="Fill-48" sketch:type="MSShapeGroup"></path>
                <path d="M96.5823568,270.663045 L96.5823568,330.957493 L138.235801,285.737075 L96.5823568,270.663045" id="Fill-49" sketch:type="MSShapeGroup"></path>
                <path d="M116.079109,125.246925 L83.288509,166.920955 L140.007701,145.640955 L116.079109,125.246925" id="Fill-50" sketch:type="MSShapeGroup"></path>
                <path d="M162.164393,252.929433 L138.235801,285.737075 L171.912769,297.263881 L162.164393,252.929433" id="Fill-51" sketch:type="MSShapeGroup"></path>
                <path d="M106.330733,207.708179 L110.761737,225.441791 L146.211441,183.767761 L106.330733,207.708179" id="Fill-52" sketch:type="MSShapeGroup"></path>
                <path d="M138.235801,285.737075 L134.690329,325.637493 L171.912769,297.263881 L138.235801,285.737075" id="Fill-53" sketch:type="MSShapeGroup"></path>
                <path d="M137.349433,240.515821 L138.235801,285.737075 L162.164393,252.929433 L137.349433,240.515821" id="Fill-54" sketch:type="MSShapeGroup"></path>
                <path d="M291.555729,20.6180299 L331.437272,44.5584478 L334.095541,21.5048358 L291.555729,20.6180299" id="Fill-55" sketch:type="MSShapeGroup"></path>
                <path d="M211.794313,236.082627 L162.164393,252.929433 L217.998053,264.456239 L211.794313,236.082627" id="Fill-56" sketch:type="MSShapeGroup"></path>
                <path d="M227.746429,153.620537 L272.058976,161.600955 L280.034617,135.000119 L227.746429,153.620537" id="Fill-57" sketch:type="MSShapeGroup"></path>
                <path d="M233.950169,11.7516418 L235.722905,56.9720597 L262.309765,2.88441791 L233.950169,11.7516418" id="Fill-58" sketch:type="MSShapeGroup"></path>
                <path d="M116.079109,125.246925 L140.007701,145.640955 L186.092985,94.2128955 L116.079109,125.246925" id="Fill-59" sketch:type="MSShapeGroup"></path>
                <path d="M147.984177,54.3124776 L116.079109,125.246925 L186.092985,94.2128955 L147.984177,54.3124776" id="Fill-60" sketch:type="MSShapeGroup"></path>
                <path d="M134.690329,325.637493 L122.282849,359.331104 L186.092985,381.498746 L134.690329,325.637493" id="Fill-61" sketch:type="MSShapeGroup"></path>
                <path d="M233.950169,11.7516418 L224.201793,37.4648358 L235.722905,56.9720597 L233.950169,11.7516418" id="Fill-62" sketch:type="MSShapeGroup"></path>
                <path d="M186.092985,94.2128955 L140.007701,145.640955 L186.979353,157.167761 L186.092985,94.2128955" id="Fill-63" sketch:type="MSShapeGroup"></path>
                <path d="M140.007701,145.640955 L146.211441,183.767761 L186.979353,157.167761 L140.007701,145.640955" id="Fill-64" sketch:type="MSShapeGroup"></path>
                <path d="M146.211441,183.767761 L176.343773,202.388179 L186.979353,157.167761 L146.211441,183.767761" id="Fill-65" sketch:type="MSShapeGroup"></path>
                <path d="M171.912769,297.263881 L134.690329,325.637493 L199.386833,356.671522 L171.912769,297.263881" id="Fill-66" sketch:type="MSShapeGroup"></path>
                <path d="M134.690329,325.637493 L186.092985,381.498746 L199.386833,356.671522 L134.690329,325.637493" id="Fill-67" sketch:type="MSShapeGroup"></path>
                <path d="M176.343773,202.388179 L211.794313,236.082627 L223.315425,192.634985 L176.343773,202.388179" id="Fill-68" sketch:type="MSShapeGroup"></path>
                <path d="M186.979353,157.167761 L176.343773,202.388179 L223.315425,192.634985 L186.979353,157.167761" id="Fill-69" sketch:type="MSShapeGroup"></path>
                <path d="M162.164393,252.929433 L171.912769,297.263881 L217.998053,264.456239 L162.164393,252.929433" id="Fill-70" sketch:type="MSShapeGroup"></path>
                <path d="M176.343773,202.388179 L162.164393,252.929433 L211.794313,236.082627 L176.343773,202.388179" id="Fill-71" sketch:type="MSShapeGroup"></path>
                <path d="M235.722905,56.9720597 L233.063801,69.3856716 L250.788653,72.9328955 L235.722905,56.9720597" id="Fill-72" sketch:type="MSShapeGroup"></path>
                <path d="M171.912769,297.263881 L199.386833,356.671522 L214.452581,328.297075 L171.912769,297.263881" id="Fill-73" sketch:type="MSShapeGroup"></path>
                <path d="M214.452581,328.297075 L199.386833,356.671522 L222.429057,356.671522 L214.452581,328.297075" id="Fill-74" sketch:type="MSShapeGroup"></path>
                <path d="M233.063801,69.3856716 L217.111685,116.379701 L250.788653,72.9328955 L233.063801,69.3856716" id="Fill-75" sketch:type="MSShapeGroup"></path>
                <path d="M186.092985,94.2128955 L186.979353,157.167761 L217.111685,116.379701 L186.092985,94.2128955" id="Fill-76" sketch:type="MSShapeGroup"></path>
                <path d="M407.654053,330.070687 L437.786385,369.085134 L441.331856,313.223881 L407.654053,330.070687" id="Fill-77" sketch:type="MSShapeGroup"></path>
                <path d="M199.386833,356.671522 L208.248841,387.705552 L222.429057,356.671522 L199.386833,356.671522" id="Fill-78" sketch:type="MSShapeGroup"></path>
                <path d="M224.201793,37.4648358 L233.063801,69.3856716 L235.722905,56.9720597 L224.201793,37.4648358" id="Fill-79" sketch:type="MSShapeGroup"></path>
                <path d="M214.452581,328.297075 L239.267541,332.731104 L243.698545,307.017075 L214.452581,328.297075" id="Fill-80" sketch:type="MSShapeGroup"></path>
                <path d="M186.092985,36.5788657 L224.201793,37.4648358 L233.950169,11.7516418 L186.092985,36.5788657" id="Fill-81" sketch:type="MSShapeGroup"></path>
                <path d="M186.979353,157.167761 L223.315425,192.634985 L227.746429,153.620537 L186.979353,157.167761" id="Fill-82" sketch:type="MSShapeGroup"></path>
                <path d="M217.111685,116.379701 L186.979353,157.167761 L227.746429,153.620537 L217.111685,116.379701" id="Fill-83" sketch:type="MSShapeGroup"></path>
                <path d="M186.092985,36.5788657 L186.092985,94.2128955 L233.063801,69.3856716 L186.092985,36.5788657" id="Fill-84" sketch:type="MSShapeGroup"></path>
                <path d="M224.201793,37.4648358 L186.092985,36.5788657 L233.063801,69.3856716 L224.201793,37.4648358" id="Fill-85" sketch:type="MSShapeGroup"></path>
                <path d="M186.092985,94.2128955 L217.111685,116.379701 L233.063801,69.3856716 L186.092985,94.2128955" id="Fill-86" sketch:type="MSShapeGroup"></path>
                <path d="M275.603613,191.748179 L251.675021,213.914985 L280.920985,241.402627 L275.603613,191.748179" id="Fill-87" sketch:type="MSShapeGroup"></path>
                <path d="M265.855237,290.170269 L243.698545,307.017075 L265.855237,316.770269 L265.855237,290.170269" id="Fill-88" sketch:type="MSShapeGroup"></path>
                <path d="M214.452581,328.297075 L222.429057,356.671522 L239.267541,332.731104 L214.452581,328.297075" id="Fill-89" sketch:type="MSShapeGroup"></path>
                <path d="M217.998053,264.456239 L214.452581,328.297075 L243.698545,307.017075 L217.998053,264.456239" id="Fill-90" sketch:type="MSShapeGroup"></path>
                <path d="M217.111685,116.379701 L227.746429,153.620537 L280.034617,135.000119 L217.111685,116.379701" id="Fill-91" sketch:type="MSShapeGroup"></path>
                <path d="M222.429057,356.671522 L208.248841,387.705552 L251.675021,385.045134 L222.429057,356.671522" id="Fill-92" sketch:type="MSShapeGroup"></path>
                <path d="M222.429057,356.671522 L251.675021,385.045134 L264.968869,357.558328 L222.429057,356.671522" id="Fill-93" sketch:type="MSShapeGroup"></path>
                <path d="M413.857793,215.688597 L436.014484,246.722627 L441.331856,222.782209 L413.857793,215.688597" id="Fill-94" sketch:type="MSShapeGroup"></path>
                <path d="M427.15164,118.153313 L365.114241,127.020537 L435.128116,161.600955 L427.15164,118.153313" id="Fill-95" sketch:type="MSShapeGroup"></path>
                <path d="M211.794313,236.082627 L217.998053,264.456239 L251.675021,213.914985 L211.794313,236.082627" id="Fill-96" sketch:type="MSShapeGroup"></path>
                <path d="M223.315425,192.634985 L211.794313,236.082627 L251.675021,213.914985 L223.315425,192.634985" id="Fill-97" sketch:type="MSShapeGroup"></path>
                <path d="M272.058976,86.2324776 L217.111685,116.379701 L280.034617,135.000119 L272.058976,86.2324776" id="Fill-98" sketch:type="MSShapeGroup"></path>
                <path d="M272.058976,161.600955 L223.315425,192.634985 L275.603613,191.748179 L272.058976,161.600955" id="Fill-99" sketch:type="MSShapeGroup"></path>
                <path d="M239.267541,332.731104 L222.429057,356.671522 L264.968869,357.558328 L239.267541,332.731104" id="Fill-100" sketch:type="MSShapeGroup"></path>
                <path d="M223.315425,192.634985 L251.675021,213.914985 L275.603613,191.748179 L223.315425,192.634985" id="Fill-101" sketch:type="MSShapeGroup"></path>
                <path d="M239.267541,332.731104 L264.968869,357.558328 L265.855237,316.770269 L239.267541,332.731104" id="Fill-102" sketch:type="MSShapeGroup"></path>
                <path d="M243.698545,307.017075 L239.267541,332.731104 L265.855237,316.770269 L243.698545,307.017075" id="Fill-103" sketch:type="MSShapeGroup"></path>
                <path d="M217.998053,264.456239 L243.698545,307.017075 L265.855237,290.170269 L217.998053,264.456239" id="Fill-104" sketch:type="MSShapeGroup"></path>
                <path d="M295.101201,301.697075 L288.897461,336.277493 L315.484321,314.997493 L295.101201,301.697075" id="Fill-105" sketch:type="MSShapeGroup"></path>
                <path d="M250.788653,72.9328955 L217.111685,116.379701 L272.058976,86.2324776 L250.788653,72.9328955" id="Fill-106" sketch:type="MSShapeGroup"></path>
                <path d="M227.746429,153.620537 L223.315425,192.634985 L272.058976,161.600955 L227.746429,153.620537" id="Fill-107" sketch:type="MSShapeGroup"></path>
                <path d="M265.855237,316.770269 L264.968869,357.558328 L288.897461,336.277493 L265.855237,316.770269" id="Fill-108" sketch:type="MSShapeGroup"></path>
                <path d="M315.484321,314.997493 L288.897461,336.277493 L321.688061,346.917493 L315.484321,314.997493" id="Fill-109" sketch:type="MSShapeGroup"></path>
                <path d="M280.920985,241.402627 L265.855237,290.170269 L290.670196,269.776239 L280.920985,241.402627" id="Fill-110" sketch:type="MSShapeGroup"></path>
                <path d="M288.897461,336.277493 L298.645837,365.53791 L321.688061,346.917493 L288.897461,336.277493" id="Fill-111" sketch:type="MSShapeGroup"></path>
                <path d="M264.968869,357.558328 L251.675021,385.045134 L276.489981,391.25194 L264.968869,357.558328" id="Fill-112" sketch:type="MSShapeGroup"></path>
                <path d="M272.058976,86.2324776 L280.034617,135.000119 L292.442097,103.080119 L272.058976,86.2324776" id="Fill-113" sketch:type="MSShapeGroup"></path>
                <path d="M251.675021,213.914985 L217.998053,264.456239 L280.920985,241.402627 L251.675021,213.914985" id="Fill-114" sketch:type="MSShapeGroup"></path>
                <path d="M217.998053,264.456239 L265.855237,290.170269 L280.920985,241.402627 L217.998053,264.456239" id="Fill-115" sketch:type="MSShapeGroup"></path>
                <path d="M325.233533,193.521791 L275.603613,191.748179 L328.778169,225.441791 L325.233533,193.521791" id="Fill-116" sketch:type="MSShapeGroup"></path>
                <path d="M275.603613,191.748179 L280.920985,241.402627 L328.778169,225.441791 L275.603613,191.748179" id="Fill-117" sketch:type="MSShapeGroup"></path>
                <path d="M377.521721,338.051104 L378.408089,376.178746 L407.654053,330.070687 L377.521721,338.051104" id="Fill-118" sketch:type="MSShapeGroup"></path>
                <path d="M235.722905,56.9720597 L250.788653,72.9328955 L291.555729,20.6180299 L235.722905,56.9720597" id="Fill-119" sketch:type="MSShapeGroup"></path>
                <path d="M262.309765,2.88441791 L235.722905,56.9720597 L291.555729,20.6180299 L262.309765,2.88441791" id="Fill-120" sketch:type="MSShapeGroup"></path>
                <path d="M250.788653,72.9328955 L272.058976,86.2324776 L291.555729,20.6180299 L250.788653,72.9328955" id="Fill-121" sketch:type="MSShapeGroup"></path>
                <path d="M288.011093,0.224835821 L262.309765,2.88441791 L291.555729,20.6180299 L288.011093,0.224835821" id="Fill-122" sketch:type="MSShapeGroup"></path>
                <path d="M290.670196,269.776239 L265.855237,290.170269 L295.101201,301.697075 L290.670196,269.776239" id="Fill-123" sketch:type="MSShapeGroup"></path>
                <path d="M265.855237,316.770269 L288.897461,336.277493 L295.101201,301.697075 L265.855237,316.770269" id="Fill-124" sketch:type="MSShapeGroup"></path>
                <path d="M265.855237,290.170269 L265.855237,316.770269 L295.101201,301.697075 L265.855237,290.170269" id="Fill-125" sketch:type="MSShapeGroup"></path>
                <path d="M264.968869,357.558328 L276.489981,391.25194 L298.645837,365.53791 L264.968869,357.558328" id="Fill-126" sketch:type="MSShapeGroup"></path>
                <path d="M288.897461,336.277493 L264.968869,357.558328 L298.645837,365.53791 L288.897461,336.277493" id="Fill-127" sketch:type="MSShapeGroup"></path>
                <path d="M290.670196,269.776239 L295.101201,301.697075 L312.826053,268.002627 L290.670196,269.776239" id="Fill-128" sketch:type="MSShapeGroup"></path>
                <path d="M331.437272,44.5584478 L292.442097,103.080119 L338.52738,89.7797015 L331.437272,44.5584478" id="Fill-129" sketch:type="MSShapeGroup"></path>
                <path d="M327.006268,288.396657 L342.958385,307.017075 L346.503021,275.983045 L327.006268,288.396657" id="Fill-130" sketch:type="MSShapeGroup"></path>
                <path d="M327.006268,288.396657 L315.484321,314.997493 L342.958385,307.017075 L327.006268,288.396657" id="Fill-131" sketch:type="MSShapeGroup"></path>
                <path d="M280.920985,241.402627 L290.670196,269.776239 L312.826053,268.002627 L280.920985,241.402627" id="Fill-132" sketch:type="MSShapeGroup"></path>
                <path d="M272.058976,161.600955 L275.603613,191.748179 L325.233533,193.521791 L272.058976,161.600955" id="Fill-133" sketch:type="MSShapeGroup"></path>
                <path d="M280.034617,135.000119 L272.058976,161.600955 L325.233533,193.521791 L280.034617,135.000119" id="Fill-134" sketch:type="MSShapeGroup"></path>
                <path d="M280.920985,241.402627 L312.826053,268.002627 L328.778169,225.441791 L280.920985,241.402627" id="Fill-135" sketch:type="MSShapeGroup"></path>
                <path d="M295.101201,301.697075 L315.484321,314.997493 L327.006268,288.396657 L295.101201,301.697075" id="Fill-136" sketch:type="MSShapeGroup"></path>
                <path d="M312.826053,268.002627 L295.101201,301.697075 L327.006268,288.396657 L312.826053,268.002627" id="Fill-137" sketch:type="MSShapeGroup"></path>
                <path d="M291.555729,20.6180299 L272.058976,86.2324776 L331.437272,44.5584478 L291.555729,20.6180299" id="Fill-138" sketch:type="MSShapeGroup"></path>
                <path d="M272.058976,86.2324776 L292.442097,103.080119 L331.437272,44.5584478 L272.058976,86.2324776" id="Fill-139" sketch:type="MSShapeGroup"></path>
                <path d="M321.688061,346.917493 L298.645837,365.53791 L335.868277,363.765134 L321.688061,346.917493" id="Fill-140" sketch:type="MSShapeGroup"></path>
                <path d="M328.778169,225.441791 L312.826053,268.002627 L334.095541,268.002627 L328.778169,225.441791" id="Fill-141" sketch:type="MSShapeGroup"></path>
                <path d="M312.826053,268.002627 L327.006268,288.396657 L334.095541,268.002627 L312.826053,268.002627" id="Fill-142" sketch:type="MSShapeGroup"></path>
                <path d="M334.981909,14.4112239 L334.095541,21.5048358 L388.156465,35.6920597 L334.981909,14.4112239" id="Fill-143" sketch:type="MSShapeGroup"></path>
                <path d="M291.555729,20.6180299 L334.095541,21.5048358 L334.981909,14.4112239 L291.555729,20.6180299" id="Fill-144" sketch:type="MSShapeGroup"></path>
                <path d="M288.011093,0.224835821 L291.555729,20.6180299 L334.981909,14.4112239 L288.011093,0.224835821" id="Fill-145" sketch:type="MSShapeGroup"></path>
                <path d="M377.521721,228.102209 L370.431613,254.703045 L391.701936,228.102209 L377.521721,228.102209" id="Fill-146" sketch:type="MSShapeGroup"></path>
                <path d="M342.958385,307.017075 L359.796869,314.110687 L362.455972,293.716657 L342.958385,307.017075" id="Fill-147" sketch:type="MSShapeGroup"></path>
                <path d="M346.503021,275.983045 L342.958385,307.017075 L362.455972,293.716657 L346.503021,275.983045" id="Fill-148" sketch:type="MSShapeGroup"></path>
                <path d="M342.958385,307.017075 L353.593129,340.710687 L359.796869,314.110687 L342.958385,307.017075" id="Fill-149" sketch:type="MSShapeGroup"></path>
                <path d="M315.484321,314.997493 L321.688061,346.917493 L342.958385,307.017075 L315.484321,314.997493" id="Fill-150" sketch:type="MSShapeGroup"></path>
                <path d="M334.095541,268.002627 L327.006268,288.396657 L346.503021,275.983045 L334.095541,268.002627" id="Fill-151" sketch:type="MSShapeGroup"></path>
                <path d="M338.52738,89.7797015 L292.442097,103.080119 L365.114241,127.020537 L338.52738,89.7797015" id="Fill-152" sketch:type="MSShapeGroup"></path>
                <path d="M342.958385,307.017075 L321.688061,346.917493 L353.593129,340.710687 L342.958385,307.017075" id="Fill-153" sketch:type="MSShapeGroup"></path>
                <path d="M321.688061,346.917493 L335.868277,363.765134 L353.593129,340.710687 L321.688061,346.917493" id="Fill-154" sketch:type="MSShapeGroup"></path>
                <path d="M325.233533,193.521791 L328.778169,225.441791 L354.479497,194.408597 L325.233533,193.521791" id="Fill-155" sketch:type="MSShapeGroup"></path>
                <path d="M372.204349,311.450269 L359.796869,314.110687 L377.521721,338.051104 L372.204349,311.450269" id="Fill-156" sketch:type="MSShapeGroup"></path>
                <path d="M377.521721,338.051104 L353.593129,340.710687 L378.408089,376.178746 L377.521721,338.051104" id="Fill-157" sketch:type="MSShapeGroup"></path>
                <path d="M325.233533,193.521791 L354.479497,194.408597 L365.114241,127.020537 L325.233533,193.521791" id="Fill-158" sketch:type="MSShapeGroup"></path>
                <path d="M292.442097,103.080119 L280.034617,135.000119 L365.114241,127.020537 L292.442097,103.080119" id="Fill-159" sketch:type="MSShapeGroup"></path>
                <path d="M338.52738,89.7797015 L365.114241,127.020537 L370.431613,90.6665075 L338.52738,89.7797015" id="Fill-160" sketch:type="MSShapeGroup"></path>
                <path d="M331.437272,44.5584478 L338.52738,89.7797015 L370.431613,90.6665075 L331.437272,44.5584478" id="Fill-161" sketch:type="MSShapeGroup"></path>
                <path d="M280.034617,135.000119 L325.233533,193.521791 L365.114241,127.020537 L280.034617,135.000119" id="Fill-162" sketch:type="MSShapeGroup"></path>
                <path d="M354.479497,194.408597 L328.778169,225.441791 L366.000609,221.008597 L354.479497,194.408597" id="Fill-163" sketch:type="MSShapeGroup"></path>
                <path d="M354.479497,194.408597 L366.000609,221.008597 L388.156465,197.068179 L354.479497,194.408597" id="Fill-164" sketch:type="MSShapeGroup"></path>
                <path d="M403.223048,53.4256716 L420.9479,67.6120597 L423.607004,48.1056716 L403.223048,53.4256716" id="Fill-165" sketch:type="MSShapeGroup"></path>
                <path d="M532.61522,300.810269 L555.657444,321.204299 L562.747552,292.829851 L532.61522,300.810269" id="Fill-166" sketch:type="MSShapeGroup"></path>
                <path d="M346.503021,275.983045 L362.455972,293.716657 L370.431613,254.703045 L346.503021,275.983045" id="Fill-167" sketch:type="MSShapeGroup"></path>
                <path d="M366.000609,221.008597 L328.778169,225.441791 L370.431613,254.703045 L366.000609,221.008597" id="Fill-168" sketch:type="MSShapeGroup"></path>
                <path d="M334.095541,268.002627 L346.503021,275.983045 L370.431613,254.703045 L334.095541,268.002627" id="Fill-169" sketch:type="MSShapeGroup"></path>
                <path d="M328.778169,225.441791 L334.095541,268.002627 L370.431613,254.703045 L328.778169,225.441791" id="Fill-170" sketch:type="MSShapeGroup"></path>
                <path d="M362.455972,293.716657 L359.796869,314.110687 L372.204349,311.450269 L362.455972,293.716657" id="Fill-171" sketch:type="MSShapeGroup"></path>
                <path d="M441.331856,222.782209 L453.739336,249.382209 L463.487712,211.255403 L441.331856,222.782209" id="Fill-172" sketch:type="MSShapeGroup"></path>
                <path d="M366.000609,221.008597 L370.431613,254.703045 L377.521721,228.102209 L366.000609,221.008597" id="Fill-173" sketch:type="MSShapeGroup"></path>
                <path d="M359.796869,314.110687 L353.593129,340.710687 L377.521721,338.051104 L359.796869,314.110687" id="Fill-174" sketch:type="MSShapeGroup"></path>
                <path d="M365.114241,127.020537 L354.479497,194.408597 L388.156465,197.068179 L365.114241,127.020537" id="Fill-175" sketch:type="MSShapeGroup"></path>
                <path d="M365.114241,127.020537 L407.654053,190.861373 L435.128116,161.600955 L365.114241,127.020537" id="Fill-176" sketch:type="MSShapeGroup"></path>
                <path d="M331.437272,44.5584478 L370.431613,90.6665075 L388.156465,35.6920597 L331.437272,44.5584478" id="Fill-177" sketch:type="MSShapeGroup"></path>
                <path d="M334.095541,21.5048358 L331.437272,44.5584478 L388.156465,35.6920597 L334.095541,21.5048358" id="Fill-178" sketch:type="MSShapeGroup"></path>
                <path d="M365.114241,127.020537 L388.156465,197.068179 L407.654053,190.861373 L365.114241,127.020537" id="Fill-179" sketch:type="MSShapeGroup"></path>
                <path d="M377.521721,228.102209 L391.701936,228.102209 L392.588304,211.255403 L377.521721,228.102209" id="Fill-180" sketch:type="MSShapeGroup"></path>
                <path d="M388.156465,197.068179 L366.000609,221.008597 L392.588304,211.255403 L388.156465,197.068179" id="Fill-181" sketch:type="MSShapeGroup"></path>
                <path d="M366.000609,221.008597 L377.521721,228.102209 L392.588304,211.255403 L366.000609,221.008597" id="Fill-182" sketch:type="MSShapeGroup"></path>
                <path d="M370.431613,254.703045 L362.455972,293.716657 L395.246573,289.283463 L370.431613,254.703045" id="Fill-183" sketch:type="MSShapeGroup"></path>
                <path d="M362.455972,293.716657 L372.204349,311.450269 L395.246573,289.283463 L362.455972,293.716657" id="Fill-184" sketch:type="MSShapeGroup"></path>
                <path d="M370.431613,90.6665075 L365.114241,127.020537 L407.654053,100.419701 L370.431613,90.6665075" id="Fill-185" sketch:type="MSShapeGroup"></path>
                <path d="M395.246573,289.283463 L407.654053,330.070687 L420.061533,293.716657 L395.246573,289.283463" id="Fill-186" sketch:type="MSShapeGroup"></path>
                <path d="M388.156465,35.6920597 L370.431613,90.6665075 L403.223048,53.4256716 L388.156465,35.6920597" id="Fill-187" sketch:type="MSShapeGroup"></path>
                <path d="M407.654053,190.861373 L392.588304,211.255403 L413.857793,215.688597 L407.654053,190.861373" id="Fill-188" sketch:type="MSShapeGroup"></path>
                <path d="M392.588304,211.255403 L391.701936,228.102209 L404.109416,224.555821 L392.588304,211.255403" id="Fill-189" sketch:type="MSShapeGroup"></path>
                <path d="M420.061533,293.716657 L407.654053,330.070687 L432.469012,303.470687 L420.061533,293.716657" id="Fill-190" sketch:type="MSShapeGroup"></path>
                <path d="M426.265272,190.861373 L413.857793,215.688597 L441.331856,222.782209 L426.265272,190.861373" id="Fill-191" sketch:type="MSShapeGroup"></path>
                <path d="M441.331856,222.782209 L436.014484,246.722627 L453.739336,249.382209 L441.331856,222.782209" id="Fill-192" sketch:type="MSShapeGroup"></path>
                <path d="M372.204349,311.450269 L377.521721,338.051104 L407.654053,330.070687 L372.204349,311.450269" id="Fill-193" sketch:type="MSShapeGroup"></path>
                <path d="M395.246573,289.283463 L372.204349,311.450269 L407.654053,330.070687 L395.246573,289.283463" id="Fill-194" sketch:type="MSShapeGroup"></path>
                <path d="M388.156465,197.068179 L392.588304,211.255403 L407.654053,190.861373 L388.156465,197.068179" id="Fill-195" sketch:type="MSShapeGroup"></path>
                <path d="M370.431613,90.6665075 L407.654053,100.419701 L412.971425,71.1592836 L370.431613,90.6665075" id="Fill-196" sketch:type="MSShapeGroup"></path>
                <path d="M403.223048,53.4256716 L370.431613,90.6665075 L412.971425,71.1592836 L403.223048,53.4256716" id="Fill-197" sketch:type="MSShapeGroup"></path>
                <path d="M391.701936,228.102209 L370.431613,254.703045 L412.971425,252.042627 L391.701936,228.102209" id="Fill-198" sketch:type="MSShapeGroup"></path>
                <path d="M370.431613,254.703045 L395.246573,289.283463 L412.971425,252.042627 L370.431613,254.703045" id="Fill-199" sketch:type="MSShapeGroup"></path>
                <path d="M404.109416,224.555821 L391.701936,228.102209 L412.971425,252.042627 L404.109416,224.555821" id="Fill-200" sketch:type="MSShapeGroup"></path>
                <path d="M388.156465,35.6920597 L403.223048,53.4256716 L423.607004,48.1056716 L388.156465,35.6920597" id="Fill-201" sketch:type="MSShapeGroup"></path>
                <path d="M392.588304,211.255403 L404.109416,224.555821 L413.857793,215.688597 L392.588304,211.255403" id="Fill-202" sketch:type="MSShapeGroup"></path>
                <path d="M483.871668,125.246925 L489.18904,151.847761 L490.075408,128.793313 L483.871668,125.246925" id="Fill-203" sketch:type="MSShapeGroup"></path>
                <path d="M403.223048,53.4256716 L412.971425,71.1592836 L420.9479,67.6120597 L403.223048,53.4256716" id="Fill-204" sketch:type="MSShapeGroup"></path>
                <path d="M407.654053,190.861373 L426.265272,190.861373 L435.128116,161.600955 L407.654053,190.861373" id="Fill-205" sketch:type="MSShapeGroup"></path>
                <path d="M486.529936,223.669015 L496.279148,228.102209 L496.279148,201.501373 L486.529936,223.669015" id="Fill-206" sketch:type="MSShapeGroup"></path>
                <path d="M412.971425,252.042627 L395.246573,289.283463 L425.378905,268.889433 L412.971425,252.042627" id="Fill-207" sketch:type="MSShapeGroup"></path>
                <path d="M395.246573,289.283463 L420.061533,293.716657 L425.378905,268.889433 L395.246573,289.283463" id="Fill-208" sketch:type="MSShapeGroup"></path>
                <path d="M407.654053,190.861373 L413.857793,215.688597 L426.265272,190.861373 L407.654053,190.861373" id="Fill-209" sketch:type="MSShapeGroup"></path>
                <path d="M412.971425,71.1592836 L428.924376,91.5524776 L430.696277,80.0256716 L412.971425,71.1592836" id="Fill-210" sketch:type="MSShapeGroup"></path>
                <path d="M407.654053,100.419701 L365.114241,127.020537 L427.15164,118.153313 L407.654053,100.419701" id="Fill-211" sketch:type="MSShapeGroup"></path>
                <path d="M420.9479,67.6120597 L430.696277,80.0256716 L440.445488,70.2724776 L420.9479,67.6120597" id="Fill-212" sketch:type="MSShapeGroup"></path>
                <path d="M412.971425,71.1592836 L407.654053,100.419701 L428.924376,91.5524776 L412.971425,71.1592836" id="Fill-213" sketch:type="MSShapeGroup"></path>
                <path d="M407.654053,100.419701 L427.15164,118.153313 L428.924376,91.5524776 L407.654053,100.419701" id="Fill-214" sketch:type="MSShapeGroup"></path>
                <path d="M420.9479,67.6120597 L412.971425,71.1592836 L430.696277,80.0256716 L420.9479,67.6120597" id="Fill-215" sketch:type="MSShapeGroup"></path>
                <path d="M412.971425,252.042627 L425.378905,268.889433 L436.014484,246.722627 L412.971425,252.042627" id="Fill-216" sketch:type="MSShapeGroup"></path>
                <path d="M443.103757,194.408597 L441.331856,222.782209 L463.487712,211.255403 L443.103757,194.408597" id="Fill-217" sketch:type="MSShapeGroup"></path>
                <path d="M427.15164,118.153313 L442.218224,139.434149 L457.283972,124.360119 L427.15164,118.153313" id="Fill-218" sketch:type="MSShapeGroup"></path>
                <path d="M407.654053,330.070687 L378.408089,376.178746 L437.786385,369.085134 L407.654053,330.070687" id="Fill-219" sketch:type="MSShapeGroup"></path>
                <path d="M404.109416,224.555821 L412.971425,252.042627 L436.014484,246.722627 L404.109416,224.555821" id="Fill-220" sketch:type="MSShapeGroup"></path>
                <path d="M413.857793,215.688597 L404.109416,224.555821 L436.014484,246.722627 L413.857793,215.688597" id="Fill-221" sketch:type="MSShapeGroup"></path>
                <path d="M423.607004,48.1056716 L420.9479,67.6120597 L440.445488,70.2724776 L423.607004,48.1056716" id="Fill-222" sketch:type="MSShapeGroup"></path>
                <path d="M493.620044,182.881791 L473.236924,184.654567 L496.279148,201.501373 L493.620044,182.881791" id="Fill-223" sketch:type="MSShapeGroup"></path>
                <path d="M550.340072,276.869851 L562.747552,292.829851 L568.064924,281.303045 L550.340072,276.869851" id="Fill-224" sketch:type="MSShapeGroup"></path>
                <path d="M428.924376,91.5524776 L427.15164,118.153313 L441.331856,103.96609 L428.924376,91.5524776" id="Fill-225" sketch:type="MSShapeGroup"></path>
                <path d="M426.265272,190.861373 L441.331856,222.782209 L443.103757,194.408597 L426.265272,190.861373" id="Fill-226" sketch:type="MSShapeGroup"></path>
                <path d="M441.331856,103.96609 L427.15164,118.153313 L457.283972,124.360119 L441.331856,103.96609" id="Fill-227" sketch:type="MSShapeGroup"></path>
                <path d="M430.696277,80.0256716 L428.924376,91.5524776 L441.331856,103.96609 L430.696277,80.0256716" id="Fill-228" sketch:type="MSShapeGroup"></path>
                <path d="M509.572996,127.020537 L507.80026,131.453731 L513.117632,142.093731 L509.572996,127.020537" id="Fill-229" sketch:type="MSShapeGroup"></path>
                <path d="M435.128116,161.600955 L426.265272,190.861373 L443.103757,194.408597 L435.128116,161.600955" id="Fill-230" sketch:type="MSShapeGroup"></path>
                <path d="M432.469012,303.470687 L407.654053,330.070687 L441.331856,313.223881 L432.469012,303.470687" id="Fill-231" sketch:type="MSShapeGroup"></path>
                <path d="M425.378905,268.889433 L420.061533,293.716657 L442.218224,282.189851 L425.378905,268.889433" id="Fill-232" sketch:type="MSShapeGroup"></path>
                <path d="M420.061533,293.716657 L432.469012,303.470687 L442.218224,282.189851 L420.061533,293.716657" id="Fill-233" sketch:type="MSShapeGroup"></path>
                <path d="M427.15164,118.153313 L435.128116,161.600955 L442.218224,139.434149 L427.15164,118.153313" id="Fill-234" sketch:type="MSShapeGroup"></path>
                <path d="M436.014484,246.722627 L425.378905,268.889433 L453.739336,249.382209 L436.014484,246.722627" id="Fill-235" sketch:type="MSShapeGroup"></path>
                <path d="M425.378905,268.889433 L442.218224,282.189851 L453.739336,249.382209 L425.378905,268.889433" id="Fill-236" sketch:type="MSShapeGroup"></path>
                <path d="M441.331856,313.223881 L437.786385,369.085134 L464.37408,358.445134 L441.331856,313.223881" id="Fill-237" sketch:type="MSShapeGroup"></path>
                <path d="M442.218224,282.189851 L432.469012,303.470687 L460.828609,289.283463 L442.218224,282.189851" id="Fill-238" sketch:type="MSShapeGroup"></path>
                <path d="M495.39278,114.606925 L499.823784,119.040119 L503.36842,116.379701 L495.39278,114.606925" id="Fill-239" sketch:type="MSShapeGroup"></path>
                <path d="M432.469012,303.470687 L441.331856,313.223881 L460.828609,289.283463 L432.469012,303.470687" id="Fill-240" sketch:type="MSShapeGroup"></path>
                <path d="M435.128116,161.600955 L443.103757,194.408597 L462.601344,171.354149 L435.128116,161.600955" id="Fill-241" sketch:type="MSShapeGroup"></path>
                <path d="M505.141156,106.626507 L503.36842,116.379701 L509.572996,117.266507 L505.141156,106.626507" id="Fill-242" sketch:type="MSShapeGroup"></path>
                <path d="M443.103757,194.408597 L463.487712,211.255403 L473.236924,184.654567 L443.103757,194.408597" id="Fill-243" sketch:type="MSShapeGroup"></path>
                <path d="M442.218224,139.434149 L435.128116,161.600955 L462.601344,171.354149 L442.218224,139.434149" id="Fill-244" sketch:type="MSShapeGroup"></path>
                <path d="M495.39278,148.300537 L498.051048,152.733731 L513.117632,142.093731 L495.39278,148.300537" id="Fill-245" sketch:type="MSShapeGroup"></path>
                <path d="M498.051048,152.733731 L514.004,166.920955 L516.662268,147.413731 L498.051048,152.733731" id="Fill-246" sketch:type="MSShapeGroup"></path>
                <path d="M441.331856,103.96609 L457.283972,124.360119 L464.37408,83.5728955 L441.331856,103.96609" id="Fill-247" sketch:type="MSShapeGroup"></path>
                <path d="M430.696277,80.0256716 L441.331856,103.96609 L464.37408,83.5728955 L430.696277,80.0256716" id="Fill-248" sketch:type="MSShapeGroup"></path>
                <path d="M440.445488,70.2724776 L430.696277,80.0256716 L464.37408,83.5728955 L440.445488,70.2724776" id="Fill-249" sketch:type="MSShapeGroup"></path>
                <path d="M453.739336,249.382209 L442.218224,282.189851 L471.464188,264.456239 L453.739336,249.382209" id="Fill-250" sketch:type="MSShapeGroup"></path>
                <path d="M442.218224,282.189851 L460.828609,289.283463 L471.464188,264.456239 L442.218224,282.189851" id="Fill-251" sketch:type="MSShapeGroup"></path>
                <path d="M441.331856,313.223881 L464.37408,358.445134 L473.236924,322.977075 L441.331856,313.223881" id="Fill-252" sketch:type="MSShapeGroup"></path>
                <path d="M460.828609,289.283463 L441.331856,313.223881 L473.236924,322.977075 L460.828609,289.283463" id="Fill-253" sketch:type="MSShapeGroup"></path>
                <path d="M462.601344,171.354149 L443.103757,194.408597 L473.236924,184.654567 L462.601344,171.354149" id="Fill-254" sketch:type="MSShapeGroup"></path>
                <path d="M462.601344,171.354149 L473.236924,184.654567 L475.008824,166.920955 L462.601344,171.354149" id="Fill-255" sketch:type="MSShapeGroup"></path>
                <path d="M442.218224,139.434149 L462.601344,171.354149 L475.008824,166.920955 L442.218224,139.434149" id="Fill-256" sketch:type="MSShapeGroup"></path>
                <path d="M457.283972,124.360119 L442.218224,139.434149 L475.008824,166.920955 L457.283972,124.360119" id="Fill-257" sketch:type="MSShapeGroup"></path>
                <path d="M460.828609,289.283463 L473.236924,322.977075 L489.18904,304.356657 L460.828609,289.283463" id="Fill-258" sketch:type="MSShapeGroup"></path>
                <path d="M464.37408,83.5728955 L457.283972,124.360119 L482.9853,118.153313 L464.37408,83.5728955" id="Fill-259" sketch:type="MSShapeGroup"></path>
                <path d="M482.9853,118.153313 L457.283972,124.360119 L483.871668,125.246925 L482.9853,118.153313" id="Fill-260" sketch:type="MSShapeGroup"></path>
                <path d="M471.464188,264.456239 L460.828609,289.283463 L489.18904,304.356657 L471.464188,264.456239" id="Fill-261" sketch:type="MSShapeGroup"></path>
                <path d="M475.008824,166.920955 L473.236924,184.654567 L488.302672,171.354149 L475.008824,166.920955" id="Fill-262" sketch:type="MSShapeGroup"></path>
                <path d="M463.487712,211.255403 L453.739336,249.382209 L482.9853,235.195821 L463.487712,211.255403" id="Fill-263" sketch:type="MSShapeGroup"></path>
                <path d="M453.739336,249.382209 L471.464188,264.456239 L482.9853,235.195821 L453.739336,249.382209" id="Fill-264" sketch:type="MSShapeGroup"></path>
                <path d="M490.961776,119.040119 L483.871668,125.246925 L491.847308,123.473313 L490.961776,119.040119" id="Fill-265" sketch:type="MSShapeGroup"></path>
                <path d="M482.9853,235.195821 L495.39278,235.195821 L496.279148,228.102209 L482.9853,235.195821" id="Fill-266" sketch:type="MSShapeGroup"></path>
                <path d="M463.487712,211.255403 L482.9853,235.195821 L486.529936,223.669015 L463.487712,211.255403" id="Fill-267" sketch:type="MSShapeGroup"></path>
                <path d="M496.279148,201.501373 L516.662268,238.742209 L516.662268,188.201791 L496.279148,201.501373" id="Fill-268" sketch:type="MSShapeGroup"></path>
                <path d="M490.075408,128.793313 L495.39278,148.300537 L498.937416,133.227343 L490.075408,128.793313" id="Fill-269" sketch:type="MSShapeGroup"></path>
                <path d="M490.075408,113.720119 L482.9853,118.153313 L490.961776,119.040119 L490.075408,113.720119" id="Fill-270" sketch:type="MSShapeGroup"></path>
                <path d="M482.9853,118.153313 L483.871668,125.246925 L490.961776,119.040119 L482.9853,118.153313" id="Fill-271" sketch:type="MSShapeGroup"></path>
                <path d="M475.008824,166.920955 L488.302672,171.354149 L489.18904,151.847761 L475.008824,166.920955" id="Fill-272" sketch:type="MSShapeGroup"></path>
                <path d="M483.871668,125.246925 L457.283972,124.360119 L489.18904,151.847761 L483.871668,125.246925" id="Fill-273" sketch:type="MSShapeGroup"></path>
                <path d="M457.283972,124.360119 L475.008824,166.920955 L489.18904,151.847761 L457.283972,124.360119" id="Fill-274" sketch:type="MSShapeGroup"></path>
                <path d="M505.141156,120.813731 L508.686628,123.473313 L509.572996,117.266507 L505.141156,120.813731" id="Fill-275" sketch:type="MSShapeGroup"></path>
                <path d="M491.847308,123.473313 L490.075408,128.793313 L495.39278,128.793313 L491.847308,123.473313" id="Fill-276" sketch:type="MSShapeGroup"></path>
                <path d="M464.37408,83.5728955 L482.9853,118.153313 L490.075408,113.720119 L464.37408,83.5728955" id="Fill-277" sketch:type="MSShapeGroup"></path>
                <path d="M483.871668,125.246925 L490.075408,128.793313 L491.847308,123.473313 L483.871668,125.246925" id="Fill-278" sketch:type="MSShapeGroup"></path>
                <path d="M482.9853,235.195821 L471.464188,264.456239 L495.39278,235.195821 L482.9853,235.195821" id="Fill-279" sketch:type="MSShapeGroup"></path>
                <path d="M486.529936,223.669015 L482.9853,235.195821 L496.279148,228.102209 L486.529936,223.669015" id="Fill-280" sketch:type="MSShapeGroup"></path>
                <path d="M495.39278,128.793313 L490.075408,128.793313 L498.937416,133.227343 L495.39278,128.793313" id="Fill-281" sketch:type="MSShapeGroup"></path>
                <path d="M488.302672,171.354149 L473.236924,184.654567 L493.620044,182.881791 L488.302672,171.354149" id="Fill-282" sketch:type="MSShapeGroup"></path>
                <path d="M490.075408,128.793313 L489.18904,151.847761 L495.39278,148.300537 L490.075408,128.793313" id="Fill-283" sketch:type="MSShapeGroup"></path>
                <path d="M490.075408,113.720119 L490.961776,119.040119 L495.39278,114.606925 L490.075408,113.720119" id="Fill-284" sketch:type="MSShapeGroup"></path>
                <path d="M490.075408,113.720119 L495.39278,114.606925 L496.279148,110.173731 L490.075408,113.720119" id="Fill-285" sketch:type="MSShapeGroup"></path>
                <path d="M464.37408,83.5728955 L490.075408,113.720119 L496.279148,110.173731 L464.37408,83.5728955" id="Fill-286" sketch:type="MSShapeGroup"></path>
                <path d="M513.117632,142.093731 L498.051048,152.733731 L516.662268,147.413731 L513.117632,142.093731" id="Fill-287" sketch:type="MSShapeGroup"></path>
                <path d="M495.39278,114.606925 L490.961776,119.040119 L496.279148,119.926925 L495.39278,114.606925" id="Fill-288" sketch:type="MSShapeGroup"></path>
                <path d="M463.487712,211.255403 L486.529936,223.669015 L496.279148,201.501373 L463.487712,211.255403" id="Fill-289" sketch:type="MSShapeGroup"></path>
                <path d="M473.236924,184.654567 L463.487712,211.255403 L496.279148,201.501373 L473.236924,184.654567" id="Fill-290" sketch:type="MSShapeGroup"></path>
                <path d="M499.823784,119.040119 L503.36842,124.360119 L505.141156,120.813731 L499.823784,119.040119" id="Fill-291" sketch:type="MSShapeGroup"></path>
                <path d="M503.36842,170.468179 L493.620044,182.881791 L516.662268,188.201791 L503.36842,170.468179" id="Fill-292" sketch:type="MSShapeGroup"></path>
                <path d="M491.847308,123.473313 L495.39278,128.793313 L496.279148,119.926925 L491.847308,123.473313" id="Fill-293" sketch:type="MSShapeGroup"></path>
                <path d="M490.961776,119.040119 L491.847308,123.473313 L496.279148,119.926925 L490.961776,119.040119" id="Fill-294" sketch:type="MSShapeGroup"></path>
                <path d="M489.18904,151.847761 L488.302672,171.354149 L498.051048,152.733731 L489.18904,151.847761" id="Fill-295" sketch:type="MSShapeGroup"></path>
                <path d="M496.279148,110.173731 L495.39278,114.606925 L503.36842,116.379701 L496.279148,110.173731" id="Fill-296" sketch:type="MSShapeGroup"></path>
                <path d="M496.279148,201.501373 L496.279148,228.102209 L516.662268,238.742209 L496.279148,201.501373" id="Fill-297" sketch:type="MSShapeGroup"></path>
                <path d="M495.39278,148.300537 L489.18904,151.847761 L498.051048,152.733731 L495.39278,148.300537" id="Fill-298" sketch:type="MSShapeGroup"></path>
                <path d="M495.39278,128.793313 L498.937416,133.227343 L502.482888,129.680119 L495.39278,128.793313" id="Fill-299" sketch:type="MSShapeGroup"></path>
                <path d="M495.39278,114.606925 L496.279148,119.926925 L499.823784,119.040119 L495.39278,114.606925" id="Fill-300" sketch:type="MSShapeGroup"></path>
                <path d="M533.500752,109.286925 L536.159856,114.606925 L537.932592,111.059701 L533.500752,109.286925" id="Fill-301" sketch:type="MSShapeGroup"></path>
                <path d="M471.464188,264.456239 L489.18904,304.356657 L506.027524,281.303045 L471.464188,264.456239" id="Fill-302" sketch:type="MSShapeGroup"></path>
                <path d="M499.823784,119.040119 L496.279148,119.926925 L503.36842,124.360119 L499.823784,119.040119" id="Fill-303" sketch:type="MSShapeGroup"></path>
                <path d="M503.36842,116.379701 L499.823784,119.040119 L505.141156,120.813731 L503.36842,116.379701" id="Fill-304" sketch:type="MSShapeGroup"></path>
                <path d="M488.302672,171.354149 L493.620044,182.881791 L503.36842,170.468179 L488.302672,171.354149" id="Fill-305" sketch:type="MSShapeGroup"></path>
                <path d="M498.051048,152.733731 L488.302672,171.354149 L503.36842,170.468179 L498.051048,152.733731" id="Fill-306" sketch:type="MSShapeGroup"></path>
                <path d="M496.279148,110.173731 L503.36842,116.379701 L505.141156,106.626507 L496.279148,110.173731" id="Fill-307" sketch:type="MSShapeGroup"></path>
                <path d="M496.279148,119.926925 L495.39278,128.793313 L503.36842,124.360119 L496.279148,119.926925" id="Fill-308" sketch:type="MSShapeGroup"></path>
                <path d="M495.39278,128.793313 L502.482888,129.680119 L503.36842,124.360119 L495.39278,128.793313" id="Fill-309" sketch:type="MSShapeGroup"></path>
                <path d="M558.315712,261.795821 L550.340072,276.869851 L568.064924,281.303045 L558.315712,261.795821" id="Fill-310" sketch:type="MSShapeGroup"></path>
                <path d="M507.80026,131.453731 L498.937416,133.227343 L513.117632,142.093731 L507.80026,131.453731" id="Fill-311" sketch:type="MSShapeGroup"></path>
                <path d="M509.572996,117.266507 L508.686628,123.473313 L509.572996,127.020537 L509.572996,117.266507" id="Fill-312" sketch:type="MSShapeGroup"></path>
                <path d="M505.141156,106.626507 L509.572996,117.266507 L513.117632,102.193313 L505.141156,106.626507" id="Fill-313" sketch:type="MSShapeGroup"></path>
                <path d="M502.482888,129.680119 L498.937416,133.227343 L507.80026,131.453731 L502.482888,129.680119" id="Fill-314" sketch:type="MSShapeGroup"></path>
                <path d="M516.662268,147.413731 L522.866008,155.394149 L532.61522,150.074149 L516.662268,147.413731" id="Fill-315" sketch:type="MSShapeGroup"></path>
                <path d="M503.36842,116.379701 L505.141156,120.813731 L509.572996,117.266507 L503.36842,116.379701" id="Fill-316" sketch:type="MSShapeGroup"></path>
                <path d="M505.141156,120.813731 L503.36842,124.360119 L508.686628,123.473313 L505.141156,120.813731" id="Fill-317" sketch:type="MSShapeGroup"></path>
                <path d="M508.686628,123.473313 L503.36842,124.360119 L509.572996,127.020537 L508.686628,123.473313" id="Fill-318" sketch:type="MSShapeGroup"></path>
                <path d="M503.36842,124.360119 L502.482888,129.680119 L509.572996,127.020537 L503.36842,124.360119" id="Fill-319" sketch:type="MSShapeGroup"></path>
                <path d="M502.482888,129.680119 L507.80026,131.453731 L509.572996,127.020537 L502.482888,129.680119" id="Fill-320" sketch:type="MSShapeGroup"></path>
                <path d="M493.620044,182.881791 L496.279148,201.501373 L516.662268,188.201791 L493.620044,182.881791" id="Fill-321" sketch:type="MSShapeGroup"></path>
                <path d="M498.937416,133.227343 L495.39278,148.300537 L513.117632,142.093731 L498.937416,133.227343" id="Fill-322" sketch:type="MSShapeGroup"></path>
                <path d="M498.051048,152.733731 L503.36842,170.468179 L514.004,166.920955 L498.051048,152.733731" id="Fill-323" sketch:type="MSShapeGroup"></path>
                <path d="M473.236924,322.977075 L520.20774,359.331104 L522.866008,326.524299 L473.236924,322.977075" id="Fill-324" sketch:type="MSShapeGroup"></path>
                <path d="M495.39278,235.195821 L471.464188,264.456239 L514.004,248.496239 L495.39278,235.195821" id="Fill-325" sketch:type="MSShapeGroup"></path>
                <path d="M471.464188,264.456239 L506.027524,281.303045 L514.004,248.496239 L471.464188,264.456239" id="Fill-326" sketch:type="MSShapeGroup"></path>
                <path d="M489.18904,304.356657 L473.236924,322.977075 L522.866008,326.524299 L489.18904,304.356657" id="Fill-327" sketch:type="MSShapeGroup"></path>
                <path d="M522.866008,155.394149 L514.004,166.920955 L532.61522,159.827343 L522.866008,155.394149" id="Fill-328" sketch:type="MSShapeGroup"></path>
                <path d="M496.279148,228.102209 L495.39278,235.195821 L516.662268,238.742209 L496.279148,228.102209" id="Fill-329" sketch:type="MSShapeGroup"></path>
                <path d="M495.39278,235.195821 L514.004,248.496239 L516.662268,238.742209 L495.39278,235.195821" id="Fill-330" sketch:type="MSShapeGroup"></path>
                <path d="M514.004,166.920955 L503.36842,170.468179 L516.662268,188.201791 L514.004,166.920955" id="Fill-331" sketch:type="MSShapeGroup"></path>
                <path d="M516.662268,147.413731 L532.61522,150.074149 L532.61522,142.980537 L516.662268,147.413731" id="Fill-332" sketch:type="MSShapeGroup"></path>
                <path d="M513.117632,102.193313 L533.500752,109.286925 L535.273488,102.193313 L513.117632,102.193313" id="Fill-333" sketch:type="MSShapeGroup"></path>
                <path d="M516.662268,147.413731 L514.004,166.920955 L522.866008,155.394149 L516.662268,147.413731" id="Fill-334" sketch:type="MSShapeGroup"></path>
                <path d="M531.728852,138.547343 L516.662268,147.413731 L532.61522,142.980537 L531.728852,138.547343" id="Fill-335" sketch:type="MSShapeGroup"></path>
                <path d="M535.273488,102.193313 L533.500752,109.286925 L537.932592,111.059701 L535.273488,102.193313" id="Fill-336" sketch:type="MSShapeGroup"></path>
                <path d="M532.61522,150.074149 L522.866008,155.394149 L532.61522,159.827343 L532.61522,150.074149" id="Fill-337" sketch:type="MSShapeGroup"></path>
                <path d="M513.117632,102.193313 L509.572996,117.266507 L533.500752,109.286925 L513.117632,102.193313" id="Fill-338" sketch:type="MSShapeGroup"></path>
                <path d="M568.064924,281.303045 L562.747552,292.829851 L578.699668,310.563463 L568.064924,281.303045" id="Fill-339" sketch:type="MSShapeGroup"></path>
                <path d="M513.117632,142.093731 L516.662268,147.413731 L531.728852,138.547343 L513.117632,142.093731" id="Fill-340" sketch:type="MSShapeGroup"></path>
                <path d="M509.572996,127.020537 L513.117632,142.093731 L531.728852,138.547343 L509.572996,127.020537" id="Fill-341" sketch:type="MSShapeGroup"></path>
                <path d="M549.453704,135.886925 L532.61522,142.980537 L550.340072,141.206925 L549.453704,135.886925" id="Fill-342" sketch:type="MSShapeGroup"></path>
                <path d="M532.61522,142.980537 L547.680968,146.527761 L550.340072,141.206925 L532.61522,142.980537" id="Fill-343" sketch:type="MSShapeGroup"></path>
                <path d="M489.18904,304.356657 L522.866008,326.524299 L532.61522,300.810269 L489.18904,304.356657" id="Fill-344" sketch:type="MSShapeGroup"></path>
                <path d="M532.61522,150.074149 L545.909068,158.940537 L547.680968,146.527761 L532.61522,150.074149" id="Fill-345" sketch:type="MSShapeGroup"></path>
                <path d="M506.027524,281.303045 L489.18904,304.356657 L532.61522,300.810269 L506.027524,281.303045" id="Fill-346" sketch:type="MSShapeGroup"></path>
                <path d="M532.61522,142.980537 L532.61522,150.074149 L547.680968,146.527761 L532.61522,142.980537" id="Fill-347" sketch:type="MSShapeGroup"></path>
                <path d="M506.027524,281.303045 L532.61522,300.810269 L533.500752,263.569433 L506.027524,281.303045" id="Fill-348" sketch:type="MSShapeGroup"></path>
                <path d="M514.004,248.496239 L506.027524,281.303045 L533.500752,263.569433 L514.004,248.496239" id="Fill-349" sketch:type="MSShapeGroup"></path>
                <path d="M514.004,166.920955 L516.662268,188.201791 L533.500752,172.240955 L514.004,166.920955" id="Fill-350" sketch:type="MSShapeGroup"></path>
                <path d="M532.61522,159.827343 L514.004,166.920955 L533.500752,172.240955 L532.61522,159.827343" id="Fill-351" sketch:type="MSShapeGroup"></path>
                <path d="M514.004,248.496239 L533.500752,263.569433 L537.046224,243.175403 L514.004,248.496239" id="Fill-352" sketch:type="MSShapeGroup"></path>
                <path d="M533.500752,109.286925 L509.572996,117.266507 L536.159856,114.606925 L533.500752,109.286925" id="Fill-353" sketch:type="MSShapeGroup"></path>
                <path d="M509.572996,127.020537 L531.728852,138.547343 L536.159856,114.606925 L509.572996,127.020537" id="Fill-354" sketch:type="MSShapeGroup"></path>
                <path d="M509.572996,117.266507 L509.572996,127.020537 L536.159856,114.606925 L509.572996,117.266507" id="Fill-355" sketch:type="MSShapeGroup"></path>
                <path d="M522.866008,326.524299 L520.20774,359.331104 L551.22644,352.238328 L522.866008,326.524299" id="Fill-356" sketch:type="MSShapeGroup"></path>
                <path d="M516.662268,238.742209 L514.004,248.496239 L537.046224,243.175403 L516.662268,238.742209" id="Fill-357" sketch:type="MSShapeGroup"></path>
                <path d="M578.699668,310.563463 L555.657444,321.204299 L593.766252,331.844299 L578.699668,310.563463" id="Fill-358" sketch:type="MSShapeGroup"></path>
                <path d="M533.500752,263.569433 L550.340072,276.869851 L558.315712,261.795821 L533.500752,263.569433" id="Fill-359" sketch:type="MSShapeGroup"></path>
                <path d="M535.273488,102.193313 L537.932592,111.059701 L545.909068,116.379701 L535.273488,102.193313" id="Fill-360" sketch:type="MSShapeGroup"></path>
                <path d="M532.61522,159.827343 L533.500752,172.240955 L545.909068,158.940537 L532.61522,159.827343" id="Fill-361" sketch:type="MSShapeGroup"></path>
                <path d="M536.159856,114.606925 L531.728852,138.547343 L545.909068,116.379701 L536.159856,114.606925" id="Fill-362" sketch:type="MSShapeGroup"></path>
                <path d="M537.932592,111.059701 L536.159856,114.606925 L545.909068,116.379701 L537.932592,111.059701" id="Fill-363" sketch:type="MSShapeGroup"></path>
                <path d="M532.61522,150.074149 L532.61522,159.827343 L545.909068,158.940537 L532.61522,150.074149" id="Fill-364" sketch:type="MSShapeGroup"></path>
                <path d="M531.728852,138.547343 L532.61522,142.980537 L549.453704,135.886925 L531.728852,138.547343" id="Fill-365" sketch:type="MSShapeGroup"></path>
                <path d="M533.500752,172.240955 L516.662268,188.201791 L548.567336,209.481791 L533.500752,172.240955" id="Fill-366" sketch:type="MSShapeGroup"></path>
                <path d="M516.662268,188.201791 L516.662268,238.742209 L548.567336,209.481791 L516.662268,188.201791" id="Fill-367" sketch:type="MSShapeGroup"></path>
                <path d="M516.662268,238.742209 L537.046224,243.175403 L548.567336,209.481791 L516.662268,238.742209" id="Fill-368" sketch:type="MSShapeGroup"></path>
                <path d="M555.657444,321.204299 L576.926932,350.464716 L593.766252,331.844299 L555.657444,321.204299" id="Fill-369" sketch:type="MSShapeGroup"></path>
                <path d="M537.046224,243.175403 L533.500752,263.569433 L558.315712,261.795821 L537.046224,243.175403" id="Fill-370" sketch:type="MSShapeGroup"></path>
                <path d="M545.909068,116.379701 L531.728852,138.547343 L549.453704,135.886925 L545.909068,116.379701" id="Fill-371" sketch:type="MSShapeGroup"></path>
                <path d="M522.866008,326.524299 L551.22644,352.238328 L555.657444,321.204299 L522.866008,326.524299" id="Fill-372" sketch:type="MSShapeGroup"></path>
                <path d="M533.500752,263.569433 L532.61522,300.810269 L550.340072,276.869851 L533.500752,263.569433" id="Fill-373" sketch:type="MSShapeGroup"></path>
                <path d="M532.61522,300.810269 L522.866008,326.524299 L555.657444,321.204299 L532.61522,300.810269" id="Fill-374" sketch:type="MSShapeGroup"></path>
                <path d="M548.567336,209.481791 L537.046224,243.175403 L558.315712,261.795821 L548.567336,209.481791" id="Fill-375" sketch:type="MSShapeGroup"></path>
                <path d="M550.340072,276.869851 L532.61522,300.810269 L562.747552,292.829851 L550.340072,276.869851" id="Fill-376" sketch:type="MSShapeGroup"></path>
                <path d="M562.747552,292.829851 L555.657444,321.204299 L578.699668,310.563463 L562.747552,292.829851" id="Fill-377" sketch:type="MSShapeGroup"></path>
                <path d="M555.657444,321.204299 L551.22644,352.238328 L576.926932,350.464716 L555.657444,321.204299" id="Fill-378" sketch:type="MSShapeGroup"></path>
                <path d="M593.766252,331.844299 L576.926932,350.464716 L602.62826,354.89791 L593.766252,331.844299" id="Fill-379" sketch:type="MSShapeGroup"></path>
            </g>
        </g>
    </g>
</svg>
