<svg width="653px" height="428px" viewBox="0 0 653 428" xmlns="http://www.w3.org/2000/svg" xmlns:xlink="http://www.w3.org/1999/xlink"><g stroke="#080808" stroke-width="1" fill="none"><path d="M107.612717,212.361272 L100.589595,222.193642 L109.017341,225.939306 L107.612717,212.361272"></path><path d="M89.8208092,202.528902 L79.5202312,212.82948 L91.6936416,210.020231 L89.8208092,202.528902"></path><path d="M84.2023121,215.638728 L77.1791908,222.66185 L87.4797688,218.916185 L84.2023121,215.638728"></path><path d="M147.878613,235.303468 L157.242775,247.008671 L158.179191,234.367052 L147.878613,235.303468"></path><path d="M91.6936416,210.020231 L87.4797688,218.916185 L94.5028902,219.852601 L91.6936416,210.020231"></path><path d="M84.2023121,215.638728 L87.4797688,218.916185 L91.6936416,210.020231 L84.2023121,215.638728"></path><path d="M94.5028902,219.852601 L100.589595,222.193642 L107.612717,212.361272 L94.5028902,219.852601"></path><path d="M89.8208092,202.528902 L91.6936416,210.020231 L100.121387,204.869942 L89.8208092,202.528902"></path><path d="M138.982659,215.638728 L130.554913,220.789017 L139.919075,222.193642 L138.982659,215.638728"></path><path d="M131.491329,231.557803 L143.66474,239.517341 L147.878613,235.303468 L131.491329,231.557803"></path><path d="M111.82659,239.049133 L104.33526,248.413295 L114.16763,243.263006 L111.82659,239.049133"></path><path d="M91.6936416,210.020231 L94.5028902,219.852601 L107.612717,212.361272 L91.6936416,210.020231"></path><path d="M100.121387,204.869942 L91.6936416,210.020231 L107.612717,212.361272 L100.121387,204.869942"></path><path d="M111.82659,239.049133 L114.16763,243.263006 L120.254335,235.303468 L111.82659,239.049133"></path><path d="M120.254335,235.303468 L130.086705,242.32659 L131.491329,231.557803 L120.254335,235.303468"></path><path d="M107.612717,212.361272 L109.017341,225.939306 L116.040462,215.638728 L107.612717,212.361272"></path><path d="M144.601156,86.4132948 L153.965318,92.0317919 L155.369942,87.349711 L144.601156,86.4132948"></path><path d="M116.040462,215.638728 L109.017341,225.939306 L118.381503,228.280347 L116.040462,215.638728"></path><path d="M120.254335,235.303468 L114.16763,243.263006 L122.595376,242.32659 L120.254335,235.303468"></path><path d="M120.254335,235.303468 L122.595376,242.32659 L130.086705,242.32659 L120.254335,235.303468"></path><path d="M130.554913,220.789017 L118.381503,228.280347 L131.491329,231.557803 L130.554913,220.789017"></path><path d="M116.040462,215.638728 L118.381503,228.280347 L130.554913,220.789017 L116.040462,215.638728"></path><path d="M296.768786,294.297688 L276.16763,306.471098 L300.046243,310.216763 L296.768786,294.297688"></path><path d="M178.312139,244.199422 L181.589595,255.904624 L196.104046,257.777457 L178.312139,244.199422"></path><path d="M130.554913,220.789017 L131.491329,231.557803 L139.919075,222.193642 L130.554913,220.789017"></path><path d="M138.982659,246.072254 L143.196532,250.754335 L143.66474,239.517341 L138.982659,246.072254"></path><path d="M131.491329,231.557803 L130.086705,242.32659 L143.66474,239.517341 L131.491329,231.557803"></path><path d="M130.086705,242.32659 L138.982659,246.072254 L143.66474,239.517341 L130.086705,242.32659"></path><path d="M139.919075,187.546243 L143.196532,197.846821 L145.069364,181.459538 L139.919075,187.546243"></path><path d="M139.919075,222.193642 L131.491329,231.557803 L147.878613,235.303468 L139.919075,222.193642"></path><path d="M139.919075,222.193642 L147.878613,235.303468 L148.346821,224.534682 L139.919075,222.193642"></path><path d="M163.32948,227.343931 L158.179191,234.367052 L170.352601,234.367052 L163.32948,227.343931"></path><path d="M138.982659,215.638728 L139.919075,222.193642 L148.346821,224.534682 L138.982659,215.638728"></path><path d="M146.00578,83.1358382 L144.601156,86.4132948 L155.369942,87.349711 L146.00578,83.1358382"></path><path d="M166.606936,94.3728324 L175.50289,107.950867 L182.057803,105.141618 L166.606936,94.3728324"></path><path d="M145.069364,181.459538 L143.196532,197.846821 L157.242775,173.5 L145.069364,181.459538"></path><path d="M148.346821,224.534682 L147.878613,235.303468 L158.179191,234.367052 L148.346821,224.534682"></path><path d="M178.312139,244.199422 L168.011561,250.754335 L181.589595,255.904624 L178.312139,244.199422"></path><path d="M143.66474,239.517341 L143.196532,250.754335 L157.242775,247.008671 L143.66474,239.517341"></path><path d="M147.878613,235.303468 L143.66474,239.517341 L157.242775,247.008671 L147.878613,235.303468"></path><path d="M151.624277,208.615607 L163.32948,227.343931 L167.543353,210.020231 L151.624277,208.615607"></path><path d="M148.346821,224.534682 L158.179191,234.367052 L163.32948,227.343931 L148.346821,224.534682"></path><path d="M157.242775,247.008671 L168.011561,250.754335 L170.352601,234.367052 L157.242775,247.008671"></path><path d="M155.369942,87.349711 L153.965318,92.0317919 L166.606936,94.3728324 L155.369942,87.349711"></path><path d="M153.965318,92.0317919 L164.265896,99.5231214 L166.606936,94.3728324 L153.965318,92.0317919"></path><path d="M143.196532,197.846821 L151.624277,208.615607 L167.543353,210.020231 L143.196532,197.846821"></path><path d="M158.179191,234.367052 L157.242775,247.008671 L170.352601,234.367052 L158.179191,234.367052"></path><path d="M157.242775,247.008671 L143.196532,250.754335 L168.011561,250.754335 L157.242775,247.008671"></path><path d="M166.606936,94.3728324 L164.265896,99.5231214 L175.50289,107.950867 L166.606936,94.3728324"></path><path d="M215.300578,162.263006 L223.260116,176.777457 L232.156069,163.199422 L215.300578,162.263006"></path><path d="M163.32948,227.343931 L170.352601,234.367052 L183.930636,214.234104 L163.32948,227.343931"></path><path d="M157.242775,173.5 L143.196532,197.846821 L172.693642,177.713873 L157.242775,173.5"></path><path d="M143.196532,197.846821 L167.543353,210.020231 L172.693642,177.713873 L143.196532,197.846821"></path><path d="M182.057803,105.141618 L175.50289,107.950867 L188.144509,121.99711 L182.057803,105.141618"></path><path d="M170.352601,234.367052 L168.011561,250.754335 L178.312139,244.199422 L170.352601,234.367052"></path><path d="M182.057803,105.141618 L188.144509,121.99711 L193.763006,115.442197 L182.057803,105.141618"></path><path d="M172.693642,177.713873 L167.543353,210.020231 L183.930636,214.234104 L172.693642,177.713873"></path><path d="M167.543353,210.020231 L163.32948,227.343931 L183.930636,214.234104 L167.543353,210.020231"></path><path d="M284.127168,238.112717 L264.462428,255.904624 L285.063584,245.135838 L284.127168,238.112717"></path><path d="M270.080925,195.037572 L262.121387,202.528902 L281.786127,222.66185 L270.080925,195.037572"></path><path d="M206.872832,130.893064 L198.445087,136.043353 L207.809249,149.153179 L206.872832,130.893064"></path><path d="M178.312139,244.199422 L196.104046,257.777457 L205,250.286127 L178.312139,244.199422"></path><path d="M170.352601,234.367052 L178.312139,244.199422 L196.104046,218.916185 L170.352601,234.367052"></path><path d="M183.930636,214.234104 L170.352601,234.367052 L196.104046,218.916185 L183.930636,214.234104"></path><path d="M183.930636,214.234104 L196.104046,218.916185 L198.445087,176.309249 L183.930636,214.234104"></path><path d="M172.693642,177.713873 L183.930636,214.234104 L198.445087,176.309249 L172.693642,177.713873"></path><path d="M220.919075,146.812139 L215.300578,162.263006 L232.156069,163.199422 L220.919075,146.812139"></path><path d="M196.104046,218.916185 L178.312139,244.199422 L201.254335,230.621387 L196.104046,218.916185"></path><path d="M253.225434,313.026012 L245.734104,323.794798 L256.50289,324.731214 L253.225434,313.026012"></path><path d="M188.144509,121.99711 L198.445087,136.043353 L206.872832,130.893064 L188.144509,121.99711"></path><path d="M293.959538,327.540462 L300.046243,324.263006 L300.046243,310.216763 L293.959538,327.540462"></path><path d="M193.763006,115.442197 L188.144509,121.99711 L206.872832,130.893064 L193.763006,115.442197"></path><path d="M201.254335,230.621387 L178.312139,244.199422 L206.872832,239.517341 L201.254335,230.621387"></path><path d="M178.312139,244.199422 L205,250.286127 L206.872832,239.517341 L178.312139,244.199422"></path><path d="M245.734104,323.794798 L251.352601,331.754335 L256.50289,324.731214 L245.734104,323.794798"></path><path d="M238.710983,331.286127 L245.734104,335.968208 L245.734104,323.794798 L238.710983,331.286127"></path><path d="M207.809249,149.153179 L215.300578,162.263006 L220.919075,146.812139 L207.809249,149.153179"></path><path d="M206.872832,130.893064 L207.809249,149.153179 L220.919075,146.812139 L206.872832,130.893064"></path><path d="M196.104046,218.916185 L212.491329,227.343931 L223.260116,176.777457 L196.104046,218.916185"></path><path d="M198.445087,176.309249 L196.104046,218.916185 L223.260116,176.777457 L198.445087,176.309249"></path><path d="M236.83815,319.580925 L238.710983,331.286127 L245.734104,323.794798 L236.83815,319.580925"></path><path d="M243.393064,311.153179 L236.83815,319.580925 L245.734104,323.794798 L243.393064,311.153179"></path><path d="M260.248555,331.286127 L267.271676,338.309249 L272.890173,325.66763 L260.248555,331.286127"></path><path d="M232.156069,163.199422 L223.260116,176.777457 L237.774566,175.84104 L232.156069,163.199422"></path><path d="M258.843931,214.234104 L243.393064,239.985549 L260.248555,228.280347 L258.843931,214.234104"></path><path d="M265.398844,318.176301 L260.248555,331.286127 L272.890173,325.66763 L265.398844,318.176301"></path><path d="M272.890173,325.66763 L267.271676,338.309249 L280.381503,339.245665 L272.890173,325.66763"></path><path d="M212.491329,227.343931 L227.00578,233.898844 L258.843931,214.234104 L212.491329,227.343931"></path><path d="M243.393064,311.153179 L245.734104,323.794798 L253.225434,313.026012 L243.393064,311.153179"></path><path d="M245.734104,323.794798 L245.734104,335.968208 L251.352601,331.754335 L245.734104,323.794798"></path><path d="M227.00578,233.898844 L243.393064,239.985549 L258.843931,214.234104 L227.00578,233.898844"></path><path d="M237.774566,175.84104 L258.843931,214.234104 L262.121387,202.528902 L237.774566,175.84104"></path><path d="M256.50289,324.731214 L260.248555,331.286127 L265.398844,318.176301 L256.50289,324.731214"></path><path d="M237.774566,175.84104 L223.260116,176.777457 L258.843931,214.234104 L237.774566,175.84104"></path><path d="M223.260116,176.777457 L212.491329,227.343931 L258.843931,214.234104 L223.260116,176.777457"></path><path d="M256.50289,324.731214 L251.352601,331.754335 L260.248555,331.286127 L256.50289,324.731214"></path><path d="M253.225434,313.026012 L256.50289,324.731214 L265.398844,318.176301 L253.225434,313.026012"></path><path d="M276.16763,306.471098 L293.959538,327.540462 L300.046243,310.216763 L276.16763,306.471098"></path><path d="M250.416185,176.777457 L237.774566,175.84104 L262.121387,202.528902 L250.416185,176.777457"></path><path d="M260.248555,228.280347 L243.393064,239.985549 L261.653179,243.263006 L260.248555,228.280347"></path><path d="M261.653179,181.459538 L250.416185,176.777457 L262.121387,202.528902 L261.653179,181.459538"></path><path d="M261.653179,181.459538 L270.080925,195.037572 L272.890173,188.950867 L261.653179,181.459538"></path><path d="M261.653179,181.459538 L262.121387,202.528902 L270.080925,195.037572 L261.653179,181.459538"></path><path d="M316.901734,340.182081 L313.156069,345.800578 L317.369942,345.800578 L316.901734,340.182081"></path><path d="M265.398844,318.176301 L272.890173,325.66763 L276.16763,306.471098 L265.398844,318.176301"></path><path d="M288.809249,158.985549 L281.317919,173.968208 L296.768786,182.395954 L288.809249,158.985549"></path><path d="M311.751445,175.372832 L296.768786,182.395954 L316.433526,219.852601 L311.751445,175.372832"></path><path d="M276.16763,306.471098 L282.722543,330.817919 L293.959538,327.540462 L276.16763,306.471098"></path><path d="M281.317919,173.968208 L272.890173,188.950867 L282.722543,190.823699 L281.317919,173.968208"></path><path d="M298.17341,340.182081 L294.895954,350.950867 L299.578035,351.419075 L298.17341,340.182081"></path><path d="M272.890173,188.950867 L270.080925,195.037572 L282.722543,190.823699 L272.890173,188.950867"></path><path d="M276.16763,306.471098 L272.890173,325.66763 L282.722543,330.817919 L276.16763,306.471098"></path><path d="M301.919075,220.320809 L291.618497,234.367052 L307.069364,240.921965 L301.919075,220.320809"></path><path d="M313.156069,345.800578 L314.092486,352.823699 L317.369942,345.800578 L313.156069,345.800578"></path><path d="M262.121387,202.528902 L258.843931,214.234104 L281.786127,222.66185 L262.121387,202.528902"></path><path d="M272.890173,325.66763 L280.381503,339.245665 L282.722543,330.817919 L272.890173,325.66763"></path><path d="M258.843931,214.234104 L260.248555,228.280347 L281.786127,222.66185 L258.843931,214.234104"></path><path d="M281.786127,222.66185 L260.248555,228.280347 L284.127168,238.112717 L281.786127,222.66185"></path><path d="M260.248555,228.280347 L261.653179,243.263006 L284.127168,238.112717 L260.248555,228.280347"></path><path d="M261.653179,243.263006 L264.462428,255.904624 L284.127168,238.112717 L261.653179,243.263006"></path><path d="M282.722543,190.823699 L270.080925,195.037572 L289.745665,219.384393 L282.722543,190.823699"></path><path d="M291.618497,234.367052 L284.127168,238.112717 L295.364162,245.135838 L291.618497,234.367052"></path><path d="M284.127168,238.112717 L285.063584,245.135838 L295.364162,245.135838 L284.127168,238.112717"></path><path d="M270.080925,195.037572 L281.786127,222.66185 L289.745665,219.384393 L270.080925,195.037572"></path><path d="M264.462428,255.904624 L267.271676,270.419075 L288.809249,263.16185 L264.462428,255.904624"></path><path d="M285.063584,245.135838 L264.462428,255.904624 L288.809249,263.16185 L285.063584,245.135838"></path><path d="M289.745665,219.384393 L281.786127,222.66185 L291.618497,234.367052 L289.745665,219.384393"></path><path d="M281.786127,222.66185 L284.127168,238.112717 L291.618497,234.367052 L281.786127,222.66185"></path><path d="M270.080925,286.33815 L273.358382,296.17052 L292.554913,279.315029 L270.080925,286.33815"></path><path d="M293.959538,327.540462 L282.722543,330.817919 L295.364162,334.563584 L293.959538,327.540462"></path><path d="M280.381503,339.245665 L289.745665,344.864162 L295.364162,334.563584 L280.381503,339.245665"></path><path d="M288.809249,263.16185 L267.271676,270.419075 L292.554913,279.315029 L288.809249,263.16185"></path><path d="M267.271676,270.419075 L270.080925,286.33815 L292.554913,279.315029 L267.271676,270.419075"></path><path d="M294.895954,350.950867 L294.895954,360.315029 L299.578035,351.419075 L294.895954,350.950867"></path><path d="M282.722543,330.817919 L280.381503,339.245665 L295.364162,334.563584 L282.722543,330.817919"></path><path d="M281.317919,173.968208 L282.722543,190.823699 L296.768786,182.395954 L281.317919,173.968208"></path><path d="M300.046243,324.263006 L305.196532,336.904624 L309.410405,328.945087 L300.046243,324.263006"></path><path d="M292.554913,279.315029 L273.358382,296.17052 L296.768786,294.297688 L292.554913,279.315029"></path><path d="M300.046243,324.263006 L295.364162,334.563584 L305.196532,336.904624 L300.046243,324.263006"></path><path d="M273.358382,296.17052 L276.16763,306.471098 L296.768786,294.297688 L273.358382,296.17052"></path><path d="M295.364162,334.563584 L298.17341,340.182081 L305.196532,336.904624 L295.364162,334.563584"></path><path d="M296.768786,182.395954 L282.722543,190.823699 L301.919075,220.320809 L296.768786,182.395954"></path><path d="M295.364162,334.563584 L289.745665,344.864162 L298.17341,340.182081 L295.364162,334.563584"></path><path d="M289.745665,344.864162 L294.895954,350.950867 L298.17341,340.182081 L289.745665,344.864162"></path><path d="M282.722543,190.823699 L289.745665,219.384393 L301.919075,220.320809 L282.722543,190.823699"></path><path d="M293.959538,327.540462 L295.364162,334.563584 L300.046243,324.263006 L293.959538,327.540462"></path><path d="M289.745665,219.384393 L291.618497,234.367052 L301.919075,220.320809 L289.745665,219.384393"></path><path d="M369.34104,232.026012 L348.271676,237.176301 L370.277457,239.985549 L369.34104,232.026012"></path><path d="M316.433526,219.852601 L307.069364,240.921965 L319.710983,239.517341 L316.433526,219.852601"></path><path d="M291.618497,234.367052 L295.364162,245.135838 L307.069364,240.921965 L291.618497,234.367052"></path><path d="M313.156069,345.800578 L310.815029,344.864162 L314.092486,352.823699 L313.156069,345.800578"></path><path d="M300.046243,310.216763 L300.046243,324.263006 L309.410405,328.945087 L300.046243,310.216763"></path><path d="M296.768786,148.216763 L288.809249,158.985549 L311.751445,175.372832 L296.768786,148.216763"></path><path d="M288.809249,158.985549 L296.768786,182.395954 L311.751445,175.372832 L288.809249,158.985549"></path><path d="M296.768786,182.395954 L301.919075,220.320809 L316.433526,219.852601 L296.768786,182.395954"></path><path d="M310.815029,344.864162 L313.156069,345.800578 L316.901734,340.182081 L310.815029,344.864162"></path><path d="M301.919075,220.320809 L307.069364,240.921965 L316.433526,219.852601 L301.919075,220.320809"></path><path d="M320.179191,126.210983 L306.132948,136.979769 L328.606936,171.15896 L320.179191,126.210983"></path><path d="M388.069364,220.789017 L369.34104,232.026012 L389.942197,240.453757 L388.069364,220.789017"></path><path d="M309.410405,328.945087 L305.196532,336.904624 L316.901734,340.182081 L309.410405,328.945087"></path><path d="M305.196532,336.904624 L310.815029,344.864162 L316.901734,340.182081 L305.196532,336.904624"></path><path d="M296.768786,148.216763 L311.751445,175.372832 L328.606936,171.15896 L296.768786,148.216763"></path><path d="M306.132948,136.979769 L296.768786,148.216763 L328.606936,171.15896 L306.132948,136.979769"></path><path d="M332.352601,216.575145 L316.433526,219.852601 L333.757225,239.049133 L332.352601,216.575145"></path><path d="M316.433526,219.852601 L319.710983,239.517341 L333.757225,239.049133 L316.433526,219.852601"></path><path d="M311.751445,175.372832 L316.433526,219.852601 L332.352601,216.575145 L311.751445,175.372832"></path><path d="M328.606936,171.15896 L311.751445,175.372832 L332.352601,216.575145 L328.606936,171.15896"></path><path d="M345.462428,208.615607 L332.352601,216.575145 L348.271676,237.176301 L345.462428,208.615607"></path><path d="M342.653179,170.690751 L328.606936,171.15896 L345.462428,208.615607 L342.653179,170.690751"></path><path d="M332.352601,216.575145 L333.757225,239.049133 L348.271676,237.176301 L332.352601,216.575145"></path><path d="M320.179191,126.210983 L328.606936,171.15896 L342.653179,170.690751 L320.179191,126.210983"></path><path d="M337.50289,117.783237 L320.179191,126.210983 L342.653179,170.690751 L337.50289,117.783237"></path><path d="M328.606936,171.15896 L332.352601,216.575145 L345.462428,208.615607 L328.606936,171.15896"></path><path d="M345.462428,208.615607 L369.34104,232.026012 L388.069364,220.789017 L345.462428,208.615607"></path><path d="M337.50289,117.783237 L342.653179,170.690751 L353.890173,113.569364 L337.50289,117.783237"></path><path d="M386.196532,96.2456647 L408.202312,111.696532 L408.67052,96.2456647 L386.196532,96.2456647"></path><path d="M345.462428,208.615607 L348.271676,237.176301 L369.34104,232.026012 L345.462428,208.615607"></path><path d="M422.248555,62.5346821 L413.820809,83.1358382 L433.953757,96.2456647 L422.248555,62.5346821"></path><path d="M401.179191,83.6040462 L408.67052,96.2456647 L413.820809,83.1358382 L401.179191,83.6040462"></path><path d="M403.052023,213.297688 L421.312139,208.615607 L422.716763,163.199422 L403.052023,213.297688"></path><path d="M342.653179,170.690751 L345.462428,208.615607 L388.069364,220.789017 L342.653179,170.690751"></path><path d="M369.34104,232.026012 L370.277457,239.985549 L389.942197,240.453757 L369.34104,232.026012"></path><path d="M401.179191,83.6040462 L386.196532,96.2456647 L408.67052,96.2456647 L401.179191,83.6040462"></path><path d="M416.16185,286.806358 L413.352601,294.765896 L419.439306,303.66185 L416.16185,286.806358"></path><path d="M405.393064,125.742775 L342.653179,170.690751 L411.947977,146.343931 L405.393064,125.742775"></path><path d="M403.052023,213.297688 L388.069364,220.789017 L406.797688,239.049133 L403.052023,213.297688"></path><path d="M342.653179,170.690751 L388.069364,220.789017 L403.052023,213.297688 L342.653179,170.690751"></path><path d="M388.069364,220.789017 L389.942197,240.453757 L406.797688,239.049133 L388.069364,220.789017"></path><path d="M353.890173,113.569364 L342.653179,170.690751 L405.393064,125.742775 L353.890173,113.569364"></path><path d="M369.809249,107.950867 L353.890173,113.569364 L405.393064,125.742775 L369.809249,107.950867"></path><path d="M386.196532,96.2456647 L369.809249,107.950867 L405.393064,125.742775 L386.196532,96.2456647"></path><path d="M470.00578,235.771676 L447.063584,250.286127 L470.473988,249.817919 L470.00578,235.771676"></path><path d="M386.196532,96.2456647 L405.393064,125.742775 L408.202312,111.696532 L386.196532,96.2456647"></path><path d="M401.179191,83.6040462 L413.820809,83.1358382 L422.248555,62.5346821 L401.179191,83.6040462"></path><path d="M421.312139,208.615607 L403.052023,213.297688 L423.184971,237.644509 L421.312139,208.615607"></path><path d="M403.052023,213.297688 L406.797688,239.049133 L423.184971,237.644509 L403.052023,213.297688"></path><path d="M342.653179,170.690751 L403.052023,213.297688 L422.716763,163.199422 L342.653179,170.690751"></path><path d="M411.947977,146.343931 L342.653179,170.690751 L422.716763,163.199422 L411.947977,146.343931"></path><path d="M408.202312,111.696532 L405.393064,125.742775 L425.526012,122.465318 L408.202312,111.696532"></path><path d="M408.202312,111.696532 L425.526012,122.465318 L426.930636,114.973988 L408.202312,111.696532"></path><path d="M408.67052,96.2456647 L408.202312,111.696532 L426.930636,114.973988 L408.67052,96.2456647"></path><path d="M408.67052,96.2456647 L426.930636,114.973988 L433.953757,96.2456647 L408.67052,96.2456647"></path><path d="M416.16185,286.806358 L419.439306,303.66185 L425.526012,277.442197 L416.16185,286.806358"></path><path d="M413.820809,83.1358382 L408.67052,96.2456647 L433.953757,96.2456647 L413.820809,83.1358382"></path><path d="M426.930636,130.424855 L411.947977,146.343931 L434.890173,132.765896 L426.930636,130.424855"></path><path d="M405.393064,125.742775 L411.947977,146.343931 L426.930636,130.424855 L405.393064,125.742775"></path><path d="M425.526012,122.465318 L405.393064,125.742775 L426.930636,130.424855 L425.526012,122.465318"></path><path d="M447.063584,250.286127 L448.468208,267.609827 L470.473988,249.817919 L447.063584,250.286127"></path><path d="M411.947977,146.343931 L422.716763,163.199422 L434.890173,132.765896 L411.947977,146.343931"></path><path d="M512.809364,381.384393 L501.375723,395.430636 L514.485549,390.280347 L512.809364,381.384393"></path><path d="M441.913295,129.020231 L434.890173,132.765896 L453.150289,166.008671 L441.913295,129.020231"></path><path d="M426.930636,114.973988 L425.526012,122.465318 L435.358382,113.101156 L426.930636,114.973988"></path><path d="M421.312139,208.615607 L423.184971,237.644509 L434.421965,212.82948 L421.312139,208.615607"></path><path d="M425.526012,122.465318 L426.930636,130.424855 L434.890173,132.765896 L425.526012,122.465318"></path><path d="M434.421965,212.82948 L440.976879,236.708092 L448.936416,208.147399 L434.421965,212.82948"></path><path d="M422.716763,163.199422 L421.312139,208.615607 L439.104046,168.817919 L422.716763,163.199422"></path><path d="M469.537572,30.6965318 L450.34104,35.3786127 L470.473988,57.3843931 L469.537572,30.6965318"></path><path d="M433.953757,96.2456647 L426.930636,114.973988 L435.358382,113.101156 L433.953757,96.2456647"></path><path d="M434.890173,132.765896 L422.716763,163.199422 L439.104046,168.817919 L434.890173,132.765896"></path><path d="M441.445087,118.251445 L434.890173,132.765896 L441.913295,129.020231 L441.445087,118.251445"></path><path d="M434.421965,212.82948 L423.184971,237.644509 L440.976879,236.708092 L434.421965,212.82948"></path><path d="M425.526012,122.465318 L434.890173,132.765896 L441.445087,118.251445 L425.526012,122.465318"></path><path d="M435.358382,113.101156 L425.526012,122.465318 L441.445087,118.251445 L435.358382,113.101156"></path><path d="M448.468208,291.488439 L432.080925,309.748555 L454.554913,304.130058 L448.468208,291.488439"></path><path d="M425.526012,277.442197 L448.468208,291.488439 L451.745665,287.742775 L425.526012,277.442197"></path><path d="M435.358382,113.101156 L441.445087,118.251445 L452.213873,106.546243 L435.358382,113.101156"></path><path d="M434.890173,132.765896 L439.104046,168.817919 L453.150289,166.008671 L434.890173,132.765896"></path><path d="M450.34104,35.3786127 L461.109827,63.4710983 L470.473988,57.3843931 L450.34104,35.3786127"></path><path d="M501.843931,74.2398844 L506.99422,79.3901734 L511.676301,72.8352601 L501.843931,74.2398844"></path><path d="M447.063584,250.286127 L434.890173,265.736994 L448.468208,267.609827 L447.063584,250.286127"></path><path d="M419.439306,303.66185 L432.080925,309.748555 L448.468208,291.488439 L419.439306,303.66185"></path><path d="M425.526012,277.442197 L419.439306,303.66185 L448.468208,291.488439 L425.526012,277.442197"></path><path d="M448.468208,267.609827 L434.890173,265.736994 L451.745665,287.742775 L448.468208,267.609827"></path><path d="M456.427746,377.638728 L456.895954,384.66185 L461.109827,382.320809 L456.427746,377.638728"></path><path d="M434.890173,265.736994 L425.526012,277.442197 L451.745665,287.742775 L434.890173,265.736994"></path><path d="M432.080925,309.748555 L448,315.83526 L454.554913,304.130058 L432.080925,309.748555"></path><path d="M451.745665,292.424855 L448.468208,291.488439 L454.554913,304.130058 L451.745665,292.424855"></path><path d="M433.953757,96.2456647 L435.358382,113.101156 L452.213873,106.546243 L433.953757,96.2456647"></path><path d="M500.439306,236.708092 L508.867052,227.343931 L509.33526,219.852601 L500.439306,236.708092"></path><path d="M421.312139,208.615607 L434.421965,212.82948 L455.023121,196.910405 L421.312139,208.615607"></path><path d="M439.104046,168.817919 L421.312139,208.615607 L455.023121,196.910405 L439.104046,168.817919"></path><path d="M439.104046,168.817919 L455.023121,196.910405 L459.236994,183.33237 L439.104046,168.817919"></path><path d="M434.421965,212.82948 L448.936416,208.147399 L455.023121,196.910405 L434.421965,212.82948"></path><path d="M453.150289,166.008671 L439.104046,168.817919 L459.236994,183.33237 L453.150289,166.008671"></path><path d="M454.554913,304.130058 L448,315.83526 L456.427746,318.176301 L454.554913,304.130058"></path><path d="M480.774566,306.939306 L456.427746,318.176301 L483.115607,322.390173 L480.774566,306.939306"></path><path d="M496.693642,372.488439 L484.052023,388.875723 L497.630058,388.407514 L496.693642,372.488439"></path><path d="M450.34104,35.3786127 L433.017341,43.8063584 L461.109827,63.4710983 L450.34104,35.3786127"></path><path d="M459.236994,333.15896 L481.710983,336.436416 L483.115607,322.390173 L459.236994,333.15896"></path><path d="M422.248555,62.5346821 L461.109827,79.8583815 L461.109827,63.4710983 L422.248555,62.5346821"></path><path d="M422.248555,62.5346821 L433.953757,96.2456647 L461.109827,79.8583815 L422.248555,62.5346821"></path><path d="M433.017341,43.8063584 L422.248555,62.5346821 L461.109827,63.4710983 L433.017341,43.8063584"></path><path d="M433.953757,96.2456647 L452.213873,106.546243 L461.109827,79.8583815 L433.953757,96.2456647"></path><path d="M455.023121,196.910405 L448.936416,208.147399 L468.601156,199.719653 L455.023121,196.910405"></path><path d="M493.884393,57.8526012 L501.375723,58.7890173 L501.843931,48.0202312 L493.884393,57.8526012"></path><path d="M470.473988,249.817919 L448.468208,267.609827 L476.092486,265.736994 L470.473988,249.817919"></path><path d="M462.514451,367.806358 L456.427746,377.638728 L469.537572,376.702312 L462.514451,367.806358"></path><path d="M448.936416,208.147399 L440.976879,236.708092 L470.00578,235.771676 L448.936416,208.147399"></path><path d="M456.427746,377.638728 L461.109827,382.320809 L469.537572,376.702312 L456.427746,377.638728"></path><path d="M482.179191,237.176301 L470.473988,249.817919 L485.456647,254.5 L482.179191,237.176301"></path><path d="M459.236994,183.33237 L455.023121,196.910405 L468.601156,199.719653 L459.236994,183.33237"></path><path d="M486.861272,77.517341 L481.710983,80.3265896 L488.265896,85.0086705 L486.861272,77.517341"></path><path d="M470.473988,57.3843931 L461.109827,63.4710983 L478.901734,70.0260116 L470.473988,57.3843931"></path><path d="M471.410405,126.679191 L441.913295,129.020231 L472.346821,155.708092 L471.410405,126.679191"></path><path d="M476.560694,280.251445 L451.745665,287.742775 L478.433526,296.17052 L476.560694,280.251445"></path><path d="M441.913295,129.020231 L453.150289,166.008671 L472.346821,155.708092 L441.913295,129.020231"></path><path d="M440.976879,236.708092 L447.063584,250.286127 L470.00578,235.771676 L440.976879,236.708092"></path><path d="M468.601156,199.719653 L448.936416,208.147399 L471.878613,214.234104 L468.601156,199.719653"></path><path d="M448.936416,208.147399 L470.00578,235.771676 L471.878613,214.234104 L448.936416,208.147399"></path><path d="M478.433526,296.17052 L454.554913,304.130058 L480.774566,306.939306 L478.433526,296.17052"></path><path d="M441.445087,118.251445 L441.913295,129.020231 L471.410405,126.679191 L441.445087,118.251445"></path><path d="M452.213873,106.546243 L441.445087,118.251445 L471.410405,126.679191 L452.213873,106.546243"></path><path d="M459.236994,333.15896 L462.046243,346.268786 L481.710983,336.436416 L459.236994,333.15896"></path><path d="M461.109827,63.4710983 L461.109827,79.8583815 L478.901734,70.0260116 L461.109827,63.4710983"></path><path d="M499.50289,328.008671 L502.780347,336.904624 L504.653179,327.540462 L499.50289,328.008671"></path><path d="M454.554913,304.130058 L456.427746,318.176301 L480.774566,306.939306 L454.554913,304.130058"></path><path d="M481.710983,336.436416 L462.046243,346.268786 L482.179191,347.205202 L481.710983,336.436416"></path><path d="M470.473988,249.817919 L476.092486,265.736994 L485.456647,254.5 L470.473988,249.817919"></path><path d="M476.092486,265.736994 L448.468208,267.609827 L476.560694,280.251445 L476.092486,265.736994"></path><path d="M448.468208,267.609827 L451.745665,287.742775 L476.560694,280.251445 L448.468208,267.609827"></path><path d="M462.046243,346.268786 L463.919075,357.973988 L482.179191,347.205202 L462.046243,346.268786"></path><path d="M482.179191,237.176301 L485.456647,254.5 L492.947977,243.731214 L482.179191,237.176301"></path><path d="M451.745665,287.742775 L451.745665,292.424855 L478.433526,296.17052 L451.745665,287.742775"></path><path d="M451.745665,292.424855 L454.554913,304.130058 L478.433526,296.17052 L451.745665,292.424855"></path><path d="M482.179191,237.176301 L492.947977,243.731214 L500.439306,236.708092 L482.179191,237.176301"></path><path d="M470.473988,57.3843931 L484.520231,61.5982659 L485.456647,49.8930636 L470.473988,57.3843931"></path><path d="M484.052023,388.875723 L490.138728,394.026012 L497.630058,388.407514 L484.052023,388.875723"></path><path d="M478.901734,70.0260116 L461.109827,79.8583815 L481.710983,80.3265896 L478.901734,70.0260116"></path><path d="M461.109827,79.8583815 L452.213873,106.546243 L481.710983,80.3265896 L461.109827,79.8583815"></path><path d="M483.583815,71.8988439 L486.861272,77.517341 L490.138728,70.4942197 L483.583815,71.8988439"></path><path d="M456.427746,318.176301 L459.236994,333.15896 L483.115607,322.390173 L456.427746,318.176301"></path><path d="M471.878613,214.234104 L482.179191,237.176301 L484.520231,202.528902 L471.878613,214.234104"></path><path d="M471.878613,214.234104 L470.00578,235.771676 L482.179191,237.176301 L471.878613,214.234104"></path><path d="M470.00578,235.771676 L470.473988,249.817919 L482.179191,237.176301 L470.00578,235.771676"></path><path d="M470.473988,57.3843931 L478.901734,70.0260116 L484.520231,61.5982659 L470.473988,57.3843931"></path><path d="M478.901734,70.0260116 L481.710983,80.3265896 L483.583815,71.8988439 L478.901734,70.0260116"></path><path d="M485.456647,68.1531792 L483.583815,71.8988439 L490.138728,70.4942197 L485.456647,68.1531792"></path><path d="M462.514451,367.806358 L469.537572,376.702312 L484.052023,356.569364 L462.514451,367.806358"></path><path d="M468.601156,199.719653 L471.878613,214.234104 L484.520231,202.528902 L468.601156,199.719653"></path><path d="M469.537572,30.6965318 L470.473988,57.3843931 L485.456647,49.8930636 L469.537572,30.6965318"></path><path d="M482.179191,347.205202 L463.919075,357.973988 L484.052023,356.569364 L482.179191,347.205202"></path><path d="M463.919075,357.973988 L462.514451,367.806358 L484.052023,356.569364 L463.919075,357.973988"></path><path d="M484.052023,356.569364 L469.537572,376.702312 L490.138728,364.99711 L484.052023,356.569364"></path><path d="M469.537572,376.702312 L476.092486,382.789017 L490.138728,364.99711 L469.537572,376.702312"></path><path d="M484.520231,61.5982659 L493.416185,68.6213873 L493.884393,57.8526012 L484.520231,61.5982659"></path><path d="M491.075145,310.216763 L483.115607,322.390173 L491.543353,323.32659 L491.075145,310.216763"></path><path d="M499.034682,309.280347 L491.075145,310.216763 L499.034682,312.089595 L499.034682,309.280347"></path><path d="M482.179191,24.6098266 L469.537572,30.6965318 L485.456647,49.8930636 L482.179191,24.6098266"></path><path d="M484.520231,61.5982659 L478.901734,70.0260116 L485.456647,68.1531792 L484.520231,61.5982659"></path><path d="M478.901734,70.0260116 L483.583815,71.8988439 L485.456647,68.1531792 L478.901734,70.0260116"></path><path d="M483.583815,71.8988439 L481.710983,80.3265896 L486.861272,77.517341 L483.583815,71.8988439"></path><path d="M481.710983,80.3265896 L452.213873,106.546243 L488.265896,85.0086705 L481.710983,80.3265896"></path><path d="M452.213873,106.546243 L471.410405,126.679191 L488.265896,85.0086705 L452.213873,106.546243"></path><path d="M485.456647,49.8930636 L484.520231,61.5982659 L493.884393,57.8526012 L485.456647,49.8930636"></path><path d="M490.138728,70.4942197 L486.861272,77.517341 L492.947977,80.3265896 L490.138728,70.4942197"></path><path d="M491.543353,323.32659 L497.630058,323.794798 L499.034682,312.089595 L491.543353,323.32659"></path><path d="M497.16185,28.3554913 L482.179191,24.6098266 L499.50289,34.9104046 L497.16185,28.3554913"></path><path d="M485.456647,68.1531792 L490.138728,70.4942197 L493.416185,68.6213873 L485.456647,68.1531792"></path><path d="M480.774566,306.939306 L483.115607,322.390173 L491.075145,310.216763 L480.774566,306.939306"></path><path d="M484.520231,61.5982659 L485.456647,68.1531792 L493.416185,68.6213873 L484.520231,61.5982659"></path><path d="M501.375723,395.430636 L509.803468,404.794798 L514.485549,390.280347 L501.375723,395.430636"></path><path d="M480.774566,306.939306 L491.075145,310.216763 L493.884393,299.916185 L480.774566,306.939306"></path><path d="M505.589595,210.488439 L500.439306,236.708092 L509.33526,219.852601 L505.589595,210.488439"></path><path d="M519.635838,408.072254 L523.381503,416.5 L525.254335,407.135838 L519.635838,408.072254"></path><path d="M482.179191,24.6098266 L485.456647,49.8930636 L499.50289,34.9104046 L482.179191,24.6098266"></path><path d="M486.861272,77.517341 L488.265896,85.0086705 L492.947977,80.3265896 L486.861272,77.517341"></path><path d="M478.433526,296.17052 L480.774566,306.939306 L493.884393,299.916185 L478.433526,296.17052"></path><path d="M494.352601,119.656069 L471.410405,126.679191 L495.757225,141.66185 L494.352601,119.656069"></path><path d="M471.410405,126.679191 L472.346821,155.708092 L495.757225,141.66185 L471.410405,126.679191"></path><path d="M490.138728,364.99711 L476.092486,382.789017 L496.693642,372.488439 L490.138728,364.99711"></path><path d="M503.248555,318.176301 L497.630058,323.794798 L504.653179,327.540462 L503.248555,318.176301"></path><path d="M492.479769,15.7138728 L482.179191,24.6098266 L497.16185,28.3554913 L492.479769,15.7138728"></path><path d="M488.265896,85.0086705 L471.410405,126.679191 L494.352601,119.656069 L488.265896,85.0086705"></path><path d="M495.757225,396.83526 L500.439306,400.580925 L501.375723,395.430636 L495.757225,396.83526"></path><path d="M497.630058,323.794798 L491.543353,323.32659 L499.50289,328.008671 L497.630058,323.794798"></path><path d="M490.138728,70.4942197 L492.947977,80.3265896 L496.693642,71.4306358 L490.138728,70.4942197"></path><path d="M493.416185,68.6213873 L490.138728,70.4942197 L496.693642,71.4306358 L493.416185,68.6213873"></path><path d="M491.075145,310.216763 L491.543353,323.32659 L499.034682,312.089595 L491.075145,310.216763"></path><path d="M476.092486,382.789017 L484.052023,388.875723 L496.693642,372.488439 L476.092486,382.789017"></path><path d="M499.50289,84.0722543 L488.265896,85.0086705 L499.971098,97.1820809 L499.50289,84.0722543"></path><path d="M493.884393,299.916185 L491.075145,310.216763 L499.034682,309.280347 L493.884393,299.916185"></path><path d="M497.630058,388.407514 L501.375723,395.430636 L505.121387,380.447977 L497.630058,388.407514"></path><path d="M488.265896,85.0086705 L494.352601,119.656069 L499.971098,97.1820809 L488.265896,85.0086705"></path><path d="M490.138728,394.026012 L495.757225,396.83526 L497.630058,388.407514 L490.138728,394.026012"></path><path d="M513.080925,39.5924855 L501.843931,48.0202312 L516.358382,51.2976879 L513.080925,39.5924855"></path><path d="M506.057803,65.8121387 L501.375723,69.5578035 L511.676301,72.8352601 L506.057803,65.8121387"></path><path d="M497.630058,323.794798 L499.50289,328.008671 L504.653179,327.540462 L497.630058,323.794798"></path><path d="M499.50289,34.9104046 L485.456647,49.8930636 L501.843931,48.0202312 L499.50289,34.9104046"></path><path d="M485.456647,49.8930636 L493.884393,57.8526012 L501.843931,48.0202312 L485.456647,49.8930636"></path><path d="M497.16185,28.3554913 L499.50289,34.9104046 L504.653179,26.482659 L497.16185,28.3554913"></path><path d="M496.693642,372.488439 L497.630058,388.407514 L505.121387,380.447977 L496.693642,372.488439"></path><path d="M492.947977,80.3265896 L499.50289,84.0722543 L499.50289,78.4537572 L492.947977,80.3265896"></path><path d="M492.947977,80.3265896 L488.265896,85.0086705 L499.50289,84.0722543 L492.947977,80.3265896"></path><path d="M496.693642,71.4306358 L492.947977,80.3265896 L499.50289,78.4537572 L496.693642,71.4306358"></path><path d="M501.843931,48.0202312 L509.803468,57.8526012 L516.358382,51.2976879 L501.843931,48.0202312"></path><path d="M497.630058,388.407514 L495.757225,396.83526 L501.375723,395.430636 L497.630058,388.407514"></path><path d="M529,292.893064 L521.040462,290.552023 L531.809249,298.511561 L529,292.893064"></path><path d="M501.375723,69.5578035 L501.843931,74.2398844 L511.676301,72.8352601 L501.375723,69.5578035"></path><path d="M495.757225,396.83526 L497.630058,408.072254 L500.439306,400.580925 L495.757225,396.83526"></path><path d="M493.884393,57.8526012 L493.416185,68.6213873 L501.375723,58.7890173 L493.884393,57.8526012"></path><path d="M521.040462,57.8526012 L511.676301,72.8352601 L528.531792,81.2630058 L521.040462,57.8526012"></path><path d="M501.375723,69.5578035 L496.693642,71.4306358 L501.843931,74.2398844 L501.375723,69.5578035"></path><path d="M504.653179,26.482659 L513.080925,39.5924855 L518.699422,28.3554913 L504.653179,26.482659"></path><path d="M496.693642,71.4306358 L499.50289,78.4537572 L501.843931,74.2398844 L496.693642,71.4306358"></path><path d="M501.375723,58.7890173 L493.416185,68.6213873 L501.375723,69.5578035 L501.375723,58.7890173"></path><path d="M493.416185,68.6213873 L496.693642,71.4306358 L501.375723,69.5578035 L493.416185,68.6213873"></path><path d="M500.439306,204.869942 L484.520231,202.528902 L505.589595,210.488439 L500.439306,204.869942"></path><path d="M492.479769,15.7138728 L504.653179,26.482659 L506.526012,11.5 L492.479769,15.7138728"></path><path d="M499.034682,312.089595 L497.630058,323.794798 L503.248555,318.176301 L499.034682,312.089595"></path><path d="M484.520231,202.528902 L482.179191,237.176301 L505.589595,210.488439 L484.520231,202.528902"></path><path d="M492.479769,15.7138728 L497.16185,28.3554913 L504.653179,26.482659 L492.479769,15.7138728"></path><path d="M501.375723,58.7890173 L506.057803,65.8121387 L509.803468,57.8526012 L501.375723,58.7890173"></path><path d="M521.040462,290.552023 L512.144509,297.106936 L527.595376,308.812139 L521.040462,290.552023"></path><path d="M482.179191,237.176301 L500.439306,236.708092 L505.589595,210.488439 L482.179191,237.176301"></path><path d="M501.375723,395.430636 L500.439306,400.580925 L509.803468,404.794798 L501.375723,395.430636"></path><path d="M499.034682,309.280347 L499.034682,312.089595 L506.99422,310.684971 L499.034682,309.280347"></path><path d="M501.375723,58.7890173 L501.375723,69.5578035 L506.057803,65.8121387 L501.375723,58.7890173"></path><path d="M505.121387,380.447977 L501.375723,395.430636 L512.809364,381.384393 L505.121387,380.447977"></path><path d="M501.843931,48.0202312 L501.375723,58.7890173 L509.803468,57.8526012 L501.843931,48.0202312"></path><path d="M516.358382,51.2976879 L509.803468,57.8526012 L521.040462,57.8526012 L516.358382,51.2976879"></path><path d="M509.803468,57.8526012 L511.676301,72.8352601 L521.040462,57.8526012 L509.803468,57.8526012"></path><path d="M499.50289,78.4537572 L499.50289,84.0722543 L506.99422,79.3901734 L499.50289,78.4537572"></path><path d="M501.843931,74.2398844 L499.50289,78.4537572 L506.99422,79.3901734 L501.843931,74.2398844"></path><path d="M494.352601,119.656069 L495.757225,141.66185 L511.676301,127.147399 L494.352601,119.656069"></path><path d="M511.676301,72.8352601 L506.99422,79.3901734 L514.017341,89.2225434 L511.676301,72.8352601"></path><path d="M512.809364,381.384393 L514.485549,390.280347 L519.16763,381.384393 L512.809364,381.384393"></path><path d="M512.144509,297.106936 L515.890173,309.280347 L527.595376,308.812139 L512.144509,297.106936"></path><path d="M499.034682,309.280347 L506.99422,310.684971 L512.144509,297.106936 L499.034682,309.280347"></path><path d="M509.803468,57.8526012 L506.057803,65.8121387 L511.676301,72.8352601 L509.803468,57.8526012"></path><path d="M493.884393,299.916185 L499.034682,309.280347 L512.144509,297.106936 L493.884393,299.916185"></path><path d="M506.526012,11.5 L518.699422,28.3554913 L522.913295,13.3728324 L506.526012,11.5"></path><path d="M519.635838,408.072254 L525.254335,407.135838 L526.190751,401.985549 L519.635838,408.072254"></path><path d="M506.99422,79.3901734 L499.50289,84.0722543 L514.017341,89.2225434 L506.99422,79.3901734"></path><path d="M499.50289,84.0722543 L499.971098,97.1820809 L514.017341,89.2225434 L499.50289,84.0722543"></path><path d="M494.352601,119.656069 L511.676301,127.147399 L516.82659,111.228324 L494.352601,119.656069"></path><path d="M499.50289,34.9104046 L501.843931,48.0202312 L513.080925,39.5924855 L499.50289,34.9104046"></path><path d="M504.653179,26.482659 L499.50289,34.9104046 L513.080925,39.5924855 L504.653179,26.482659"></path><path d="M571.138728,55.5115607 L563.647399,62.066474 L575.820809,70.9624277 L571.138728,55.5115607"></path><path d="M511.676301,72.8352601 L514.017341,89.2225434 L528.531792,81.2630058 L511.676301,72.8352601"></path><path d="M518.699422,28.3554913 L513.080925,39.5924855 L522.913295,36.783237 L518.699422,28.3554913"></path><path d="M512.144509,297.106936 L506.99422,310.684971 L515.890173,309.280347 L512.144509,297.106936"></path><path d="M506.526012,11.5 L504.653179,26.482659 L518.699422,28.3554913 L506.526012,11.5"></path><path d="M514.017341,89.2225434 L499.971098,97.1820809 L516.82659,111.228324 L514.017341,89.2225434"></path><path d="M499.971098,97.1820809 L494.352601,119.656069 L516.82659,111.228324 L499.971098,97.1820809"></path><path d="M509.803468,404.794798 L519.635838,408.072254 L523.381503,395.898844 L509.803468,404.794798"></path><path d="M522.913295,36.783237 L539.300578,48.9566474 L545.855491,35.3786127 L522.913295,36.783237"></path><path d="M516.82659,111.228324 L511.676301,127.147399 L529.468208,111.228324 L516.82659,111.228324"></path><path d="M514.485549,390.280347 L509.803468,404.794798 L523.381503,395.898844 L514.485549,390.280347"></path><path d="M521.040462,290.552023 L527.595376,308.812139 L531.809249,298.511561 L521.040462,290.552023"></path><path d="M523.381503,395.898844 L519.635838,408.072254 L526.190751,401.985549 L523.381503,395.898844"></path><path d="M514.485549,390.280347 L523.381503,395.898844 L525.254335,384.66185 L514.485549,390.280347"></path><path d="M519.16763,381.384393 L514.485549,390.280347 L525.254335,384.66185 L519.16763,381.384393"></path><path d="M536.023121,25.5462428 L522.913295,36.783237 L545.855491,35.3786127 L536.023121,25.5462428"></path><path d="M542.109827,312.089595 L544.919075,319.112717 L544.919075,309.280347 L542.109827,312.089595"></path><path d="M513.080925,39.5924855 L516.358382,51.2976879 L522.913295,36.783237 L513.080925,39.5924855"></path><path d="M523.381503,395.898844 L530.404624,398.708092 L532.277457,388.875723 L523.381503,395.898844"></path><path d="M534.150289,399.644509 L537.427746,399.176301 L537.895954,394.026012 L534.150289,399.644509"></path><path d="M530.404624,398.708092 L534.150289,399.644509 L537.895954,394.026012 L530.404624,398.708092"></path><path d="M532.277457,388.875723 L530.404624,398.708092 L537.895954,394.026012 L532.277457,388.875723"></path><path d="M525.254335,384.66185 L523.381503,395.898844 L532.277457,388.875723 L525.254335,384.66185"></path><path d="M534.150289,399.644509 L536.023121,407.604046 L537.427746,399.176301 L534.150289,399.644509"></path><path d="M563.647399,62.066474 L566.924855,82.199422 L575.820809,70.9624277 L563.647399,62.066474"></path><path d="M539.300578,48.9566474 L550.537572,60.6618497 L551.00578,56.916185 L539.300578,48.9566474"></path><path d="M539.300578,48.9566474 L521.040462,57.8526012 L544.450867,70.9624277 L539.300578,48.9566474"></path><path d="M521.040462,57.8526012 L528.531792,81.2630058 L544.450867,70.9624277 L521.040462,57.8526012"></path><path d="M531.809249,298.511561 L527.595376,308.812139 L538.364162,309.748555 L531.809249,298.511561"></path><path d="M528.531792,81.2630058 L514.017341,89.2225434 L536.023121,99.9913295 L528.531792,81.2630058"></path><path d="M514.017341,89.2225434 L516.82659,111.228324 L536.023121,99.9913295 L514.017341,89.2225434"></path><path d="M516.82659,111.228324 L529.468208,111.228324 L536.023121,99.9913295 L516.82659,111.228324"></path><path d="M522.913295,13.3728324 L518.699422,28.3554913 L536.023121,25.5462428 L522.913295,13.3728324"></path><path d="M518.699422,28.3554913 L522.913295,36.783237 L536.023121,25.5462428 L518.699422,28.3554913"></path><path d="M544.450867,70.9624277 L551.942197,95.3092486 L566.924855,82.199422 L544.450867,70.9624277"></path><path d="M531.809249,298.511561 L538.364162,309.748555 L542.109827,305.066474 L531.809249,298.511561"></path><path d="M522.913295,36.783237 L516.358382,51.2976879 L539.300578,48.9566474 L522.913295,36.783237"></path><path d="M516.358382,51.2976879 L521.040462,57.8526012 L539.300578,48.9566474 L516.358382,51.2976879"></path><path d="M565.052023,48.4884393 L563.647399,62.066474 L571.138728,55.5115607 L565.052023,48.4884393"></path><path d="M538.364162,309.748555 L527.595376,308.812139 L544.919075,319.112717 L538.364162,309.748555"></path><path d="M542.109827,312.089595 L538.364162,309.748555 L544.919075,319.112717 L542.109827,312.089595"></path><path d="M539.300578,48.9566474 L544.450867,70.9624277 L550.537572,60.6618497 L539.300578,48.9566474"></path><path d="M542.109827,305.066474 L538.364162,309.748555 L544.919075,309.280347 L542.109827,305.066474"></path><path d="M538.364162,309.748555 L542.109827,312.089595 L544.919075,309.280347 L538.364162,309.748555"></path><path d="M536.023121,99.9913295 L529.468208,111.228324 L551.942197,95.3092486 L536.023121,99.9913295"></path><path d="M563.647399,62.066474 L554.283237,62.5346821 L566.924855,82.199422 L563.647399,62.066474"></path><path d="M554.283237,62.5346821 L544.450867,70.9624277 L566.924855,82.199422 L554.283237,62.5346821"></path><path d="M528.531792,81.2630058 L536.023121,99.9913295 L551.942197,95.3092486 L528.531792,81.2630058"></path><path d="M544.450867,70.9624277 L528.531792,81.2630058 L551.942197,95.3092486 L544.450867,70.9624277"></path><path d="M553.815029,59.2572254 L563.647399,62.066474 L565.052023,48.4884393 L553.815029,59.2572254"></path><path d="M539.300578,48.9566474 L551.00578,56.916185 L554.283237,41.4653179 L539.300578,48.9566474"></path><path d="M553.815029,59.2572254 L550.537572,60.6618497 L554.283237,62.5346821 L553.815029,59.2572254"></path><path d="M551.00578,56.916185 L550.537572,60.6618497 L553.815029,59.2572254 L551.00578,56.916185"></path><path d="M550.537572,60.6618497 L544.450867,70.9624277 L554.283237,62.5346821 L550.537572,60.6618497"></path><path d="M545.855491,35.3786127 L539.300578,48.9566474 L554.283237,41.4653179 L545.855491,35.3786127"></path><path d="M554.283237,41.4653179 L551.00578,56.916185 L565.052023,48.4884393 L554.283237,41.4653179"></path><path d="M551.00578,56.916185 L553.815029,59.2572254 L565.052023,48.4884393 L551.00578,56.916185"></path><path d="M553.815029,59.2572254 L554.283237,62.5346821 L563.647399,62.066474 L553.815029,59.2572254"></path></g></svg>
